<svg><defs><svg id="arrow-down" viewBox="0 0 32 32" width="32" height="32"><path d="M2 10.283q0-.357.281-.633l1.403-1.374Q3.965 8 4.33 8q.364 0 .645.276L16 19.079 27.025 8.276Q27.305 8 27.67 8t.646.276l1.403 1.374q.281.276.281.633t-.281.633L16.647 23.724q-.281.276-.645.276-.365 0-.646-.276L2.284 10.916q-.28-.276-.28-.633z"/></svg><svg id="arrow-left" viewBox="0 0 32 32" width="32" height="32"><path d="M21.717 2q.357 0 .633.281l1.374 1.403q.276.281.276.646 0 .364-.276.645L12.921 16l10.803 11.025q.276.28.276.645t-.276.646l-1.374 1.403q-.276.281-.633.281t-.633-.281L8.276 16.647Q8 16.366 8 16.002q0-.365.276-.646L21.084 2.284q.276-.28.633-.28z"/></svg><svg id="arrow-right" viewBox="0 0 32 32" width="32" height="32"><path d="M10.283 30q-.357 0-.633-.281l-1.374-1.403Q8 28.035 8 27.67q0-.364.276-.645L19.079 16 8.276 4.975Q8 4.695 8 4.33t.276-.646L9.65 2.281Q9.926 2 10.283 2t.633.281l12.808 13.072q.276.281.276.645 0 .365-.276.646L10.916 29.716q-.276.28-.633.28z"/></svg><svg id="arrow-up" viewBox="0 0 32 32" width="32" height="32"><path d="M2.003 21.717q0-.357.281-.633L15.356 8.276Q15.637 8 16.002 8q.364 0 .645.276L29.72 21.084q.281.276.281.633t-.281.633l-1.403 1.374q-.281.276-.646.276-.364 0-.645-.276L16 12.921 4.975 23.724Q4.695 24 4.33 24t-.646-.276L2.281 22.35Q2 22.074 2 21.717z"/></svg><svg id="attribute-table" viewBox="0 0 32 32" width="32" height="32"><path d="M5.563 2c-1.53 0-2.852.567-3.938 1.688C.539 4.808 0 6.14 0 7.718v16.563c0 1.578.539 2.911 1.625 4.032C2.711 29.433 4.033 30 5.563 30h20.875c1.529 0 2.851-.567 3.937-1.688C31.461 27.192 32 25.86 32 24.282V7.718c0-1.578-.539-2.911-1.625-4.032C29.289 2.567 27.967 2 26.437 2H5.563zm0 2.531h20.875c.848 0 1.583.315 2.187.938a3.12 3.12 0 0 1 .906 2.25V24.28a3.12 3.12 0 0 1-.906 2.25c-.604.623-1.339.938-2.188.938H5.563c-.848 0-1.583-.315-2.187-.938a3.12 3.12 0 0 1-.906-2.25V7.72c0-.876.302-1.627.906-2.25.604-.623 1.339-.938 2.188-.938zM10.78 6a.5.5 0 0 0-.344.5V9H4.25a.5.5 0 0 0-.5.5v.375a.5.5 0 0 0 0 .094.5.5 0 0 0 .5.406h6.188v4.938H4.25a.5.5 0 0 0-.5.5v.374a.5.5 0 0 0 0 .094.5.5 0 0 0 .5.407h6.188v4.968H4.25a.5.5 0 0 0-.5.5v.407a.5.5 0 0 0 0 .093.5.5 0 0 0 .5.407h6.188V25.5a.5.5 0 0 0 .5.5h.374a.5.5 0 0 0 .5-.5v-2.438h8.626V25.5a.5.5 0 0 0 .5.5h.375a.5.5 0 0 0 .5-.5v-2.438h5.937a.5.5 0 0 0 .5-.5v-.406a.5.5 0 0 0-.5-.5h-5.938v-4.968h5.938a.5.5 0 0 0 .5-.5v-.375a.5.5 0 0 0-.5-.5h-5.938v-4.938h5.938a.5.5 0 0 0 .5-.5V9.5a.5.5 0 0 0-.5-.5h-5.938V6.5a.5.5 0 0 0-.5-.5h-.375a.5.5 0 0 0-.093 0 .5.5 0 0 0-.407.5V9h-8.625V6.5a.5.5 0 0 0-.5-.5h-.374a.5.5 0 0 0-.094 0 .5.5 0 0 0-.063 0zm1.031 4.375h8.626v4.938h-8.625v-4.938zm0 6.313h8.626v4.968h-8.625v-4.968z"/></svg><svg id="base-layer" viewBox="0 0 32 32" width="32" height="32"><path d="M4.594 3A.752.752 0 0 0 4 3.734V7.25c0 .414.336.75.75.75h22.5a.75.75 0 0 0 .75-.75v-3.5a.75.75 0 0 0-.75-.75H4.75a.635.635 0 0 0-.159 0zM5.5 4.5h21v2h-21v-2zM1 19.75h30v1.5H1zM4.594 12a.752.752 0 0 0-.594.734v3.516c0 .414.336.75.75.75h22.5a.75.75 0 0 0 .75-.75v-3.5a.75.75 0 0 0-.75-.75H4.75a.635.635 0 0 0-.159 0zm.906 1.5h21v2h-21v-2zM4.75 24h22.5c.416 0 .75.334.75.75v3.5c0 .416-.334.75-.75.75H4.75a.748.748 0 0 1-.75-.75v-3.5c0-.416.335-.75.75-.75z"/></svg><svg id="binocular" viewBox="-0.258 -0.548 32.000001 32" width="32" height="32"><path d="M18.485.452h5.708v4.274h-5.708zm-4.23 5.63h2.96V17.05h-2.96zm-2.237 12.836c.54 0 .978-.455.978-1.023V6.082H4.383L.742 22.19l.017 1.05v6.22c0 .547.427.993.95.993h8.382c.532 0 .958-.446.958-.993V18.918h.898m7.513-.027c-.543 0-.975-.458-.975-1.023V6.064h8.621l3.636 16.107-.02 1.041v6.217c0 .55-.426.996-.95.996h-8.385c-.526 0-.952-.446-.952-.996V18.89h-.904M7.314.452h5.708v4.274H7.314z"/></svg><svg id="check" viewBox="0 0 32 32" width="32" height="32"><path d="M26.25 6.525a.94.94 0 0 0-.688.281L12.126 20.244l-5.656-5.657a.988.988 0 0 0-1.406 0l-1.438 1.407a.988.988 0 0 0 0 1.406l7.781 7.781a.988.988 0 0 0 1.406 0c5.185-5.18 10.375-10.355 15.563-15.531a1.026 1.026 0 0 0 0-1.438l-1.406-1.406a1.01 1.01 0 0 0-.719-.281z"/></svg><svg id="circle-i-outline" viewBox="0 0 32 32" width="32" height="32"><path d="M5.393 5.393c-5.858 5.859-5.858 15.355 0 21.214 5.859 5.858 15.355 5.858 21.214 0 5.858-5.859 5.858-15.355 0-21.214-5.859-5.858-15.355-5.858-21.214 0zm19.225 19.225c-4.76 4.76-12.476 4.76-17.236 0s-4.76-12.476 0-17.236 12.476-4.76 17.236 0 4.76 12.476 0 17.236zM5.768 5.768c-5.65 5.651-5.65 14.813 0 20.464 5.651 5.65 14.813 5.65 20.464 0 5.65-5.651 5.65-14.813 0-20.464-5.651-5.65-14.813-5.65-20.464 0zm18.545 18.545c-4.591 4.592-12.035 4.592-16.626 0-4.592-4.591-4.592-12.035 0-16.626 4.591-4.592 12.035-4.592 16.626 0 4.592 4.591 4.592 12.035 0 16.626z" style="line-height:125%;-inkscape-font-specification:Noto Serif Bold" font-size="22" font-weight="700" letter-spacing="0" word-spacing="0" font-family="Noto Serif"/><path d="M14 12.68h4v11.792h-4zM18 8.783a2 2 0 1 1-4 0 2 2 0 0 1 4 0z"/></svg><svg id="circle-i" viewBox="0 0 32 32" width="32" height="32"><path d="M16 1C7.707 1 1 7.707 1 16s6.707 15 15 15 15-6.707 15-15S24.294 1 16 1zm0 5.781a2 2 0 1 1 0 4 2 2 0 0 1 0-4zm-2 5.907h4v11.78h-4v-11.78z"/></svg><svg id="circle-minus-outline" viewBox="0 0 32 32" width="32" height="32"><path d="M7.382 14.011v3.978h17.236V14.01zM5.393 5.393c-5.858 5.859-5.858 15.355 0 21.214 5.859 5.858 15.355 5.858 21.214 0 5.858-5.859 5.858-15.355 0-21.214-5.859-5.858-15.355-5.858-21.214 0zm19.225 19.225c-4.76 4.76-12.476 4.76-17.236 0s-4.76-12.476 0-17.236 12.476-4.76 17.236 0 4.76 12.476 0 17.236z"/></svg><svg id="circle-minus" viewBox="0 0 32 32" width="32" height="32"><path d="M16 1c8.294 0 15 6.707 15 15s-6.707 15-15 15S1 24.293 1 16 7.707 1 16 1zm7.717 16.515v-3.029H8.284v3.029z"/></svg><svg id="circle-plus-outline" viewBox="0 0 32 32" width="32" height="32"><path d="M14.011 7.382v6.63H7.382v3.977h6.63v6.629h3.977v-6.63h6.629v-3.977h-6.63V7.382zM5.393 5.393c-5.858 5.859-5.858 15.355 0 21.214 5.859 5.858 15.355 5.858 21.214 0 5.858-5.859 5.858-15.355 0-21.214-5.859-5.858-15.355-5.858-21.214 0zm19.225 19.225c-4.76 4.76-12.476 4.76-17.236 0s-4.76-12.476 0-17.236 12.476-4.76 17.236 0 4.76 12.476 0 17.236z"/></svg><svg id="circle-plus" viewBox="0 0 32 32" width="32" height="32"><path d="M16 1c8.294 0 15 6.707 15 15s-6.707 15-15 15S1 24.293 1 16 7.707 1 16 1zm7.717 16.515v-3.029h-6.202V8.284h-3.029v6.202H8.284v3.029h6.202v6.202h3.029v-6.202h6.202z"/></svg><svg id="circle-x-outline" viewBox="0 0 32 32" width="32" height="32"><path d="M20.688 8.5L16 13.188 11.312 8.5 8.5 11.313 13.188 16 8.5 20.688l2.813 2.812L16 18.812l4.688 4.688 2.812-2.813L18.812 16l4.688-4.688zM16 1C7.715 1 1 7.715 1 16s6.715 15 15 15 15-6.715 15-15S24.285 1 16 1zm0 27.188C9.269 28.188 3.812 22.73 3.812 16 3.813 9.269 9.27 3.812 16 3.812c6.731 0 12.188 5.457 12.188 12.188 0 6.731-5.457 12.188-12.188 12.188z"/></svg><svg id="compass" viewBox="0 0 32 32" width="32" height="32"><path d="M5.393 5.393c-5.857 5.858-5.857 15.356 0 21.214 5.858 5.857 15.356 5.857 21.214 0 5.857-5.858 5.857-15.356 0-21.214-5.858-5.857-15.356-5.857-21.214 0zm1.989 19.225c-4.76-4.76-4.76-12.476 0-17.236a12.143 12.143 0 0 1 8.186-3.561L10.697 16l4.87 12.18a12.143 12.143 0 0 1-8.185-3.562zM19.031 16L16 23.579 12.97 16h6.06zm5.587 8.618a12.143 12.143 0 0 1-8.186 3.561L21.303 16l-4.87-12.18a12.143 12.143 0 0 1 8.185 3.562c4.76 4.76 4.76 12.476 0 17.236z"/></svg><svg id="compass2" viewBox="0 0 32 32" width="32" height="32"><path d="M15.53 3.876l-4.847 12.13 4.848 12.13c.46 1.224.546 1.094.938 0l4.848-12.13-4.848-12.13c-.448-1.103-.548-.949-.938 0zm-2.564 12.13h6.068L16 23.605z"/><path style="text-indent:0;text-align:start;line-height:normal;text-transform:none;block-progression:tb;marker:none;-inkscape-font-specification:Sans" d="M15.996.484C7.454.484.49 7.448.49 15.99c0 8.542 6.964 15.506 15.506 15.506 8.543 0 15.507-6.964 15.507-15.506 0-8.543-6.964-15.507-15.507-15.507zm0 3.016a12.46 12.46 0 0 1 12.49 12.49 12.46 12.46 0 0 1-12.49 12.49 12.46 12.46 0 0 1-12.49-12.49A12.46 12.46 0 0 1 15.996 3.5z" font-weight="400" color="#000" overflow="visible" font-family="Sans"/><path d="M69.458 13.627a14 14 0 1 1-28 0 14 14 0 1 1 28 0z" stroke="#000" stroke-width="2.99955456"/></svg><svg id="delete" viewBox="0 0 32 32" width="32" height="32"><path d="M9.375 2.188c-.819 0-1.625.558-1.969 1-.343.44-.475.746-.562.906l-6 10.937a1.75 1.75 0 0 0 0 1.625l6 11.625c.097.188.21.523.562.969.353.446 1.157.969 1.969.969h19.25c1.493 0 2.75-1.257 2.75-2.75V4.937c0-1.493-1.257-2.75-2.75-2.75H9.375zm.594 3.5h17.906v21.03H9.969c-.021-.039-.008-.016-.031-.062l-5.563-10.75L9.938 5.781c.033-.062.002-.042.03-.093zM13.313 8.5L10.5 11.313 15.188 16 10.5 20.688l2.813 2.812L18 18.812l4.688 4.688 2.812-2.813L20.812 16l4.688-4.688L22.687 8.5 18 13.188 13.312 8.5z"/></svg><svg id="download" width="32" height="32"><g transform="translate(0 -1020.362)"><path d="M7.664 1033.755c0-.155.056-.292.162-.402a.517.517 0 0 1 .38-.17c4.66.037 10.916-.021 15.569-.021a.53.53 0 0 1 .389.18.586.586 0 0 1 .004.824l-7.783 8.335a.515.515 0 0 1-.384.179.517.517 0 0 1-.384-.18l-7.783-8.333a.585.585 0 0 1-.168-.412z"/><rect width="5.939" height="12.752" x="13.031" y="1022.304" rx=".9" ry=".9"/><rect width="30" height="5.333" x="1" y="1044.781" rx=".9" ry=".9"/></g></svg><svg id="earth" viewBox="0 0 32 32" width="32" height="32"><path d="M22.764 7.295c.134.268.47.803.201 1.005-.201.134-.67.134-.87-.336-.202-.469 0-.737-.336-.603-.335.134-.47-.201-.402-.268.068-.134.202-.201.336-.268 0-.134-.268-.535.133-.469.268.068.804.67.938.938zm1.272 3.014zm3.951 1.74s-.134 0 0 0zM16 1c8.304 0 15 6.696 15 15s-6.696 15-15 15S1 24.304 1 16 7.696 1 16 1zm-5.558 26.585l.536.268c.202.068.402.134.67.202.937.335 1.875.535 2.88.67 1.875.2 3.75.067 5.558-.536 1.005-.336 2.01-.738 2.88-1.34.402-.268.402-1.071.67-1.607.536-1.071-.134-2.21.804-3.148.803-.937.267-1.273.267-2.277 0-.67.536-1.205.268-1.942-.067-.268-.469.201-.603-.068-.335-.469-1.407-.067-1.875-.133-.87-.134-1.607-.938-2.21-1.541-.336-.336 0-1.34.067-1.741.268-1.005 0-2.21 1.273-2.545.335-.067.335-.603.67-.737.335-.068.67-.201 1.005-.268.603-.067 1.139.134 1.74.134.67 0 .938.335 1.474.737.47.402.871.202 1.473.336.47 0 0-.336-.134-.536-.201-.134-.401-.134-.535-.134-1.072-.268-1.541-1.473-2.411-2.009-.402-.201-.603-.134-.737 0-.068.068.067.804.067.804-.067.201-.67.267-.87.335-.604.134-1.943-1.139-1.006-1.473.268-.068 1.809-.336 1.607-1.005-.201-.402.134-.871-.335-.938-.536-.067-.47-.47-1.005-.535-.335-.068-.335-.738-.335-.938 0-.603.134-.402.603-.47-1.14-.736-2.478-1.272-3.818-1.606-.067.201-.335.803-.535.803-.336.068-.402 0-.604.202-.603.67-1.071 1.875-1.674.469-.268-.737.335-1.273.134-1.875h-.604c.402.803-.335 1.205-.535 1.273-.536 0-.67-.336-1.14-.268-.267.067-.468-.268-.736-.134-.268.134-.871.536-.938.803-.201.804.402.872.938.402.402-.402 1.139-.803 1.674-.402.402.336.336.604.336.938 0 .334-.068 1.205-.604 1.071-.267-.067-.469-.401-.737-.201-.535.47-1.205.402-1.942.603-.67.134-1.072.402-1.675.603-.536.202-.737.268-.803.804 0 .134 0 .938-.202 1.005-.335.134-.535-1.473-1.473-1.34-.804.068-2.009.872-1.675 1.876.134.335 1.875.201.67.937-.134.068.134 1.14.134 1.34.067.535.871 1.205 1.407.67.401-.403.401-.336.937-.135 1.005.536 2.21 1.005 3.014 1.809.402.402.603 1.607 1.14 1.875.602.335 1.272.335 1.74.937.402.47-.134 1.273-.536 1.541-.267.134-.803 1.607-1.071 1.942-.134.268-.804.402-1.071.47-.202 0-.47.603-.604.737-.469.47-.535.871-1.139 1.273-1.205.803-1.473 1.54-1.205 2.946.134.536.335.871.737 1.072zm-2.746-1.808l.134.134c.47.401 1.005.737 1.541 1.071-1.407-1.407-1.54-3.282-1.407-5.223l.202-1.607c.067-.202-.268-.47-.268-.737 0-.67 0-.336-.536-.871-.268-.268-.67-.738-.803-1.14-.47-1.07.067-2.008.67-2.88.602-.937-.47-1.339-.67-2.142-.068-.402-.47-.402-.402-.804.067-.47-.268-.335-.603-.603-.804-.536-.068-1.34-.47-1.741-2.88 4.687-2.41 10.848 1.072 15 .067.067 0 .067.067.134h.068c.201.268.401.536.603.737.201.201.47.402.67.603z"/></svg><svg id="help" viewBox="0 0 32 32" width="32" height="32"><path d="M22.45 3.028c1.812 1.377 2.827 3.333 2.827 6.014 0 1.595-.58 3.044-1.378 4.131-.508.653-1.522 1.522-2.898 2.609l-1.522 1.014c-.725.58-1.233 1.304-1.45 2.03-.144.434-.218 1.376-.218 2.101 0 .145-.073.435-.507.435H12.81c-.508 0-.508-.218-.508-.363.073-1.884.29-3.551 1.088-4.782 1.087-1.668 4.13-3.479 4.13-3.479.435-.362.798-.652 1.088-1.087.508-.725.87-1.522.87-2.319 0-.942-.218-1.884-.798-2.608-.725-.87-1.522-1.305-2.971-1.305-1.45 0-2.32.798-2.899 1.74-.58.94-.508 2.101-.508 3.116h-5.58c0-3.913 1.015-6.377 3.189-7.826C11.36 1.435 13.172 1 15.347 1c2.826 0 5.072.508 7.1 2.029zm-7.464 21.23c1.957.073 3.406 1.449 3.333 3.478-.073 2.029-1.594 3.333-3.55 3.261-1.885-.073-3.334-1.377-3.262-3.406.072-2.029 1.594-3.406 3.478-3.333z"/></svg><svg id="history" viewBox="0 0 32 32" width="32" height="32"><path d="M1.002 12.25V3.5q0-.82.781-1.152.761-.333 1.348.273l2.538 2.52q2.09-1.973 4.775-3.057Q13.13 1 16.001 1q3.047 0 5.82 1.191 2.772 1.191 4.784 3.204 2.013 2.012 3.204 4.785Q31 12.953 31 16t-1.191 5.82q-1.191 2.773-3.204 4.785-2.012 2.013-4.785 3.204Q19.048 31 16 31q-3.358 0-6.386-1.416-3.027-1.417-5.156-3.995-.136-.196-.126-.44.01-.244.166-.4l2.675-2.695q.196-.176.488-.176.313.04.45.234 1.426 1.855 3.495 2.871Q13.676 26 16 26q2.03 0 3.877-.79 1.846-.791 3.194-2.139 1.347-1.347 2.138-3.194Q26 18.03 26 16q0-2.031-.79-3.878-.791-1.846-2.138-3.193-1.348-1.348-3.194-2.139Q18.032 6 16 6q-1.914 0-3.672.693-1.758.693-3.125 1.983l2.675 2.695q.606.586.274 1.348-.333.78-1.153.78H2.25q-.507 0-.88-.37-.371-.371-.37-.88zm10 6.876v-1.25q0-.274.176-.45t.45-.176h4.375v-6.875q0-.274.176-.45t.45-.176h1.25q.273 0 .449.176t.176.45v8.75q0 .273-.176.45-.176.176-.45.176h-6.25q-.273 0-.449-.177-.176-.176-.176-.45z"/></svg><svg id="identification-marker" viewBox="0 0 16 16" width="16" height="16"><path d="M6.425 0v6.425H0v3.15h6.425V16h3.15V9.575H16v-3.15H9.575V0z"/></svg><svg id="layers" viewBox="0 0 32 32" width="32" height="32"><path d="M1.53 8.813c-.705-.312-.705-.86 0-1.172l13.22-6.406C15.061 1.079 15.53 1 16 1c.47 0 .94.079 1.252.235l13.22 6.406c.704.312.704.86 0 1.172l-13.22 6.406c-.313.156-.782.235-1.251.235-.47 0-.939-.079-1.252-.235zm28.94 6.562c.705.313.705.937 0 1.25l-13.22 6.328a2.95 2.95 0 0 1-1.25.313 2.95 2.95 0 0 1-1.252-.313l-13.22-6.328c-.704-.313-.704-.937 0-1.25 0 0 2.113-1.016 2.582-1.25.392-.235.548-.235 1.018 0 .469.235 9.621 4.687 9.621 4.687.313.157.782.235 1.252.235.469 0 .938-.078 1.251-.235 0 0 9.465-4.61 9.778-4.766.313-.156.392-.156.705 0 .312.157 2.738 1.33 2.738 1.33zm0 7.812c.705.312.705.86 0 1.172l-13.22 6.406c-.312.156-.781.235-1.25.235-.47 0-.94-.079-1.252-.235l-13.22-6.406c-.704-.312-.704-.86 0-1.172 0 0 2.113-1.094 2.582-1.329.392-.235.548-.156 1.018.079.469.235 9.621 4.61 9.621 4.61.313.156.782.235 1.252.235.469 0 .938-.08 1.251-.235 0 0 9.465-4.531 9.778-4.687.313-.157.392-.157.705 0a769.41 769.41 0 0 0 2.738 1.328z"/></svg><svg id="legend" viewBox="0 0 32 32" width="32" height="32"><path d="M2 4.773h6.247v5H2.001zM2 13.5h6.295v5H2zm0 8.727h6.294v5H2zm9-13.318V5.636c0-.147.045-.275.134-.383a.4.4 0 0 1 .316-.162h17.1a.4.4 0 0 1 .316.162c.09.108.134.236.134.383V8.91a.584.584 0 0 1-.134.384.4.4 0 0 1-.316.162h-17.1a.4.4 0 0 1-.316-.162A.584.584 0 0 1 11 8.91zm0 8.727v-3.272c0-.148.045-.276.134-.384a.4.4 0 0 1 .316-.162h13.1a.4.4 0 0 1 .316.162c.09.108.134.236.134.384v3.272a.584.584 0 0 1-.134.384.4.4 0 0 1-.316.162h-13.1a.4.4 0 0 1-.316-.162.584.584 0 0 1-.134-.384zm0 8.728V23.09c0-.148.045-.276.134-.384a.4.4 0 0 1 .316-.162h17.1a.4.4 0 0 1 .316.162c.09.108.134.236.134.384v3.273a.584.584 0 0 1-.134.383.4.4 0 0 1-.316.162h-17.1a.4.4 0 0 1-.316-.162.584.584 0 0 1-.134-.383z"/></svg><svg id="line" width="32" height="32"><title>polygon</title><defs><linearGradient id="c"><stop offset="0" stop-color="#fce94f"/><stop offset="1" stop-color="#e7ce04"/></linearGradient><linearGradient id="a"><stop offset="0" stop-color="#f2d6a9"/><stop offset="1" stop-color="#e9b96e"/></linearGradient><linearGradient id="b"><stop offset="0" stop-color="#f2d6a9"/><stop offset="1" stop-color="#e9b96e"/></linearGradient><linearGradient id="d"><stop offset="0" stop-color="#969696"/><stop offset="1" stop-color="#969696" stop-opacity=".266"/></linearGradient><linearGradient id="e"><stop offset="0" stop-color="#8cbe8c"/><stop offset="1" stop-color="#a1daa1"/></linearGradient></defs><path style="text-indent:0;text-align:start;line-height:normal;text-transform:none;block-progression:tb;marker:none;-inkscape-font-specification:Andale Mono" d="M10.844 6.719L.719 16.78l2.812 2.75 7.25-7.218L23.125 25.28l8.156-8.406-2.843-2.656-5.313 5.437z" font-weight="400" color="#000" overflow="visible" font-family="Andale Mono"/></svg><svg id="link-external" viewBox="0 0 24 32" width="24" height="32"><path d="M20 24H4V8.06L8 8V4H0v24h24V18h-4v6zM12 4l4 4-6 6 4 4 6-6 4 4V4H12z"/></svg><svg id="load" viewBox="0 0 32 32" width="32" height="32"><path d="M31 13.987c0 .202 0 .402-.067.603-.268.536-1.005.804-1.54.47-.268-.134-.402-.47-.469-.737-.067-.336-.067-.603-.134-.937-.268-1.34-.803-2.678-1.472-3.883-.803-1.406-1.874-2.745-3.146-3.748-1.204-1.005-2.676-1.74-4.148-2.21a15.398 15.398 0 0 0-4.283-.602h-.268c-.201 0-.401.067-.603.067a9.14 9.14 0 0 0-1.338.134c-.87.134-1.673.402-2.476.737C9.65 4.416 8.379 5.22 7.24 6.224c-1.138 1.005-2.075 2.21-2.81 3.48a14.42 14.42 0 0 0-1.607 4.686c-.133.737-.133 1.54-.133 2.276 0 .401 0 .737.067 1.07.068.402.134.871.201 1.273.335 1.606.937 3.147 1.874 4.485.87 1.339 1.941 2.544 3.212 3.48a14.061 14.061 0 0 0 4.35 2.21c1.674.47 3.346.603 5.086.47a14.004 14.004 0 0 0 4.885-1.34c.737-.335 1.472-.803 2.142-1.272.669-.469 1.271-1.004 1.807-1.606.267-.268.535-.603.803-.937.267-.334.469-.67.669-1.005.2-.335.803-1.338 1.138-2.075.268-.536.535-1.071.737-1.674.134-.268.201-.603.267-.87.067-.269.068-.47.134-.738.068.603.068 1.205-.067 1.74-.068.336-.134.737-.268 1.072-.067.335-.201.669-.335 1.004-.268.67-.535 1.272-.87 1.874-.402.737-.804 1.406-1.339 2.008-.535.602-1.07 1.205-1.673 1.74-1.205 1.005-2.677 1.808-4.15 2.41a15.14 15.14 0 0 1-4.885 1.005c-1.673.067-3.413-.202-5.019-.737-1.54-.47-3.012-1.272-4.35-2.21a15.863 15.863 0 0 1-3.346-3.346c-.469-.67-.87-1.339-1.204-2.076a21.844 21.844 0 0 1-.87-2.209c-.402-1.205-.603-2.477-.67-3.748-.067-1.339.068-2.611.335-3.882.335-1.607 1.005-3.147 1.874-4.552.803-1.272 1.74-2.343 2.81-3.347C7.107 3.88 8.38 3.075 9.717 2.473c1.54-.736 3.212-1.272 4.952-1.406C15.34 1 15.941 1 16.61 1c.87 0 1.74.134 2.543.268 1.606.335 3.146.937 4.55 1.74 1.405.803 2.745 1.942 3.815 3.213 1.004 1.205 1.807 2.477 2.41 3.882.267.67.468 1.406.668 2.142.134.535.335 1.138.402 1.74z"/></svg><svg id="location-target" width="32" height="32"><path style="text-indent:0;text-align:start;line-height:normal;text-transform:none;block-progression:tb;marker:none;-inkscape-font-specification:Sans" d="M16.02 0C7.169 0 0 7.181 0 15.98 0 24.776 7.168 32 16.02 32 24.874 32 32 24.777 32 15.98 32 7.18 24.873 0 16.02 0zm-2.67 2.886v5.02h5.341v-5.02A13.333 13.333 0 0 1 29.08 13.302h-5.007v5.354h5.007c-1.069 5.243-5.198 9.35-10.389 10.416v-5.02h-5.34v5.02c-5.184-1.066-9.286-5.173-10.347-10.416h5.048v-5.354H3.004C4.052 8.046 8.154 3.948 13.35 2.886z" font-weight="400" color="#000" overflow="visible" font-family="Sans"/></svg><svg id="location" viewBox="0 0 32 32" width="32" height="32"><path d="M16 1C10.477 1 6 5.197 6 10.375 6 19.75 16 31 16 31s10-11.25 10-20.625C26 5.197 21.523 1 16 1zm0 15c-3.314 0-6-2.518-6-5.625s2.686-5.625 6-5.625 6 2.518 6 5.625S19.314 16 16 16z"/></svg><svg id="lock" viewBox="0 0 32 32" width="32" height="32"><path d="M3.001 28.955V16.682q0-.852.632-1.449.632-.596 1.535-.596h.721v-4.092q0-3.92 2.98-6.733Q11.846 1 16 1q4.153 0 7.132 2.812 2.979 2.813 2.979 6.733v4.092h.722q.902 0 1.534.596.632.597.632 1.449v12.273q0 .852-.632 1.448-.632.597-1.534.597H5.166q-.902 0-1.534-.597Q3 29.807 3 28.955zm7.222-14.318H21.78v-4.092q0-2.258-1.692-3.856-1.693-1.598-4.085-1.598-2.393 0-4.085 1.598-1.692 1.598-1.692 3.856v4.092z"/></svg><svg id="menu-dots" width="32" height="32"><g transform="matrix(0 -1.33333 1.33325 0 .001 -1371.15)"><rect width="4" height="4" x="-1042.362" y="10" ry="0"/><rect ry="0" y="10" x="-1035.362" height="4" width="4"/><rect ry="0" y="10" x="-1049.362" height="4" width="4"/></g></svg><svg id="menu" width="32" height="32"><g transform="matrix(0 -1.33333 1.25 0 1 -1371.15)"><rect width="4" height="24" x="-1042.362" ry="0"/><rect ry="0" x="-1035.362" height="24" width="4"/><rect ry="0" x="-1049.362" height="24" width="4"/></g></svg><svg id="minus" viewBox="0 0 32 32" width="32" height="32"><path d="M2.25 14.2v3.6h27.5v-3.6H2.25z"/></svg><svg id="north-arrow" width="32" height="32"><g font-weight="400" color="#000" font-family="Sans"><path style="text-indent:0;text-align:start;line-height:normal;text-transform:none;block-progression:tb;marker:none;-inkscape-font-specification:Sans" d="M16.031 7.375c-2.59 2.66-5.204 5.296-7.812 7.938l2 2c1.433-1.463 2.864-2.928 4.312-4.375V28.5h3V12.906a922.321 922.321 0 0 0 4.282 4.406l2.03-2.03a1187.324 1187.324 0 0 0-7.812-7.907z" overflow="visible"/><path style="text-indent:0;text-align:start;line-height:normal;text-transform:none;block-progression:tb;marker:none;-inkscape-font-specification:Sans" d="M15.996.484C7.454.484.49 7.448.49 15.99c0 8.542 6.964 15.506 15.506 15.506 8.543 0 15.507-6.964 15.507-15.506 0-8.543-6.964-15.507-15.507-15.507zm0 3.016a12.46 12.46 0 0 1 12.49 12.49 12.46 12.46 0 0 1-12.49 12.49 12.46 12.46 0 0 1-12.49-12.49A12.46 12.46 0 0 1 15.996 3.5z" overflow="visible"/></g></svg><svg id="options" viewBox="0 0 32 32" width="32" height="32"><path d="M1 26.709q0-.968.695-1.662l12.45-12.435q.712 1.79 2.093 3.168 1.381 1.378 3.171 2.091L6.942 30.324Q6.265 31 5.297 31q-.951 0-1.664-.676l-1.938-1.972Q1 27.694 1 26.709zm4.296-1.17q0 .475.347.823t.823.347q.476-.001.823-.347t.347-.822q0-.477-.347-.822-.347-.346-.823-.347-.476 0-.823.347t-.347.822zm9.36-16.359q0-3.378 2.403-5.78Q19.463 1 22.845 1q1.06 0 2.222.302 1.16.301 1.965.848.293.2.293.512 0 .31-.293.51L21.676 6.26v4.09l3.528 1.954 1.444-.886q1.354-.83 2.478-1.478 1.124-.649 1.288-.649.275 0 .43.183.156.183.156.456 0 .712-.42 1.936-.86 2.447-3.008 3.971-2.15 1.525-4.726 1.525-3.382 0-5.786-2.4-2.404-2.402-2.404-5.78z"/></svg><svg id="overlays" viewBox="0 0 32 32" width="32" height="32"><path d="M1 19.75h30v1.5H1zM4.594 24a.752.752 0 0 0-.594.734v3.516c0 .414.336.75.75.75h22.5a.75.75 0 0 0 .75-.75v-3.5a.75.75 0 0 0-.75-.75H4.75a.635.635 0 0 0-.159 0zm.906 1.5h21v2h-21v-2zM4.75 12h22.5c.416 0 .75.335.75.75v3.5c0 .416-.334.75-.75.75H4.75a.748.748 0 0 1-.75-.75v-3.5c0-.415.335-.75.75-.75zm0-9h22.5c.416 0 .75.335.75.75v3.5c0 .415-.334.75-.75.75H4.75A.749.749 0 0 1 4 7.25v-3.5c0-.415.335-.75.75-.75z"/></svg><svg id="page-first" viewBox="0 0 32 32" width="32" height="32"><path d="M24.068 2q.357 0 .633.281l1.374 1.403q.276.281.276.646 0 .364-.276.645L15.272 16l10.803 11.025q.276.28.276.645t-.276.646l-1.374 1.403q-.276.281-.633.281t-.633-.281L10.627 16.647q-.276-.281-.276-.645 0-.365.276-.646L23.435 2.284q.276-.28.633-.28z"/><rect width="3.84" height="28" x="5.649" y="2" rx=".8" ry=".8"/></svg><svg id="page-last" viewBox="0 0 32 32" width="32" height="32"><path d="M7.932 2q-.357 0-.633.281L5.925 3.684q-.276.281-.276.646 0 .364.276.645L16.728 16 5.925 27.025q-.276.28-.276.645t.276.646l1.374 1.403q.276.281.633.281t.633-.281l12.808-13.072q.276-.281.276-.645 0-.365-.276-.646L8.565 2.284q-.276-.28-.633-.28z"/><rect width="3.84" height="28" x="-26.351" y="2" rx=".8" ry=".8" transform="scale(-1 1)"/></svg><svg id="pen" viewBox="0 0 32 32" width="32" height="32"><path d="M26.299 11.723l-16.12 16.188-6.09-6.089 16.189-16.12zm4.138-6.949c.803.803.737 2.14-.134 3.011l-2.819 2.82-6.089-6.09 2.82-2.818c.87-.87 2.208-.937 3.01-.134zM3.141 23.172l5.687 5.687L1 31z"/></svg><svg id="phone" viewBox="0 0 32 32" width="32" height="32"><path d="M4 27.591V4.41Q4 3.002 4.979 2T7.333 1h17.334q1.375 0 2.354 1.001Q28 3.002 28 4.41V27.59q0 1.407-.979 2.408T24.667 31H7.333q-1.375 0-2.354-1.001Q4 28.998 4 27.59zm2.667-2.726q0 .277.198.48.199.202.47.202h17.333q.27 0 .469-.203.198-.202.198-.48V4.41q0-.277-.198-.48-.198-.202-.47-.202H7.335q-.27 0-.469.202-.198.203-.198.48v20.455zm8 3.409q0 .553.396.959.395.406.938.404.542 0 .938-.404.395-.403.395-.96 0-.555-.395-.959-.396-.403-.938-.404-.543-.001-.938.404-.396.406-.396.96z"/></svg><svg id="plus" viewBox="0 0 32 32" width="32" height="32"><path d="M14.21 2.25v11.96H2.25v3.58h11.96v11.96h3.58V17.79h11.96v-3.58H17.79V2.25z"/></svg><svg id="point" width="32" height="32"><title>polygon</title><defs><linearGradient id="c"><stop offset="0" stop-color="#fce94f"/><stop offset="1" stop-color="#e7ce04"/></linearGradient><linearGradient id="a"><stop offset="0" stop-color="#f2d6a9"/><stop offset="1" stop-color="#e9b96e"/></linearGradient><linearGradient id="b"><stop offset="0" stop-color="#f2d6a9"/><stop offset="1" stop-color="#e9b96e"/></linearGradient><linearGradient id="d"><stop offset="0" stop-color="#969696"/><stop offset="1" stop-color="#969696" stop-opacity=".266"/></linearGradient><linearGradient id="e"><stop offset="0" stop-color="#8cbe8c"/><stop offset="1" stop-color="#a1daa1"/></linearGradient></defs><path style="text-indent:0;text-align:start;line-height:normal;text-transform:none;block-progression:tb;marker:none;-inkscape-font-specification:Sans" d="M4.41 13.273A3.42 3.42 0 0 0 1 16.682a3.42 3.42 0 0 0 3.41 3.409 3.42 3.42 0 0 0 3.408-3.41 3.42 3.42 0 0 0-3.409-3.408zm12.272-5.455a3.42 3.42 0 0 0-3.41 3.41 3.42 3.42 0 0 0 3.41 3.408 3.42 3.42 0 0 0 3.409-3.409 3.42 3.42 0 0 0-3.41-3.409zm10.909 9.546a3.42 3.42 0 0 0-3.41 3.409 3.42 3.42 0 0 0 3.41 3.409A3.42 3.42 0 0 0 31 20.772a3.42 3.42 0 0 0-3.41-3.408z" font-weight="400" color="#000" overflow="visible" font-family="Sans"/></svg><svg id="polygon" width="32" height="32"><title>polygon</title><defs><linearGradient id="c"><stop offset="0" stop-color="#fce94f"/><stop offset="1" stop-color="#e7ce04"/></linearGradient><linearGradient id="a"><stop offset="0" stop-color="#f2d6a9"/><stop offset="1" stop-color="#e9b96e"/></linearGradient><linearGradient id="b"><stop offset="0" stop-color="#f2d6a9"/><stop offset="1" stop-color="#e9b96e"/></linearGradient><linearGradient id="d"><stop offset="0" stop-color="#969696"/><stop offset="1" stop-color="#969696" stop-opacity=".266"/></linearGradient><linearGradient id="e"><stop offset="0" stop-color="#8cbe8c"/><stop offset="1" stop-color="#a1daa1"/></linearGradient></defs><path style="text-indent:0;text-align:start;line-height:normal;text-transform:none;block-progression:tb;marker:none;-inkscape-font-specification:Sans" d="M19.563 6.844l-9.344 4.562-6.125-1.625L.78 18.5l7.25 5.969 7.938-3.813 8.937 4.688 6.438-12.719z" font-weight="400" color="#000" overflow="visible" font-family="Sans"/></svg><svg id="printer" viewBox="0 0 32 32" width="32" height="32"><path d="M29.125 8.5H2.875A1.88 1.88 0 0 0 1 10.375v9.375a1.88 1.88 0 0 0 1.875 1.875H8.5v7.5h15v-7.5h5.625A1.88 1.88 0 0 0 31 19.75v-9.375A1.88 1.88 0 0 0 29.125 8.5zM4.75 14.125a1.876 1.876 0 1 1 .001-3.751 1.876 1.876 0 0 1-.001 3.751zM21.625 27.25h-11.25v-9.375h11.25v9.375zM8.5 2.875h15v3.75h-15v-3.75z"/></svg><svg id="profiles" viewBox="0 0 32 32" width="32" height="32"><path d="M27.317 20.673c2.812 1.083 3.482 1.76 3.55 2.234C31 23.517 31 29 31 29h-6.562c0-1.219 0-4.807-.068-5.213-.067-.677-.067-1.964-3.683-3.385-.536-.204-.938-.34-1.273-.474 1.205-.542 1.005-1.016 1.005-1.896 0-1.287-.603-.745-1.005-3.182-.134-.948-.268-.34-.603-1.896-.202-.812.067-.812.067-1.218 0-.407-.067-.677-.134-1.49-.067-.947.737-3.52 3.818-3.52 3.08 0 3.951 2.573 3.884 3.52-.068.813-.134 1.083-.134 1.49-.068.406.267.406.067 1.218-.335 1.558-.47.948-.603 1.896-.402 2.437-1.071 1.895-1.071 3.182 0 1.964-.134 1.558 2.612 2.64zm-4.554 8.326H1s0-4.4.134-5.213c.134-.677 1.005-1.49 4.62-2.912 3.617-1.354 3.349-1.151 3.349-3.724 0-1.624-.804-.541-1.34-3.655-.2-1.219-.335-.475-.736-2.437-.202-1.016.133-1.084.067-1.558s-.134-.948-.201-1.964C6.759 6.25 7.898 3 11.848 3s5.156 3.318 5.023 4.536a22.534 22.534 0 0 1-.202 1.964c-.067.474.335.542.134 1.558-.402 1.963-.603 1.218-.804 2.437-.535 3.114-1.339 2.03-1.339 3.655 0 2.167-.134 2.437 2.077 3.25.401.135.737.27 1.272.474 3.616 1.422 4.487 2.235 4.621 2.912.068.406.134 1.895.134 3.182v2.03z"/></svg><svg id="project" viewBox="0 0 32 32" width="32" height="32"><path d="M27.296 4.214C28.853 4.214 30 5.378 30 6.918v21.379C30 29.837 28.853 31 27.296 31H4.706C3.148 31 2 29.838 2 28.297V6.918c0-1.54 1.148-2.704 2.706-2.704h7.097C12.277 2.34 13.969 1 16 1c2.03 0 3.724 1.34 4.197 3.214h7.099zm-11.297 0c-.812 0-1.422.603-1.422 1.407 0 .803.61 1.473 1.422 1.473.813 0 1.423-.67 1.423-1.473 0-.804-.61-1.407-1.423-1.407zm11.5 24.283V6.717h-3.917v4.821H8.416V6.717H4.502v21.78z"/><path d="M8.5 20.808v-2.5h15v2.5zm0 4.53v-2.5h12.115v2.5zm0-9.055v-2.5h9.808v2.5z"/></svg><svg id="radio-button-checked" viewBox="0 0 32 32" width="32" height="32"><path d="M1 23.508v-15Q1 6.363 2.523 4.84q1.524-1.524 3.67-1.524h14.999q2.145 0 3.668 1.524 1.524 1.523 1.524 3.668v15q0 2.145-1.524 3.669-1.523 1.523-3.668 1.523h-15q-2.145 0-3.669-1.523Q1 25.653 1 23.507zm2.308 0q0 1.19.847 2.037t2.037.847h15q1.19 0 2.037-.847t.847-2.037v-15q0-1.19-.847-2.037t-2.037-.847h-15q-1.19 0-2.037.847t-.847 2.037v15zm2.384-2.773v-9.454c0-.902.32-1.672.96-2.313.64-.64 1.411-.96 2.313-.96h9.454c.902 0 1.672.32 2.313.96.64.64.96 1.411.96 2.313v9.454c0 .902-.32 1.673-.96 2.313-.64.64-1.411.96-2.313.96H8.965c-.902 0-1.673-.32-2.313-.96a3.152 3.152 0 0 1-.96-2.313z"/></svg><svg id="raster" width="32" height="32"><title>polygon</title><defs><linearGradient id="c"><stop offset="0" stop-color="#fce94f"/><stop offset="1" stop-color="#e7ce04"/></linearGradient><linearGradient id="a"><stop offset="0" stop-color="#f2d6a9"/><stop offset="1" stop-color="#e9b96e"/></linearGradient><linearGradient id="b"><stop offset="0" stop-color="#f2d6a9"/><stop offset="1" stop-color="#e9b96e"/></linearGradient><linearGradient id="d"><stop offset="0" stop-color="#969696"/><stop offset="1" stop-color="#969696" stop-opacity=".266"/></linearGradient><linearGradient id="e"><stop offset="0" stop-color="#8cbe8c"/><stop offset="1" stop-color="#a1daa1"/></linearGradient></defs><g><path d="M.942 5.662h10.274V16H.942zM20.785 5.662h10.274V16H20.785zM11.082 16h9.836v10.338h-9.836z"/><path style="text-indent:0;text-align:start;line-height:normal;text-transform:none;block-progression:tb;marker:none;-inkscape-font-specification:Sans" d="M.75 5v22h30.5V5H.75zm1 1h28.5v20H1.75V6z" font-weight="400" color="#000" overflow="visible" font-family="Sans"/></g></svg><svg id="ruler" viewBox="0 0 32 32" width="32" height="32"><path d="M2.8 16.571c-.812 0-1.467.638-1.467 1.429v8.571c0 .792.655 1.429 1.467 1.429h26.4c.812 0 1.467-.637 1.467-1.429V18c0-.791-.655-1.429-1.467-1.429zm3.2.804a.66.66 0 0 1 .667.655v3.065c0 .37-.306.685-.667.685a.686.686 0 0 1-.666-.685V18.03A.66.66 0 0 1 6 17.375zm5.333 0a.66.66 0 0 1 .667.655v3.065c0 .37-.306.685-.667.685a.686.686 0 0 1-.666-.685V18.03a.66.66 0 0 1 .666-.655zm5.334 0a.66.66 0 0 1 .666.655V23c0 .37-.305.685-.666.685A.687.687 0 0 1 16 23v-4.97c0-.37.306-.655.667-.655zm5.333 0a.66.66 0 0 1 .667.655v3.065c0 .37-.306.685-.667.685a.686.686 0 0 1-.667-.685V18.03a.66.66 0 0 1 .667-.655zm5.333 0a.66.66 0 0 1 .667.655v3.065c0 .37-.306.685-.667.685a.686.686 0 0 1-.666-.685V18.03a.66.66 0 0 1 .666-.655zM27.097 5.189a.253.253 0 0 0-.156.021c-.114.052-.159.141-.162.279l-.063 2.215-21.356.09.062-2.215c.003-.13-.058-.214-.17-.273-.111-.053-.221-.019-.319.073L1.424 8.837a.337.337 0 0 0-.09.234c-.002.085.007.146.065.212l3.344 3.452c.093.085.202.107.316.055.114-.052.166-.171.17-.309l.054-2.185 21.357-.09-.054 2.185c-.004.13.05.245.161.304.112.052.222.018.32-.073l3.508-3.459a.337.337 0 0 0 .091-.234c.002-.085 0-.176-.057-.242l-3.352-3.421a.323.323 0 0 0-.16-.077z"/></svg><svg id="settings" viewBox="0 0 32 32" width="32" height="32"><path d="M27.392 17.515l3.389 2.451c.217.217.288.721.144 1.01l-3.1 5.12c-.145.288-.506.505-.866.36l-3.893-1.514c-.865.577-1.659 1.154-2.596 1.515l-.576 3.966c-.073.289-.433.577-.794.577h-6.129c-.36 0-.72-.217-.793-.577l-.577-3.966c-.938-.361-1.803-.938-2.595-1.515l-3.894 1.515c-.288.144-.72-.073-.865-.361l-3.1-5.12c-.217-.361-.145-.794.144-1.01l3.245-2.451c0-.506-.073-1.01-.073-1.515 0-.505.073-1.01.073-1.515l-3.317-2.451c-.217-.217-.288-.721-.144-1.01l3.1-5.12c.145-.288.506-.505.866-.36l3.893 1.514c.865-.577 1.659-1.154 2.596-1.515l.576-3.966C12.18 1.288 12.54 1 12.9 1h6.129c.36 0 .72.288.793.577l.505 3.966c.938.361 1.803.938 2.596 1.515l3.821-1.515c.289-.144.794.073.938.361l3.101 5.12c.217.361.144.794-.144 1.01l-3.245 2.451c0 .506.073 1.01.073 1.515 0 .505 0 1.082-.073 1.515zm-11.463 3.75c2.957 0 5.408-2.308 5.408-5.265s-2.451-5.264-5.408-5.264c-2.956 0-5.335 2.307-5.335 5.264 0 2.957 2.38 5.264 5.335 5.264z"/></svg><svg id="square-minus" viewBox="0 0 32 32" width="32" height="32"><path d="M1 25.375V6.625Q1 4.301 2.65 2.65 4.3 1 6.625 1h18.75q2.324 0 3.975 1.65Q31 4.3 31 6.625v18.75q0 2.324-1.65 3.975Q27.7 31 25.375 31H6.625q-2.324 0-3.975-1.65Q1 27.7 1 25.375zm5-8.124q0 .507.37.879.371.372.88.37h17.5q.507 0 .879-.37t.37-.88v-2.5q0-.507-.37-.879-.371-.372-.88-.37H7.25q-.507 0-.879.37t-.37.88v2.5z"/></svg><svg id="square-plus" viewBox="0 0 32 32" width="32" height="32"><path d="M6.638 1c-1.55 0-2.898.54-3.998 1.64C1.54 3.74 1 5.09 1 6.638v18.724c0 1.55.54 2.898 1.64 3.998C3.74 30.46 5.09 31 6.638 31h18.724c1.55 0 2.864-.54 3.964-1.64 1.1-1.1 1.674-2.449 1.674-3.998V6.638c0-1.55-.574-2.898-1.674-3.998S26.91 1 25.362 1H6.638zm8.098 4.989h2.494c.339-.001.641.128.888.375.248.248.376.55.376.889v6.253h6.253c.34-.001.641.128.889.376.247.247.341.516.341.854v2.528c0 .34-.094.607-.341.854a1.23 1.23 0 0 1-.889.376h-6.253v6.253c.001.34-.128.641-.376.889a1.23 1.23 0 0 1-.888.375h-2.494c-.34.001-.607-.128-.854-.375a1.23 1.23 0 0 1-.376-.889v-6.253H7.253c-.34.001-.641-.128-.889-.376-.247-.247-.375-.516-.375-.854v-2.528c-.001-.34.128-.607.375-.854a1.23 1.23 0 0 1 .889-.376h6.253V7.253c-.001-.34.128-.641.376-.889.247-.247.516-.375.854-.375z"/></svg><svg id="target" viewBox="0 0 32 32" width="32" height="32"><path d="M29.642 14.5H32v3h-2.358c-.714 6.357-5.786 11.428-12.142 12.142V32h-3v-2.358C8.143 28.928 3.072 23.856 2.358 17.5H0v-3h2.358C3.072 8.143 8.144 3.072 14.5 2.358V0h3v2.358c6.357.714 11.428 5.786 12.142 12.142zM16 26.642c5.857 0 10.643-4.786 10.643-10.643 0-5.857-4.786-10.643-10.643-10.643-5.857 0-10.643 4.786-10.643 10.643 0 5.857 4.786 10.643 10.643 10.643z"/><path d="M20 16a4 4 0 1 1-8 0 4 4 0 1 1 8 0zM0 14.125h3.75v3.75H0zM28.25 14.125H32v3.75h-3.75zM14.125 0h3.75v3.75h-3.75zM14.125 28.25h3.75V32h-3.75z"/></svg><svg id="topics" viewBox="0 0 32 32" width="32" height="32"><path d="M8.408 11.69l19.943 1.514-.303 3.989-19.943-1.514zm-.528 7.344l19.943 1.514-.303 3.989-19.943-1.514zM22 2.188L1.5 3.469c-.87.055-1.556.814-1.5 1.688l1.063 16.281c.056.874.818 1.555 1.688 1.5l1.219-.094-.25 3.563a1.738 1.738 0 0 0 1.594 1.844l23.469 1.719a1.737 1.737 0 0 0 1.844-1.594l1.375-18.5a1.738 1.738 0 0 0-1.594-1.844l-6.438-.469-.25-3.906c-.056-.874-.849-1.524-1.719-1.469zm.094 1.468c.077-.005.121.034.125.094l.219 3.688-15.5-1.125c-.936-.069-1.806.653-1.875 1.594l-.969 13.438-1.438.094c-.077.005-.121-.034-.125-.094L1.5 5.064c-.004-.06.017-.089.094-.094l20.5-1.313zM6.813 7.813l23.469 1.719c.148.011.228.097.219.219l-1.375 18.531c-.009.122-.071.198-.219.188L5.438 26.751c-.148-.011-.259-.128-.25-.25l1.375-18.5c.009-.122.102-.198.25-.188z"/></svg><svg id="tracking" viewBox="0 0 32 32" width="32" height="32"><path d="M29.642 14.5H32v3h-2.358c-.714 6.357-5.786 11.428-12.142 12.142V32h-3v-2.358C8.143 28.928 3.072 23.856 2.358 17.5H0v-3h2.358C3.072 8.143 8.144 3.072 14.5 2.358V0h3v2.358c6.357.714 11.428 5.786 12.142 12.142zM16 26.642c5.857 0 10.643-4.786 10.643-10.643 0-5.857-4.786-10.643-10.643-10.643-5.857 0-10.643 4.786-10.643 10.643 0 5.857 4.786 10.643 10.643 10.643z"/><path d="M0 14.125h3.75v3.75H0zM28.25 14.125H32v3.75h-3.75zM14.125 0h3.75v3.75h-3.75zM14.125 28.25h3.75V32h-3.75zM15.874 8.925l5.376 12.5c-3.633-2.53-7.137-2.653-10.5-.095z"/></svg><svg id="tracking2" viewBox="0 0 32 32" width="32" height="32"><path d="M14.438 2.344l.062.031v-.031c-.02.002-.042-.003-.063 0zm5.312.469l1.688 4.062c3.109 1.863 5.218 5.254 5.218 9.125 0 5.857-4.8 10.656-10.656 10.656-5.857 0-10.656-4.8-10.656-10.656 0-3.819 2.05-7.183 5.093-9.063l1.688-4.093C6.917 4.402 2.966 8.96 2.344 14.5H0v3h2.344c.714 6.356 5.799 11.442 12.156 12.156V32h3v-2.344c6.356-.714 11.442-5.799 12.156-12.156H32v-3h-2.344C29.03 8.917 25.018 4.332 19.75 2.812z"/><path d="M20 16a4 4 0 1 1-8 0 4 4 0 1 1 8 0zM0 14.125h3.75v3.75H0zM28.25 14.125H32v3.75h-3.75zM14.125 28.25h3.75V32h-3.75z"/><path d="M33.713 4.335l3.204-3.204 3.204 3.204-3.204 3.203z"/><path d="M16 1.53l4 9c-2.748-1.805-5.418-1.871-8 0z"/><path d="M90.892 14.5h2.358v3h-2.358c-.714 6.357-5.786 11.428-12.142 12.142V32h-3v-2.358c-6.357-.714-11.428-5.786-12.142-12.142H61.25v-3h2.358c.714-6.357 5.786-11.428 12.142-12.142v2.178h3V2.358c6.357.714 11.428 5.786 12.142 12.142zM77.25 26.642c5.857 0 10.643-4.786 10.643-10.643 0-5.857-4.786-10.643-10.643-10.643-5.857 0-10.643 4.786-10.643 10.643 0 5.857 4.786 10.643 10.643 10.643z"/><path d="M81.25 16a4 4 0 1 1-8 0 4 4 0 1 1 8 0zM61.25 14.125H65v3.75h-3.75zM89.5 14.125h3.75v3.75H89.5zM75.375 28.25h3.75V32h-3.75z"/><path d="M78.154 9.102l2.176-5.31-5.31-2.175-2.175 5.31z"/><path d="M76.33 9.039l-2.175-5.31 5.31-2.175 2.175 5.31z"/><path d="M77.25.927l4 10c-2.748-2.005-5.418-2.078-8 0z"/></svg><svg id="tracking3" viewBox="0 0 32 32" width="32" height="32"><path d="M0 14.125h3.75v3.75H0zM14.125 28.25h3.75V32h-3.75zM82.188 3.219v3.375c3.377 1.791 5.718 5.336 5.718 9.406 0 5.857-4.8 10.656-10.656 10.656-5.857 0-10.656-4.8-10.656-10.656 0-3.9 2.16-7.304 5.312-9.156V3.375c-4.467 1.914-7.75 6.12-8.312 11.125H61.25v3h2.344c.714 6.356 5.799 11.442 12.156 12.156V32h3v-2.344c6.356-.714 11.442-5.799 12.156-12.156h2.344v-3h-2.344c-.579-5.154-4.045-9.455-8.719-11.281z"/><path d="M61.25 14.125H65v3.75h-3.75zM121.796 38.144a4.429 4.429 0 1 1-8.857 0 4.429 4.429 0 1 1 8.857 0zM89.5 14.125h3.75v3.75H89.5zM75.375 28.25h3.75V32h-3.75z"/><path d="M28.285 3.633l-4.22 11.37c-.839-3.993-3.092-6.4-6.923-7.042z"/><path style="text-indent:0;text-align:start;line-height:normal;text-transform:none;block-progression:tb;marker:none;-inkscape-font-specification:Sans" d="M15.938 2.25C8.39 2.284 2.25 8.445 2.25 16c0 7.576 6.174 13.75 13.75 13.75S29.75 23.576 29.75 16v-.031h-3V16c0 5.955-4.795 10.75-10.75 10.75A10.727 10.727 0 0 1 5.25 16 10.728 10.728 0 0 1 15.938 5.25v-3z" font-weight="400" color="#000" overflow="visible" font-family="Sans"/><path d="M-46.748 13.614a12.25 12.25 0 1 1-24.5 0 12.25 12.25 0 1 1 24.5 0z" stroke="#444" stroke-width="2.99961039" stroke-linecap="round" stroke-linejoin="round"/><path d="M21 16a5 5 0 1 1-10 0 5 5 0 1 1 10 0z"/><path d="M-25.804-103.966l7.592 7.592-7.259 7.26-7.592-7.593z"/><path d="M90.408-19.31L88.174-9.63c-.599-4.954-3.275-7.111-7.445-7.445z"/><path d="M77.308 9.257l5.087 10.566c-3.438-2.138-6.755-2.242-9.937-.08z"/><path d="M45.106-6.017h8.061v6.86h-8.061z"/></svg><svg id="triangle" viewBox="0 0 32 32" width="32" height="32"><path d="M6.788 2c-.46-.016-.766.36-.788.659v26.17c.008.625.277 1.106.788 1.171.333 0 .618-.094.875-.281l17.943-13.063c.257-.187.394-.413.394-.656 0-.243-.137-.469-.394-.656L7.663 2.28A1.434 1.434 0 0 0 6.788 2z"/></svg><svg id="user" viewBox="0 0 32 32" width="32" height="32"><path d="M2.25 25.941q0-1.034.068-2.021.069-.987.273-2.128.205-1.142.518-2.12.313-.978.84-1.904.527-.927 1.21-1.582.684-.655 1.67-1.045.987-.389 2.179-.39.176 0 .82.42.644.42 1.455.937.81.518 2.11.938 1.299.42 2.607.42 1.308 0 2.608-.42 1.299-.42 2.11-.938.81-.517 1.454-.937.644-.42.82-.42 1.192 0 2.178.39.987.39 1.67 1.045.684.654 1.211 1.582.527.927.84 1.904.313.977.518 2.12.204 1.143.273 2.128.069.985.069 2.021 0 2.344-1.426 3.702Q26.898 31 24.535 31H7.466q-2.363 0-3.789-1.357-1.425-1.358-1.426-3.702zM8.498 8.5q0-3.105 2.197-5.303Q12.894 1 16 1t5.303 2.197q2.197 2.198 2.197 5.303t-2.197 5.303Q19.104 16 15.999 16t-5.303-2.197Q8.5 11.605 8.5 8.5z"/></svg><svg id="users" viewBox="0 0 32 32" width="32" height="32"><path d="M9.52 23.47c1.44-.953 3.232-1.678 5.203-2.12a9.564 9.564 0 0 1-1.054-1.556c-.791-1.456-1.21-3.06-1.21-4.638 0-2.269 0-4.41.796-6.163.773-1.701 2.165-2.755 4.147-3.15C16.96 3.825 15.788 2.5 12.667 2.5c-5 0-5 3.4-5 7.594 0 2.612 1.497 5.223 3.333 6.27v1.392c-5.653.468-10 3.28-10 6.68h7.266c.378-.34.796-.663 1.255-.966zM21 22.82v-1.392c1.836-1.047 3.333-3.66 3.333-6.27 0-4.195 0-7.595-5-7.595s-5 3.4-5 7.594c0 2.612 1.498 5.224 3.334 6.27v1.392c-5.654.468-10 3.28-10 6.681H31c0-3.4-4.347-6.213-10-6.68z"/></svg><svg id="x" viewBox="0 0 32 32" width="32" height="32"><path d="M3.305 7.482L11.824 16l-8.519 8.518 4.177 4.177L16 20.176l8.518 8.519 4.177-4.177L20.176 16l8.519-8.518-4.177-4.177L16 11.824 7.482 3.305z"/></svg><svg id="zoom-max" width="32" height="32"><path style="text-indent:0;text-align:start;line-height:normal;text-transform:none;block-progression:tb;marker:none;-inkscape-font-specification:Sans" d="M1 1v11.172h3.398V4.399h7.852V1H1zm18.75 0v3.398h7.852v7.774H31V1H19.75zM1 19.79V31h11.25v-3.398H4.398v-7.813H1zm26.602 0v7.812H19.75V31H31V19.789h-3.398z" font-weight="400" color="#000" overflow="visible" font-family="Sans"/></svg><svg id="zoom-to-feature" viewBox="0 0 32 32" width="32" height="32"><path d="M1.118 1.127A.415.415 0 0 1 1.424 1l6.644.273c.18.012.303.1.369.264.06.17.03.315-.09.436L6.33 4.01l1.426 1.44a.403.403 0 0 1 .126.291c0 .11-.042.206-.126.291L6.027 7.778a.395.395 0 0 1-.288.127.395.395 0 0 1-.289-.127l-1.425-1.44-2.017 2.037a.367.367 0 0 1-.432.09.412.412 0 0 1-.27-.363L1 1.43a.41.41 0 0 1 .117-.3zm29.764 29.746a.415.415 0 0 1-.306.127l-6.644-.273a.397.397 0 0 1-.369-.264c-.06-.17-.03-.315.09-.436l2.017-2.037-1.426-1.44a.403.403 0 0 1-.126-.29c0-.11.042-.207.126-.292l1.729-1.746a.395.395 0 0 1 .288-.127c.108 0 .205.042.289.127l1.425 1.44 2.017-2.037a.367.367 0 0 1 .432-.09.412.412 0 0 1 .27.363L31 30.57a.41.41 0 0 1-.117.3zm-.009-29.755a.419.419 0 0 1 .127.308L30.728 8.1a.399.399 0 0 1-.262.371c-.17.06-.314.03-.435-.09l-2.027-2.026-1.434 1.432a.4.4 0 0 1-.29.127.4.4 0 0 1-.29-.127L24.252 6.05a.398.398 0 0 1-.127-.29c0-.109.043-.205.127-.29l1.434-1.432-2.028-2.025a.37.37 0 0 1-.09-.434.411.411 0 0 1 .361-.272L30.573 1c.121 0 .22.04.3.117zm-4.2 14.347a10.56 10.56 0 0 0-1.007-4.123c-.613-1.3-1.415-2.409-2.407-3.328-.992-.92-2.157-1.633-3.496-2.142a10.432 10.432 0 0 0-4.172-.676c-1.443.058-2.811.396-4.105 1.011-1.293.616-2.398 1.422-3.313 2.418-.915.997-1.625 2.168-2.132 3.512a10.565 10.565 0 0 0-.673 4.191c.09 2.23.796 4.226 2.12 5.989l-4.98 5.423c-.359.39-.527.854-.506 1.391.022.537.23.988.623 1.352.394.365.858.537 1.392.515.545-.022.991-.233 1.339-.633l4.98-5.408c1.857 1.183 3.894 1.73 6.114 1.64a10.436 10.436 0 0 0 4.104-1.012c1.294-.615 2.398-1.421 3.313-2.418.915-.996 1.626-2.167 2.132-3.512.507-1.345.731-2.742.673-4.191zm-3.873.157c.075 1.875-.523 3.505-1.796 4.891-1.273 1.386-2.843 2.117-4.709 2.193-1.866.075-3.49-.526-4.87-1.805-1.38-1.278-2.107-2.855-2.182-4.73-.075-1.874.523-3.505 1.796-4.891 1.273-1.386 2.843-2.117 4.709-2.193 1.866-.075 3.49.526 4.87 1.805 1.38 1.278 2.107 2.855 2.182 4.73z"/></svg></defs></svg>