<svg><defs><svg id="arrow-down" viewBox="0 0 32 32" width="32" height="32"><path d="M2 10.283q0-.357.28-.633l1.404-1.374Q3.964 8 4.33 8q.364 0 .645.276L16 19.08 27.025 8.275Q27.305 8 27.67 8t.646.276L29.72 9.65q.28.276.28.633t-.28.633L16.646 23.724q-.28.276-.645.276t-.646-.276L2.284 10.916q-.28-.276-.28-.633z"/></svg><svg id="arrow-left" viewBox="0 0 32 32" width="32" height="32"><path d="M21.717 2q.357 0 .633.28l1.374 1.404q.276.28.276.646 0 .364-.276.645L12.92 16l10.804 11.025q.276.28.276.645t-.276.646L22.35 29.72q-.276.28-.633.28t-.633-.28L8.276 16.646Q8 16.367 8 16.002t.276-.646L21.084 2.284q.276-.28.633-.28z"/></svg><svg id="arrow-right" viewBox="0 0 32 32" width="32" height="32"><path d="M10.283 30q-.357 0-.633-.28l-1.374-1.404Q8 28.036 8 27.67q0-.364.276-.645L19.08 16 8.275 4.975Q8 4.695 8 4.33t.276-.646L9.65 2.28q.276-.28.633-.28t.633.28l12.808 13.073q.276.28.276.645t-.276.646L10.916 29.716q-.276.28-.633.28z"/></svg><svg id="arrow-up" viewBox="0 0 32 32" width="32" height="32"><path d="M2.003 21.717q0-.357.28-.633L15.357 8.276q.28-.276.646-.276.364 0 .645.276L29.72 21.084q.28.276.28.633t-.28.633l-1.404 1.374q-.28.276-.646.276-.364 0-.645-.276L16 12.92 4.975 23.725Q4.695 24 4.33 24t-.646-.276L2.28 22.35Q2 22.074 2 21.717z"/></svg><svg id="attribute-table" viewBox="0 0 32 32" width="32" height="32"><path d="M0 24.273V7.727C0 6.15.543 4.8 1.63 3.68 2.714 2.56 4.022 2 5.55 2h20.896c1.53 0 2.837.56 3.923 1.68C31.458 4.8 32 6.15 32 7.727v16.546c0 1.577-.543 2.926-1.63 4.047C29.286 29.44 27.978 30 26.45 30H5.552c-1.53 0-2.837-.56-3.923-1.68C.542 27.2 0 25.85 0 24.273zm2.468 0c0 .875.302 1.624.906 2.247.603.623 1.33.934 2.178.934h20.896c.848 0 1.575-.31 2.178-.934.604-.623.906-1.372.906-2.247V7.727c0-.875-.302-1.624-.906-2.247-.603-.623-1.33-.934-2.178-.934H5.552c-.848 0-1.575.31-2.178.934-.604.623-.906 1.372-.906 2.247z"/><path stroke="#444" stroke-linejoin="round" d="M10.944 6.5h.384v19h-.384z"/><path stroke="#444" stroke-linejoin="round" d="M4.25 9.88v-.385h23.5v.384zM4.25 16.192v-.384h23.5v.384zM4.25 22.55v-.384h23.5v.384z"/><path stroke="#444" stroke-linejoin="round" d="M20.944 6.5h.384v19h-.384z"/></svg><svg id="base-layer" viewBox="0 0 32 32" width="32" height="32"><path d="M4.594 3c-.342.075-.594.375-.594.734V7.25c0 .414.336.75.75.75h22.5c.414 0 .75-.336.75-.75v-3.5c0-.414-.336-.75-.75-.75H4.75c-.023-.003-.05-.004-.078-.004s-.055 0-.08.004zM5.5 4.5h21v2h-21v-2zM1 19.75h30v1.5H1zM4.594 12c-.342.075-.594.375-.594.734v3.517c0 .414.336.75.75.75h22.5c.414 0 .75-.336.75-.75v-3.5c0-.414-.336-.75-.75-.75H4.75c-.023-.003-.05-.004-.078-.004s-.055 0-.08.004zm.906 1.5h21v2h-21v-2zM4.75 24h22.5c.416 0 .75.334.75.75v3.5c0 .416-.334.75-.75.75H4.75c-.415 0-.75-.334-.75-.75v-3.5c0-.416.335-.75.75-.75z"/></svg><svg id="binocular" viewBox="-0.258 -0.548 32.000001 32" width="32" height="32"><path d="M18.485.452h5.708v4.274h-5.708zm-4.23 5.63h2.96V17.05h-2.96zM12.02 18.918c.54 0 .978-.455.978-1.023V6.082H4.383L.743 22.19l.016 1.05v6.22c0 .546.426.992.948.992h8.383c.533 0 .96-.446.96-.993V18.917h.897m7.513-.027c-.543 0-.975-.457-.975-1.022V6.064h8.62l3.637 16.107-.02 1.042v6.217c0 .55-.426.995-.95.995h-8.385c-.526 0-.952-.446-.952-.996V18.89h-.904M7.315.453h5.708v4.274H7.314z"/></svg><svg id="check" viewBox="0 0 32 32" width="32" height="32"><path d="M2.16 16.57q0-.713.5-1.213l2.43-2.43q.5-.5 1.214-.5t1.214.5l5.25 5.27L24.482 6.463q.5-.5 1.214-.5t1.214.5l2.43 2.43q.5.5.5 1.213t-.5 1.214L13.98 26.68q-.5.5-1.214.5t-1.214-.5L2.66 17.785q-.5-.5-.5-1.214z"/></svg><svg id="circle-i-outline" viewBox="0 0 32 32" width="32" height="32"><path d="M5.393 5.393c-5.858 5.86-5.858 15.355 0 21.214 5.86 5.858 15.355 5.858 21.214 0 5.858-5.86 5.858-15.355 0-21.214-5.86-5.858-15.355-5.858-21.214 0zm19.225 19.225c-4.76 4.76-12.476 4.76-17.236 0s-4.76-12.476 0-17.236 12.476-4.76 17.236 0 4.76 12.476 0 17.236zM5.768 5.768c-5.65 5.65-5.65 14.813 0 20.464 5.65 5.65 14.813 5.65 20.464 0 5.65-5.65 5.65-14.813 0-20.464-5.65-5.65-14.813-5.65-20.464 0zm18.545 18.545c-4.59 4.592-12.035 4.592-16.626 0-4.592-4.59-4.592-12.035 0-16.626 4.59-4.592 12.035-4.592 16.626 0 4.592 4.59 4.592 12.035 0 16.626z" style="line-height:125%;-inkscape-font-specification:Noto Serif Bold" font-size="22" font-weight="bold" letter-spacing="0" word-spacing="0" font-family="Noto Serif"/><path d="M14 12.68h4v11.792h-4zM18 8.783c0 1.105-.895 2-2 2s-2-.895-2-2c0-1.104.895-2 2-2s2 .896 2 2z"/></svg><svg id="circle-i" viewBox="0 0 32 32" width="32" height="32"><path d="M16 1C7.707 1 1 7.707 1 16s6.707 15 15 15 15-6.707 15-15S24.294 1 16 1zm0 5.78c1.105 0 2 .897 2 2 0 1.106-.895 2-2 2s-2-.894-2-2c0-1.103.895-2 2-2zm-2 5.907h4V24.47h-4V12.687z"/></svg><svg id="circle-minus-outline" viewBox="0 0 32 32" width="32" height="32"><path d="M7.382 14.01v3.98h17.236v-3.98zm-1.99-8.617c-5.857 5.86-5.857 15.355 0 21.214 5.86 5.858 15.356 5.858 21.215 0 5.858-5.86 5.858-15.355 0-21.214-5.86-5.858-15.355-5.858-21.214 0zM24.62 24.618c-4.76 4.76-12.476 4.76-17.236 0s-4.76-12.476 0-17.236 12.476-4.76 17.236 0 4.76 12.476 0 17.236z"/></svg><svg id="circle-minus" viewBox="0 0 32 32" width="32" height="32"><path d="M16 1c8.294 0 15 6.707 15 15s-6.707 15-15 15S1 24.293 1 16 7.707 1 16 1zm7.717 16.515v-3.03H8.284v3.03z"/></svg><svg id="circle-plus-outline" viewBox="0 0 32 32" width="32" height="32"><path d="M14.01 7.382v6.63H7.383v3.977h6.63v6.628h3.977v-6.63h6.628v-3.977h-6.63V7.383zm-8.617-1.99c-5.858 5.86-5.858 15.356 0 21.215 5.86 5.858 15.355 5.858 21.214 0 5.858-5.86 5.858-15.355 0-21.214-5.86-5.858-15.355-5.858-21.214 0zM24.618 24.62c-4.76 4.76-12.476 4.76-17.236 0s-4.76-12.476 0-17.236 12.476-4.76 17.236 0 4.76 12.476 0 17.236z"/></svg><svg id="circle-plus" viewBox="0 0 32 32" width="32" height="32"><path d="M16 1c8.294 0 15 6.707 15 15s-6.707 15-15 15S1 24.293 1 16 7.707 1 16 1zm7.717 16.515v-3.03h-6.202v-6.2h-3.03v6.2h-6.2v3.03h6.2v6.202h3.03v-6.202h6.202z"/></svg><svg id="circle-x-outline" viewBox="0 0 32 32" width="32" height="32"><path d="M20.688 8.5L16 13.188 11.312 8.5 8.5 11.313 13.188 16 8.5 20.688l2.813 2.812L16 18.812l4.688 4.688 2.812-2.813L18.812 16l4.688-4.688zM16 1C7.715 1 1 7.715 1 16s6.715 15 15 15 15-6.715 15-15S24.285 1 16 1zm0 27.188C9.27 28.188 3.812 22.73 3.812 16 3.813 9.27 9.27 3.812 16 3.812c6.73 0 12.188 5.457 12.188 12.188 0 6.73-5.457 12.188-12.188 12.188z"/></svg><svg id="compass" viewBox="0 0 32 32" width="32" height="32"><path d="M5.393 5.393c-5.857 5.858-5.857 15.356 0 21.214 5.858 5.857 15.356 5.857 21.214 0 5.857-5.858 5.857-15.356 0-21.214-5.858-5.857-15.356-5.857-21.214 0zm1.99 19.225c-4.76-4.76-4.76-12.476 0-17.236 2.27-2.27 5.21-3.457 8.185-3.56L10.698 16l4.87 12.18c-2.974-.105-5.916-1.292-8.186-3.562zM19.03 16L16 23.58 12.97 16h6.06zm5.588 8.618c-2.27 2.27-5.212 3.457-8.186 3.56L21.302 16l-4.87-12.18c2.974.105 5.916 1.292 8.186 3.562 4.76 4.76 4.76 12.476 0 17.236z"/></svg><svg id="delete" viewBox="0 0 32 32" width="32" height="32"><path d="M22.688 8.5L18 13.188 13.312 8.5 10.5 11.313 15.188 16 10.5 20.688l2.813 2.812L18 18.812l4.688 4.688 2.812-2.813L20.812 16l4.688-4.688z"/><path style="text-indent:0;text-align:start;line-height:normal;text-transform:none;block-progression:tb;-inkscape-font-specification:Sans" d="M9.375 2.188c-.82 0-1.625.558-1.97 1-.342.44-.474.746-.56.906l-6 10.937a1.75 1.75 0 0 0 0 1.626l6 11.625c.096.19.21.524.56.97.354.446 1.158.97 1.97.97h19.25c1.493 0 2.75-1.258 2.75-2.75V4.937c0-1.494-1.257-2.75-2.75-2.75H9.375zm.594 3.5h17.905v21.03H9.97c-.022-.04-.01-.016-.033-.062l-5.562-10.75L9.938 5.78c.033-.06.002-.04.03-.093z" color="#000" overflow="visible" font-family="Sans"/></svg><svg id="earth" viewBox="0 0 32 32" width="32" height="32"><path d="M22.764 7.295c.134.268.47.803.2 1.005-.2.134-.668.134-.87-.336-.2-.47 0-.737-.335-.603-.336.135-.47-.2-.403-.267.068-.134.202-.2.336-.268 0-.134-.268-.535.133-.47.268.07.804.67.938.94zm1.272 3.014zm3.95 1.74s-.133 0 0 0zM16 1c8.304 0 15 6.696 15 15s-6.696 15-15 15S1 24.304 1 16 7.696 1 16 1zm-5.558 26.585l.536.268c.202.068.402.134.67.202.937.335 1.875.535 2.88.67 1.875.2 3.75.067 5.558-.536 1.005-.337 2.01-.74 2.88-1.34.402-.27.402-1.072.67-1.608.536-1.07-.134-2.21.804-3.148.803-.937.267-1.273.267-2.277 0-.67.536-1.205.268-1.942-.067-.268-.47.2-.603-.068-.335-.47-1.407-.067-1.875-.133-.87-.134-1.607-.938-2.21-1.54-.336-.337 0-1.34.067-1.742.268-1.005 0-2.21 1.273-2.545.335-.067.335-.603.67-.737.335-.068.67-.2 1.005-.268.603-.067 1.14.134 1.74.134.67 0 .938.335 1.474.737.47.402.87.202 1.473.336.47 0 0-.337-.135-.537-.2-.134-.4-.134-.535-.134-1.072-.27-1.54-1.474-2.41-2.01-.403-.2-.604-.134-.738 0-.068.068.067.804.067.804-.068.2-.67.267-.872.335-.603.133-1.942-1.14-1.005-1.474.268-.068 1.81-.336 1.607-1.005-.2-.4.134-.87-.335-.937-.536-.067-.47-.47-1.005-.535-.335-.068-.335-.738-.335-.938 0-.603.134-.402.603-.47-1.14-.736-2.478-1.272-3.818-1.606-.067.2-.335.803-.535.803-.336.068-.402 0-.604.202-.602.668-1.07 1.874-1.673.468-.268-.737.335-1.273.134-1.875H15.8c.4.803-.336 1.205-.536 1.273-.536 0-.67-.336-1.14-.268-.267.067-.468-.268-.736-.134-.268.134-.87.536-.938.803-.2.804.402.872.938.402.402-.402 1.14-.804 1.674-.402.402.335.336.603.336.937 0 .334-.068 1.205-.604 1.07-.267-.066-.47-.4-.737-.2-.535.47-1.205.402-1.942.603-.67.134-1.072.402-1.675.603-.536.203-.737.27-.803.805 0 .134 0 .938-.202 1.005-.335.134-.535-1.473-1.473-1.34-.804.068-2.01.872-1.675 1.876.134.335 1.875.2.67.937-.134.068.134 1.14.134 1.34.066.535.87 1.205 1.406.67.4-.403.4-.336.937-.135 1.005.536 2.21 1.005 3.014 1.81.402.4.603 1.606 1.14 1.874.602.335 1.272.335 1.74.937.402.47-.134 1.272-.536 1.54-.266.134-.802 1.607-1.07 1.942-.134.268-.804.402-1.07.47-.203 0-.47.603-.605.737-.47.468-.535.87-1.14 1.272-1.204.803-1.472 1.54-1.204 2.946.135.536.336.87.738 1.072zm-2.746-1.808l.134.134c.47.402 1.005.738 1.54 1.072-1.406-1.407-1.54-3.282-1.406-5.223l.202-1.608c.067-.202-.268-.47-.268-.737 0-.67 0-.336-.536-.87-.268-.27-.67-.74-.803-1.14-.47-1.072.066-2.01.668-2.88.603-.938-.47-1.34-.67-2.143-.067-.402-.47-.402-.4-.804.066-.47-.27-.335-.604-.603-.804-.536-.068-1.34-.47-1.74-2.88 4.686-2.41 10.847 1.072 15 .067.066 0 .066.067.133h.068c.202.268.402.536.604.737.2.2.47.402.67.603z"/></svg><svg id="help" viewBox="0 0 32 32" width="32" height="32"><path d="M22.45 3.028c1.812 1.377 2.827 3.333 2.827 6.014 0 1.595-.58 3.044-1.378 4.13-.51.654-1.523 1.523-2.9 2.61l-1.52 1.014c-.726.58-1.234 1.304-1.45 2.03-.145.434-.22 1.376-.22 2.1 0 .146-.072.436-.506.436H12.81c-.507 0-.507-.218-.507-.363.073-1.885.29-3.552 1.088-4.783 1.088-1.668 4.132-3.48 4.132-3.48.434-.36.797-.65 1.087-1.086.507-.724.87-1.52.87-2.318 0-.942-.22-1.884-.8-2.608-.724-.87-1.52-1.305-2.97-1.305-1.45 0-2.32.797-2.9 1.738-.578.942-.507 2.102-.507 3.117h-5.58c0-3.913 1.015-6.377 3.19-7.826C11.36 1.434 13.172 1 15.346 1c2.826 0 5.072.508 7.1 2.03zm-7.464 21.23c1.957.073 3.406 1.45 3.333 3.478-.074 2.03-1.595 3.333-3.552 3.26-1.884-.072-3.333-1.376-3.26-3.405.07-2.028 1.593-3.405 3.477-3.332z"/></svg><svg id="history" viewBox="0 0 32 32" width="32" height="32"><path d="M1.002 12.25V3.5q0-.82.78-1.152.762-.333 1.35.273l2.537 2.52q2.09-1.972 4.774-3.056Q13.13 1 16 1q3.048 0 5.82 1.19 2.773 1.192 4.785 3.205 2.013 2.012 3.204 4.785Q31 12.953 31 16t-1.19 5.82q-1.192 2.773-3.205 4.785-2.012 2.013-4.785 3.204Q19.048 31 16 31q-3.358 0-6.386-1.416-3.027-1.417-5.156-3.995-.136-.197-.126-.44.01-.245.166-.4l2.675-2.696q.196-.176.488-.176.314.04.45.234 1.427 1.855 3.496 2.87Q13.676 26 16 26q2.032 0 3.878-.792 1.846-.79 3.194-2.138 1.347-1.347 2.138-3.194Q26 18.03 26 16q0-2.032-.79-3.88-.79-1.845-2.138-3.192-1.348-1.348-3.194-2.14Q18.032 6 16 6q-1.913 0-3.67.694-1.76.693-3.126 1.983l2.675 2.695q.605.586.273 1.348-.333.78-1.153.78H2.25q-.507 0-.88-.37-.37-.37-.37-.88zm10 6.876v-1.25q0-.274.176-.45t.45-.176h4.375v-6.875q0-.274.176-.45.175-.176.448-.176h1.25q.274 0 .45.175.176.176.176.45v8.75q0 .273-.176.45-.176.176-.45.176h-6.25q-.273 0-.45-.176-.175-.176-.175-.45z"/></svg><svg id="identification-marker" viewBox="0 0 16 16" width="16" height="16"><path d="M6.425 0v6.425H0v3.15h6.425V16h3.15V9.575H16v-3.15H9.575V0z"/></svg><svg id="layers" viewBox="0 0 32 32" width="32" height="32"><path d="M1.53 8.813c-.705-.312-.705-.86 0-1.172l13.22-6.405C15.06 1.08 15.53 1 16 1s.94.08 1.252.235l13.22 6.406c.704.313.704.86 0 1.173l-13.22 6.406c-.313.155-.782.234-1.25.234-.47 0-.94-.08-1.253-.235zm28.94 6.562c.705.313.705.937 0 1.25l-13.22 6.328c-.312.156-.78.313-1.25.313s-.94-.157-1.252-.313l-13.22-6.328c-.704-.313-.704-.937 0-1.25 0 0 2.113-1.016 2.582-1.25.392-.235.548-.235 1.018 0s9.62 4.687 9.62 4.687c.314.157.783.235 1.253.235.47 0 .94-.078 1.252-.235 0 0 9.465-4.61 9.778-4.766.313-.156.392-.156.705 0 .312.157 2.738 1.33 2.738 1.33zm0 7.812c.705.312.705.86 0 1.172l-13.22 6.405c-.312.156-.78.235-1.25.235s-.94-.08-1.252-.235L1.528 24.36c-.704-.313-.704-.86 0-1.173 0 0 2.113-1.094 2.582-1.33.392-.234.548-.155 1.018.08s9.62 4.61 9.62 4.61c.314.156.783.235 1.253.235.47 0 .94-.08 1.252-.235 0 0 9.465-4.53 9.778-4.687.313-.157.392-.157.705 0 .312.156 2.738 1.328 2.738 1.328z"/></svg><svg id="legend" viewBox="0 0 32 32" width="32" height="32"><path d="M2 4.773h6.247v5H2zM2 13.5h6.295v5H2zm0 8.727h6.294v5H2zM11 8.91V5.635c0-.147.045-.275.134-.383.09-.108.195-.162.316-.162h17.1c.12 0 .227.055.316.163.09.108.134.236.134.383V8.91c0 .147-.045.275-.134.383-.09.108-.195.162-.316.162h-17.1c-.12 0-.227-.054-.316-.162-.09-.108-.134-.236-.134-.384zm0 8.726v-3.272c0-.148.045-.276.134-.384.09-.108.195-.162.316-.162h13.1c.12 0 .227.054.316.162.09.108.134.236.134.384v3.272c0 .148-.045.276-.134.384-.09.108-.195.162-.316.162h-13.1c-.12 0-.227-.054-.316-.162-.09-.108-.134-.236-.134-.384zm0 8.728V23.09c0-.147.045-.275.134-.383.09-.108.195-.162.316-.162h17.1c.12 0 .227.054.316.162.09.108.134.236.134.384v3.274c0 .147-.045.275-.134.383-.09.108-.195.162-.316.162h-17.1c-.12 0-.227-.055-.316-.163-.09-.108-.134-.236-.134-.383z"/></svg><svg id="line" width="32" height="32"><title>polygon</title><defs><linearGradient id="c"><stop offset="0" stop-color="#fce94f"/><stop offset="1" stop-color="#e7ce04"/></linearGradient><linearGradient id="a"><stop offset="0" stop-color="#f2d6a9"/><stop offset="1" stop-color="#e9b96e"/></linearGradient><linearGradient id="b"><stop offset="0" stop-color="#f2d6a9"/><stop offset="1" stop-color="#e9b96e"/></linearGradient><linearGradient id="d"><stop offset="0" stop-color="#969696"/><stop offset="1" stop-color="#969696" stop-opacity=".266"/></linearGradient><linearGradient id="e"><stop offset="0" stop-color="#8cbe8c"/><stop offset="1" stop-color="#a1daa1"/></linearGradient></defs><path style="text-indent:0;text-align:start;line-height:normal;text-transform:none;block-progression:tb;-inkscape-font-specification:Andale Mono" d="M10.844 6.72L.72 16.78l2.81 2.75 7.25-7.218 12.345 12.97 8.156-8.407-2.843-2.656-5.312 5.436z" color="#000" overflow="visible" font-family="Andale Mono"/></svg><svg id="link-external" viewBox="0 0 24 32" width="24" height="32"><path d="M20 24H4V8.06L8 8V4H0v24h24V18h-4v6zM12 4l4 4-6 6 4 4 6-6 4 4V4H12z"/></svg><svg id="load" viewBox="0 0 32 32" width="32" height="32"><path d="M31 13.987c0 .202 0 .402-.067.603-.268.536-1.005.804-1.54.47-.268-.134-.402-.47-.47-.737-.066-.336-.066-.603-.133-.937-.268-1.34-.803-2.678-1.472-3.883-.803-1.406-1.874-2.745-3.146-3.748-1.204-1.005-2.676-1.74-4.148-2.21-1.406-.4-2.81-.602-4.283-.602h-.267c-.2 0-.4.067-.603.067-.4 0-.936.068-1.338.134-.87.134-1.673.402-2.476.737C9.65 4.417 8.38 5.22 7.24 6.225c-1.137 1.005-2.074 2.21-2.81 3.48-.803 1.473-1.338 3.013-1.606 4.686-.133.737-.133 1.54-.133 2.276 0 .4 0 .737.068 1.07.068.402.134.87.2 1.273.336 1.605.938 3.146 1.875 4.484.87 1.34 1.94 2.544 3.212 3.48 1.338 1.005 2.81 1.74 4.35 2.21 1.674.47 3.346.603 5.086.47 1.674-.135 3.347-.604 4.886-1.34.737-.335 1.472-.803 2.142-1.272.67-.47 1.27-1.004 1.807-1.606.267-.268.535-.603.803-.937.267-.335.47-.67.67-1.006.2-.335.802-1.338 1.137-2.075.268-.537.535-1.072.737-1.675.134-.268.2-.603.267-.87.066-.27.067-.47.133-.738.068.603.068 1.205-.067 1.74-.068.336-.134.737-.268 1.072-.067.334-.2.668-.335 1.003-.268.67-.535 1.272-.87 1.874-.402.737-.804 1.406-1.34 2.008-.534.602-1.07 1.205-1.672 1.74-1.204 1.005-2.676 1.808-4.148 2.41-1.54.603-3.212.937-4.886 1.005-1.673.067-3.413-.202-5.02-.737-1.538-.47-3.01-1.272-4.35-2.21-1.27-.936-2.408-2.075-3.345-3.346-.468-.67-.87-1.34-1.203-2.076-.334-.735-.603-1.405-.87-2.208-.402-1.205-.603-2.477-.67-3.748-.067-1.34.068-2.61.335-3.882.335-1.607 1.005-3.147 1.874-4.552.803-1.272 1.74-2.343 2.81-3.347 1.07-1.003 2.343-1.808 3.68-2.41 1.54-.736 3.213-1.272 4.953-1.406C15.337 1 15.94 1 16.61 1c.87 0 1.74.134 2.543.268 1.606.335 3.146.937 4.55 1.74 1.405.803 2.745 1.942 3.815 3.213 1.004 1.206 1.807 2.478 2.41 3.883.267.67.468 1.406.668 2.142.134.535.335 1.138.402 1.74z"/></svg><svg id="location-target" width="32" height="32"><path style="text-indent:0;text-align:start;line-height:normal;text-transform:none;block-progression:tb;-inkscape-font-specification:Sans" d="M16.02 0C7.17 0 0 7.18 0 15.98 0 24.776 7.168 32 16.02 32 24.874 32 32 24.777 32 15.98 32 7.18 24.873 0 16.02 0zm-2.67 2.886v5.02h5.34v-5.02c5.206 1.062 9.334 5.16 10.39 10.416h-5.007v5.354h5.007c-1.07 5.243-5.198 9.35-10.39 10.416v-5.02h-5.34v5.02C8.168 28.006 4.066 23.9 3.005 18.656h5.048v-5.354H3.004C4.052 8.046 8.154 3.948 13.35 2.886z" color="#000" overflow="visible" font-family="Sans"/></svg><svg id="location-target2" viewBox="0 0 32 32" width="32" height="32"><path d="M16 10.643c2.946 0 5.356 2.41 5.356 5.356 0 2.946-2.41 5.356-5.357 5.356s-5.357-2.41-5.357-5.357 2.41-5.357 5.356-5.357zm12.79 3.95H31v2.813h-2.21c-.67 5.96-5.425 10.714-11.384 11.384V31h-2.812v-2.21C8.634 28.12 3.88 23.365 3.21 17.406H1v-2.812h2.21C3.88 8.634 8.635 3.88 14.594 3.21V1h2.812v2.21c5.96.67 10.714 5.425 11.384 11.384zM16 25.978c5.49 0 9.977-4.487 9.977-9.978 0-5.49-4.487-9.978-9.978-9.978-5.49 0-9.978 4.487-9.978 9.977S10.51 25.976 16 25.976z"/></svg><svg id="location" viewBox="0 0 32 32" width="32" height="32"><path d="M16 1C10.477 1 6 5.197 6 10.375 6 19.75 16 31 16 31s10-11.25 10-20.625C26 5.197 21.523 1 16 1zm0 15c-3.314 0-6-2.518-6-5.625s2.686-5.625 6-5.625 6 2.518 6 5.625S19.314 16 16 16z"/></svg><svg id="lock" viewBox="0 0 32 32" width="32" height="32"><path d="M3 28.955V16.682q0-.852.633-1.45.632-.595 1.535-.595h.72v-4.092q0-3.92 2.98-6.733Q11.848 1 16 1q4.154 0 7.133 2.812 2.98 2.813 2.98 6.733v4.092h.72q.903 0 1.535.596.632.597.632 1.45v12.272q0 .852-.632 1.448-.632.597-1.534.597H5.166q-.902 0-1.534-.597Q3 29.807 3 28.955zm7.223-14.318H21.78v-4.092q0-2.258-1.693-3.856-1.693-1.6-4.085-1.6-2.393 0-4.085 1.6-1.692 1.597-1.692 3.855v4.092z"/></svg><svg id="menu-dots" width="32" height="32"><g transform="matrix(0 -1.33333 1.33325 0 0 -1371.15)"><rect width="4" height="4" x="-1042.362" y="10" ry="0"/><rect ry="0" y="10" x="-1035.362" height="4" width="4"/><rect ry="0" y="10" x="-1049.362" height="4" width="4"/></g></svg><svg id="menu" width="32" height="32"><g transform="matrix(0 -1.33333 1.25 0 1 -1371.15)"><rect width="4" height="24" x="-1042.362" ry="0"/><rect ry="0" x="-1035.362" height="24" width="4"/><rect ry="0" x="-1049.362" height="24" width="4"/></g></svg><svg id="minus" viewBox="0 0 25 32" width="25" height="32"><path d="M0 16.57v-3.428q0-.714.5-1.214t1.214-.5h21.714q.714 0 1.214.5t.5 1.214v3.43q0 .713-.5 1.213t-1.214.5H1.714q-.714 0-1.214-.5T0 16.57z"/></svg><svg id="north-arrow" width="32" height="32"><path style="text-indent:0;text-align:start;line-height:normal;text-transform:none;block-progression:tb;-inkscape-font-specification:Sans" d="M16.02 0C7.17 0 0 7.195 0 16s7.17 16 16.02 16S32 24.805 32 16 24.87 0 16.02 0zm0 2.715C23.31 2.715 29.255 8.6 29.255 16c0 6.704-4.895 12.143-11.236 13.117V14.162l5.576 5.68L26.3 17.17l-8.906-9.107-1.373-1.38-1.33 1.38-8.947 9.107 2.704 2.673 5.576-5.68v14.996C7.676 28.196 2.83 22.713 2.83 16c0-7.4 5.9-13.285 13.19-13.285z" color="#000" overflow="visible" font-family="Sans"/></svg><svg id="options" viewBox="0 0 32 32" width="32" height="32"><path d="M1 26.71q0-.97.695-1.663l12.45-12.435q.712 1.79 2.093 3.168 1.38 1.378 3.17 2.09L6.943 30.325Q6.265 31 5.297 31q-.95 0-1.664-.676l-1.938-1.972Q1 27.694 1 26.71zm4.296-1.17q0 .474.347.822t.823.347q.476-.002.823-.348.346-.346.346-.822 0-.477-.347-.822-.348-.346-.824-.347-.476 0-.823.348-.347.347-.347.822zm9.36-16.36q0-3.378 2.403-5.78Q19.462 1 22.844 1q1.06 0 2.222.302 1.16.3 1.965.848.293.2.293.512 0 .31-.293.51L21.676 6.26v4.09l3.528 1.953 1.444-.886q1.354-.83 2.478-1.478 1.124-.65 1.288-.65.275 0 .43.183.156.183.156.456 0 .71-.42 1.935-.86 2.447-3.008 3.97-2.15 1.526-4.726 1.526-3.382 0-5.786-2.4-2.404-2.4-2.404-5.78z"/></svg><svg id="overlays" viewBox="0 0 32 32" width="32" height="32"><path d="M1 19.75h30v1.5H1zM4.594 24c-.342.075-.594.375-.594.734v3.517c0 .414.336.75.75.75h22.5c.414 0 .75-.336.75-.75v-3.5c0-.414-.336-.75-.75-.75H4.75c-.023-.003-.05-.004-.078-.004s-.055 0-.08.004zm.906 1.5h21v2h-21v-2zM4.75 12h22.5c.416 0 .75.335.75.75v3.5c0 .416-.334.75-.75.75H4.75c-.415 0-.75-.334-.75-.75v-3.5c0-.415.335-.75.75-.75zm0-9h22.5c.416 0 .75.335.75.75v3.5c0 .415-.334.75-.75.75H4.75C4.335 8 4 7.665 4 7.25v-3.5c0-.415.335-.75.75-.75z"/></svg><svg id="pen" viewBox="0 0 32 32" width="32" height="32"><path d="M26.3 11.723L10.177 27.91 4.09 21.823l16.188-16.12zm4.137-6.95c.803.804.737 2.142-.134 3.012l-2.82 2.82-6.088-6.09 2.82-2.818c.87-.87 2.208-.937 3.01-.134zM3.14 23.174l5.688 5.686L1 31z"/></svg><svg id="phone" viewBox="0 0 32 32" width="32" height="32"><path d="M4 27.59V4.41Q4 3 4.98 2q.978-1 2.353-1h17.334q1.375 0 2.354 1Q28 3.003 28 4.41v23.18Q28 29 27.02 30q-.978 1-2.353 1H7.333q-1.375 0-2.354-1Q4 28.997 4 27.59zm2.667-2.725q0 .277.198.48.2.202.47.202h17.333q.27 0 .47-.203.197-.202.197-.48V4.41q0-.277-.198-.48-.198-.202-.47-.202H7.335q-.27 0-.47.202-.197.203-.197.48v20.455zm8 3.41q0 .552.396.958.395.406.938.404.543 0 .94-.404.394-.403.394-.96 0-.555-.395-.96-.397-.402-.94-.403-.542 0-.937.404-.396.406-.396.96z"/></svg><svg id="plus" viewBox="0 0 32 32" width="32" height="32"><path d="M13.047 1v12.047H1v5.906h12.047V31h5.906V18.953H31v-5.906H18.953V1z"/></svg><svg id="point" width="32" height="32"><title>polygon</title><defs><linearGradient id="c"><stop offset="0" stop-color="#fce94f"/><stop offset="1" stop-color="#e7ce04"/></linearGradient><linearGradient id="a"><stop offset="0" stop-color="#f2d6a9"/><stop offset="1" stop-color="#e9b96e"/></linearGradient><linearGradient id="b"><stop offset="0" stop-color="#f2d6a9"/><stop offset="1" stop-color="#e9b96e"/></linearGradient><linearGradient id="d"><stop offset="0" stop-color="#969696"/><stop offset="1" stop-color="#969696" stop-opacity=".266"/></linearGradient><linearGradient id="e"><stop offset="0" stop-color="#8cbe8c"/><stop offset="1" stop-color="#a1daa1"/></linearGradient></defs><path style="text-indent:0;text-align:start;line-height:normal;text-transform:none;block-progression:tb;-inkscape-font-specification:Sans" d="M4.41 13.273c-1.876 0-3.41 1.534-3.41 3.41 0 1.874 1.534 3.408 3.41 3.408 1.874 0 3.408-1.533 3.408-3.408s-1.534-3.41-3.41-3.41zM16.68 7.818c-1.875 0-3.41 1.534-3.41 3.41 0 1.874 1.535 3.408 3.41 3.408 1.875 0 3.41-1.534 3.41-3.41 0-1.874-1.535-3.408-3.41-3.408zm10.91 9.546c-1.876 0-3.41 1.534-3.41 3.41 0 1.873 1.534 3.408 3.41 3.408 1.874 0 3.408-1.535 3.408-3.41 0-1.874-1.534-3.408-3.41-3.408z" color="#000" overflow="visible" font-family="Sans"/></svg><svg id="polygon" width="32" height="32"><title>polygon</title><defs><linearGradient id="c"><stop offset="0" stop-color="#fce94f"/><stop offset="1" stop-color="#e7ce04"/></linearGradient><linearGradient id="a"><stop offset="0" stop-color="#f2d6a9"/><stop offset="1" stop-color="#e9b96e"/></linearGradient><linearGradient id="b"><stop offset="0" stop-color="#f2d6a9"/><stop offset="1" stop-color="#e9b96e"/></linearGradient><linearGradient id="d"><stop offset="0" stop-color="#969696"/><stop offset="1" stop-color="#969696" stop-opacity=".266"/></linearGradient><linearGradient id="e"><stop offset="0" stop-color="#8cbe8c"/><stop offset="1" stop-color="#a1daa1"/></linearGradient></defs><path style="text-indent:0;text-align:start;line-height:normal;text-transform:none;block-progression:tb;-inkscape-font-specification:Sans" d="M19.563 6.844l-9.344 4.562L4.093 9.78.78 18.5l7.25 5.97 7.94-3.814 8.936 4.688 6.438-12.72z" color="#000" overflow="visible" font-family="Sans"/></svg><svg id="printer" viewBox="0 0 32 32" width="32" height="32"><path d="M29.125 8.5H2.875C1.845 8.5 1 9.344 1 10.375v9.375c0 1.03.844 1.875 1.875 1.875H8.5v7.5h15v-7.5h5.625c1.03 0 1.875-.844 1.875-1.875v-9.375c0-1.03-.844-1.875-1.875-1.875zM4.75 14.125c-1.035 0-1.875-.84-1.875-1.875 0-1.035.84-1.875 1.875-1.875 1.035 0 1.875.84 1.875 1.875 0 1.035-.84 1.875-1.875 1.875zM21.625 27.25h-11.25v-9.375h11.25v9.375zM8.5 2.875h15v3.75h-15v-3.75z"/></svg><svg id="profiles" viewBox="0 0 32 32" width="32" height="32"><path d="M27.317 20.673c2.812 1.083 3.482 1.76 3.55 2.234C31 23.517 31 29 31 29h-6.562c0-1.22 0-4.807-.068-5.213-.067-.677-.067-1.964-3.683-3.385-.536-.204-.938-.34-1.273-.474 1.205-.542 1.005-1.016 1.005-1.896 0-1.287-.604-.745-1.006-3.182-.134-.948-.268-.34-.603-1.896-.2-.812.068-.812.068-1.218 0-.407-.067-.677-.134-1.49-.067-.947.737-3.52 3.818-3.52 3.08 0 3.95 2.573 3.884 3.52-.068.813-.134 1.083-.134 1.49-.068.406.267.406.067 1.218-.336 1.558-.47.948-.604 1.896-.402 2.437-1.07 1.895-1.07 3.182 0 1.964-.135 1.558 2.61 2.64zM22.763 29H1s0-4.402.134-5.214c.134-.677 1.005-1.49 4.62-2.912 3.617-1.354 3.35-1.15 3.35-3.724 0-1.624-.805-.54-1.34-3.655-.202-1.22-.336-.475-.737-2.437-.202-1.016.133-1.084.067-1.558s-.134-.948-.2-1.964C6.758 6.25 7.897 3 11.847 3c3.95 0 5.156 3.318 5.023 4.536-.067 1.016-.133 1.49-.2 1.964-.068.474.334.542.133 1.558-.402 1.963-.603 1.218-.804 2.437-.536 3.114-1.34 2.03-1.34 3.655 0 2.167-.134 2.437 2.077 3.25.4.135.737.27 1.272.474 3.615 1.422 4.486 2.235 4.62 2.912.068.406.134 1.895.134 3.182v2.03z"/></svg><svg id="project" viewBox="0 0 32 32" width="32" height="32"><path d="M27.296 4.214C28.853 4.214 30 5.378 30 6.918v21.38C30 29.837 28.853 31 27.296 31H4.706C3.148 31 2 29.838 2 28.297V6.917c0-1.54 1.148-2.703 2.706-2.703h7.097C12.277 2.34 13.97 1 16 1c2.032 0 3.725 1.34 4.198 3.214h7.1zM16 4.214c-.813 0-1.423.603-1.423 1.407s.61 1.474 1.422 1.474c.812 0 1.422-.67 1.422-1.473S16.812 4.215 16 4.215zm11.498 24.283V6.717h-3.916v4.82H8.416v-4.82H4.502v21.78z"/><path d="M8.5 20.808v-2.5h15v2.5zm0 4.53v-2.5h12.115v2.5zm0-9.055v-2.5h9.808v2.5z"/></svg><svg id="radio-button-checked" viewBox="0 0 32 32" width="32" height="32"><path d="M1 23.508v-15Q1 6.363 2.523 4.84q1.524-1.524 3.67-1.524h15q2.144 0 3.667 1.524 1.524 1.523 1.524 3.668v15q0 2.145-1.524 3.67-1.523 1.522-3.668 1.522h-15q-2.145 0-3.67-1.523Q1 25.653 1 23.507zm2.308 0q0 1.19.847 2.037t2.037.847h15q1.19 0 2.037-.847.846-.847.846-2.037v-15q0-1.19-.847-2.037-.848-.846-2.038-.846h-15q-1.19 0-2.037.847-.847.848-.847 2.038v15zm2.384-2.773V11.28c0-.9.32-1.67.96-2.312.64-.64 1.41-.96 2.313-.96h9.454c.9 0 1.67.32 2.312.96.64.64.96 1.41.96 2.313v9.455c0 .902-.32 1.673-.96 2.313-.64.64-1.41.96-2.313.96H8.964c-.902 0-1.673-.32-2.313-.96-.64-.64-.96-1.41-.96-2.313z"/></svg><svg id="ruler" viewBox="0 0 32 32" width="32" height="32"><path d="M2.8 16.57c-.812 0-1.467.64-1.467 1.43v8.57c0 .793.655 1.43 1.467 1.43h26.4c.812 0 1.467-.637 1.467-1.43V18c0-.79-.655-1.43-1.467-1.43zm3.2.805c.36 0 .667.285.667.655v3.065c0 .37-.306.685-.667.685-.36 0-.666-.315-.666-.685V18.03c0-.37.305-.655.666-.655zm5.333 0c.362 0 .667.285.667.655v3.065c0 .37-.306.685-.667.685-.36 0-.666-.315-.666-.685V18.03c0-.37.305-.655.666-.655zm5.334 0c.36 0 .666.285.666.655V23c0 .37-.305.685-.666.685-.36 0-.667-.316-.667-.685v-4.97c0-.37.306-.655.667-.655zm5.333 0c.36 0 .667.285.667.655v3.065c0 .37-.306.685-.667.685-.36 0-.667-.315-.667-.685V18.03c0-.37.306-.655.667-.655zm5.333 0c.36 0 .667.285.667.655v3.065c0 .37-.306.685-.667.685-.36 0-.666-.315-.666-.685V18.03c0-.37.305-.655.666-.655zM27.097 5.19c-.052-.01-.1-.006-.156.02-.113.052-.158.14-.16.28l-.064 2.214-21.356.09.062-2.215c.003-.132-.058-.215-.17-.274-.11-.053-.22-.02-.32.073L1.425 8.836c-.06.066-.088.142-.09.234-.002.086.007.147.065.213l3.343 3.452c.093.085.202.107.316.055.113-.052.165-.17.17-.31l.053-2.184 21.357-.09-.054 2.185c-.004.132.05.246.16.305.113.052.223.018.32-.073l3.51-3.46c.06-.064.088-.14.09-.233.002-.086 0-.177-.057-.243l-3.353-3.42c-.047-.044-.11-.07-.16-.078z"/></svg><svg id="settings" viewBox="0 0 32 32" width="32" height="32"><path d="M27.392 17.515l3.39 2.45c.216.218.287.722.143 1.01l-3.1 5.12c-.145.29-.506.506-.866.362l-3.894-1.515c-.865.577-1.66 1.154-2.596 1.515l-.576 3.966c-.073.29-.433.577-.794.577h-6.13c-.36 0-.72-.217-.792-.577l-.577-3.966c-.937-.36-1.802-.938-2.594-1.515l-3.894 1.515c-.288.144-.72-.073-.865-.36l-3.1-5.12c-.217-.362-.145-.795.144-1.01l3.246-2.452c0-.506-.073-1.01-.073-1.515 0-.505.073-1.01.073-1.515l-3.317-2.45c-.218-.218-.29-.722-.145-1.01l3.1-5.12c.145-.29.506-.506.866-.362l3.894 1.515c.865-.577 1.66-1.154 2.596-1.515l.576-3.966c.073-.29.433-.577.794-.577h6.13c.36 0 .72.288.792.577l.505 3.966c.938.36 1.803.938 2.596 1.515l3.82-1.515c.29-.144.795.073.94.36l3.1 5.12c.217.362.144.795-.144 1.01l-3.246 2.452c0 .506.073 1.01.073 1.515 0 .505 0 1.082-.073 1.515zm-11.463 3.75c2.956 0 5.407-2.308 5.407-5.265s-2.45-5.264-5.408-5.264c-2.957 0-5.336 2.307-5.336 5.264 0 2.957 2.38 5.264 5.335 5.264z"/></svg><svg id="square-minus" viewBox="0 0 32 32" width="32" height="32"><path d="M1 25.375V6.625Q1 4.3 2.65 2.65 4.3 1 6.625 1h18.75Q27.7 1 29.35 2.65 31 4.3 31 6.625v18.75q0 2.324-1.65 3.975Q27.7 31 25.375 31H6.625Q4.3 31 2.65 29.35 1 27.7 1 25.375zm5-8.124q0 .508.37.88t.88.37h17.5q.507 0 .88-.37.37-.37.37-.88v-2.5q0-.507-.37-.88-.372-.37-.88-.37H7.25q-.508 0-.88.37-.372.372-.37.88v2.5z"/></svg><svg id="square-plus" viewBox="0 0 32 32" width="32" height="32"><path d="M6.638 1c-1.55 0-2.898.54-3.998 1.64C1.54 3.74 1 5.09 1 6.638v18.724c0 1.55.54 2.898 1.64 3.998C3.74 30.46 5.09 31 6.638 31h18.724c1.55 0 2.864-.54 3.964-1.64 1.1-1.1 1.674-2.45 1.674-3.998V6.638c0-1.55-.574-2.898-1.674-3.998S26.91 1 25.362 1H6.638zm8.098 4.99h2.494c.34-.002.64.127.888.374.248.248.376.55.376.89v6.252h6.253c.34 0 .64.128.89.376.246.247.34.516.34.854v2.528c0 .34-.094.607-.34.854-.25.248-.552.376-.89.376h-6.253v6.253c0 .34-.128.64-.376.89-.247.246-.55.374-.888.374h-2.494c-.34.002-.607-.127-.854-.374-.248-.248-.376-.55-.376-.89v-6.252H7.253c-.34 0-.64-.128-.89-.376-.246-.247-.374-.516-.374-.854v-2.528c-.002-.34.127-.607.374-.854.248-.248.55-.376.89-.376h6.252V7.253c0-.34.128-.64.376-.89.247-.246.516-.374.854-.374z"/></svg><svg id="topics" viewBox="0 0 32 32" width="32" height="32"><path d="M8.408 11.69l19.943 1.514-.302 3.99-19.943-1.515zm-.528 7.344l19.943 1.514-.303 3.99-19.943-1.515zM22 2.188L1.5 3.468c-.87.056-1.556.815-1.5 1.69l1.063 16.28c.056.874.818 1.555 1.688 1.5l1.22-.094-.25 3.563c-.07.94.658 1.775 1.594 1.844l23.47 1.72c.935.07 1.774-.653 1.843-1.594l1.375-18.5c.07-.94-.658-1.775-1.594-1.844l-6.438-.47-.25-3.905c-.056-.874-.85-1.524-1.72-1.47zm.094 1.468c.077-.005.12.034.125.094l.218 3.688-15.5-1.125c-.936-.07-1.806.653-1.875 1.594l-.97 13.438-1.437.094c-.077.004-.12-.035-.125-.095L1.5 5.065c-.004-.06.017-.09.094-.095l20.5-1.313zM6.814 7.813l23.468 1.72c.148.01.228.096.22.218l-1.376 18.532c-.01.122-.07.198-.22.188L5.44 26.75c-.148-.01-.26-.127-.25-.25L6.563 8c.01-.12.102-.197.25-.187z"/></svg><svg id="user" viewBox="0 0 32 32" width="32" height="32"><path d="M2.25 25.94q0-1.033.068-2.02.07-.987.273-2.128.206-1.142.52-2.12.312-.978.84-1.904.526-.927 1.21-1.582.683-.655 1.67-1.045.986-.388 2.178-.39.176 0 .82.42.644.42 1.455.938.81.518 2.11.938 1.3.42 2.607.42 1.308 0 2.608-.42t2.11-.938q.81-.517 1.454-.937.644-.42.82-.42 1.192 0 2.178.39.987.392 1.67 1.046.684.654 1.21 1.582.528.927.84 1.904.314.977.52 2.12.203 1.143.272 2.128.07.985.07 2.02 0 2.345-1.427 3.703Q26.898 31 24.535 31H7.466q-2.363 0-3.79-1.357-1.424-1.358-1.425-3.702zM8.5 8.5q0-3.105 2.196-5.303Q12.894 1 16 1q3.104 0 5.302 2.197Q23.5 5.395 23.5 8.5T21.3 13.803Q19.104 16 16 16q-3.106 0-5.304-2.197Q8.5 11.605 8.5 8.5z"/></svg><svg id="users" viewBox="0 0 32 32" width="32" height="32"><path d="M9.52 23.47c1.44-.953 3.232-1.678 5.203-2.12-.39-.47-.747-.992-1.054-1.556-.792-1.456-1.212-3.06-1.212-4.638 0-2.27 0-4.41.797-6.163.773-1.7 2.165-2.755 4.147-3.15-.44-2.017-1.614-3.343-4.735-3.343-5 0-5 3.4-5 7.594 0 2.612 1.497 5.223 3.333 6.27v1.392c-5.653.468-10 3.28-10 6.68h7.266c.378-.34.796-.663 1.255-.966zM21 22.82v-1.392c1.836-1.047 3.333-3.66 3.333-6.27 0-4.195 0-7.595-5-7.595s-5 3.4-5 7.594c0 2.612 1.498 5.224 3.334 6.27v1.392c-5.654.467-10 3.28-10 6.68H31c0-3.4-4.347-6.213-10-6.68z"/></svg><svg id="zoom-max" width="32" height="32"><path style="text-indent:0;text-align:start;line-height:normal;text-transform:none;block-progression:tb;-inkscape-font-specification:Sans" d="M0 0v11.917h3.625V3.625H12V0H0zm20 0v3.625h8.375v8.292H32V0H20zM0 20.042V32h12v-3.625H3.625v-8.333H0zm28.375 0v8.333H20V32h12V20.042h-3.625z" color="#000" overflow="visible" font-family="Sans"/></svg></defs></svg>