<?xml version="1.0" encoding="UTF-8" standalone="no"?>
<!-- Created with Inkscape (http://www.inkscape.org/) -->

<svg
   xmlns:dc="http://purl.org/dc/elements/1.1/"
   xmlns:cc="http://creativecommons.org/ns#"
   xmlns:rdf="http://www.w3.org/1999/02/22-rdf-syntax-ns#"
   xmlns:svg="http://www.w3.org/2000/svg"
   xmlns="http://www.w3.org/2000/svg"
   xmlns:sodipodi="http://sodipodi.sourceforge.net/DTD/sodipodi-0.dtd"
   xmlns:inkscape="http://www.inkscape.org/namespaces/inkscape"
   width="120"
   height="36"
   id="svg3125"
   version="1.1"
   inkscape:version="0.48.4 r9939"
   sodipodi:docname="login_text_logo.svg">
  <defs
     id="defs3127" />
  <sodipodi:namedview
     id="base"
     pagecolor="#ffffff"
     bordercolor="#666666"
     borderopacity="1.0"
     inkscape:pageopacity="0.0"
     inkscape:pageshadow="2"
     inkscape:zoom="3.959798"
     inkscape:cx="41.959903"
     inkscape:cy="84.407378"
     inkscape:document-units="px"
     inkscape:current-layer="layer1"
     showgrid="false"
     inkscape:window-width="1229"
     inkscape:window-height="913"
     inkscape:window-x="51"
     inkscape:window-y="77"
     inkscape:window-maximized="0" />
  <metadata
     id="metadata3130">
    <rdf:RDF>
      <cc:Work
         rdf:about="">
        <dc:format>image/svg+xml</dc:format>
        <dc:type
           rdf:resource="http://purl.org/dc/dcmitype/StillImage" />
        <dc:title />
      </cc:Work>
    </rdf:RDF>
  </metadata>
  <g
     inkscape:label="Layer 1"
     inkscape:groupmode="layer"
     id="layer1"
     transform="translate(0,-1016.3622)">
    <g
       transform="matrix(0.23754416,0,0,0.30776126,-143.3486,862.46772)"
       style="font-size:38.61312484999999839px;font-style:normal;font-weight:normal;line-height:125%;fill:#888888;fill-opacity:1;stroke:none;display:inline;font-family:Bitstream Vera Sans"
       id="g3835">
      <g
         id="g5145"
         style="fill:#888888;stroke:none;fill-opacity:1">
        <path
           d="m 656.99764,536.9065 51.33024,0 c 0.0719,1.61929 0.10785,2.66281 0.10795,3.13055 -10e-5,9.64357 -0.26997,17.09211 -0.80962,22.34566 -0.8637,8.49208 -5.68547,13.63769 -14.46531,15.43686 -4.53398,0.89958 -9.49968,1.43933 -14.8971,1.61925 -5.72142,0.2159 -12.50428,0.32385 -20.34859,0.32385 -13.92559,0 -23.87498,-0.50377 -29.84819,-1.5113 -8.27618,-1.36737 -13.4038,-5.1816 -15.38288,-11.44271 -0.97155,-3.05857 -1.52929,-6.56694 -1.67322,-10.52513 -0.17992,-4.96567 -0.26988,-10.25522 -0.26988,-15.86866 0,-9.49955 0.44979,-16.17446 1.34938,-20.02473 1.29539,-5.36145 3.52636,-9.1397 6.6929,-11.33475 1.65522,-1.18738 3.72426,-2.08697 6.20713,-2.69875 2.51881,-0.64763 6.06317,-1.16939 10.63308,-1.56528 6.44098,-0.57566 15.14894,-0.86353 26.12391,-0.8636 14.1054,7e-5 24.09077,0.55782 29.95614,1.67322 5.93716,1.11556 10.11122,3.09464 12.5222,5.93726 2.12292,2.55488 3.41832,6.58501 3.8862,12.0904 0.10785,1.47537 0.16183,3.74232 0.16193,6.80086 l -22.45361,0 c -0.0361,-2.01502 -0.14401,-3.38239 -0.32385,-4.10211 -0.50385,-1.83509 -2.1051,-2.93258 -4.80378,-3.29247 -3.56242,-0.46773 -10.57917,-0.70162 -21.05026,-0.70168 -9.31973,6e-5 -15.77873,0.30592 -19.37703,0.91758 -3.41845,0.61177 -5.48749,2.4829 -6.20713,5.6134 -0.57576,2.37495 -0.86363,6.60299 -0.8636,12.68413 -3e-5,6.9808 0.30583,11.74859 0.91758,14.30338 0.7916,3.41844 3.23847,5.32555 7.3406,5.72135 2.01503,0.17994 8.09621,0.34186 18.24356,0.48578 11.08281,-0.072 18.22549,-0.28785 21.42808,-0.6477 2.91458,-0.46777 4.5878,-1.74517 5.01968,-3.83223 0.2518,-1.29538 0.37774,-3.27446 0.37782,-5.93725 l -29.52433,0 0,-14.73518"
           style="fill:#888888;fill-opacity:1;stroke:none"
           id="path4680"
           inkscape:connector-curvature="0" />
        <path
           d="m 724.22516,505.00726 23.58709,0 0,73.67591 -23.58709,0 0,-73.67591"
           style="fill:#888888;fill-opacity:1;stroke:none"
           id="path4682"
           inkscape:connector-curvature="0" />
        <path
           d="m 762.36015,554.28646 21.75194,0 c -0.036,3.63433 0.70165,5.97325 2.21297,7.01675 0.79161,0.50378 1.69119,0.84562 2.69876,1.02552 1.0075,0.17994 2.77068,0.30588 5.28955,0.37783 1.25938,0.036 5.37947,0.072 12.36028,0.10795 9.57151,-0.036 15.11294,-0.0899 16.62431,-0.16193 2.84261,-0.21588 4.71375,-0.5937 5.6134,-1.13347 1.25934,-0.79162 1.88905,-2.5548 1.88912,-5.28955 -7e-5,-1.87111 -0.39588,-3.1845 -1.18745,-3.94018 -1.07957,-1.04349 -3.65237,-1.60123 -7.71843,-1.67323 -2.80676,3e-5 -8.67204,-0.21587 -17.59585,-0.6477 -9.21178,-0.43177 -15.18501,-0.68365 -17.91971,-0.75565 -7.12472,-0.21587 -12.1444,-1.04348 -15.05903,-2.48285 -3.74228,-1.83511 -6.18914,-4.96566 -7.34061,-9.39165 -0.6477,-2.44683 -0.97155,-5.64934 -0.97155,-9.60756 0,-8.34807 1.58327,-14.23134 4.74981,-17.64983 2.37489,-2.59073 5.97322,-4.29994 10.795,-5.12763 4.35396,-0.71959 14.71716,-1.07942 31.08961,-1.0795 10.65101,8e-5 18.17153,0.30594 22.56156,0.91758 5.79324,0.82769 9.96731,2.26702 12.52221,4.318 3.45431,2.84275 5.18151,7.93439 5.1816,15.27493 -9e-5,0.79169 -0.0181,2.05111 -0.054,3.77825 l -21.75194,0 c -0.072,-1.76313 -0.19797,-2.98656 -0.37782,-3.6703 -0.50384,-2.01501 -2.15907,-3.14848 -4.96571,-3.40042 -2.48291,-0.21585 -8.5281,-0.3238 -18.1356,-0.32385 -9.49964,5e-5 -15.13103,0.26993 -16.89419,0.80962 -1.97911,0.64776 -2.96865,2.32098 -2.96862,5.01968 -3e-5,2.59085 1.04349,4.17412 3.13055,4.7498 1.76315,0.46783 9.69747,0.91762 23.80299,1.34938 12.77402,0.35988 20.92424,0.80967 24.45068,1.34937 3.56227,0.5398 6.38696,1.34942 8.47408,2.42888 2.12293,1.07954 3.81415,2.60883 5.07365,4.58788 1.90703,2.91468 2.86058,7.6105 2.86068,14.08748 -10e-5,7.23267 -0.93566,12.5402 -2.8067,15.92263 -1.87123,3.34645 -4.92981,5.63139 -9.17576,6.85483 -4.17414,1.22343 -15.67081,1.83515 -34.49004,1.83515 -11.44274,0 -19.70091,-0.30586 -24.77453,-0.91758 -6.18915,-0.71966 -10.63309,-2.12301 -13.33183,-4.21005 -2.91466,-2.23096 -4.64186,-5.3795 -5.18161,-9.44563 -0.28787,-1.97907 -0.4318,-4.31798 -0.4318,-7.01675 l 0,-3.8862"
           style="fill:#888888;fill-opacity:1;stroke:none"
           id="path4684"
           inkscape:connector-curvature="0" />
        <path
           d="m 868.28775,560.47793 23.58709,0 0,18.20524 -23.58709,0 0,-18.20524"
           style="font-size:110.54084777999999289px;font-variant:normal;font-stretch:normal;text-align:start;line-height:125%;writing-mode:lr-tb;text-anchor:start;fill:#888888;fill-opacity:1;stroke:none;font-family:MicrogrammaDEEBolExt;-inkscape-font-specification:MicrogrammaDEEBolExt"
           id="path4686"
           inkscape:connector-curvature="0" />
        <path
           d="m 909.3374,505.00726 19.53896,0 0,73.67591 -19.53896,0 0,-73.67591"
           style="fill:#888888;fill-opacity:1;stroke:none"
           id="path4688"
           inkscape:connector-curvature="0" />
        <path
           d="m 964.58246,542.78978 -19.48498,0 c 0.25188,-4.06608 1.11548,-7.14266 2.5908,-9.22973 2.19497,-3.13051 5.19958,-5.25352 9.01383,-6.36906 5.03765,-1.47526 13.83557,-2.21292 26.39379,-2.21297 9.71545,5e-5 16.2824,0.46784 19.7009,1.40335 3.1305,0.82767 5.7213,2.71679 7.7724,5.66738 1.979,2.80674 2.9686,7.8624 2.9687,15.16698 l 0,31.46744 -18.7834,0 0,-7.12471 -0.91758,0 c -1.43938,3.02261 -3.72432,5.21759 -6.85482,6.58496 -1.87118,0.82761 -4.53395,1.36736 -7.98831,1.61925 -2.73477,0.17991 -7.17871,0.26987 -13.33183,0.26987 -6.83685,0 -11.71259,-0.57573 -14.62723,-1.7272 -3.49039,-1.40335 -5.81131,-3.70628 -6.96278,-6.9088 -0.71967,-2.05104 -1.0795,-4.58787 -1.0795,-7.61048 0,-6.08116 1.49331,-10.47113 4.47993,-13.16991 3.27447,-2.91462 8.45607,-4.53386 15.54481,-4.85775 4.13805,-0.17988 9.4276,-0.26984 15.86865,-0.26987 4.60583,3e-5 8.00625,0.39585 10.20128,1.18745 1.4033,0.53978 2.75268,1.51133 4.04813,2.91465 l 0.8636,0 0,-2.75273 c -5e-5,-3.52633 -0.50382,-5.82926 -1.5113,-6.9088 -1.07955,-1.18741 -3.07663,-1.92507 -5.99123,-2.21298 -1.15151,-0.10791 -3.02264,-0.16188 -5.6134,-0.16192 -7.80842,4e-5 -12.46826,0.35987 -13.97953,1.0795 -1.25944,0.57577 -2.03309,1.96113 -2.32093,4.15608 m 13.06196,13.8176 c -6.58499,2e-5 -10.66909,0.39584 -12.25233,1.18745 -1.90714,0.93559 -2.8607,2.39291 -2.86068,4.37198 -2e-5,2.33893 1.22341,3.85023 3.6703,4.5339 1.94308,0.53976 5.23555,0.80964 9.87743,0.80963 6.04516,10e-6 10.36316,-0.30585 12.95401,-0.91758 3.05853,-0.71965 4.58782,-2.39288 4.58787,-5.01968 -5e-5,-2.08701 -1.06156,-3.52634 -3.18452,-4.318 -1.11553,-0.43178 -5.37956,-0.64768 -12.79208,-0.6477"
           style="fill:#888888;fill-opacity:1;stroke:none"
           id="path4690"
           inkscape:connector-curvature="0" />
        <path
           d="m 1028.7875,505.00726 19.539,0 0,28.39086 0.8636,0 c 1.4393,-2.41083 3.0586,-4.15603 4.8578,-5.23558 1.7991,-1.11543 4.0121,-1.90706 6.6389,-2.3749 2.6267,-0.50371 6.0811,-0.75559 10.3632,-0.75565 7.4845,6e-5 13.4937,0.5578 18.0277,1.67323 5.7212,1.43938 9.5355,4.51596 11.4427,9.22973 0.9714,2.44691 1.5472,5.01971 1.7272,7.71843 0.1798,2.55485 0.2698,5.46949 0.2698,8.74395 0,6.36907 -0.3419,10.92096 -1.0255,13.65568 -1.4754,5.86529 -4.8038,9.75149 -9.9854,11.65861 -4.2461,1.54728 -10.885,2.32092 -19.9167,2.32092 -9.1039,0 -15.383,-1.04352 -18.8373,-3.13055 -1.5473,-0.93556 -3.0406,-2.62678 -4.48,-5.07365 l -1.0795,0 0,6.85483 -18.4055,0 0,-73.67591 m 36.7571,34.75991 c -6.585,4e-5 -11.029,0.61176 -13.3319,1.83516 -1.6552,0.89962 -2.7527,2.28497 -3.2925,4.15607 -0.3958,1.47535 -0.5937,3.94021 -0.5937,7.39458 0,4.06614 0.4858,6.83686 1.4573,8.31215 0.9356,1.3314 2.6988,2.30295 5.2896,2.91466 2.6268,0.61173 6.315,0.91758 11.0649,0.91757 6.8368,10e-6 11.3887,-0.71965 13.6557,-2.159 1.3673,-0.89957 2.2669,-2.3389 2.6987,-4.318 0.3238,-1.4753 0.4857,-3.86819 0.4858,-7.17868 -10e-5,-3.77822 -0.4679,-6.405 -1.4034,-7.88035 -0.8996,-1.40332 -2.6268,-2.41085 -5.1816,-3.0226 -2.5188,-0.64767 -6.1352,-0.97152 -10.8489,-0.97156"
           style="fill:#888888;fill-opacity:1;stroke:none"
           id="path4692"
           inkscape:connector-curvature="0" />
      </g>
    </g>
    <g
       transform="matrix(0.33711438,0,0,0.27585638,-133.13982,820.86021)"
       style="font-size:25.48312758999999872px;font-style:normal;font-variant:normal;font-weight:normal;font-stretch:normal;text-align:start;line-height:125%;letter-spacing:0px;word-spacing:0px;writing-mode:lr-tb;text-anchor:start;fill:#888888;fill-opacity:1;stroke:none;font-family:'AT*Arial';-inkscape-font-specification:'AT*Arial'"
       id="text3070">
      <g
         id="g5115"
         style="fill:#888888;fill-opacity:1">
        <path
           id="path5057"
           style="line-height:125%;fill:#888888;fill-opacity:1;font-family:'AT*Euromode';-inkscape-font-specification:'AT*Euromode'"
           d="m 406.81532,809.76308 0,1.6564 c -0.11893,2e-5 -0.26333,-0.008 -0.43321,-0.0255 -0.15291,-0.017 -0.3143,-0.0255 -0.48418,-0.0255 l -0.33128,0 c -0.47569,2e-5 -0.83246,0.0255 -1.07029,0.0765 -0.22086,0.034 -0.41623,0.10195 -0.58611,0.20387 -0.42473,0.30581 -0.63709,0.9259 -0.63708,1.86027 l 0,2.08961 3.59312,0 0,1.63092 -3.59312,0 0,11.74773 -1.98769,0 0,-11.74773 -2.03865,0 0,-1.63092 2.03865,0 0,-1.9622 c 0,-0.66254 0.0764,-1.26564 0.22935,-1.8093 0.1529,-0.54362 0.39074,-0.95135 0.71353,-1.22319 0.69653,-0.59459 1.70736,-0.89189 3.03249,-0.89191 0.25483,2e-5 0.50966,2e-5 0.7645,0 0.25482,2e-5 0.51815,0.017 0.78997,0.051"
           inkscape:connector-curvature="0" />
        <path
           id="path5059"
           style="line-height:125%;fill:#888888;fill-opacity:1;font-family:'AT*Euromode';-inkscape-font-specification:'AT*Euromode'"
           d="m 410.09588,817.2806 c 0.40772,-0.7305 0.98534,-1.24017 1.73285,-1.52899 0.54363,-0.20385 1.22318,-0.30578 2.03865,-0.30579 0.84943,10e-6 1.52898,0.11893 2.03865,0.35676 0.50965,0.22087 0.88341,0.54365 1.12126,0.96836 0.25482,0.40774 0.42471,0.85794 0.50966,1.3506 0.0849,0.4757 0.12741,1.02783 0.12742,1.65641 l 0,0.43321 -1.88576,0 0,-0.40773 c 0,-0.62857 -0.017,-1.05329 -0.051,-1.27416 -0.017,-0.22084 -0.11044,-0.45868 -0.28032,-0.71352 -0.1529,-0.25482 -0.38225,-0.4417 -0.68804,-0.56063 -0.28882,-0.11891 -0.74751,-0.17837 -1.37609,-0.17838 -1.01933,10e-6 -1.75834,0.20387 -2.21703,0.61159 -0.6116,0.54365 -0.9174,1.55448 -0.91739,3.03249 l 0,8.25654 -2.03865,0 0,-13.37865 1.98768,0 -0.10193,1.68189"
           inkscape:connector-curvature="0" />
        <path
           id="path5061"
           style="line-height:125%;fill:#888888;fill-opacity:1;font-family:'AT*Euromode';-inkscape-font-specification:'AT*Euromode'"
           d="m 428.96375,821.10307 c -2e-5,-0.79846 -0.0425,-1.46952 -0.12742,-2.01317 -0.0849,-0.56062 -0.25484,-0.99383 -0.50966,-1.29964 -0.23786,-0.30578 -0.58612,-0.50115 -1.04481,-0.58611 -0.45871,-0.0849 -1.04482,-0.1274 -1.75834,-0.12741 l -0.40773,0 c -0.74751,10e-6 -1.3676,0.051 -1.86027,0.15289 -0.47569,0.10195 -0.86643,0.31431 -1.17222,0.63708 -0.23785,0.3228 -0.41623,0.773 -0.53514,1.35061 -0.10194,0.57762 -0.15291,1.20621 -0.1529,1.88575 l 7.56849,0 m 2.08961,-0.68804 0,1.0448 0,1.29964 -9.6581,0 0,0.78998 0,0.20386 c -1e-5,1.00235 0.0594,1.74136 0.17838,2.21704 0.11892,0.47568 0.42471,0.86643 0.91739,1.17222 0.30579,0.16989 0.68804,0.28032 1.14674,0.33128 0.45869,0.034 1.08728,0.051 1.88575,0.051 0.9004,0 1.56296,-0.034 1.98769,-0.10193 0.44169,-0.068 0.78996,-0.22935 1.04481,-0.48418 0.18686,-0.18688 0.30578,-0.42472 0.35676,-0.71353 0.0679,-0.28881 0.10192,-0.71353 0.10193,-1.27416 l 2.03865,0 c -10e-6,0.74751 -0.0765,1.39308 -0.22935,1.93672 -0.15291,0.52665 -0.42473,0.95987 -0.81546,1.29964 -0.49268,0.39074 -1.10428,0.64557 -1.83478,0.76449 -0.71354,0.11892 -1.63093,0.17838 -2.75218,0.17838 -1.10427,0 -2.10661,-0.10193 -3.00701,-0.30579 -0.88342,-0.20387 -1.53748,-0.55214 -1.9622,-1.04481 -0.47569,-0.61159 -0.78998,-1.40157 -0.94287,-2.36993 -0.13592,-0.98534 -0.20387,-2.07262 -0.20387,-3.26184 0,-1.39307 0.0934,-2.52282 0.28031,-3.38926 0.18688,-0.8834 0.52665,-1.55446 1.01933,-2.01317 0.49267,-0.49266 1.13824,-0.83243 1.93672,-1.01932 0.81545,-0.18686 1.74134,-0.2803 2.77766,-0.28031 0.88341,1e-5 1.70736,0.068 2.47186,0.20386 0.78147,0.13592 1.41006,0.40774 1.88575,0.81546 0.47568,0.40774 0.82394,0.95988 1.04481,1.6564 0.22084,0.69655 0.33127,1.46105 0.33128,2.29349"
           inkscape:connector-curvature="0" />
        <path
           id="path5063"
           style="line-height:125%;fill:#888888;fill-opacity:1;font-family:'AT*Euromode';-inkscape-font-specification:'AT*Euromode'"
           d="m 443.34777,821.10307 c -1e-5,-0.79846 -0.0425,-1.46952 -0.12741,-2.01317 -0.085,-0.56062 -0.25484,-0.99383 -0.50966,-1.29964 -0.23786,-0.30578 -0.58613,-0.50115 -1.04481,-0.58611 -0.45871,-0.0849 -1.04482,-0.1274 -1.75834,-0.12741 l -0.40773,0 c -0.74751,10e-6 -1.3676,0.051 -1.86027,0.15289 -0.47569,0.10195 -0.86643,0.31431 -1.17222,0.63708 -0.23785,0.3228 -0.41623,0.773 -0.53515,1.35061 -0.10193,0.57762 -0.1529,1.20621 -0.15289,1.88575 l 7.56848,0 m 2.08962,-0.68804 0,1.0448 0,1.29964 -9.6581,0 0,0.78998 0,0.20386 c -10e-6,1.00235 0.0594,1.74136 0.17838,2.21704 0.11892,0.47568 0.42471,0.86643 0.91739,1.17222 0.30579,0.16989 0.68804,0.28032 1.14674,0.33128 0.45869,0.034 1.08727,0.051 1.88575,0.051 0.9004,0 1.56296,-0.034 1.98769,-0.10193 0.44169,-0.068 0.78996,-0.22935 1.0448,-0.48418 0.18687,-0.18688 0.30579,-0.42472 0.35677,-0.71353 0.0679,-0.28881 0.10192,-0.71353 0.10193,-1.27416 l 2.03865,0 c -10e-6,0.74751 -0.0765,1.39308 -0.22935,1.93672 -0.15291,0.52665 -0.42473,0.95987 -0.81546,1.29964 -0.49268,0.39074 -1.10428,0.64557 -1.83478,0.76449 -0.71354,0.11892 -1.63093,0.17838 -2.75218,0.17838 -1.10428,0 -2.10661,-0.10193 -3.00701,-0.30579 -0.88342,-0.20387 -1.53748,-0.55214 -1.9622,-1.04481 -0.47569,-0.61159 -0.78998,-1.40157 -0.94288,-2.36993 -0.13591,-0.98534 -0.20386,-2.07262 -0.20386,-3.26184 0,-1.39307 0.0934,-2.52282 0.28031,-3.38926 0.18688,-0.8834 0.52665,-1.55446 1.01933,-2.01317 0.49267,-0.49266 1.13824,-0.83243 1.93672,-1.01932 0.81545,-0.18686 1.74134,-0.2803 2.77766,-0.28031 0.8834,1e-5 1.70736,0.068 2.47186,0.20386 0.78147,0.13592 1.41006,0.40774 1.88575,0.81546 0.47568,0.40774 0.82394,0.95988 1.04481,1.6564 0.22084,0.69655 0.33127,1.46105 0.33128,2.29349"
           inkscape:connector-curvature="0" />
        <path
           id="path5065"
           style="line-height:125%;fill:#888888;fill-opacity:1;font-family:'AT*Euromode';-inkscape-font-specification:'AT*Euromode'"
           d="m 457.03182,821.6637 0,0.58611 c 0,0.22086 0,0.43322 0,0.63708 -0.034,0.18688 -0.051,0.32279 -0.051,0.40773 0,0.73052 0.0425,1.3591 0.12742,1.88575 0.10193,0.52665 0.27181,0.95987 0.50966,1.29964 0.33977,0.4587 0.79847,0.73052 1.37609,0.81546 0.57761,0.0849 1.14673,0.16139 1.70737,0.22935 0.61159,0 1.18071,-0.068 1.70737,-0.20387 0.52664,-0.15289 0.95985,-0.40773 1.29964,-0.76449 0.35675,-0.35676 0.5861,-0.84944 0.68804,-1.47802 0.10192,-0.62858 0.15289,-1.38458 0.1529,-2.268 l 0,-0.50966 0,-0.43322 c -10e-6,-0.84943 -0.0255,-1.4865 -0.0764,-1.91123 -0.034,-0.4417 -0.11044,-0.81545 -0.22935,-1.12126 -0.25484,-0.67954 -0.67106,-1.13823 -1.24867,-1.37609 -0.57763,-0.25482 -1.35911,-0.38223 -2.34445,-0.38224 -0.73052,10e-6 -1.31663,0.051 -1.75833,0.15289 -0.42473,0.10195 -0.79848,0.3313 -1.12126,0.68805 -0.3058,0.33978 -0.50967,0.78999 -0.6116,1.3506 -0.0849,0.54365 -0.12741,1.34212 -0.12741,2.39542 m 7.51752,-6.06499 2.03865,0 0,14.83118 c -10e-6,1.54598 -0.45021,2.66723 -1.3506,3.36378 -0.52667,0.4417 -1.2317,0.75599 -2.1151,0.94287 -0.66257,0.13591 -1.48653,0.20386 -2.47187,0.20387 -0.93438,-1e-5 -1.65641,-0.0425 -2.16606,-0.12742 -0.84944,-0.13591 -1.53749,-0.42472 -2.06414,-0.86642 -0.35676,-0.30581 -0.63708,-0.73902 -0.84094,-1.29964 -0.20387,-0.54365 -0.3058,-1.10428 -0.3058,-1.68189 l 0.051,-0.38225 2.01317,0 c -10e-6,0.52665 0.051,0.96836 0.1529,1.32513 0.11891,0.35676 0.30579,0.63707 0.56062,0.84094 0.27182,0.22085 0.64557,0.36525 1.12126,0.43321 0.47568,0.0849 1.01932,0.12741 1.63092,0.12742 0.88341,-10e-6 1.52049,-0.051 1.91124,-0.1529 0.40772,-0.085 0.739,-0.23785 0.99384,-0.4587 0.33976,-0.23784 0.56911,-0.57762 0.68804,-1.01932 0.1359,-0.42472 0.20386,-0.92589 0.20387,-1.50351 l -0.051,-2.82862 c -0.28882,0.73051 -0.89192,1.23168 -1.8093,1.5035 -0.6116,0.18688 -1.43556,0.28031 -2.47186,0.28031 -0.86644,0 -1.62243,-0.0934 -2.268,-0.28031 -0.79848,-0.23784 -1.40158,-0.59461 -1.8093,-1.07029 -0.47569,-0.59461 -0.80697,-1.33362 -0.99385,-2.21703 -0.16989,-0.88341 -0.25483,-1.90274 -0.25483,-3.05798 l -0.0255,-0.66256 c 0,-1.20619 0.11042,-2.251 0.33128,-3.13442 0.23784,-0.88341 0.56912,-1.53747 0.99384,-1.96221 0.49267,-0.49266 1.10427,-0.83243 1.83479,-1.01932 0.7475,-0.18686 1.51199,-0.2803 2.29348,-0.28031 1.24017,10e-6 2.14057,0.13592 2.70121,0.40773 0.56062,0.27183 1.05329,0.7645 1.47802,1.47802 l 0,-1.73286"
           inkscape:connector-curvature="0" />
        <path
           id="path5067"
           style="line-height:125%;fill:#888888;fill-opacity:1;font-family:'AT*Euromode';-inkscape-font-specification:'AT*Euromode'"
           d="m 479.18342,821.10307 c -1e-5,-0.79846 -0.0425,-1.46952 -0.12741,-2.01317 -0.085,-0.56062 -0.25485,-0.99383 -0.50967,-1.29964 -0.23785,-0.30578 -0.58612,-0.50115 -1.0448,-0.58611 -0.45871,-0.0849 -1.04482,-0.1274 -1.75834,-0.12741 l -0.40773,0 c -0.74751,10e-6 -1.3676,0.051 -1.86027,0.15289 -0.47569,0.10195 -0.86643,0.31431 -1.17222,0.63708 -0.23785,0.3228 -0.41623,0.773 -0.53515,1.35061 -0.10193,0.57762 -0.1529,1.20621 -0.1529,1.88575 l 7.56849,0 m 2.08962,-0.68804 0,1.0448 0,1.29964 -9.65811,0 0,0.78998 0,0.20386 c 0,1.00235 0.0595,1.74136 0.17839,2.21704 0.11891,0.47568 0.42471,0.86643 0.91739,1.17222 0.30579,0.16989 0.68804,0.28032 1.14674,0.33128 0.45869,0.034 1.08727,0.051 1.88575,0.051 0.9004,0 1.56296,-0.034 1.98768,-0.10193 0.4417,-0.068 0.78997,-0.22935 1.04481,-0.48418 0.18687,-0.18688 0.30579,-0.42472 0.35677,-0.71353 0.0679,-0.28881 0.10192,-0.71353 0.10193,-1.27416 l 2.03865,0 c -10e-6,0.74751 -0.0765,1.39308 -0.22935,1.93672 -0.15291,0.52665 -0.42473,0.95987 -0.81546,1.29964 -0.49268,0.39074 -1.10428,0.64557 -1.83478,0.76449 -0.71354,0.11892 -1.63093,0.17838 -2.75218,0.17838 -1.10428,0 -2.10661,-0.10193 -3.00701,-0.30579 -0.88342,-0.20387 -1.53749,-0.55214 -1.9622,-1.04481 -0.47569,-0.61159 -0.78998,-1.40157 -0.94288,-2.36993 -0.13591,-0.98534 -0.20386,-2.07262 -0.20386,-3.26184 0,-1.39307 0.0934,-2.52282 0.28031,-3.38926 0.18688,-0.8834 0.52665,-1.55446 1.01933,-2.01317 0.49267,-0.49266 1.13824,-0.83243 1.93671,-1.01932 0.81546,-0.18686 1.74134,-0.2803 2.77767,-0.28031 0.8834,1e-5 1.70736,0.068 2.47186,0.20386 0.78147,0.13592 1.41005,0.40774 1.88575,0.81546 0.47567,0.40774 0.82394,0.95988 1.04481,1.6564 0.22084,0.69655 0.33127,1.46105 0.33128,2.29349"
           inkscape:connector-curvature="0" />
        <path
           id="path5069"
           style="line-height:125%;fill:#888888;fill-opacity:1;font-family:'AT*Euromode';-inkscape-font-specification:'AT*Euromode'"
           d="m 489.82144,817.07674 -0.63708,0 c -0.74751,10e-6 -1.29965,0.0595 -1.65641,0.17838 -0.33978,0.11893 -0.62009,0.30581 -0.84094,0.56063 -0.28881,0.32279 -0.48418,0.80697 -0.58611,1.45253 -0.10194,0.6286 -0.1529,1.42707 -0.1529,2.39542 0.034,0.10194 0.051,0.20387 0.051,0.3058 -1e-5,0.10194 -1e-5,0.19537 0,0.28031 -1e-5,0.3058 -0.017,0.54365 -0.051,0.71353 0,1.15524 0.0425,1.9707 0.12742,2.44638 0.10192,0.4587 0.25482,0.84944 0.45869,1.17222 0.32278,0.49268 0.97685,0.78998 1.9622,0.89191 0.32278,0.034 0.79847,0.051 1.42706,0.051 0.79846,0 1.35909,-0.0255 1.68188,-0.0765 0.66256,-0.10193 1.12975,-0.31429 1.40158,-0.63708 0.27181,-0.32278 0.45868,-0.78997 0.56063,-1.40157 0.10192,-0.61159 0.15288,-1.33361 0.15289,-2.16607 l 0,-0.99384 c -10e-6,-1.12125 -0.034,-2.03864 -0.10193,-2.75218 -0.068,-0.71351 -0.24635,-1.24866 -0.53514,-1.60543 -0.28882,-0.35676 -0.71354,-0.57761 -1.27416,-0.66257 -0.56064,-0.10192 -1.2232,-0.15288 -1.98768,-0.15289 m -0.33128,-1.63092 c 1.32511,1e-5 2.29347,0.051 2.90507,0.15289 0.96835,0.1699 1.69037,0.50119 2.16607,0.99385 0.56061,0.56064 0.92587,1.42706 1.09577,2.59927 0.10192,0.67956 0.15289,1.76684 0.1529,3.26185 -1e-5,1.46103 -0.051,2.48885 -0.1529,3.08345 -0.20388,1.17223 -0.6201,2.03866 -1.24867,2.59928 -0.50968,0.44171 -1.26567,0.73052 -2.268,0.86643 -0.6116,0.0849 -1.46953,0.12741 -2.5738,0.12741 -1.52899,0 -2.62476,-0.13591 -3.28732,-0.40773 -0.64557,-0.27181 -1.12975,-0.64557 -1.45254,-1.12125 -0.32279,-0.49267 -0.56063,-1.17222 -0.71352,-2.03865 -0.13592,-0.86643 -0.20387,-1.80081 -0.20387,-2.80315 0,-1.52898 0.0425,-2.72668 0.12742,-3.59312 0.10193,-0.8834 0.37375,-1.62241 0.81546,-2.21703 0.45869,-0.59459 1.14673,-1.01082 2.06413,-1.24867 0.64557,-0.16988 1.5035,-0.25482 2.5738,-0.25483"
           inkscape:connector-curvature="0" />
        <path
           id="path5071"
           style="line-height:125%;fill:#888888;fill-opacity:1;font-family:'AT*Euromode';-inkscape-font-specification:'AT*Euromode'"
           d="m 509.47689,819.06442 -2.08961,0 c -10e-6,-0.37374 -0.017,-0.67954 -0.051,-0.91739 -0.017,-0.23783 -0.12743,-0.42471 -0.33128,-0.56063 -0.20388,-0.1359 -0.50967,-0.22934 -0.91739,-0.28032 -0.39075,-0.0509 -0.88343,-0.0764 -1.47802,-0.0764 l -0.84095,0 c -0.71353,2e-5 -1.29115,0.0255 -1.73285,0.0764 -0.42472,0.034 -0.78998,0.14442 -1.09578,0.33128 -0.3058,0.18689 -0.45869,0.71354 -0.45869,1.57996 0,0.7645 0.1444,1.28266 0.43321,1.55447 0.22085,0.20387 0.63708,0.33129 1.24867,0.38225 0.23784,0 0.67955,0.017 1.32513,0.051 0.66255,0.034 1.0363,0.051 1.12126,0.051 2.02165,10e-6 3.39773,0.28881 4.12826,0.86642 0.73051,0.57763 1.09576,1.60545 1.09578,3.08346 -2e-5,1.34212 -0.36527,2.33596 -1.09578,2.98153 -0.71354,0.62858 -2.25951,0.94287 -4.63793,0.94287 -1.73286,0 -2.99002,-0.13591 -3.7715,-0.40773 -1.3591,-0.47568 -2.03865,-1.38458 -2.03865,-2.72669 l 0,-1.24867 2.08962,0 0,0.50966 c -10e-6,0.59461 0.034,0.99384 0.10193,1.19771 0.0849,0.20386 0.22934,0.36526 0.43321,0.48418 0.4417,0.22085 1.06179,0.34827 1.86027,0.38224 0.79846,0.034 1.47801,0.051 2.03865,0.051 1.01932,0 1.73284,-0.11892 2.14058,-0.35676 0.52664,-0.3058 0.78997,-0.88342 0.78998,-1.73286 -10e-6,-0.84943 -0.15291,-1.42705 -0.4587,-1.73285 -0.20387,-0.20386 -0.49268,-0.32278 -0.86642,-0.35676 -0.37376,-0.051 -1.01084,-0.0765 -1.91124,-0.0765 -2.59928,0 -4.26418,-0.30579 -4.99469,-0.9174 -0.71353,-0.62857 -1.07029,-1.6394 -1.07029,-3.03249 0,-1.68187 0.56912,-2.77765 1.70737,-3.28732 0.64557,-0.2888 1.85177,-0.4332 3.6186,-0.43321 1.12125,10e-6 2.01316,0.0425 2.67573,0.12741 0.67954,0.068 1.25716,0.24635 1.73285,0.53515 0.47568,0.28882 0.80696,0.66257 0.99385,1.12125 0.20385,0.44172 0.30578,1.05332 0.30579,1.83479"
           inkscape:connector-curvature="0" />
        <path
           id="path5073"
           style="line-height:125%;fill:#888888;fill-opacity:1;font-family:'AT*Euromode';-inkscape-font-specification:'AT*Euromode'"
           d="m 514.52534,834.81299 -2.06414,0 0,-19.21428 2.06414,0 0,1.63092 0.0255,0.10194 c 0.28881,-0.61159 0.78148,-1.07878 1.47802,-1.40158 0.69654,-0.32277 1.55447,-0.48416 2.5738,-0.48417 0.95136,10e-6 1.77531,0.0934 2.47186,0.28031 0.71352,0.18689 1.26565,0.49269 1.6564,0.91739 0.5946,0.67956 0.99383,1.64792 1.19771,2.90508 0.11891,0.74751 0.17837,1.8178 0.17838,3.21087 -10e-6,1.15524 -0.0765,2.09812 -0.22934,2.82863 -0.20388,0.98535 -0.56914,1.76683 -1.09578,2.34445 -0.39075,0.44171 -0.9174,0.756 -1.57995,0.94287 -0.66257,0.16989 -1.49502,0.25483 -2.49735,0.25483 -1.27416,0 -2.22553,-0.1444 -2.85411,-0.43321 -0.6116,-0.3058 -1.04481,-0.73051 -1.29964,-1.27415 l -0.0255,7.3901 m 3.7715,-7.28817 c 0.67954,0 1.20619,-0.0425 1.57995,-0.12742 0.62858,-0.13591 1.09577,-0.39923 1.40158,-0.78997 0.30578,-0.40773 0.51814,-1.01933 0.63707,-1.83479 0.0679,-0.49267 0.10193,-1.24867 0.10194,-2.268 -10e-6,-1.1892 -0.0255,-2.03015 -0.0765,-2.52283 -0.10195,-0.98534 -0.3228,-1.65639 -0.66256,-2.01317 -0.3228,-0.37374 -0.73053,-0.61158 -1.22319,-0.71352 -0.49269,-0.11891 -1.04482,-0.17837 -1.65641,-0.17838 -0.71353,10e-6 -1.27416,0.0425 -1.68188,0.12741 -0.73052,0.15291 -1.24019,0.43323 -1.52899,0.84094 -0.28881,0.40774 -0.48418,0.88343 -0.58611,1.42706 -0.085,0.52666 -0.12742,1.18922 -0.12742,1.98768 0.034,0.15291 0.051,0.3143 0.051,0.48418 -10e-6,0.15291 -10e-6,0.30581 0,0.4587 -10e-6,0.90041 0.0425,1.6734 0.12741,2.31896 0.0849,0.64558 0.25483,1.15524 0.50967,1.52899 0.33977,0.49268 0.80696,0.84095 1.40157,1.04481 0.45869,0.1529 1.0363,0.22935 1.73285,0.22935"
           inkscape:connector-curvature="0" />
        <path
           id="path5075"
           style="line-height:125%;fill:#888888;fill-opacity:1;font-family:'AT*Euromode';-inkscape-font-specification:'AT*Euromode'"
           d="m 536.21824,827.62675 -0.051,-0.051 c -0.33979,0.64558 -0.89192,1.07879 -1.6564,1.29964 -0.57763,0.16989 -1.40158,0.25483 -2.47187,0.25483 -1.98769,0 -3.37227,-0.27182 -4.15375,-0.81546 -0.84944,-0.5946 -1.27416,-1.66489 -1.27415,-3.21087 l 0.051,-0.35676 c 0,-1.57995 0.47569,-2.64175 1.42706,-3.18539 0.7475,-0.42472 2.0981,-0.63707 4.05181,-0.63708 l 0.33129,0 c 0.67954,10e-6 1.35909,0.0595 2.03865,0.17838 0.45868,0.11893 0.81545,0.27183 1.07029,0.4587 0.27181,0.16989 0.4332,0.39924 0.48418,0.68804 l 0.15289,0 0,-2.36993 c -1e-5,-0.69653 -0.085,-1.21469 -0.25483,-1.55447 -0.16989,-0.4417 -0.51816,-0.75599 -1.0448,-0.94288 -0.52666,-0.20385 -1.29116,-0.30578 -2.29349,-0.30579 l -0.43321,0 c -0.93439,10e-6 -1.63942,0.11043 -2.1151,0.33128 -0.64558,0.3058 -0.96836,0.84095 -0.96836,1.60543 l 0.0255,0.35677 -2.08962,0 c 0,-0.84943 0.10193,-1.52049 0.3058,-2.01317 0.22085,-0.50965 0.53514,-0.91738 0.94287,-1.22319 0.4587,-0.2888 1.07878,-0.47567 1.86027,-0.56063 0.79847,-0.0849 1.60543,-0.1274 2.4209,-0.12741 1.13824,10e-6 2.07262,0.0765 2.80314,0.22934 0.73051,0.15292 1.32511,0.44172 1.78382,0.86643 0.35675,0.35678 0.62008,0.82397 0.78998,1.40157 0.16987,0.57763 0.25482,1.24868 0.25483,2.01317 l 0,9.02103 -1.98769,0 0,-1.35061 m -7.03334,-4.48503 c -0.18688,0.27183 -0.3058,0.65407 -0.35676,1.14674 -0.034,0.49268 -0.0764,0.81546 -0.12742,0.96836 0.034,0.3058 0.0764,0.56063 0.12742,0.76449 0.051,0.20387 0.1444,0.42472 0.28031,0.66256 0.20386,0.35677 0.52665,0.58612 0.96836,0.68805 0.45869,0.10193 1.16372,0.1529 2.1151,0.1529 0.98534,0 1.74983,-0.068 2.29348,-0.20387 0.56062,-0.13591 0.98534,-0.39923 1.27416,-0.78997 0.11891,-0.16989 0.21235,-0.39074 0.28031,-0.66257 0.0849,-0.2888 0.12741,-0.64556 0.12742,-1.07029 -10e-6,-0.98534 -0.45021,-1.6479 -1.35061,-1.98768 -0.54365,-0.20386 -1.43555,-0.30579 -2.67573,-0.3058 -0.84944,1e-5 -1.49501,0.034 -1.93671,0.10193 -0.44172,0.068 -0.78149,0.24635 -1.01933,0.53515"
           inkscape:connector-curvature="0" />
        <path
           id="path5077"
           style="line-height:125%;fill:#888888;fill-opacity:1;font-family:'AT*Euromode';-inkscape-font-specification:'AT*Euromode'"
           d="m 541.55218,824.95102 0,-7.72139 -1.75833,0 0,-1.63092 1.75833,0 0,-3.23635 2.03865,0 0,3.23635 5.17308,0 0,1.63092 -5.17308,0 0,8.20557 c 0,0.9174 0.1444,1.50351 0.43322,1.75834 0.16988,0.1529 0.62008,0.26332 1.3506,0.33128 1.01932,0 1.63092,-0.2973 1.83479,-0.89191 0.10192,-0.3058 0.15289,-0.76449 0.1529,-1.37609 l 0,-1.01933 1.88575,0 0,0.66257 c -1e-5,1.41006 -0.22936,2.42089 -0.68805,3.03249 -0.3058,0.42472 -0.73052,0.73051 -1.27415,0.91739 -0.54365,0.18688 -1.19772,0.28031 -1.9622,0.28031 -0.71354,0 -1.30814,-0.051 -1.78382,-0.15289 -0.47569,-0.10194 -0.87493,-0.3143 -1.19771,-0.63708 -0.32279,-0.32279 -0.53515,-0.756 -0.63708,-1.29964 -0.10193,-0.56063 -0.1529,-1.25717 -0.1529,-2.08962"
           inkscape:connector-curvature="0" />
        <path
           id="path5079"
           style="line-height:125%;fill:#888888;fill-opacity:1;font-family:'AT*Euromode';-inkscape-font-specification:'AT*Euromode'"
           d="m 550.93595,809.86501 2.03865,0 0,2.24252 -2.03865,0 0,-2.24252 m 0,5.7337 2.03865,0 0,13.37865 -2.03865,0 0,-13.37865"
           inkscape:connector-curvature="0" />
        <path
           id="path5081"
           style="line-height:125%;fill:#888888;fill-opacity:1;font-family:'AT*Euromode';-inkscape-font-specification:'AT*Euromode'"
           d="m 565.5338,827.62675 -0.051,-0.051 c -0.33979,0.64558 -0.89192,1.07879 -1.65641,1.29964 -0.57762,0.16989 -1.40158,0.25483 -2.47186,0.25483 -1.98769,0 -3.37227,-0.27182 -4.15375,-0.81546 -0.84944,-0.5946 -1.27416,-1.66489 -1.27415,-3.21087 l 0.051,-0.35676 c 0,-1.57995 0.47568,-2.64175 1.42706,-3.18539 0.7475,-0.42472 2.0981,-0.63707 4.05181,-0.63708 l 0.33128,0 c 0.67955,10e-6 1.3591,0.0595 2.03865,0.17838 0.45869,0.11893 0.81545,0.27183 1.0703,0.4587 0.27181,0.16989 0.4332,0.39924 0.48418,0.68804 l 0.15289,0 0,-2.36993 c -1e-5,-0.69653 -0.085,-1.21469 -0.25483,-1.55447 -0.16989,-0.4417 -0.51816,-0.75599 -1.04481,-0.94288 -0.52666,-0.20385 -1.29115,-0.30578 -2.29348,-0.30579 l -0.43321,0 c -0.93439,10e-6 -1.63942,0.11043 -2.1151,0.33128 -0.64558,0.3058 -0.96836,0.84095 -0.96836,1.60543 l 0.0255,0.35677 -2.08961,0 c 0,-0.84943 0.10193,-1.52049 0.3058,-2.01317 0.22085,-0.50965 0.53514,-0.91738 0.94287,-1.22319 0.45869,-0.2888 1.07878,-0.47567 1.86027,-0.56063 0.79847,-0.0849 1.60543,-0.1274 2.4209,-0.12741 1.13824,10e-6 2.07262,0.0765 2.80314,0.22934 0.73051,0.15292 1.32511,0.44172 1.78382,0.86643 0.35675,0.35678 0.62008,0.82397 0.78998,1.40157 0.16987,0.57763 0.25482,1.24868 0.25483,2.01317 l 0,9.02103 -1.98769,0 0,-1.35061 m -7.03334,-4.48503 c -0.18688,0.27183 -0.3058,0.65407 -0.35676,1.14674 -0.034,0.49268 -0.0765,0.81546 -0.12742,0.96836 0.034,0.3058 0.0764,0.56063 0.12742,0.76449 0.051,0.20387 0.1444,0.42472 0.28031,0.66256 0.20386,0.35677 0.52665,0.58612 0.96836,0.68805 0.45869,0.10193 1.16372,0.1529 2.1151,0.1529 0.98534,0 1.74983,-0.068 2.29348,-0.20387 0.56062,-0.13591 0.98534,-0.39923 1.27416,-0.78997 0.11891,-0.16989 0.21235,-0.39074 0.28031,-0.66257 0.0849,-0.2888 0.12741,-0.64556 0.12742,-1.07029 -10e-6,-0.98534 -0.45021,-1.6479 -1.35061,-1.98768 -0.54365,-0.20386 -1.43556,-0.30579 -2.67573,-0.3058 -0.84944,1e-5 -1.49501,0.034 -1.93671,0.10193 -0.44172,0.068 -0.78149,0.24635 -1.01933,0.53515"
           inkscape:connector-curvature="0" />
        <path
           id="path5083"
           style="line-height:125%;fill:#888888;fill-opacity:1;font-family:'AT*Euromode';-inkscape-font-specification:'AT*Euromode'"
           d="m 570.94419,809.86501 2.03865,0 0,19.11235 -2.03865,0 0,-19.11235"
           inkscape:connector-curvature="0" />
        <path
           id="path5085"
           style="line-height:125%;fill:#888888;fill-opacity:1;font-family:'AT*Euromode';-inkscape-font-specification:'AT*Euromode'"
           d="m 583.28757,809.86501 2.03865,0 0,2.24252 -2.03865,0 0,-2.24252 m 0,5.7337 2.03865,0 0,13.37865 -2.03865,0 0,-13.37865"
           inkscape:connector-curvature="0" />
        <path
           id="path5087"
           style="line-height:125%;fill:#888888;fill-opacity:1;font-family:'AT*Euromode';-inkscape-font-specification:'AT*Euromode'"
           d="m 590.80112,817.22963 c 0.32278,-0.67953 0.8919,-1.16371 1.70737,-1.45253 0.61159,-0.22084 1.37608,-0.33127 2.29348,-0.33128 1.97068,10e-6 3.33828,0.33978 4.10278,1.01932 0.78147,0.66257 1.17221,1.80082 1.17223,3.41474 l 0,9.09748 -1.98769,0 0,-9.04651 c -10e-6,-1.12125 -0.23785,-1.87725 -0.71352,-2.268 -0.4757,-0.39073 -1.31664,-0.5861 -2.52283,-0.58611 -1.00235,10e-6 -1.70738,0.068 -2.1151,0.20386 -0.39075,0.11893 -0.74751,0.33129 -1.0703,0.63708 -0.57762,0.52666 -0.86643,1.55448 -0.86642,3.08346 l 0,7.97622 -1.98769,0 0,-13.37865 1.98769,0 0,1.63092"
           inkscape:connector-curvature="0" />
        <path
           id="path5089"
           style="line-height:125%;fill:#888888;fill-opacity:1;font-family:'AT*Euromode';-inkscape-font-specification:'AT*Euromode'"
           d="m 609.63513,809.76308 0,1.6564 c -0.11893,2e-5 -0.26333,-0.008 -0.43321,-0.0255 -0.15291,-0.017 -0.3143,-0.0255 -0.48418,-0.0255 l -0.33128,0 c -0.47569,2e-5 -0.83246,0.0255 -1.07029,0.0765 -0.22086,0.034 -0.41623,0.10195 -0.58611,0.20387 -0.42473,0.30581 -0.63709,0.9259 -0.63708,1.86027 l 0,2.08961 3.59312,0 0,1.63092 -3.59312,0 0,11.74773 -1.98769,0 0,-11.74773 -2.03865,0 0,-1.63092 2.03865,0 0,-1.9622 c 0,-0.66254 0.0765,-1.26564 0.22935,-1.8093 0.1529,-0.54362 0.39074,-0.95135 0.71353,-1.22319 0.69653,-0.59459 1.70736,-0.89189 3.03249,-0.89191 0.25483,2e-5 0.50966,2e-5 0.76449,0 0.25483,2e-5 0.51815,0.017 0.78998,0.051"
           inkscape:connector-curvature="0" />
        <path
           id="path5091"
           style="line-height:125%;fill:#888888;fill-opacity:1;font-family:'AT*Euromode';-inkscape-font-specification:'AT*Euromode'"
           d="m 612.9157,817.2806 c 0.40772,-0.7305 0.98534,-1.24017 1.73285,-1.52899 0.54363,-0.20385 1.22318,-0.30578 2.03865,-0.30579 0.84943,10e-6 1.52898,0.11893 2.03865,0.35676 0.50965,0.22087 0.88341,0.54365 1.12126,0.96836 0.25482,0.40774 0.42471,0.85794 0.50966,1.3506 0.0849,0.4757 0.12741,1.02783 0.12742,1.65641 l 0,0.43321 -1.88575,0 0,-0.40773 c -10e-6,-0.62857 -0.017,-1.05329 -0.051,-1.27416 -0.017,-0.22084 -0.11044,-0.45868 -0.28032,-0.71352 -0.1529,-0.25482 -0.38225,-0.4417 -0.68804,-0.56063 -0.28882,-0.11891 -0.74751,-0.17837 -1.37609,-0.17838 -1.01933,10e-6 -1.75834,0.20387 -2.21703,0.61159 -0.6116,0.54365 -0.9174,1.55448 -0.91739,3.03249 l 0,8.25654 -2.03865,0 0,-13.37865 1.98768,0 -0.10193,1.68189"
           inkscape:connector-curvature="0" />
        <path
           id="path5093"
           style="line-height:125%;fill:#888888;fill-opacity:1;font-family:'AT*Euromode';-inkscape-font-specification:'AT*Euromode'"
           d="m 631.63065,827.62675 -0.051,-0.051 c -0.33979,0.64558 -0.89192,1.07879 -1.65641,1.29964 -0.57762,0.16989 -1.40158,0.25483 -2.47186,0.25483 -1.98769,0 -3.37227,-0.27182 -4.15375,-0.81546 -0.84944,-0.5946 -1.27416,-1.66489 -1.27416,-3.21087 l 0.051,-0.35676 c 0,-1.57995 0.47568,-2.64175 1.42705,-3.18539 0.74751,-0.42472 2.09811,-0.63707 4.05182,-0.63708 l 0.33128,0 c 0.67954,10e-6 1.35909,0.0595 2.03865,0.17838 0.45869,0.11893 0.81545,0.27183 1.07029,0.4587 0.27181,0.16989 0.43321,0.39924 0.48418,0.68804 l 0.1529,0 0,-2.36993 c -10e-6,-0.69653 -0.0849,-1.21469 -0.25483,-1.55447 -0.1699,-0.4417 -0.51817,-0.75599 -1.04481,-0.94288 -0.52666,-0.20385 -1.29115,-0.30578 -2.29348,-0.30579 l -0.43321,0 c -0.93439,10e-6 -1.63942,0.11043 -2.1151,0.33128 -0.64558,0.3058 -0.96836,0.84095 -0.96836,1.60543 l 0.0255,0.35677 -2.08961,0 c -10e-6,-0.84943 0.10193,-1.52049 0.30579,-2.01317 0.22085,-0.50965 0.53515,-0.91738 0.94288,-1.22319 0.45869,-0.2888 1.07878,-0.47567 1.86027,-0.56063 0.79846,-0.0849 1.60543,-0.1274 2.42089,-0.12741 1.13824,10e-6 2.07262,0.0765 2.80315,0.22934 0.7305,0.15292 1.32511,0.44172 1.78382,0.86643 0.35675,0.35678 0.62007,0.82397 0.78997,1.40157 0.16988,0.57763 0.25482,1.24868 0.25484,2.01317 l 0,9.02103 -1.98769,0 0,-1.35061 m -7.03334,-4.48503 c -0.18688,0.27183 -0.3058,0.65407 -0.35677,1.14674 -0.034,0.49268 -0.0765,0.81546 -0.12741,0.96836 0.034,0.3058 0.0765,0.56063 0.12741,0.76449 0.051,0.20387 0.14441,0.42472 0.28032,0.66256 0.20386,0.35677 0.52665,0.58612 0.96836,0.68805 0.45869,0.10193 1.16372,0.1529 2.1151,0.1529 0.98534,0 1.74983,-0.068 2.29348,-0.20387 0.56062,-0.13591 0.98534,-0.39923 1.27416,-0.78997 0.11891,-0.16989 0.21234,-0.39074 0.28031,-0.66257 0.0849,-0.2888 0.1274,-0.64556 0.12742,-1.07029 -2e-5,-0.98534 -0.45022,-1.6479 -1.35061,-1.98768 -0.54365,-0.20386 -1.43556,-0.30579 -2.67573,-0.3058 -0.84944,1e-5 -1.49501,0.034 -1.93672,0.10193 -0.44171,0.068 -0.78148,0.24635 -1.01932,0.53515"
           inkscape:connector-curvature="0" />
        <path
           id="path5095"
           style="line-height:125%;fill:#888888;fill-opacity:1;font-family:'AT*Euromode';-inkscape-font-specification:'AT*Euromode'"
           d="m 647.693,819.06442 -2.08962,0 c -10e-6,-0.37374 -0.017,-0.67954 -0.051,-0.91739 -0.017,-0.23783 -0.12742,-0.42471 -0.33128,-0.56063 -0.20387,-0.1359 -0.50967,-0.22934 -0.91739,-0.28032 -0.39075,-0.0509 -0.88342,-0.0764 -1.47802,-0.0764 l -0.84095,0 c -0.71353,2e-5 -1.29115,0.0255 -1.73285,0.0764 -0.42472,0.034 -0.78998,0.14442 -1.09577,0.33128 -0.3058,0.18689 -0.4587,0.71354 -0.4587,1.57996 0,0.7645 0.1444,1.28266 0.43321,1.55447 0.22085,0.20387 0.63708,0.33129 1.24868,0.38225 0.23783,0 0.67954,0.017 1.32512,0.051 0.66255,0.034 1.03631,0.051 1.12126,0.051 2.02165,10e-6 3.39774,0.28881 4.12826,0.86642 0.73051,0.57763 1.09577,1.60545 1.09578,3.08346 -10e-6,1.34212 -0.36527,2.33596 -1.09578,2.98153 -0.71353,0.62858 -2.25951,0.94287 -4.63792,0.94287 -1.73286,0 -2.99003,-0.13591 -3.77151,-0.40773 -1.3591,-0.47568 -2.03865,-1.38458 -2.03865,-2.72669 l 0,-1.24867 2.08962,0 0,0.50966 c 0,0.59461 0.034,0.99384 0.10193,1.19771 0.0849,0.20386 0.22935,0.36526 0.43321,0.48418 0.44171,0.22085 1.0618,0.34827 1.86027,0.38224 0.79847,0.034 1.47802,0.051 2.03865,0.051 1.01932,0 1.73285,-0.11892 2.14059,-0.35676 0.52664,-0.3058 0.78996,-0.88342 0.78997,-1.73286 -10e-6,-0.84943 -0.15291,-1.42705 -0.45869,-1.73285 -0.20388,-0.20386 -0.49269,-0.32278 -0.86643,-0.35676 -0.37376,-0.051 -1.01084,-0.0765 -1.91123,-0.0765 -2.59929,0 -4.26418,-0.30579 -4.9947,-0.9174 -0.71353,-0.62857 -1.07029,-1.6394 -1.07029,-3.03249 0,-1.68187 0.56912,-2.77765 1.70737,-3.28732 0.64557,-0.2888 1.85177,-0.4332 3.6186,-0.43321 1.12125,10e-6 2.01316,0.0425 2.67573,0.12741 0.67954,0.068 1.25716,0.24635 1.73286,0.53515 0.47567,0.28882 0.80695,0.66257 0.99384,1.12125 0.20385,0.44172 0.30578,1.05332 0.3058,1.83479"
           inkscape:connector-curvature="0" />
        <path
           id="path5097"
           style="line-height:125%;fill:#888888;fill-opacity:1;font-family:'AT*Euromode';-inkscape-font-specification:'AT*Euromode'"
           d="m 650.65182,824.95102 0,-7.72139 -1.75833,0 0,-1.63092 1.75833,0 0,-3.23635 2.03865,0 0,3.23635 5.17308,0 0,1.63092 -5.17308,0 0,8.20557 c 0,0.9174 0.1444,1.50351 0.43322,1.75834 0.16988,0.1529 0.62008,0.26332 1.3506,0.33128 1.01932,0 1.63092,-0.2973 1.83479,-0.89191 0.10192,-0.3058 0.15289,-0.76449 0.1529,-1.37609 l 0,-1.01933 1.88575,0 0,0.66257 c -10e-6,1.41006 -0.22936,2.42089 -0.68805,3.03249 -0.3058,0.42472 -0.73052,0.73051 -1.27415,0.91739 -0.54365,0.18688 -1.19772,0.28031 -1.9622,0.28031 -0.71354,0 -1.30814,-0.051 -1.78382,-0.15289 -0.47569,-0.10194 -0.87493,-0.3143 -1.19771,-0.63708 -0.32279,-0.32279 -0.53515,-0.756 -0.63708,-1.29964 -0.10193,-0.56063 -0.1529,-1.25717 -0.1529,-2.08962"
           inkscape:connector-curvature="0" />
        <path
           id="path5099"
           style="line-height:125%;fill:#888888;fill-opacity:1;font-family:'AT*Euromode';-inkscape-font-specification:'AT*Euromode'"
           d="m 661.69199,817.2806 c 0.40772,-0.7305 0.98534,-1.24017 1.73285,-1.52899 0.54364,-0.20385 1.22318,-0.30578 2.03865,-0.30579 0.84943,10e-6 1.52898,0.11893 2.03865,0.35676 0.50965,0.22087 0.88341,0.54365 1.12126,0.96836 0.25482,0.40774 0.42471,0.85794 0.50966,1.3506 0.0849,0.4757 0.12741,1.02783 0.12742,1.65641 l 0,0.43321 -1.88575,0 0,-0.40773 c -10e-6,-0.62857 -0.017,-1.05329 -0.051,-1.27416 -0.017,-0.22084 -0.11044,-0.45868 -0.28031,-0.71352 -0.15291,-0.25482 -0.38226,-0.4417 -0.68805,-0.56063 -0.28882,-0.11891 -0.74751,-0.17837 -1.37609,-0.17838 -1.01933,10e-6 -1.75834,0.20387 -2.21703,0.61159 -0.6116,0.54365 -0.9174,1.55448 -0.91739,3.03249 l 0,8.25654 -2.03865,0 0,-13.37865 1.98768,0 -0.10193,1.68189"
           inkscape:connector-curvature="0" />
        <path
           id="path5101"
           style="line-height:125%;fill:#888888;fill-opacity:1;font-family:'AT*Euromode';-inkscape-font-specification:'AT*Euromode'"
           d="m 680.30503,827.19354 -0.051,0.051 c -0.35677,0.7645 -0.96837,1.29115 -1.83479,1.57996 -0.59461,0.20386 -1.42706,0.30579 -2.49734,0.30579 -1.61394,0 -2.80315,-0.37375 -3.56764,-1.12125 -0.74751,-0.74751 -1.12126,-1.88575 -1.12126,-3.41474 l 0,-8.99555 2.06414,0 0,8.79168 c -10e-6,0.78149 0.0425,1.34212 0.12741,1.68189 0.0849,0.32279 0.23784,0.59461 0.4587,0.81546 0.40772,0.42472 1.24017,0.63708 2.49734,0.63708 0.7475,0 1.33361,-0.051 1.75834,-0.1529 0.62857,-0.1529 1.12125,-0.43321 1.47802,-0.84094 0.45869,-0.50966 0.68803,-1.43555 0.68805,-2.77767 l 0,-8.1546 2.03865,0 0,13.37865 -2.03865,0 0,-1.78382"
           inkscape:connector-curvature="0" />
        <path
           id="path5103"
           style="line-height:125%;fill:#888888;fill-opacity:1;font-family:'AT*Euromode';-inkscape-font-specification:'AT*Euromode'"
           d="m 694.73645,819.95633 0,-0.28032 c -10e-6,-0.40772 -0.051,-0.80695 -0.1529,-1.1977 -0.10194,-0.39073 -0.26334,-0.68804 -0.48418,-0.89191 -0.20387,-0.15289 -0.50967,-0.27181 -0.91739,-0.35677 -0.39075,-0.10192 -0.98536,-0.15288 -1.78382,-0.15289 l -0.48418,0 c -0.74751,10e-6 -1.29965,0.0425 -1.6564,0.12741 -0.35677,0.085 -0.72203,0.30581 -1.09578,0.66256 -0.27182,0.28882 -0.46719,0.70505 -0.58611,1.24868 -0.10194,0.54364 -0.1529,1.18922 -0.1529,1.93671 0.034,0.1699 0.051,0.34828 0.051,0.53515 -10e-6,0.16989 -10e-6,0.33978 0,0.50966 l 0,0.58611 c -10e-6,0.20387 -10e-6,0.39925 0,0.58612 -0.034,0.18688 -0.051,0.31429 -0.051,0.38224 0,0.73052 0.0595,1.35911 0.17838,1.88575 0.11892,0.50967 0.33128,0.9174 0.63708,1.22319 0.32278,0.3058 0.73901,0.50117 1.24867,0.58612 0.52665,0.0849 1.16373,0.12741 1.91124,0.12741 0.78147,0 1.39307,-0.017 1.83478,-0.051 0.45869,-0.034 0.85793,-0.21236 1.19771,-0.53515 0.22084,-0.20386 0.36525,-0.50966 0.43321,-0.91739 0.0849,-0.42472 0.12741,-0.88341 0.12742,-1.37609 l 0,-0.43322 1.98768,0 0,0.58612 c -10e-6,0.69654 -0.0765,1.32512 -0.22934,1.88575 -0.15292,0.54364 -0.45022,1.01932 -0.89191,1.42705 -0.42473,0.39075 -1.04482,0.67955 -1.86027,0.86643 -0.79848,0.16989 -1.73286,0.25483 -2.80315,0.25483 -1.12126,0 -2.03016,-0.0849 -2.72669,-0.25483 -0.69654,-0.16989 -1.30814,-0.50117 -1.83479,-0.99384 -0.54364,-0.56063 -0.89191,-1.2147 -1.0448,-1.9622 -0.13592,-0.76449 -0.20387,-1.93672 -0.20387,-3.51667 0,-1.68188 0.0679,-2.88808 0.20387,-3.61861 0.15289,-0.74749 0.4502,-1.38457 0.89191,-1.91123 0.56062,-0.66255 1.33361,-1.09576 2.31896,-1.29964 0.56062,-0.11891 1.46103,-0.17837 2.70121,-0.17838 0.84943,10e-6 1.63091,0.0849 2.34445,0.25483 0.73051,0.15291 1.27414,0.36527 1.63092,0.63707 0.54363,0.40775 0.91738,0.99386 1.12126,1.75834 0.11891,0.45871 0.17837,1.0788 0.17838,1.86027 l -2.03865,0"
           inkscape:connector-curvature="0" />
        <path
           id="path5105"
           style="line-height:125%;fill:#888888;fill-opacity:1;font-family:'AT*Euromode';-inkscape-font-specification:'AT*Euromode'"
           d="m 699.67697,824.95102 0,-7.72139 -1.75834,0 0,-1.63092 1.75834,0 0,-3.23635 2.03865,0 0,3.23635 5.17308,0 0,1.63092 -5.17308,0 0,8.20557 c 0,0.9174 0.1444,1.50351 0.43321,1.75834 0.16989,0.1529 0.62009,0.26332 1.35061,0.33128 1.01932,0 1.63091,-0.2973 1.83478,-0.89191 0.10193,-0.3058 0.1529,-0.76449 0.1529,-1.37609 l 0,-1.01933 1.88575,0 0,0.66257 c 0,1.41006 -0.22935,2.42089 -0.68804,3.03249 -0.30581,0.42472 -0.73052,0.73051 -1.27416,0.91739 -0.54364,0.18688 -1.19771,0.28031 -1.9622,0.28031 -0.71353,0 -1.30813,-0.051 -1.78382,-0.15289 -0.47568,-0.10194 -0.87492,-0.3143 -1.1977,-0.63708 -0.32279,-0.32279 -0.53515,-0.756 -0.63708,-1.29964 -0.10194,-0.56063 -0.1529,-1.25717 -0.1529,-2.08962"
           inkscape:connector-curvature="0" />
        <path
           id="path5107"
           style="line-height:125%;fill:#888888;fill-opacity:1;font-family:'AT*Euromode';-inkscape-font-specification:'AT*Euromode'"
           d="m 718.08176,827.19354 -0.051,0.051 c -0.35677,0.7645 -0.96837,1.29115 -1.83478,1.57996 -0.59462,0.20386 -1.42707,0.30579 -2.49735,0.30579 -1.61394,0 -2.80315,-0.37375 -3.56764,-1.12125 -0.7475,-0.74751 -1.12126,-1.88575 -1.12125,-3.41474 l 0,-8.99555 2.06413,0 0,8.79168 c 0,0.78149 0.0425,1.34212 0.12741,1.68189 0.0849,0.32279 0.23784,0.59461 0.4587,0.81546 0.40773,0.42472 1.24017,0.63708 2.49735,0.63708 0.74749,0 1.33361,-0.051 1.75833,-0.1529 0.62858,-0.1529 1.12125,-0.43321 1.47802,-0.84094 0.45869,-0.50966 0.68804,-1.43555 0.68805,-2.77767 l 0,-8.1546 2.03865,0 0,13.37865 -2.03865,0 0,-1.78382"
           inkscape:connector-curvature="0" />
        <path
           id="path5109"
           style="line-height:125%;fill:#888888;fill-opacity:1;font-family:'AT*Euromode';-inkscape-font-specification:'AT*Euromode'"
           d="m 725.25049,817.2806 c 0.40773,-0.7305 0.98534,-1.24017 1.73285,-1.52899 0.54364,-0.20385 1.22319,-0.30578 2.03865,-0.30579 0.84943,10e-6 1.52898,0.11893 2.03865,0.35676 0.50966,0.22087 0.88341,0.54365 1.12126,0.96836 0.25482,0.40774 0.42471,0.85794 0.50966,1.3506 0.0849,0.4757 0.12741,1.02783 0.12742,1.65641 l 0,0.43321 -1.88575,0 0,-0.40773 c -10e-6,-0.62857 -0.017,-1.05329 -0.051,-1.27416 -0.017,-0.22084 -0.11043,-0.45868 -0.28031,-0.71352 -0.15291,-0.25482 -0.38226,-0.4417 -0.68805,-0.56063 -0.28881,-0.11891 -0.74751,-0.17837 -1.37609,-0.17838 -1.01933,10e-6 -1.75834,0.20387 -2.21703,0.61159 -0.6116,0.54365 -0.91739,1.55448 -0.91739,3.03249 l 0,8.25654 -2.03865,0 0,-13.37865 1.98768,0 -0.10193,1.68189"
           inkscape:connector-curvature="0" />
        <path
           id="path5111"
           style="line-height:125%;fill:#888888;fill-opacity:1;font-family:'AT*Euromode';-inkscape-font-specification:'AT*Euromode'"
           d="m 744.11836,821.10307 c -1e-5,-0.79846 -0.0425,-1.46952 -0.12742,-2.01317 -0.085,-0.56062 -0.25484,-0.99383 -0.50966,-1.29964 -0.23785,-0.30578 -0.58612,-0.50115 -1.04481,-0.58611 -0.4587,-0.0849 -1.04481,-0.1274 -1.75833,-0.12741 l -0.40773,0 c -0.74751,10e-6 -1.3676,0.051 -1.86027,0.15289 -0.47569,0.10195 -0.86643,0.31431 -1.17223,0.63708 -0.23784,0.3228 -0.41622,0.773 -0.53514,1.35061 -0.10194,0.57762 -0.1529,1.20621 -0.1529,1.88575 l 7.56849,0 m 2.08962,-0.68804 0,1.0448 0,1.29964 -9.65811,0 0,0.78998 0,0.20386 c 0,1.00235 0.0595,1.74136 0.17838,2.21704 0.11892,0.47568 0.42472,0.86643 0.91739,1.17222 0.3058,0.16989 0.68804,0.28032 1.14675,0.33128 0.45869,0.034 1.08727,0.051 1.88575,0.051 0.90039,0 1.56295,-0.034 1.98768,-0.10193 0.4417,-0.068 0.78997,-0.22935 1.04481,-0.48418 0.18686,-0.18688 0.30579,-0.42472 0.35676,-0.71353 0.0679,-0.28881 0.10192,-0.71353 0.10194,-1.27416 l 2.03865,0 c -2e-5,0.74751 -0.0765,1.39308 -0.22935,1.93672 -0.15291,0.52665 -0.42473,0.95987 -0.81546,1.29964 -0.49269,0.39074 -1.10428,0.64557 -1.83479,0.76449 -0.71354,0.11892 -1.63093,0.17838 -2.75218,0.17838 -1.10427,0 -2.10661,-0.10193 -3.007,-0.30579 -0.88342,-0.20387 -1.53749,-0.55214 -1.96221,-1.04481 -0.47568,-0.61159 -0.78997,-1.40157 -0.94287,-2.36993 -0.13591,-0.98534 -0.20387,-2.07262 -0.20387,-3.26184 0,-1.39307 0.0934,-2.52282 0.28032,-3.38926 0.18687,-0.8834 0.52665,-1.55446 1.01932,-2.01317 0.49267,-0.49266 1.13825,-0.83243 1.93672,-1.01932 0.81546,-0.18686 1.74134,-0.2803 2.77766,-0.28031 0.88341,1e-5 1.70736,0.068 2.47187,0.20386 0.78147,0.13592 1.41005,0.40774 1.88575,0.81546 0.47567,0.40774 0.82394,0.95988 1.0448,1.6564 0.22085,0.69655 0.33127,1.46105 0.33129,2.29349"
           inkscape:connector-curvature="0" />
      </g>
    </g>
  </g>
</svg>
