<svg xmlns="http://www.w3.org/2000/svg" width="300" height="60" viewBox="0 0 300 60"><g style="line-height:125%" font-size="38.613" font-family="Bitstream Vera Sans"><path d="M28.218 26.024H59.53c.045 1.276.067 2.098.067 2.466 0 7.598-.165 13.466-.494 17.605-.527 6.69-3.468 10.744-8.824 12.162-2.767.708-5.796 1.134-9.09 1.275-3.49.17-7.627.255-12.412.255-8.495 0-14.565-.396-18.21-1.19-5.047-1.078-8.175-4.082-9.383-9.015-.592-2.41-.933-5.174-1.02-8.292C.055 37.378 0 33.21 0 28.788c0-7.484.274-12.743.823-15.776.79-4.224 2.15-7.2 4.083-8.93 1.01-.935 2.272-1.644 3.787-2.126 1.536-.51 3.698-.92 6.486-1.233 3.928-.454 9.24-.68 15.936-.68 8.604 0 14.696.44 18.274 1.318 3.622.88 6.168 2.44 7.64 4.678 1.294 2.013 2.084 5.188 2.37 9.525.065 1.163.098 2.95.098 5.358H45.8c-.02-1.586-.087-2.663-.197-3.23-.307-1.446-1.284-2.31-2.93-2.594-2.173-.37-6.454-.553-12.842-.553-5.684 0-9.624.24-11.82.723-2.085.482-3.347 1.956-3.786 4.422-.35 1.87-.527 5.202-.527 9.993 0 5.5.187 9.257.56 11.27.483 2.693 1.976 4.195 4.478 4.507 1.23.142 4.94.27 11.13.383 6.76-.057 11.118-.227 13.07-.51 1.78-.37 2.8-1.375 3.063-3.02.154-1.02.23-2.58.23-4.677H28.22v-11.61M69.23.893h14.388v58.044h-14.39V.893M92.493 39.717h13.27c-.023 2.863.427 4.705 1.35 5.528.482.396 1.03.666 1.645.807.615.142 1.69.24 3.227.298.77.028 3.282.057 7.54.085 5.84-.028 9.22-.07 10.142-.127 1.734-.17 2.875-.468 3.424-.893.77-.624 1.154-2.013 1.154-4.168 0-1.474-.242-2.508-.725-3.104-.66-.822-2.23-1.26-4.71-1.318-1.71 0-5.29-.17-10.733-.51-5.62-.34-9.264-.54-10.932-.596-4.346-.17-7.408-.823-9.186-1.957-2.284-1.445-3.777-3.912-4.48-7.4-.395-1.926-.592-4.45-.592-7.568 0-6.577.966-11.212 2.897-13.905 1.45-2.04 3.644-3.387 6.586-4.04 2.657-.566 8.98-.85 18.966-.85 6.498 0 11.086.24 13.764.723 3.534.652 6.08 1.786 7.64 3.402 2.106 2.24 3.16 6.25 3.16 12.034 0 .622-.01 1.615-.033 2.975h-13.27c-.044-1.39-.12-2.353-.23-2.89-.308-1.59-1.317-2.482-3.03-2.68-1.514-.17-5.202-.255-11.063-.255-5.795 0-9.23.212-10.306.638-1.207.51-1.81 1.828-1.81 3.954 0 2.04.636 3.29 1.91 3.742 1.075.37 5.915.723 14.52 1.063 7.792.284 12.764.638 14.915 1.063 2.173.426 3.897 1.063 5.17 1.914 1.295.85 2.327 2.055 3.095 3.614 1.163 2.297 1.745 5.996 1.745 11.1 0 5.697-.57 9.878-1.712 12.543-1.14 2.638-3.007 4.438-5.597 5.402-2.546.963-9.56 1.445-21.04 1.445-6.98 0-12.018-.24-15.113-.722-3.776-.567-6.487-1.673-8.133-3.317-1.778-1.758-2.832-4.238-3.16-7.442-.176-1.56-.264-3.402-.264-5.528v-3.06"/><path style="text-align:start;line-height:125%;-inkscape-font-specification:MicrogrammaDEEBolExt" d="M157.112 44.594h14.39v14.343h-14.39V44.594" font-size="110.541" font-family="MicrogrammaDEEBolExt"/><path d="M182.154.893h11.92v58.044h-11.92V.893M215.855 30.66H203.97c.152-3.204.68-5.628 1.58-7.272 1.338-2.467 3.17-4.14 5.498-5.018 3.073-1.162 8.44-1.743 16.1-1.743 5.928 0 9.934.368 12.02 1.105 1.91.652 3.49 2.14 4.74 4.465 1.208 2.21 1.81 6.194 1.812 11.95v24.79h-11.46v-5.613h-.56c-.877 2.38-2.27 4.11-4.18 5.188-1.142.652-2.766 1.077-4.874 1.275-1.668.142-4.38.213-8.132.213-4.17 0-7.145-.454-8.923-1.36-2.13-1.106-3.545-2.92-4.247-5.444-.44-1.616-.66-3.614-.66-5.995 0-4.79.912-8.25 2.734-10.375 1.998-2.296 5.16-3.572 9.483-3.827 2.525-.142 5.75-.213 9.68-.213 2.81 0 4.885.312 6.224.936.856.426 1.68 1.19 2.47 2.297h.526v-2.17c0-2.777-.307-4.59-.922-5.442-.658-.935-1.877-1.516-3.655-1.743-.702-.085-1.844-.128-3.424-.128-4.764 0-7.607.284-8.53.85-.767.454-1.24 1.546-1.415 3.275m7.968 10.885c-4.017 0-6.508.312-7.474.936-1.164.738-1.746 1.886-1.746 3.445 0 1.843.746 3.033 2.24 3.572 1.184.425 3.193.638 6.024.638 3.688 0 6.322-.24 7.903-.723 1.867-.567 2.8-1.885 2.8-3.955 0-1.644-.648-2.778-1.943-3.402-.68-.34-3.282-.51-7.804-.51M255.022.893h11.92V23.26h.527c.877-1.9 1.864-3.274 2.962-4.125 1.098-.878 2.448-1.502 4.05-1.87 1.602-.397 3.71-.596 6.322-.596 4.566 0 8.23.438 10.997 1.317 3.49 1.134 5.818 3.558 6.982 7.272.592 1.926.944 3.953 1.053 6.08.11 2.012.165 4.31.165 6.888 0 5.018-.21 8.604-.626 10.76-.9 4.62-2.93 7.68-6.09 9.184-2.59 1.22-6.64 1.828-12.15 1.828-5.555 0-9.385-.822-11.492-2.466-.944-.737-1.855-2.07-2.733-3.997h-.66v5.4h-11.228V.893m22.423 27.385c-4.017 0-6.728.482-8.133 1.446-1.01.708-1.68 1.8-2.008 3.274-.242 1.162-.362 3.104-.362 5.826 0 3.203.296 5.386.89 6.548.57 1.05 1.645 1.814 3.226 2.296 1.602.482 3.852.723 6.75.723 4.17 0 6.947-.566 8.33-1.7.834-.708 1.383-1.842 1.646-3.402.198-1.162.297-3.047.297-5.655 0-2.977-.285-5.046-.855-6.208-.55-1.106-1.603-1.9-3.16-2.382-1.538-.51-3.744-.765-6.62-.765"/></g></svg>