<svg width="25" height="25" viewBox="0 0 100 100" xmlns="http://www.w3.org/2000/svg"><rect style="fill:#e64a19;fill-opacity:1;stroke:none;stroke-width:2;stroke-linecap:round;stroke-linejoin:round;stroke-dashoffset:9.30002;stroke-opacity:.2" width="100" height="100" ry="10" rx="10"/><path fill="currentColor" d="M85.355 14.645h-20.71l6.82 6.82-10.858 10.857 7.07 7.071 10.859-10.858 6.82 6.82zm-50 0h-20.71v20.71l6.82-6.82 10.857 10.858 7.071-7.07-10.858-10.859zm50 50-6.82 6.82-10.857-10.858-7.071 7.07 10.858 10.859-6.82 6.82h20.71zm-26.48-23.52c-4.872-4.872-12.878-4.872-17.75 0s-4.872 12.878 0 17.75c4.707 4.706 12.312 4.82 17.217.433a3.5 3.5 0 0 0 .533-.433 3.5 3.5 0 0 0 .443-.546c4.376-4.905 4.26-12.501-.443-17.204M32.322 60.607 21.464 71.465l-6.82-6.82v20.71h20.711l-6.82-6.82 10.858-10.857z" color="currentColor" style="fill:#fff;fill-opacity:1"/></svg>