<svg xmlns="http://www.w3.org/2000/svg" viewBox="0 0 120 120"><path d="M6.236 59.997C6.236 30.303 30.306 6.232 60 6.232c29.693 0 53.764 24.071 53.764 53.765 0 29.693-24.072 53.764-53.764 53.764-29.693 0-53.763-24.07-53.763-53.764z" style="fill:#2ad4ff;fill-opacity:1;stroke:#00aad4;stroke-width:10.649;stroke-miterlimit:4;stroke-linecap:butt;stroke-linejoin:round"/><path fill="#fff" d="M91.775 45.425v29.11c0 9.468-7.622 17.09-17.09 17.09h-29.11a17.052 17.052 0 0 1-17.09-17.09v-29.11a17.053 17.053 0 0 1 17.09-17.09h29.11c9.468 0 17.09 7.622 17.09 17.09z"/><path d="M84.642 48.706v22.548a13.204 13.204 0 0 1-13.233 13.233H48.871a13.204 13.204 0 0 1-13.232-13.233V48.706A13.204 13.204 0 0 1 48.87 35.473h22.54a13.204 13.204 0 0 1 13.233 13.233z"/><path d="M67.015 40.415H73.5a3.338 3.338 0 0 1 3.345 3.346v.938a3.338 3.338 0 0 1-3.345 3.345h-6.485a3.338 3.338 0 0 1-3.345-3.345v-.938a3.338 3.338 0 0 1 3.345-3.346z"/><rect style="display:inline;fill:#fff;fill-opacity:1;stroke:none;stroke-width:.98333335" width="13.176" height="7.629" x="63.67" y="40.419" ry="3.346" rx="3.346"/><path style="fill:#000;fill-opacity:1" d="M90.334 18.791c-2.045-.183-3.49 1.28-3.697 3.404v8.758c-.047 1.19-.684 2.075-1.383 2.766l-5.484 5.177 1.841 1.997 5.487-5.329c1.445-1.268 2.086-2.694 2.148-4.609v-8.758c.123-.735.682-.952 1.23-.765l19.456 6.945a56.666 56.666 0 0 0-2.522-3.648l-16.166-5.756a4.478 4.478 0 0 0-.91-.182zm-60.709.004a4.496 4.496 0 0 0-.912.182l-16.166 5.755a56.636 56.636 0 0 0-2.52 3.649l19.455-6.945c.55-.187 1.106.03 1.229.765v8.758c.062 1.915.705 3.341 2.15 4.61l5.485 5.327 1.843-1.996-5.484-5.177c-.699-.691-1.336-1.577-1.383-2.766v-8.758c-.208-2.124-1.652-3.587-3.697-3.404zm8.74 60.271-5.484 5.327c-1.445 1.268-2.089 2.694-2.15 4.609v8.758c-.124.735-.68.952-1.229.765L10.047 91.58a56.677 56.677 0 0 0 2.52 3.65l16.165 5.754c2.519.77 4.372-.794 4.61-3.222v-8.758c.047-1.19.684-2.075 1.383-2.766l5.484-5.175zm43.233.073-1.844 1.996 5.484 5.177c.7.691 1.336 1.577 1.383 2.766v8.758c.238 2.428 2.091 3.99 4.61 3.22l16.165-5.753a56.638 56.638 0 0 0 2.52-3.649l-19.455 6.944c-.55.187-1.106-.029-1.229-.764v-8.758c-.062-1.915-.705-3.343-2.15-4.611z"/></svg>