<?xml version="1.0" encoding="UTF-8" standalone="no"?>
<!-- Created with Inkscape (http://www.inkscape.org/) -->

<svg
   xmlns:dc="http://purl.org/dc/elements/1.1/"
   xmlns:cc="http://creativecommons.org/ns#"
   xmlns:rdf="http://www.w3.org/1999/02/22-rdf-syntax-ns#"
   xmlns:svg="http://www.w3.org/2000/svg"
   xmlns="http://www.w3.org/2000/svg"
   xmlns:sodipodi="http://sodipodi.sourceforge.net/DTD/sodipodi-0.dtd"
   xmlns:inkscape="http://www.inkscape.org/namespaces/inkscape"
   width="240"
   height="240"
   viewBox="0 0 63.499998 63.500003"
   version="1.1"
   id="svg8"
   inkscape:version="0.92.4 (5da689c313, 2019-01-14)"
   sodipodi:docname="map.svg">
  <defs
     id="defs2" />
  <sodipodi:namedview
     id="base"
     pagecolor="#ffffff"
     bordercolor="#666666"
     borderopacity="1.0"
     inkscape:pageopacity="0.0"
     inkscape:pageshadow="2"
     inkscape:zoom="3.6203867"
     inkscape:cx="125.34515"
     inkscape:cy="98.027323"
     inkscape:document-units="px"
     inkscape:current-layer="layer1"
     showgrid="false"
     inkscape:window-width="1582"
     inkscape:window-height="719"
     inkscape:window-x="338"
     inkscape:window-y="153"
     inkscape:window-maximized="0"
     units="px" />
  <metadata
     id="metadata5">
    <rdf:RDF>
      <cc:Work
         rdf:about="">
        <dc:format>image/svg+xml</dc:format>
        <dc:type
           rdf:resource="http://purl.org/dc/dcmitype/StillImage" />
        <dc:title></dc:title>
      </cc:Work>
    </rdf:RDF>
  </metadata>
  <g
     inkscape:label="Layer 1"
     inkscape:groupmode="layer"
     id="layer1"
     transform="translate(0,-233.49999)">
    <path
       sodipodi:nodetypes="cc"
       inkscape:connector-curvature="0"
       id="path824"
       d="m 44.782817,273.04668 -8.07925,-21.63914"
       style="fill:none;stroke:#e0e0e0;stroke-width:0.26458335px;stroke-linecap:butt;stroke-linejoin:miter;stroke-opacity:1" />
    <path
       style="fill:none;stroke:#e0e0e0;stroke-width:0.26458335px;stroke-linecap:butt;stroke-linejoin:miter;stroke-opacity:1"
       d="M 22.954677,280.44084 18.500642,265.39495"
       id="path822"
       inkscape:connector-curvature="0"
       sodipodi:nodetypes="cc" />
    <path
       style="opacity:1;fill:none;stroke:#3a3a3a;stroke-width:1.60000002;stroke-linecap:butt;stroke-linejoin:miter;stroke-miterlimit:4;stroke-dasharray:none;stroke-opacity:1"
       d="m 12.253216,257.80952 -7.06343,4.51209 7.39416,24.26135 10.370731,-6.14212 13.22918,0.51972 8.59896,-7.91388 13.22916,-0.92132 -9.99274,-20.43433 -11.31567,-0.28349 -8.07924,6.63821 -3.04744,-0.4016"
       id="path826"
       inkscape:connector-curvature="0"
       sodipodi:nodetypes="ccccccccccc" />
    <path
       style="fill:none;stroke:#3a3a3a;stroke-width:1.0583334;stroke-linecap:butt;stroke-linejoin:miter;stroke-miterlimit:4;stroke-dasharray:none;stroke-opacity:1"
       d="m 28.624327,258.04575 7.55953,22.9148"
       id="path847"
       inkscape:connector-curvature="0" />
    <path
       style="opacity:1;fill:#3a3a3a;fill-opacity:1;stroke:none;stroke-width:1.60000002;stroke-linecap:square;stroke-linejoin:miter;stroke-miterlimit:4;stroke-dasharray:none;stroke-dashoffset:0;stroke-opacity:1;paint-order:stroke fill markers"
       d="m 19.069197,242.70984 c -4.331571,0 -7.843451,3.51188 -7.843451,7.84345 0,0.50239 0.0333,0.9964 0.13746,1.46968 0.56128,2.55023 3.17837,5.33293 7.269331,12.33465 0.38862,0.5619 0.43117,0.64126 0.79943,0.0129 4.17864,-6.88645 6.7552,-10.23901 7.38508,-12.59303 0.10443,-0.39016 0.0951,-0.80765 0.0951,-1.22422 0,-4.33157 -3.51136,-7.84345 -7.84293,-7.84345 z m 0.0253,2.73059 a 4.3374323,4.3374323 0 0 1 4.33721,4.3372 4.3374323,4.3374323 0 0 1 -4.33721,4.33772 4.3374323,4.3374323 0 0 1 -4.337721,-4.33772 4.3374323,4.3374323 0 0 1 4.337721,-4.3372 z"
       id="path849"
       inkscape:connector-curvature="0" />
    <path
       style="fill:none;stroke:#3a3a3a;stroke-width:1.10000002;stroke-linecap:butt;stroke-linejoin:miter;stroke-miterlimit:4;stroke-dasharray:2.19999996, 2.19999996;stroke-dashoffset:0;stroke-opacity:1"
       d="m 47.506122,264.10004 c -2.15854,-3.27585 -10.349204,-5.1249 -16.160594,2.05664 -5.81139,7.18155 -2.315091,5.07175 -6.933497,8.96963 -5.055001,4.26636 -9.998191,-4.04171 -9.998191,-4.04171"
       id="path856"
       inkscape:connector-curvature="0"
       sodipodi:nodetypes="cssc" />
    <circle
       style="opacity:1;fill:none;fill-opacity:1;stroke:#3a3a3a;stroke-width:1.10000002;stroke-linecap:square;stroke-linejoin:miter;stroke-miterlimit:4;stroke-dasharray:none;stroke-dashoffset:0;stroke-opacity:1;paint-order:stroke fill markers"
       id="path858"
       cx="12.71428"
       cy="269.42172"
       r="1.8502485" />
    <circle
       r="1.8502485"
       cy="267.46902"
       cx="49.062401"
       id="circle860"
       style="opacity:1;fill:#3a3a3a;fill-opacity:1;stroke:#3a3a3a;stroke-width:1.10000002;stroke-linecap:square;stroke-linejoin:miter;stroke-miterlimit:4;stroke-dasharray:none;stroke-dashoffset:0;stroke-opacity:1;paint-order:stroke fill markers" />
  </g>
</svg>
