<?xml version="1.0" encoding="UTF-8" standalone="no"?>
<!-- Created with Inkscape (http://www.inkscape.org/) -->

<svg
   xmlns:dc="http://purl.org/dc/elements/1.1/"
   xmlns:cc="http://creativecommons.org/ns#"
   xmlns:rdf="http://www.w3.org/1999/02/22-rdf-syntax-ns#"
   xmlns:svg="http://www.w3.org/2000/svg"
   xmlns="http://www.w3.org/2000/svg"
   xmlns:sodipodi="http://sodipodi.sourceforge.net/DTD/sodipodi-0.dtd"
   xmlns:inkscape="http://www.inkscape.org/namespaces/inkscape"
   width="240"
   height="240"
   viewBox="0 0 63.499998 63.500003"
   version="1.1"
   id="svg8"
   inkscape:version="0.92.4 (5da689c313, 2019-01-14)"
   sodipodi:docname="map_not_exist.svg">
  <defs
     id="defs2" />
  <sodipodi:namedview
     id="base"
     pagecolor="#ffffff"
     bordercolor="#666666"
     borderopacity="1.0"
     inkscape:pageopacity="0.0"
     inkscape:pageshadow="2"
     inkscape:zoom="0.45254834"
     inkscape:cx="-649.01033"
     inkscape:cy="16.898201"
     inkscape:document-units="px"
     inkscape:current-layer="layer1"
     showgrid="false"
     inkscape:window-width="1582"
     inkscape:window-height="719"
     inkscape:window-x="338"
     inkscape:window-y="153"
     inkscape:window-maximized="0"
     units="px" />
  <metadata
     id="metadata5">
    <rdf:RDF>
      <cc:Work
         rdf:about="">
        <dc:format>image/svg+xml</dc:format>
        <dc:type
           rdf:resource="http://purl.org/dc/dcmitype/StillImage" />
        <dc:title />
      </cc:Work>
    </rdf:RDF>
  </metadata>
  <g
     inkscape:label="Layer 1"
     inkscape:groupmode="layer"
     id="layer1"
     transform="translate(0,-233.49999)">
    <path
       style="opacity:1;fill:none;stroke:#3a3a3a;stroke-width:1.60000002;stroke-linecap:butt;stroke-linejoin:miter;stroke-miterlimit:4;stroke-dasharray:none;stroke-opacity:1"
       d="m 9.9853588,264.80207 -7.0634298,4.51209 7.39416,24.26135 10.370731,-6.14212 13.22918,0.51972 8.59896,-7.91388 13.22916,-0.92132 -9.99274,-20.43433 -11.31567,-0.28349 -8.07924,6.63821 -3.04744,-0.4016"
       id="path826"
       inkscape:connector-curvature="0"
       sodipodi:nodetypes="ccccccccccc" />
    <path
       style="fill:none;stroke:#3a3a3a;stroke-width:1.05833334;stroke-linecap:butt;stroke-linejoin:miter;stroke-miterlimit:4;stroke-dasharray:none;stroke-opacity:1"
       d="M 26.35647,265.0383 33.916,287.9531"
       id="path847"
       inkscape:connector-curvature="0" />
    <path
       style="opacity:1;fill:#3a3a3a;fill-opacity:1;stroke:none;stroke-width:1.60000002;stroke-linecap:square;stroke-linejoin:miter;stroke-miterlimit:4;stroke-dasharray:none;stroke-dashoffset:0;stroke-opacity:1;paint-order:stroke fill markers"
       d="m 16.80134,249.70239 c -4.331571,0 -7.8434512,3.51188 -7.8434512,7.84345 0,0.50239 0.0333,0.9964 0.13746,1.46968 0.56128,2.55023 3.1783702,5.33293 7.2693312,12.33465 0.38862,0.5619 0.43117,0.64126 0.79943,0.0129 4.17864,-6.88645 6.7552,-10.23901 7.38508,-12.59303 0.10443,-0.39016 0.0951,-0.80765 0.0951,-1.22422 0,-4.33157 -3.51136,-7.84345 -7.84293,-7.84345 z m 0.0253,2.73059 a 4.3374323,4.3374323 0 0 1 4.33721,4.3372 4.3374323,4.3374323 0 0 1 -4.33721,4.33772 4.3374323,4.3374323 0 0 1 -4.337721,-4.33772 4.3374323,4.3374323 0 0 1 4.337721,-4.3372 z"
       id="path849"
       inkscape:connector-curvature="0" />
    <path
       style="fill:none;stroke:#3a3a3a;stroke-width:1.10000002;stroke-linecap:butt;stroke-linejoin:miter;stroke-miterlimit:4;stroke-dasharray:2.19999996, 2.19999996;stroke-dashoffset:0;stroke-opacity:1"
       d="m 45.238265,271.09259 c -2.15854,-3.27585 -10.349204,-5.1249 -16.160594,2.05664 -5.81139,7.18155 -2.315091,5.07175 -6.933497,8.96963 -5.055001,4.26636 -9.998191,-4.04171 -9.998191,-4.04171"
       id="path856"
       inkscape:connector-curvature="0"
       sodipodi:nodetypes="cssc" />
    <circle
       style="opacity:1;fill:none;fill-opacity:1;stroke:#3a3a3a;stroke-width:1.10000002;stroke-linecap:square;stroke-linejoin:miter;stroke-miterlimit:4;stroke-dasharray:none;stroke-dashoffset:0;stroke-opacity:1;paint-order:stroke fill markers"
       id="path858"
       cx="10.446424"
       cy="276.41428"
       r="1.8502485" />
    <circle
       r="1.8502485"
       cy="274.46158"
       cx="46.794544"
       id="circle860"
       style="opacity:1;fill:#3a3a3a;fill-opacity:1;stroke:#3a3a3a;stroke-width:1.10000002;stroke-linecap:square;stroke-linejoin:miter;stroke-miterlimit:4;stroke-dasharray:none;stroke-dashoffset:0;stroke-opacity:1;paint-order:stroke fill markers" />
    <path
       inkscape:connector-curvature="0"
       d="m 46.214662,239.85181 c -5.990651,0 -10.832998,4.84236 -10.832998,10.83299 0,5.99066 4.842347,10.83303 10.832998,10.83303 5.990649,0 10.833003,-4.84237 10.833003,-10.83303 0,-5.99063 -4.842354,-10.83299 -10.833003,-10.83299 z m 5.4165,14.72205 -1.527454,1.52745 -3.889046,-3.88903 -3.889046,3.88903 -1.527452,-1.52745 3.889046,-3.88906 -3.889046,-3.88904 1.527452,-1.52745 3.889046,3.88904 3.889046,-3.88904 1.527454,1.52745 -3.889046,3.88904 z"
       id="path2"
       style="fill:#8f0101;fill-opacity:1;stroke-width:0.37041667;stroke:#323232;stroke-opacity:1;stroke-miterlimit:4;stroke-dasharray:none" />
  </g>
</svg>
