<?xml version="1.0" encoding="UTF-8" standalone="no"?>
<svg
   xmlns:dc="http://purl.org/dc/elements/1.1/"
   xmlns:cc="http://creativecommons.org/ns#"
   xmlns:rdf="http://www.w3.org/1999/02/22-rdf-syntax-ns#"
   xmlns:svg="http://www.w3.org/2000/svg"
   xmlns="http://www.w3.org/2000/svg"
   xmlns:sodipodi="http://sodipodi.sourceforge.net/DTD/sodipodi-0.dtd"
   xmlns:inkscape="http://www.inkscape.org/namespaces/inkscape"
   width="32"
   height="32"
   viewBox="0 0 32 32"
   version="1.1"
   id="svg6"
   sodipodi:docname="opacity.svg"
   inkscape:version="0.92.3 (2405546, 2018-03-11)">
  <metadata
     id="metadata12">
    <rdf:RDF>
      <cc:Work
         rdf:about="">
        <dc:format>image/svg+xml</dc:format>
        <dc:type
           rdf:resource="http://purl.org/dc/dcmitype/StillImage" />
        <dc:title />
      </cc:Work>
    </rdf:RDF>
  </metadata>
  <defs
     id="defs10" />
  <sodipodi:namedview
     pagecolor="#ffffff"
     bordercolor="#666666"
     borderopacity="1"
     objecttolerance="10"
     gridtolerance="10"
     guidetolerance="10"
     inkscape:pageopacity="0"
     inkscape:pageshadow="2"
     inkscape:window-width="2293"
     inkscape:window-height="1077"
     id="namedview8"
     showgrid="false"
     inkscape:zoom="19.666667"
     inkscape:cx="-1.6606883"
     inkscape:cy="14.909644"
     inkscape:window-x="0"
     inkscape:window-y="68"
     inkscape:window-maximized="0"
     inkscape:current-layer="svg6" />
  <path
     d="M 23.034697,11.022268 15.999999,4 8.9653027,11.022268 c -1.9388918,1.938892 -2.9083377,4.524081 -2.9083377,7.00984 0,2.485758 0.9694459,5.108233 2.9083377,7.047125 C 10.904194,27.018125 13.452097,28 15.999999,28 c 2.547903,0 5.095806,-0.981875 7.034698,-2.920767 1.938891,-1.938892 2.908338,-4.561367 2.908338,-7.047125 0,-2.485759 -0.969447,-5.070948 -2.908338,-7.00984 z M 8.5427236,18.479544 c 0.012429,-2.485759 0.7705852,-4.064215 2.1874674,-5.468669 l 5.269808,-5.3816673 5.26981,5.4438113 c 1.416882,1.392025 2.175038,2.920766 2.187467,5.406525 z"
     id="path4"
     inkscape:connector-curvature="0"
     style="stroke-width:1.24287927;fill:#444444;fill-opacity:1" />
</svg>
