<svg xmlns="http://www.w3.org/2000/svg" viewBox="0 0 750 100"><path d="M55.386 41.505h50.964c-.09 32.501 3.186 45.325-30.676 46.097-19.187.26-49.093 1.89-57.746-4.718-9.321-5.675-8.12-17.937-8.467-37.58.288-6.205-2.165-32.012 12.517-36.323 8.829-3.907 48.628-3.9 64.721-1.996 19.758 2.758 19.382 13.9 19.597 27.505H84.002c-.053-4.26.03-7.21-5.092-8.008-8.493-.903-28.77-1.459-40.137.233-6.406 1.463-7.013 5.798-7.02 19.818.318 13.552-.465 20.86 8.199 21.687 10.967.395 24.034.95 39.387-.175 5.987-1.17 5.118-4.78 5.36-10.58H55.386m67.252-50.508h23.418v79.794h-23.418m38.367-26.423H182.6c.028 4.54.571 7.897 4.877 8.71 2.705.632 34.38 1.112 38.16-.28 4.35-.83 3.748-8.457 2.139-10.593-1.534-2.32-13.248-1.829-26.068-2.566-26.054-1.286-35.239.57-39.096-13.626-1.98-13.425-2.947-33.02 15.17-35.135 7.29-1.228 46.312-2.394 57.531.95 13.52 3.014 12.675 15.864 12.559 24.247h-21.596c-.104-4.5-.543-7.103-5.305-7.658-8.89-.522-31.28-.65-34.779.527-4.1 1.38-3.979 9.785.16 10.58 6.952 1.408 32.96 1.09 47.909 2.923 14.142 1.94 16.426 10.99 16.291 22.857.14 11.42-1.517 21.43-11.896 24.668-4.145 1.325-15.56 1.988-34.244 1.988-11.31-.199-30.954.598-37.834-5.554-6.176-5.183-5.572-13.902-5.572-22.038" style="fill:#00b8e5"/><path fill="#555" d="M582.94 5.598c-12.703-.003-25.595.547-31.07 1.316-11.363 1.737-17.254 5.017-19.024 17.305-1.166 10.228-1.23 37.048.267 47.174 2.52 16.173 18.057 15.814 38.014 16.386 20.762.425 33.95-.133 41.941-2.299 12.568-3.394 13.1-14.905 12.327-29.636h-22.293c-.32 5.84.03 10.803-6.647 11.457-9.094.934-27.991.76-34.027-.059-3.858-.546-6.217-2.514-7.074-5.904-1.737-8.41-1.01-24.216 0-28.701.857-3.703 3.071-5.827 6.644-6.373 9.31-1.294 32.838-.89 36.764.7 2.398.869 3.102 2.967 3.16 8.477h22.295c.178-16.486-.116-27.354-20.258-29.17-5.844-.472-13.398-.672-21.02-.673zm-269.397.074c-12.89.042-25.484.44-29.807 1.057-13.15 1.357-16.387 8.557-17.646 13.513-3.002 13.552-2.62 41.195 0 53.022 1.929 7.599 7.161 12.021 15.7 13.267 24.002 2.415 55.864 1.176 65.165.002 3.503-.511 6.44-1.566 8.83-3.146l14.635 11.111 9.373-13.266-16.398-12.449c2.379-16.516 1.494-37.806-.739-48.54-1.322-5.21-4.742-12.209-17.527-13.499-5.51-.801-18.696-1.114-31.586-1.072zm390.625.658-28.94 29.463h-12.216V6.855h-22.293V86.65h22.293V56.135h12.217l32.744 30.515h33.867l-45.871-40.629 42.281-39.69h-34.082zm-323.83.525.107 46.883c.077 17.2.577 30.45 21.006 32.91 13.811 1.704 32.9 1.154 45.498.82 13.038-.712 25.01-3.213 27.33-18.882 2.467-20.407.305-41.246 1.125-61.73h-22.293c0 17.492.547 34.075-.642 50.683-1.393 10.53-8.77 9.074-24.315 9.6-18.825-.19-23.247-1.003-24.718-7.672-1.633-16.628-.228-34.214-.805-52.612h-22.293zm112.266 0-.002 79.795h23.42V6.855h-23.418zM315.172 26.39c7.058-.012 14.092.12 16.72.449 8.688 1.025 8.975 4.455 10.026 10.008.547 6.07.608 10.878.293 15.853l-15.74-11.951-9.373 13.266 16.285 12.365c-13.146 1.256-30.802.666-38.195-.014-4.502-.584-7.2-2.904-8.092-6.957-1.454-9.583-.628-20.935.482-26.422 1.273-3.835 3.287-5.877 10.725-6.177 2.727-.25 9.81-.408 16.869-.42z"/></svg>