<svg xmlns="http://www.w3.org/2000/svg" xmlns:xlink="http://www.w3.org/1999/xlink" width="0" height="0" style="position: absolute;"><defs><symbol id="format_align_center" viewBox="0 0 20 20"><path d="M5 13v2h10v-2zm-4 6h18v-2H1zm0-8h18V9H1zm4-6v2h10V5zM1 1v2h18V1z"/></symbol><symbol id="format_align_left" viewBox="0 0 20 20"><path d="M13 13H1v2h12zm0-8H1v2h12zM1 11h18V9H1zm0 8h18v-2H1zM1 1v2h18V1z"/></symbol><symbol id="format_align_right" viewBox="0 0 20 20"><path d="M1 19h18v-2H1zm6-4h12v-2H7zm-6-4h18V9H1zm6-4h12V5H7zM1 1v2h18V1z"/></symbol><symbol id="format_bold" viewBox="0 0 20 20"><path d="M13.829 9.76c1.108-.766 1.885-2.023 1.885-3.189 0-2.582-2-4.571-4.571-4.571H4v16h8.046c2.388 0 4.24-1.943 4.24-4.331 0-1.738-.983-3.223-2.457-3.909zm-6.4-4.903h3.428c.949 0 1.714.766 1.714 1.714 0 .949-.765 1.715-1.714 1.715H7.43zm4 10.286h-4v-3.429h4c.948 0 1.714.766 1.714 1.715 0 .948-.766 1.714-1.714 1.714z"/></symbol><symbol id="format_italic" viewBox="0 0 20 20"><path d="M8 3v2h2.736L6.488 15H3v2h9v-2H9.318l4.247-10H17V3z"/></symbol><symbol id="format_list_bulleted" viewBox="0 0 20 20"><path d="M2.5 2.5C1.67 2.5 1 3.17 1 4s.67 1.5 1.5 1.5S4 4.83 4 4s-.67-1.5-1.5-1.5zM6 3v2h13V3H6zM2.5 8.5C1.67 8.5 1 9.17 1 10s.67 1.5 1.5 1.5S4 10.83 4 10s-.67-1.5-1.5-1.5zM6 9v2h13V9H6zm-3.5 5.5c-.83 0-1.5.68-1.5 1.5s.68 1.5 1.5 1.5S4 16.82 4 16s-.67-1.5-1.5-1.5zM6 15v2h13v-2H6z"/></symbol><symbol id="format_list_numbered" viewBox="0 0 20 20"><path d="M.5 15h2v.5h-1v1h1v.5h-2v1h3v-4h-3zm1-9h1V2h-2v1h1zm-1 3h1.8L.5 11.1v.9h3v-1H1.7l1.8-2.1V8h-3zM6 3v2h13V3zm0 14h13v-2H6zm0-6h13V9H6z"/></symbol><symbol id="format_size" viewBox="0 0 20 20"><path d="M6 2v3h5v12h3V5h5V2zm-4 9h2v6h2v-6h2V9H2z"/></symbol><symbol id="format_strikethrough" viewBox="0 0 20 20"><path d="M8 17h4v-3H8zM3 2v3h5v3h4V5h5V2zM1 12h18v-2H1z"/></symbol><symbol id="format_text" viewBox="0 0 20 20"><path d="M3 15v2h14v-2zm4.5-4.2h5l.9 2.2h2.1L10.75 2h-1.5L4.5 13h2.1zM10 3.98 11.87 9H8.13z"/></symbol><symbol id="format_underlined" viewBox="0 0 20 20"><path d="M5 2v7.111c.003 2.944 1.689 4.885 5 4.889 3.311-.003 4.997-1.945 5-4.889V2h-2v7.111c-.002 1.717-1.068 3.109-3 3.112-1.932-.002-2.997-1.394-3-3.112V2zM3 16v2h14v-2z"/></symbol><symbol id="link-chain" viewBox="0 0 20 20"><path d="M6.465 9.293c1.133-1.133 3.109-1.133 4.242 0l.707.707 1.414-1.414-.707-.707c-2.088-2.052-5.202-1.852-7.07 0L2.929 10a5.008 5.008 0 0 0 0 7.071c2.029 2.018 5.217 1.871 7.071 0l.707-.707-1.414-1.414-.707.707a3.007 3.007 0 0 1-4.243 0 3.005 3.005 0 0 1 0-4.243z"/><path d="m10 2.929-.707.707 1.414 1.414.707-.707a3.007 3.007 0 0 1 4.243 0 3.005 3.005 0 0 1 0 4.243l-2.122 2.121c-1.133 1.133-3.109 1.133-4.242 0L8.586 10l-1.414 1.414.707.707c2.058 2.014 5.187 1.89 7.07 0L17.071 10a5.008 5.008 0 0 0 0-7.071 5.006 5.006 0 0 0-7.071 0z"/></symbol><symbol id="menu-dots" viewBox="0 0 20 20"><path d="M8.2 3.478c0 2.4 3.6 2.4 3.6 0s-3.6-2.4-3.6 0zM8.2 10c0 2.4 3.6 2.4 3.6 0s-3.6-2.4-3.6 0zm0 6.522c0 2.4 3.6 2.4 3.6 0s-3.6-2.4-3.6 0z"/></symbol><symbol id="redo" viewBox="0 0 20 20"><path d="M15.833 9.25a9.206 9.206 0 0 0-6.07-2.288c-4.091 0-7.549 2.666-8.763 6.352L3.076 14a7.04 7.04 0 0 1 6.686-4.839c1.716 0 3.282.634 4.505 1.654L11.082 14H19V6.082z"/></symbol><symbol id="undo" viewBox="0 0 20 20"><path d="M10.233 6.965c-2.33 0-4.44.87-6.067 2.287L1 6.086V14h7.914l-3.183-3.183c1.222-1.02 2.779-1.653 4.502-1.653A7.045 7.045 0 0 1 16.916 14L19 13.314c-1.222-3.684-4.678-6.349-8.767-6.349z"/></symbol></defs></svg>