<svg><defs><svg id="arrow-down" viewBox="0 0 32 32" width="32" height="32"><path d="M2 10.283q0-.357.281-.633l1.403-1.374Q3.965 8 4.33 8q.364 0 .645.276L16 19.079 27.025 8.276Q27.305 8 27.67 8t.646.276l1.403 1.374q.281.276.281.633t-.281.633L16.647 23.724q-.281.276-.645.276-.365 0-.646-.276L2.284 10.916q-.28-.276-.28-.633z"/></svg><svg id="arrow-left" viewBox="0 0 32 32" width="32" height="32"><path d="M21.717 2q.357 0 .633.281l1.374 1.403q.276.281.276.646 0 .364-.276.645L12.921 16l10.803 11.025q.276.28.276.645t-.276.646l-1.374 1.403q-.276.281-.633.281t-.633-.281L8.276 16.647Q8 16.366 8 16.002q0-.365.276-.646L21.084 2.284q.276-.28.633-.28z"/></svg><svg id="arrow-right" viewBox="0 0 32 32" width="32" height="32"><path d="M10.283 30q-.357 0-.633-.281l-1.374-1.403Q8 28.035 8 27.67q0-.364.276-.645L19.079 16 8.276 4.975Q8 4.695 8 4.33t.276-.646L9.65 2.281Q9.926 2 10.283 2t.633.281l12.808 13.072q.276.281.276.645 0 .365-.276.646L10.916 29.716q-.276.28-.633.28z"/></svg><svg id="arrow-up" viewBox="0 0 32 32" width="32" height="32"><path d="M2.003 21.717q0-.357.281-.633L15.356 8.276Q15.637 8 16.002 8q.364 0 .645.276L29.72 21.084q.281.276.281.633t-.281.633l-1.403 1.374q-.281.276-.646.276-.364 0-.645-.276L16 12.921 4.975 23.724Q4.695 24 4.33 24t-.646-.276L2.281 22.35Q2 22.074 2 21.717z"/></svg><svg id="attribute-table" viewBox="0 0 32 32" width="32" height="32"><path d="M0 0v32h32V0zm2.969 7.042h7.5v5.25h-7.5zm10.5 0H29.03v5.25H13.47zm-10.5 8.25h7.5v5.427h-7.5zm10.5 0H29.03v5.427H13.47zm-10.5 8.427h7.5v5.25h-7.5zm10.5 0H29.03v5.25H13.47z"/></svg><svg id="avatar" viewBox="0 0 32 32" width="32" height="32"><path d="M16 2.406C7.632 2.406.844 9.194.844 17.562c0 4.354 1.84 8.266 4.781 11.032.382.359.801.682 1.219 1A27.482 27.482 0 0 1 16 28c3.21 0 6.292.584 9.156 1.594.418-.318.837-.641 1.219-1 2.939-2.766 4.781-6.681 4.781-11.032 0-8.368-6.788-15.156-15.156-15.156zm0 1.344a13.788 13.788 0 0 1 13.813 13.813c0 3.22-1.125 6.16-2.97 8.5-1.513-2.213-4.55-3.872-8.745-4.22v-.932c1.836-1.047 3.344-3.67 3.344-6.282 0-4.194-.442-7.218-5.442-7.218s-5.442 3.024-5.442 7.218c0 2.613 1.508 5.235 3.344 6.282v.933c-4.218.35-7.308 2.02-8.808 4.25a13.723 13.723 0 0 1-2.938-8.532C2.156 9.915 8.352 3.75 16 3.75z"/></svg><svg id="base-layer" viewBox="0 0 32 32" width="32" height="32"><path d="M4 3v5h24V3H4zm1.594 1.594h20.812v1.812H5.594V4.594zM4 11.156v5h24v-5H4zm1.594 1.625h20.812v1.781H5.594v-1.78zM1 19.47v1.5h30v-1.5H1zm3 4.375v5h24v-5H4z"/><path style="text-indent:0;text-align:start;line-height:normal;text-transform:none;block-progression:tb;marker:none;-inkscape-font-specification:Sans" d="M4 83.844v5h24v-5H4zm1.594 1.594h20.812v1.812H5.594v-1.813z" font-weight="400" color="#000" overflow="visible" font-family="Sans"/></svg><svg id="check" viewBox="0 0 32 32" width="32" height="32"><path d="M26.25 6.525a.94.94 0 0 0-.688.281L12.126 20.244l-5.656-5.657a.988.988 0 0 0-1.406 0l-1.438 1.407a.988.988 0 0 0 0 1.406l7.781 7.781a.988.988 0 0 0 1.406 0c5.185-5.18 10.375-10.355 15.563-15.531a1.026 1.026 0 0 0 0-1.438l-1.406-1.406a1.01 1.01 0 0 0-.719-.281z"/></svg><svg id="circle-i-outline" viewBox="0 0 32 32" width="32" height="32"><path d="M5.393 5.393c-5.858 5.859-5.858 15.355 0 21.214 5.859 5.858 15.355 5.858 21.214 0 5.858-5.859 5.858-15.355 0-21.214-5.859-5.858-15.355-5.858-21.214 0zm19.225 19.225c-4.76 4.76-12.476 4.76-17.236 0s-4.76-12.476 0-17.236 12.476-4.76 17.236 0 4.76 12.476 0 17.236zM5.768 5.768c-5.65 5.651-5.65 14.813 0 20.464 5.651 5.65 14.813 5.65 20.464 0 5.65-5.651 5.65-14.813 0-20.464-5.651-5.65-14.813-5.65-20.464 0zm18.545 18.545c-4.591 4.592-12.035 4.592-16.626 0-4.592-4.591-4.592-12.035 0-16.626 4.591-4.592 12.035-4.592 16.626 0 4.592 4.591 4.592 12.035 0 16.626z" style="line-height:125%;-inkscape-font-specification:Noto Serif Bold" font-size="22" font-weight="700" letter-spacing="0" word-spacing="0" font-family="Noto Serif"/><path d="M14 12.68h4v11.792h-4zM18 8.783a2 2 0 1 1-4 0 2 2 0 0 1 4 0z"/></svg><svg id="circle-i" viewBox="0 0 32 32" width="32" height="32"><path d="M16 1C7.707 1 1 7.707 1 16s6.707 15 15 15 15-6.707 15-15S24.294 1 16 1zm0 5.781a2 2 0 1 1 0 4 2 2 0 0 1 0-4zm-2 5.907h4v11.78h-4v-11.78z"/></svg><svg id="dash" viewBox="0 0 32 32" width="32" height="32"><path d="M8 14.2v3.6h16v-3.6H8z"/></svg><svg id="delete" viewBox="0 0 32 32" width="32" height="32"><path d="M9.375 2.188c-.819 0-1.625.558-1.969 1-.343.44-.475.746-.562.906l-6 10.937a1.75 1.75 0 0 0 0 1.625l6 11.625c.097.188.21.523.562.969.353.446 1.157.969 1.969.969h19.25c1.493 0 2.75-1.257 2.75-2.75V4.937c0-1.493-1.257-2.75-2.75-2.75H9.375zm.594 3.5h17.906v21.03H9.969c-.021-.039-.008-.016-.031-.062l-5.563-10.75L9.938 5.781c.033-.062.002-.042.03-.093zM13.313 8.5L10.5 11.313 15.188 16 10.5 20.688l2.813 2.812L18 18.812l4.688 4.688 2.812-2.813L20.812 16l4.688-4.688L22.687 8.5 18 13.188 13.312 8.5z"/></svg><svg id="download" width="32" height="32"><g transform="translate(0 -1020.362)"><path d="M7.664 1033.755c0-.155.056-.292.162-.402a.517.517 0 0 1 .38-.17c4.66.037 10.916-.021 15.569-.021a.53.53 0 0 1 .389.18.586.586 0 0 1 .004.824l-7.783 8.335a.515.515 0 0 1-.384.179.517.517 0 0 1-.384-.18l-7.783-8.333a.585.585 0 0 1-.168-.412z"/><rect width="5.939" height="12.752" x="13.031" y="1022.304" rx=".9" ry=".9"/><rect width="30" height="5.333" x="1" y="1044.781" rx=".9" ry=".9"/></g></svg><svg id="help" viewBox="0 0 32 32" width="32" height="32"><path d="M20.73 6.487c1.329 1.01 2.073 2.444 2.073 4.41a5.173 5.173 0 0 1-1.01 3.03c-.373.479-1.117 1.116-2.126 1.913l-1.116.744c-.531.425-.904.956-1.063 1.488-.106.319-.16 1.01-.16 1.541 0 .106-.053.319-.372.319h-3.294c-.373 0-.373-.16-.373-.266.054-1.382.213-2.604.798-3.507.797-1.223 3.029-2.55 3.029-2.55.319-.267.585-.48.797-.798.373-.532.638-1.117.638-1.7 0-.692-.16-1.382-.585-1.914-.531-.637-1.116-.956-2.179-.956-1.063 0-1.7.585-2.125 1.275-.426.69-.373 1.542-.373 2.286H9.197c0-2.87.744-4.677 2.338-5.74C12.598 5.32 13.927 5 15.521 5c2.073 0 3.72.372 5.207 1.488zm-5.473 15.569c1.435.053 2.497 1.062 2.444 2.55-.054 1.488-1.17 2.445-2.604 2.392-1.382-.054-2.445-1.01-2.392-2.498.053-1.488 1.17-2.498 2.55-2.444z"/></svg><svg id="identification-marker" viewBox="0 0 16 16" width="16" height="16"><path d="M6.425 0v6.425H0v3.15h6.425V16h3.15V9.575H16v-3.15H9.575V0z"/></svg><svg id="identification" viewBox="0 0 32 32" width="32" height="32"><path d="M5.313 2.662c-1.468 0-2.646 1.269-2.646 2.81v24.862l5.321-4.99h18.67c1.467 0 2.675-1.27 2.675-2.81V5.47c0-1.54-1.208-2.809-2.676-2.809zm9.35 4.013h4.003v2.661h-4.003zm0 5.33h4.003v9.326h-4.003z"/></svg><svg id="legend" viewBox="0 0 32 32" width="32" height="32"><path d="M2 4.773h6.247v5H2.001zm0 8.244h6.295v5H2zm0 9.142h6.294v5H2zm9-13.25V5.636c0-.147.045-.275.134-.383a.4.4 0 0 1 .316-.162h17.1a.4.4 0 0 1 .316.162c.09.108.134.236.134.383V8.91a.584.584 0 0 1-.134.384.4.4 0 0 1-.316.162h-17.1a.4.4 0 0 1-.316-.162A.584.584 0 0 1 11 8.91zm0 8.245V13.88c0-.148.045-.276.134-.384a.4.4 0 0 1 .316-.162h13.1a.4.4 0 0 1 .316.162c.09.108.134.236.134.384v3.273a.584.584 0 0 1-.134.383.4.4 0 0 1-.316.163h-13.1a.4.4 0 0 1-.316-.163.584.584 0 0 1-.134-.383zm0 9.142v-3.273c0-.148.045-.276.134-.384a.4.4 0 0 1 .316-.162h17.1a.4.4 0 0 1 .316.162c.09.108.134.236.134.384v3.273a.584.584 0 0 1-.134.383.4.4 0 0 1-.316.163h-17.1a.4.4 0 0 1-.316-.163.584.584 0 0 1-.134-.383z"/></svg><svg id="line" width="32" height="32"><title>polygon</title><defs><linearGradient id="c"><stop offset="0" stop-color="#fce94f"/><stop offset="1" stop-color="#e7ce04"/></linearGradient><linearGradient id="a"><stop offset="0" stop-color="#f2d6a9"/><stop offset="1" stop-color="#e9b96e"/></linearGradient><linearGradient id="b"><stop offset="0" stop-color="#f2d6a9"/><stop offset="1" stop-color="#e9b96e"/></linearGradient><linearGradient id="d"><stop offset="0" stop-color="#969696"/><stop offset="1" stop-color="#969696" stop-opacity=".266"/></linearGradient><linearGradient id="e"><stop offset="0" stop-color="#8cbe8c"/><stop offset="1" stop-color="#a1daa1"/></linearGradient></defs><path style="text-indent:0;text-align:start;line-height:normal;text-transform:none;block-progression:tb;marker:none;-inkscape-font-specification:Andale Mono" d="M10.844 6.719L.719 16.78l2.812 2.75 7.25-7.218L23.125 25.28l8.156-8.406-2.843-2.656-5.313 5.437z" font-weight="400" color="#000" overflow="visible" font-family="Andale Mono"/></svg><svg id="link-external" viewBox="0 0 24 32" width="24" height="32"><path d="M20 24H4V8.06L8 8V4H0v24h24V18h-4v6zM12 4l4 4-6 6 4 4 6-6 4 4V4H12z"/></svg><svg id="logout" viewBox="0 0 32 32" width="32" height="32"><path style="text-indent:0;text-align:start;line-height:normal;text-transform:none;block-progression:tb;marker:none;-inkscape-font-specification:Sans" d="M15.781 39.219A2 2 0 0 0 14 41.25v8.5a2 2 0 1 0 4 0v-8.5a2 2 0 0 0-2.219-2.031zM21 42.125v4.5a8.995 8.995 0 0 1 4 7.5c0 4.994-4.006 9-9 9a8.97 8.97 0 0 1-9-9 8.975 8.975 0 0 1 4-7.5v-4.469c-4.681 1.968-8 6.592-8 11.969 0 7.156 5.844 13 13 13s13-5.844 13-13c0-5.392-3.308-10.04-8-12z" font-weight="400" color="#000" overflow="visible" font-family="Sans"/><path style="text-indent:0;text-align:start;line-height:normal;text-transform:none;block-progression:tb;marker:none;-inkscape-font-specification:Sans" d="M9.87 4.063C5.07 6.32 1.75 11.13 1.75 16.688c0 7.708 6.38 14.03 14.234 14.03 7.855 0 14.266-6.322 14.266-14.03 0-5.558-3.35-10.368-8.152-12.625v4.625c2.473 1.817 4.076 4.711 4.076 8 0 5.546-4.538 10-10.19 10-5.652 0-10.19-4.454-10.19-10 0-3.28 1.604-6.18 4.076-8V4.061z" font-weight="400" color="#000" overflow="visible" font-family="Sans"/><path style="text-indent:0;text-align:start;line-height:normal;text-transform:none;block-progression:tb;marker:none;-inkscape-font-specification:Sans" d="M15.969 1.455A2 2.015 0 0 0 14 3.5v8.91a2 2.015 0 1 0 4 0V3.5a2 2.015 0 0 0-2.031-2.046z" font-weight="400" color="#000" overflow="visible" font-family="Sans"/></svg><svg id="menu-dots" width="32" height="32"><g transform="matrix(0 -1.33333 1.33325 0 .001 -1371.15)"><rect width="4" height="4" x="-1042.362" y="10" ry="0"/><rect ry="0" y="10" x="-1035.362" height="4" width="4"/><rect ry="0" y="10" x="-1049.362" height="4" width="4"/></g></svg><svg id="menu" width="32" height="32"><g transform="matrix(0 -1.33333 1.25 0 1 -1371.15)"><rect width="4" height="24" x="-1042.362" ry="0"/><rect ry="0" x="-1035.362" height="24" width="4"/><rect ry="0" x="-1049.362" height="24" width="4"/></g></svg><svg id="minus" viewBox="0 0 32 32" width="32" height="32"><path d="M2.25 14.2v3.6h27.5v-3.6H2.25z"/></svg><svg id="north-arrow" width="32" height="32"><g font-weight="400" color="#000" font-family="Sans"><path style="text-indent:0;text-align:start;line-height:normal;text-transform:none;block-progression:tb;marker:none;-inkscape-font-specification:Sans" d="M16.031 7.375c-2.59 2.66-5.204 5.296-7.812 7.938l2 2c1.433-1.463 2.864-2.928 4.312-4.375V28.5h3V12.906a922.321 922.321 0 0 0 4.282 4.406l2.03-2.03a1187.324 1187.324 0 0 0-7.812-7.907z" overflow="visible"/><path style="text-indent:0;text-align:start;line-height:normal;text-transform:none;block-progression:tb;marker:none;-inkscape-font-specification:Sans" d="M15.996.484C7.454.484.49 7.448.49 15.99c0 8.542 6.964 15.506 15.506 15.506 8.543 0 15.507-6.964 15.507-15.506 0-8.543-6.964-15.507-15.507-15.507zm0 3.016a12.46 12.46 0 0 1 12.49 12.49 12.46 12.46 0 0 1-12.49 12.49 12.46 12.46 0 0 1-12.49-12.49A12.46 12.46 0 0 1 15.996 3.5z" overflow="visible"/></g></svg><svg id="overlays" viewBox="0 0 32 32" width="32" height="32"><path d="M4 3v5h24V3H4zm0 8.156v5h24v-5H4zM1 19.47v1.5h30v-1.5H1zm3 4.406v5h24v-5H4zM5.594 25.5h20.812v1.781H5.594V25.5z"/></svg><svg id="page-first" viewBox="0 0 32 32" width="32" height="32"><path d="M24.068 2q.357 0 .633.281l1.374 1.403q.276.281.276.646 0 .364-.276.645L15.272 16l10.803 11.025q.276.28.276.645t-.276.646l-1.374 1.403q-.276.281-.633.281t-.633-.281L10.627 16.647q-.276-.281-.276-.645 0-.365.276-.646L23.435 2.284q.276-.28.633-.28z"/><rect width="3.84" height="28" x="5.649" y="2" rx=".8" ry=".8"/></svg><svg id="page-last" viewBox="0 0 32 32" width="32" height="32"><path d="M7.932 2q-.357 0-.633.281L5.925 3.684q-.276.281-.276.646 0 .364.276.645L16.728 16 5.925 27.025q-.276.28-.276.645t.276.646l1.374 1.403q.276.281.633.281t.633-.281l12.808-13.072q.276-.281.276-.645 0-.365-.276-.646L8.565 2.284q-.276-.28-.633-.28z"/><rect width="3.84" height="28" x="-26.351" y="2" rx=".8" ry=".8" transform="scale(-1 1)"/></svg><svg id="plus" viewBox="0 0 32 32" width="32" height="32"><path d="M14.21 2.25v11.96H2.25v3.58h11.96v11.96h3.58V17.79h11.96v-3.58H17.79V2.25z"/></svg><svg id="point" width="32" height="32"><title>polygon</title><defs><linearGradient id="c"><stop offset="0" stop-color="#fce94f"/><stop offset="1" stop-color="#e7ce04"/></linearGradient><linearGradient id="a"><stop offset="0" stop-color="#f2d6a9"/><stop offset="1" stop-color="#e9b96e"/></linearGradient><linearGradient id="b"><stop offset="0" stop-color="#f2d6a9"/><stop offset="1" stop-color="#e9b96e"/></linearGradient><linearGradient id="d"><stop offset="0" stop-color="#969696"/><stop offset="1" stop-color="#969696" stop-opacity=".266"/></linearGradient><linearGradient id="e"><stop offset="0" stop-color="#8cbe8c"/><stop offset="1" stop-color="#a1daa1"/></linearGradient></defs><path style="text-indent:0;text-align:start;line-height:normal;text-transform:none;block-progression:tb;marker:none;-inkscape-font-specification:Sans" d="M4.41 13.273A3.42 3.42 0 0 0 1 16.682a3.42 3.42 0 0 0 3.41 3.409 3.42 3.42 0 0 0 3.408-3.41 3.42 3.42 0 0 0-3.409-3.408zm12.272-5.455a3.42 3.42 0 0 0-3.41 3.41 3.42 3.42 0 0 0 3.41 3.408 3.42 3.42 0 0 0 3.409-3.409 3.42 3.42 0 0 0-3.41-3.409zm10.909 9.546a3.42 3.42 0 0 0-3.41 3.409 3.42 3.42 0 0 0 3.41 3.409A3.42 3.42 0 0 0 31 20.772a3.42 3.42 0 0 0-3.41-3.408z" font-weight="400" color="#000" overflow="visible" font-family="Sans"/></svg><svg id="polygon" width="32" height="32"><title>polygon</title><defs><linearGradient id="c"><stop offset="0" stop-color="#fce94f"/><stop offset="1" stop-color="#e7ce04"/></linearGradient><linearGradient id="a"><stop offset="0" stop-color="#f2d6a9"/><stop offset="1" stop-color="#e9b96e"/></linearGradient><linearGradient id="b"><stop offset="0" stop-color="#f2d6a9"/><stop offset="1" stop-color="#e9b96e"/></linearGradient><linearGradient id="d"><stop offset="0" stop-color="#969696"/><stop offset="1" stop-color="#969696" stop-opacity=".266"/></linearGradient><linearGradient id="e"><stop offset="0" stop-color="#8cbe8c"/><stop offset="1" stop-color="#a1daa1"/></linearGradient></defs><path style="text-indent:0;text-align:start;line-height:normal;text-transform:none;block-progression:tb;marker:none;-inkscape-font-specification:Sans" d="M19.563 6.844l-9.344 4.562-6.125-1.625L.78 18.5l7.25 5.969 7.938-3.813 8.937 4.688 6.438-12.719z" font-weight="400" color="#000" overflow="visible" font-family="Sans"/></svg><svg id="printer" viewBox="0 0 32 32" width="32" height="32"><path d="M29.125 8.5H2.875A1.88 1.88 0 0 0 1 10.375v9.375a1.88 1.88 0 0 0 1.875 1.875H8.5v7.404h15v-7.404h5.625A1.88 1.88 0 0 0 31 19.75v-9.375A1.88 1.88 0 0 0 29.125 8.5zM4.75 14.125a1.876 1.876 0 1 1 .001-3.751 1.876 1.876 0 0 1-.001 3.751zm16.875 13.03h-11.25v-9.28h11.25zM8.5 2.874h15v3.75h-15z"/></svg><svg id="raster" width="32" height="32"><title>polygon</title><defs><linearGradient id="c"><stop offset="0" stop-color="#fce94f"/><stop offset="1" stop-color="#e7ce04"/></linearGradient><linearGradient id="a"><stop offset="0" stop-color="#f2d6a9"/><stop offset="1" stop-color="#e9b96e"/></linearGradient><linearGradient id="b"><stop offset="0" stop-color="#f2d6a9"/><stop offset="1" stop-color="#e9b96e"/></linearGradient><linearGradient id="d"><stop offset="0" stop-color="#969696"/><stop offset="1" stop-color="#969696" stop-opacity=".266"/></linearGradient><linearGradient id="e"><stop offset="0" stop-color="#8cbe8c"/><stop offset="1" stop-color="#a1daa1"/></linearGradient></defs><g><path d="M.942 5.662h10.274V16H.942zM20.785 5.662h10.274V16H20.785zM11.082 16h9.836v10.338h-9.836z"/><path style="text-indent:0;text-align:start;line-height:normal;text-transform:none;block-progression:tb;marker:none;-inkscape-font-specification:Sans" d="M.75 5v22h30.5V5H.75zm1 1h28.5v20H1.75V6z" font-weight="400" color="#000" overflow="visible" font-family="Sans"/></g></svg><svg id="ruler" viewBox="0 0 32 32" width="32" height="32"><path d="M2.8 16.571c-.812 0-1.467.638-1.467 1.429v8.571c0 .792.655 1.429 1.467 1.429h26.4c.812 0 1.467-.637 1.467-1.429V18c0-.791-.655-1.429-1.467-1.429zm3.2.804a.66.66 0 0 1 .667.655v3.065c0 .37-.306.685-.667.685a.686.686 0 0 1-.666-.685V18.03A.66.66 0 0 1 6 17.375zm5.333 0a.66.66 0 0 1 .667.655v3.065c0 .37-.306.685-.667.685a.686.686 0 0 1-.666-.685V18.03a.66.66 0 0 1 .666-.655zm5.334 0a.66.66 0 0 1 .666.655V23c0 .37-.305.685-.666.685A.687.687 0 0 1 16 23v-4.97c0-.37.306-.655.667-.655zm5.333 0a.66.66 0 0 1 .667.655v3.065c0 .37-.306.685-.667.685a.686.686 0 0 1-.667-.685V18.03a.66.66 0 0 1 .667-.655zm5.333 0a.66.66 0 0 1 .667.655v3.065c0 .37-.306.685-.667.685a.686.686 0 0 1-.666-.685V18.03a.66.66 0 0 1 .666-.655zM27.097 5.189a.253.253 0 0 0-.156.021c-.114.052-.159.141-.162.279l-.063 2.215-21.356.09.062-2.215c.003-.13-.058-.214-.17-.273-.111-.053-.221-.019-.319.073L1.424 8.837a.337.337 0 0 0-.09.234c-.002.085.007.146.065.212l3.344 3.452c.093.085.202.107.316.055.114-.052.166-.171.17-.309l.054-2.185 21.357-.09-.054 2.185c-.004.13.05.245.161.304.112.052.222.018.32-.073l3.508-3.459a.337.337 0 0 0 .091-.234c.002-.085 0-.176-.057-.242l-3.352-3.421a.323.323 0 0 0-.16-.077z"/></svg><svg id="settings" viewBox="0 0 32 32" width="32" height="32"><path d="M27.392 17.515l3.389 2.451c.217.217.288.721.144 1.01l-3.1 5.12c-.145.288-.506.505-.866.36l-3.893-1.514c-.865.577-1.659 1.154-2.596 1.515l-.576 3.966c-.073.289-.433.577-.794.577h-6.129c-.36 0-.72-.217-.793-.577l-.577-3.966c-.938-.361-1.803-.938-2.595-1.515l-3.894 1.515c-.288.144-.72-.073-.865-.361l-3.1-5.12c-.217-.361-.145-.794.144-1.01l3.245-2.451c0-.506-.073-1.01-.073-1.515 0-.505.073-1.01.073-1.515l-3.317-2.451c-.217-.217-.288-.721-.144-1.01l3.1-5.12c.145-.288.506-.505.866-.36l3.893 1.514c.865-.577 1.659-1.154 2.596-1.515l.576-3.966C12.18 1.288 12.54 1 12.9 1h6.129c.36 0 .72.288.793.577l.505 3.966c.938.361 1.803.938 2.596 1.515l3.821-1.515c.289-.144.794.073.938.361l3.101 5.12c.217.361.144.794-.144 1.01l-3.245 2.451c0 .506.073 1.01.073 1.515 0 .505 0 1.082-.073 1.515zm-11.463 3.75c2.957 0 5.408-2.308 5.408-5.265s-2.451-5.264-5.408-5.264c-2.956 0-5.335 2.307-5.335 5.264 0 2.957 2.38 5.264 5.335 5.264z"/></svg><svg id="target" viewBox="0 0 32 32" width="32" height="32"><path d="M29.642 14.5H32v3h-2.358c-.714 6.357-5.786 11.428-12.142 12.142V32h-3v-2.358C8.143 28.928 3.072 23.856 2.358 17.5H0v-3h2.358C3.072 8.143 8.144 3.072 14.5 2.358V0h3v2.358c6.357.714 11.428 5.786 12.142 12.142zM16 26.642c5.857 0 10.643-4.786 10.643-10.643 0-5.857-4.786-10.643-10.643-10.643-5.857 0-10.643 4.786-10.643 10.643 0 5.857 4.786 10.643 10.643 10.643z"/><path d="M20 16a4 4 0 1 1-8 0 4 4 0 1 1 8 0zM0 14.125h3.75v3.75H0zM28.25 14.125H32v3.75h-3.75zM14.125 0h3.75v3.75h-3.75zM14.125 28.25h3.75V32h-3.75z"/></svg><svg id="topics" viewBox="0 0 32 32" width="32" height="32"><path d="M8.408 11.69l19.943 1.514-.303 3.989-19.943-1.514zm-.528 7.344l19.943 1.514-.303 3.989-19.943-1.514zM22 2.188L1.5 3.469c-.87.055-1.556.814-1.5 1.688l1.063 16.281c.056.874.818 1.555 1.688 1.5l1.219-.094-.25 3.563a1.738 1.738 0 0 0 1.594 1.844l23.469 1.719a1.737 1.737 0 0 0 1.844-1.594l1.375-18.5a1.738 1.738 0 0 0-1.594-1.844l-6.438-.469-.25-3.906c-.056-.874-.849-1.524-1.719-1.469zm.094 1.468c.077-.005.121.034.125.094l.219 3.688-15.5-1.125c-.936-.069-1.806.653-1.875 1.594l-.969 13.438-1.438.094c-.077.005-.121-.034-.125-.094L1.5 5.064c-.004-.06.017-.089.094-.094l20.5-1.313zM6.813 7.813l23.469 1.719c.148.011.228.097.219.219l-1.375 18.531c-.009.122-.071.198-.219.188L5.438 26.751c-.148-.011-.259-.128-.25-.25l1.375-18.5c.009-.122.102-.198.25-.188z"/></svg><svg id="tracking" viewBox="0 0 32 32" width="32" height="32"><path d="M29.642 14.5H32v3h-2.358c-.714 6.357-5.786 11.428-12.142 12.142V32h-3v-2.358C8.143 28.928 3.072 23.856 2.358 17.5H0v-3h2.358C3.072 8.143 8.144 3.072 14.5 2.358V0h3v2.358c6.357.714 11.428 5.786 12.142 12.142zM16 26.642c5.857 0 10.643-4.786 10.643-10.643 0-5.857-4.786-10.643-10.643-10.643-5.857 0-10.643 4.786-10.643 10.643 0 5.857 4.786 10.643 10.643 10.643z"/><path d="M0 14.125h3.75v3.75H0zM28.25 14.125H32v3.75h-3.75zM14.125 0h3.75v3.75h-3.75zM14.125 28.25h3.75V32h-3.75zM15.874 8.925l5.376 12.5c-3.633-2.53-7.137-2.653-10.5-.095z"/></svg><svg id="triangle" viewBox="0 0 32 32" width="32" height="32"><path d="M6.788 2c-.46-.016-.766.36-.788.659v26.17c.008.625.277 1.106.788 1.171.333 0 .618-.094.875-.281l17.943-13.063c.257-.187.394-.413.394-.656 0-.243-.137-.469-.394-.656L7.663 2.28A1.434 1.434 0 0 0 6.788 2z"/></svg><svg id="x" viewBox="0 0 32 32" width="32" height="32"><path d="M5.01 7.544L13.468 16l-8.456 8.456 2.533 2.533L16 18.533l8.456 8.456 2.533-2.533L18.533 16l8.456-8.456-2.533-2.533L16 13.467 7.544 5.011z"/></svg><svg id="zoom-max" width="32" height="32"><path style="text-indent:0;text-align:start;line-height:normal;text-transform:none;block-progression:tb;marker:none;-inkscape-font-specification:Sans" d="M1 1v11.172h3.398V4.399h7.852V1H1zm18.75 0v3.398h7.852v7.774H31V1H19.75zM1 19.79V31h11.25v-3.398H4.398v-7.813H1zm26.602 0v7.812H19.75V31H31V19.789h-3.398z" font-weight="400" color="#000" overflow="visible" font-family="Sans"/></svg><svg id="zoom-to" viewBox="0 0 32 32" width="32" height="32"><path d="M1.118 1.127A.415.415 0 0 1 1.424 1l6.644.273c.18.012.303.1.369.264.06.17.03.315-.09.436L6.33 4.01l1.426 1.44a.403.403 0 0 1 .126.291c0 .11-.042.206-.126.291L6.027 7.778a.395.395 0 0 1-.288.127.395.395 0 0 1-.289-.127l-1.425-1.44-2.017 2.037a.367.367 0 0 1-.432.09.412.412 0 0 1-.27-.363L1 1.43a.41.41 0 0 1 .117-.3zm29.764 29.746a.415.415 0 0 1-.306.127l-6.644-.273a.397.397 0 0 1-.369-.264c-.06-.17-.03-.315.09-.436l2.017-2.037-1.426-1.44a.403.403 0 0 1-.126-.29c0-.11.042-.207.126-.292l1.729-1.746a.395.395 0 0 1 .288-.127c.108 0 .205.042.289.127l1.425 1.44 2.017-2.037a.367.367 0 0 1 .432-.09.412.412 0 0 1 .27.363L31 30.57a.41.41 0 0 1-.117.3zm-.009-29.755a.419.419 0 0 1 .127.308L30.728 8.1a.399.399 0 0 1-.262.371c-.17.06-.314.03-.435-.09l-2.027-2.026-1.434 1.432a.4.4 0 0 1-.29.127.4.4 0 0 1-.29-.127L24.252 6.05a.398.398 0 0 1-.127-.29c0-.109.043-.205.127-.29l1.434-1.432-2.028-2.025a.37.37 0 0 1-.09-.434.411.411 0 0 1 .361-.272L30.573 1c.121 0 .22.04.3.117zm-4.2 14.347a10.56 10.56 0 0 0-1.007-4.123c-.613-1.3-1.415-2.409-2.407-3.328-.992-.92-2.157-1.633-3.496-2.142a10.432 10.432 0 0 0-4.172-.676c-1.443.058-2.811.396-4.105 1.011-1.293.616-2.398 1.422-3.313 2.418-.915.997-1.625 2.168-2.132 3.512a10.565 10.565 0 0 0-.673 4.191c.09 2.23.796 4.226 2.12 5.989l-4.98 5.423c-.359.39-.527.854-.506 1.391.022.537.23.988.623 1.352.394.365.858.537 1.392.515.545-.022.991-.233 1.339-.633l4.98-5.408c1.857 1.183 3.894 1.73 6.114 1.64a10.436 10.436 0 0 0 4.104-1.012c1.294-.615 2.398-1.421 3.313-2.418.915-.996 1.626-2.167 2.132-3.512.507-1.345.731-2.742.673-4.191zm-3.873.157c.075 1.875-.523 3.505-1.796 4.891-1.273 1.386-2.843 2.117-4.709 2.193-1.866.075-3.49-.526-4.87-1.805-1.38-1.278-2.107-2.855-2.182-4.73-.075-1.874.523-3.505 1.796-4.891 1.273-1.386 2.843-2.117 4.709-2.193 1.866-.075 3.49.526 4.87 1.805 1.38 1.278 2.107 2.855 2.182 4.73z"/></svg></defs></svg>