<?xml version="1.0" encoding="UTF-8" standalone="no"?>
<!-- Created with Inkscape (http://www.inkscape.org/) -->

<svg
   xmlns:dc="http://purl.org/dc/elements/1.1/"
   xmlns:cc="http://creativecommons.org/ns#"
   xmlns:rdf="http://www.w3.org/1999/02/22-rdf-syntax-ns#"
   xmlns:svg="http://www.w3.org/2000/svg"
   xmlns="http://www.w3.org/2000/svg"
   xmlns:sodipodi="http://sodipodi.sourceforge.net/DTD/sodipodi-0.dtd"
   xmlns:inkscape="http://www.inkscape.org/namespaces/inkscape"
   width="300"
   height="60"
   id="svg2"
   version="1.1"
   inkscape:version="0.48.4 r9939"
   sodipodi:docname="text_logo.svg">
  <defs
     id="defs4">
    <inkscape:path-effect
       effect="spiro"
       id="path-effect6459"
       is_visible="true" />
    <inkscape:path-effect
       effect="spiro"
       id="path-effect6457"
       is_visible="true" />
    <inkscape:path-effect
       effect="spiro"
       id="path-effect6285"
       is_visible="true" />
    <inkscape:path-effect
       is_visible="true"
       id="path-effect6283"
       effect="spiro" />
    <inkscape:path-effect
       is_visible="true"
       id="path-effect6281"
       effect="spiro" />
    <inkscape:path-effect
       effect="spiro"
       id="path-effect6279"
       is_visible="true" />
    <inkscape:path-effect
       is_visible="true"
       id="path-effect6183"
       effect="spiro" />
    <inkscape:path-effect
       effect="spiro"
       id="path-effect6181"
       is_visible="true" />
    <inkscape:path-effect
       effect="spiro"
       id="path-effect6179"
       is_visible="true" />
    <inkscape:path-effect
       is_visible="true"
       id="path-effect6177"
       effect="spiro" />
    <inkscape:path-effect
       is_visible="true"
       id="path-effect6081"
       effect="spiro" />
    <inkscape:path-effect
       effect="spiro"
       id="path-effect6079"
       is_visible="true" />
    <inkscape:path-effect
       effect="spiro"
       id="path-effect6077"
       is_visible="true" />
    <inkscape:path-effect
       is_visible="true"
       id="path-effect6075"
       effect="spiro" />
    <inkscape:path-effect
       effect="spiro"
       id="path-effect5242"
       is_visible="true" />
    <inkscape:path-effect
       is_visible="true"
       id="path-effect5240"
       effect="spiro" />
    <inkscape:path-effect
       is_visible="true"
       id="path-effect5234"
       effect="spiro" />
    <inkscape:path-effect
       effect="spiro"
       id="path-effect5222"
       is_visible="true" />
    <inkscape:path-effect
       effect="spiro"
       id="path-effect5218"
       is_visible="true" />
    <inkscape:path-effect
       effect="spiro"
       id="path-effect5214"
       is_visible="true" />
    <inkscape:path-effect
       effect="spiro"
       id="path-effect5210"
       is_visible="true" />
    <inkscape:path-effect
       effect="spiro"
       id="path-effect5206"
       is_visible="true" />
    <inkscape:path-effect
       effect="spiro"
       id="path-effect4114"
       is_visible="true" />
    <inkscape:path-effect
       effect="spiro"
       id="path-effect4435"
       is_visible="true" />
    <inkscape:path-effect
       effect="spiro"
       id="path-effect3292"
       is_visible="true" />
    <inkscape:perspective
       sodipodi:type="inkscape:persp3d"
       inkscape:vp_x="0 : 526.18109 : 1"
       inkscape:vp_y="0 : 1000 : 0"
       inkscape:vp_z="744.09448 : 526.18109 : 1"
       inkscape:persp3d-origin="372.04724 : 350.78739 : 1"
       id="perspective10" />
    <inkscape:perspective
       id="perspective2902"
       inkscape:persp3d-origin="0.5 : 0.33333333 : 1"
       inkscape:vp_z="1 : 0.5 : 1"
       inkscape:vp_y="0 : 1000 : 0"
       inkscape:vp_x="0 : 0.5 : 1"
       sodipodi:type="inkscape:persp3d" />
    <inkscape:perspective
       id="perspective3015"
       inkscape:persp3d-origin="0.5 : 0.33333333 : 1"
       inkscape:vp_z="1 : 0.5 : 1"
       inkscape:vp_y="0 : 1000 : 0"
       inkscape:vp_x="0 : 0.5 : 1"
       sodipodi:type="inkscape:persp3d" />
    <inkscape:perspective
       id="perspective3089"
       inkscape:persp3d-origin="0.5 : 0.33333333 : 1"
       inkscape:vp_z="1 : 0.5 : 1"
       inkscape:vp_y="0 : 1000 : 0"
       inkscape:vp_x="0 : 0.5 : 1"
       sodipodi:type="inkscape:persp3d" />
    <inkscape:perspective
       id="perspective3199"
       inkscape:persp3d-origin="0.5 : 0.33333333 : 1"
       inkscape:vp_z="1 : 0.5 : 1"
       inkscape:vp_y="0 : 1000 : 0"
       inkscape:vp_x="0 : 0.5 : 1"
       sodipodi:type="inkscape:persp3d" />
    <inkscape:perspective
       id="perspective3293"
       inkscape:persp3d-origin="0.5 : 0.33333333 : 1"
       inkscape:vp_z="1 : 0.5 : 1"
       inkscape:vp_y="0 : 1000 : 0"
       inkscape:vp_x="0 : 0.5 : 1"
       sodipodi:type="inkscape:persp3d" />
    <inkscape:perspective
       id="perspective3364"
       inkscape:persp3d-origin="0.5 : 0.33333333 : 1"
       inkscape:vp_z="1 : 0.5 : 1"
       inkscape:vp_y="0 : 1000 : 0"
       inkscape:vp_x="0 : 0.5 : 1"
       sodipodi:type="inkscape:persp3d" />
    <inkscape:perspective
       id="perspective3462"
       inkscape:persp3d-origin="0.5 : 0.33333333 : 1"
       inkscape:vp_z="1 : 0.5 : 1"
       inkscape:vp_y="0 : 1000 : 0"
       inkscape:vp_x="0 : 0.5 : 1"
       sodipodi:type="inkscape:persp3d" />
    <inkscape:perspective
       id="perspective3539"
       inkscape:persp3d-origin="0.5 : 0.33333333 : 1"
       inkscape:vp_z="1 : 0.5 : 1"
       inkscape:vp_y="0 : 1000 : 0"
       inkscape:vp_x="0 : 0.5 : 1"
       sodipodi:type="inkscape:persp3d" />
    <filter
       id="filter3549"
       inkscape:label="Desaturate"
       x="0"
       y="0"
       width="1"
       height="1"
       inkscape:menu="Color"
       inkscape:menu-tooltip="Render in shades of gray by reducing saturation to zero"
       color-interpolation-filters="sRGB">
      <feColorMatrix
         id="feColorMatrix3551"
         type="saturate"
         values="0" />
    </filter>
    <inkscape:perspective
       id="perspective3729"
       inkscape:persp3d-origin="0.5 : 0.33333333 : 1"
       inkscape:vp_z="1 : 0.5 : 1"
       inkscape:vp_y="0 : 1000 : 0"
       inkscape:vp_x="0 : 0.5 : 1"
       sodipodi:type="inkscape:persp3d" />
    <inkscape:perspective
       id="perspective5246"
       inkscape:persp3d-origin="0.5 : 0.33333333 : 1"
       inkscape:vp_z="1 : 0.5 : 1"
       inkscape:vp_y="0 : 1000 : 0"
       inkscape:vp_x="0 : 0.5 : 1"
       sodipodi:type="inkscape:persp3d" />
    <inkscape:perspective
       id="perspective3967"
       inkscape:persp3d-origin="0.5 : 0.33333333 : 1"
       inkscape:vp_z="1 : 0.5 : 1"
       inkscape:vp_y="0 : 1000 : 0"
       inkscape:vp_x="0 : 0.5 : 1"
       sodipodi:type="inkscape:persp3d" />
    <filter
       id="filter3973"
       inkscape:label="Desaturate"
       x="0"
       y="0"
       width="1"
       height="1"
       inkscape:menu="Color"
       inkscape:menu-tooltip="Render in shades of gray by reducing saturation to zero"
       color-interpolation-filters="sRGB">
      <feColorMatrix
         id="feColorMatrix3975"
         type="saturate"
         values="0" />
    </filter>
    <inkscape:path-effect
       effect="spiro"
       id="path-effect5242-5"
       is_visible="true" />
    <inkscape:path-effect
       is_visible="true"
       id="path-effect5240-9"
       effect="spiro" />
    <inkscape:path-effect
       is_visible="true"
       id="path-effect5234-5"
       effect="spiro" />
    <inkscape:path-effect
       effect="spiro"
       id="path-effect5214-2"
       is_visible="true" />
    <inkscape:path-effect
       effect="spiro"
       id="path-effect5242-3"
       is_visible="true" />
    <inkscape:path-effect
       is_visible="true"
       id="path-effect5240-4"
       effect="spiro" />
    <inkscape:path-effect
       is_visible="true"
       id="path-effect5234-3"
       effect="spiro" />
    <inkscape:path-effect
       effect="spiro"
       id="path-effect5214-7"
       is_visible="true" />
    <inkscape:path-effect
       effect="spiro"
       id="path-effect5242-3-0"
       is_visible="true" />
    <inkscape:path-effect
       is_visible="true"
       id="path-effect5240-4-3"
       effect="spiro" />
    <inkscape:path-effect
       is_visible="true"
       id="path-effect5234-3-3"
       effect="spiro" />
    <inkscape:path-effect
       effect="spiro"
       id="path-effect5214-7-2"
       is_visible="true" />
    <inkscape:path-effect
       effect="spiro"
       id="path-effect5242-0"
       is_visible="true" />
    <inkscape:path-effect
       is_visible="true"
       id="path-effect5240-8"
       effect="spiro" />
    <inkscape:path-effect
       is_visible="true"
       id="path-effect5234-8"
       effect="spiro" />
    <inkscape:path-effect
       effect="spiro"
       id="path-effect5214-9"
       is_visible="true" />
    <filter
       id="filter4382"
       inkscape:label="Desaturate"
       x="0"
       y="0"
       width="1"
       height="1"
       inkscape:menu="Color"
       inkscape:menu-tooltip="Render in shades of gray by reducing saturation to zero"
       color-interpolation-filters="sRGB">
      <feColorMatrix
         id="feColorMatrix4384"
         type="saturate"
         values="0" />
    </filter>
  </defs>
  <sodipodi:namedview
     id="base"
     pagecolor="#ffffff"
     bordercolor="#666666"
     borderopacity="1.0"
     inkscape:pageopacity="0.0"
     inkscape:pageshadow="2"
     inkscape:zoom="3.5134582"
     inkscape:cx="142.31975"
     inkscape:cy="27.060281"
     inkscape:document-units="px"
     inkscape:current-layer="layer1"
     showgrid="false"
     inkscape:window-width="988"
     inkscape:window-height="627"
     inkscape:window-x="634"
     inkscape:window-y="140"
     inkscape:window-maximized="0"
     showguides="true"
     inkscape:guide-bbox="true"
     inkscape:snap-to-guides="false" />
  <metadata
     id="metadata7">
    <rdf:RDF>
      <cc:Work
         rdf:about="">
        <dc:format>image/svg+xml</dc:format>
        <dc:type
           rdf:resource="http://purl.org/dc/dcmitype/StillImage" />
        <dc:title />
      </cc:Work>
    </rdf:RDF>
  </metadata>
  <g
     inkscape:groupmode="layer"
     id="layer2"
     inkscape:label="podklad"
     style="display:none"
     sodipodi:insensitive="true"
     transform="translate(0,-684.09448)">
    <rect
       style="fill:#f1caff;stroke:none"
       id="rect4470"
       width="275.03589"
       height="275.03589"
       x="225.11465"
       y="182.67262"
       ry="0"
       inkscape:export-filename="/home/rasto/Desktop/logo.png"
       inkscape:export-xdpi="7.7220421"
       inkscape:export-ydpi="7.7220421" />
  </g>
  <g
     inkscape:label="Vrstva 1"
     inkscape:groupmode="layer"
     id="layer1"
     transform="translate(0,-992.3619)"
     style="display:inline">
    <g
       id="g3071"
       transform="matrix(0.39999999,0,0,0.39872015,7.7261038e-6,632.76401)"
       style="fill:#555555;fill-opacity:1">
      <g
         id="g3835"
         style="font-size:38.61312484999999839px;font-style:normal;font-weight:normal;line-height:125%;fill:#555555;fill-opacity:1;stroke:none;display:inline;font-family:Bitstream Vera Sans"
         transform="matrix(1.5250835,0,0,1.975892,-931.43107,-93.719748)">
        <g
           style="fill:#555555;stroke:none;fill-opacity:1"
           id="g5145">
          <path
             inkscape:connector-curvature="0"
             id="path4680"
             style="fill:#555555;fill-opacity:1;stroke:none"
             d="m 656.99764,536.9065 51.33024,0 c 0.0719,1.61929 0.10785,2.66281 0.10795,3.13055 -10e-5,9.64357 -0.26997,17.09211 -0.80962,22.34566 -0.8637,8.49208 -5.68547,13.63769 -14.46531,15.43686 -4.53398,0.89958 -9.49968,1.43933 -14.8971,1.61925 -5.72142,0.2159 -12.50428,0.32385 -20.34859,0.32385 -13.92559,0 -23.87498,-0.50377 -29.84819,-1.5113 -8.27618,-1.36737 -13.4038,-5.1816 -15.38288,-11.44271 -0.97155,-3.05857 -1.52929,-6.56694 -1.67322,-10.52513 -0.17992,-4.96567 -0.26988,-10.25522 -0.26988,-15.86866 0,-9.49955 0.44979,-16.17446 1.34938,-20.02473 1.29539,-5.36145 3.52636,-9.1397 6.6929,-11.33475 1.65522,-1.18738 3.72426,-2.08697 6.20713,-2.69875 2.51881,-0.64763 6.06317,-1.16939 10.63308,-1.56528 6.44098,-0.57566 15.14894,-0.86353 26.12391,-0.8636 14.1054,7e-5 24.09077,0.55782 29.95614,1.67322 5.93716,1.11556 10.11122,3.09464 12.5222,5.93726 2.12292,2.55488 3.41832,6.58501 3.8862,12.0904 0.10785,1.47537 0.16183,3.74232 0.16193,6.80086 l -22.45361,0 c -0.0361,-2.01502 -0.14401,-3.38239 -0.32385,-4.10211 -0.50385,-1.83509 -2.1051,-2.93258 -4.80378,-3.29247 -3.56242,-0.46773 -10.57917,-0.70162 -21.05026,-0.70168 -9.31973,6e-5 -15.77873,0.30592 -19.37703,0.91758 -3.41845,0.61177 -5.48749,2.4829 -6.20713,5.6134 -0.57576,2.37495 -0.86363,6.60299 -0.8636,12.68413 -3e-5,6.9808 0.30583,11.74859 0.91758,14.30338 0.7916,3.41844 3.23847,5.32555 7.3406,5.72135 2.01503,0.17994 8.09621,0.34186 18.24356,0.48578 11.08281,-0.072 18.22549,-0.28785 21.42808,-0.6477 2.91458,-0.46777 4.5878,-1.74517 5.01968,-3.83223 0.2518,-1.29538 0.37774,-3.27446 0.37782,-5.93725 l -29.52433,0 0,-14.73518" />
          <path
             inkscape:connector-curvature="0"
             id="path4682"
             style="fill:#555555;fill-opacity:1;stroke:none"
             d="m 724.22516,505.00726 23.58709,0 0,73.67591 -23.58709,0 0,-73.67591" />
          <path
             inkscape:connector-curvature="0"
             id="path4684"
             style="fill:#555555;fill-opacity:1;stroke:none"
             d="m 762.36015,554.28646 21.75194,0 c -0.036,3.63433 0.70165,5.97325 2.21297,7.01675 0.79161,0.50378 1.69119,0.84562 2.69876,1.02552 1.0075,0.17994 2.77068,0.30588 5.28955,0.37783 1.25938,0.036 5.37947,0.072 12.36028,0.10795 9.57151,-0.036 15.11294,-0.0899 16.62431,-0.16193 2.84261,-0.21588 4.71375,-0.5937 5.6134,-1.13347 1.25934,-0.79162 1.88905,-2.5548 1.88912,-5.28955 -7e-5,-1.87111 -0.39588,-3.1845 -1.18745,-3.94018 -1.07957,-1.04349 -3.65237,-1.60123 -7.71843,-1.67323 -2.80676,3e-5 -8.67204,-0.21587 -17.59585,-0.6477 -9.21178,-0.43177 -15.18501,-0.68365 -17.91971,-0.75565 -7.12472,-0.21587 -12.1444,-1.04348 -15.05903,-2.48285 -3.74228,-1.83511 -6.18914,-4.96566 -7.34061,-9.39165 -0.6477,-2.44683 -0.97155,-5.64934 -0.97155,-9.60756 0,-8.34807 1.58327,-14.23134 4.74981,-17.64983 2.37489,-2.59073 5.97322,-4.29994 10.795,-5.12763 4.35396,-0.71959 14.71716,-1.07942 31.08961,-1.0795 10.65101,8e-5 18.17153,0.30594 22.56156,0.91758 5.79324,0.82769 9.96731,2.26702 12.52221,4.318 3.45431,2.84275 5.18151,7.93439 5.1816,15.27493 -9e-5,0.79169 -0.0181,2.05111 -0.054,3.77825 l -21.75194,0 c -0.072,-1.76313 -0.19797,-2.98656 -0.37782,-3.6703 -0.50384,-2.01501 -2.15907,-3.14848 -4.96571,-3.40042 -2.48291,-0.21585 -8.5281,-0.3238 -18.1356,-0.32385 -9.49964,5e-5 -15.13103,0.26993 -16.89419,0.80962 -1.97911,0.64776 -2.96865,2.32098 -2.96862,5.01968 -3e-5,2.59085 1.04349,4.17412 3.13055,4.7498 1.76315,0.46783 9.69747,0.91762 23.80299,1.34938 12.77402,0.35988 20.92424,0.80967 24.45068,1.34937 3.56227,0.5398 6.38696,1.34942 8.47408,2.42888 2.12293,1.07954 3.81415,2.60883 5.07365,4.58788 1.90703,2.91468 2.86058,7.6105 2.86068,14.08748 -10e-5,7.23267 -0.93566,12.5402 -2.8067,15.92263 -1.87123,3.34645 -4.92981,5.63139 -9.17576,6.85483 -4.17414,1.22343 -15.67081,1.83515 -34.49004,1.83515 -11.44274,0 -19.70091,-0.30586 -24.77453,-0.91758 -6.18915,-0.71966 -10.63309,-2.12301 -13.33183,-4.21005 -2.91466,-2.23096 -4.64186,-5.3795 -5.18161,-9.44563 -0.28787,-1.97907 -0.4318,-4.31798 -0.4318,-7.01675 l 0,-3.8862" />
          <path
             inkscape:connector-curvature="0"
             id="path4686"
             style="font-size:110.54084777999999289px;font-variant:normal;font-stretch:normal;text-align:start;line-height:125%;writing-mode:lr-tb;text-anchor:start;fill:#555555;fill-opacity:1;stroke:none;font-family:MicrogrammaDEEBolExt;-inkscape-font-specification:MicrogrammaDEEBolExt"
             d="m 868.28775,560.47793 23.58709,0 0,18.20524 -23.58709,0 0,-18.20524" />
          <path
             inkscape:connector-curvature="0"
             id="path4688"
             style="fill:#555555;fill-opacity:1;stroke:none"
             d="m 909.3374,505.00726 19.53896,0 0,73.67591 -19.53896,0 0,-73.67591" />
          <path
             inkscape:connector-curvature="0"
             id="path4690"
             style="fill:#555555;fill-opacity:1;stroke:none"
             d="m 964.58246,542.78978 -19.48498,0 c 0.25188,-4.06608 1.11548,-7.14266 2.5908,-9.22973 2.19497,-3.13051 5.19958,-5.25352 9.01383,-6.36906 5.03765,-1.47526 13.83557,-2.21292 26.39379,-2.21297 9.71545,5e-5 16.2824,0.46784 19.7009,1.40335 3.1305,0.82767 5.7213,2.71679 7.7724,5.66738 1.979,2.80674 2.9686,7.8624 2.9687,15.16698 l 0,31.46744 -18.7834,0 0,-7.12471 -0.91758,0 c -1.43938,3.02261 -3.72432,5.21759 -6.85482,6.58496 -1.87118,0.82761 -4.53395,1.36736 -7.98831,1.61925 -2.73477,0.17991 -7.17871,0.26987 -13.33183,0.26987 -6.83685,0 -11.71259,-0.57573 -14.62723,-1.7272 -3.49039,-1.40335 -5.81131,-3.70628 -6.96278,-6.9088 -0.71967,-2.05104 -1.0795,-4.58787 -1.0795,-7.61048 0,-6.08116 1.49331,-10.47113 4.47993,-13.16991 3.27447,-2.91462 8.45607,-4.53386 15.54481,-4.85775 4.13805,-0.17988 9.4276,-0.26984 15.86865,-0.26987 4.60583,3e-5 8.00625,0.39585 10.20128,1.18745 1.4033,0.53978 2.75268,1.51133 4.04813,2.91465 l 0.8636,0 0,-2.75273 c -5e-5,-3.52633 -0.50382,-5.82926 -1.5113,-6.9088 -1.07955,-1.18741 -3.07663,-1.92507 -5.99123,-2.21298 -1.15151,-0.10791 -3.02264,-0.16188 -5.6134,-0.16192 -7.80842,4e-5 -12.46826,0.35987 -13.97953,1.0795 -1.25944,0.57577 -2.03309,1.96113 -2.32093,4.15608 m 13.06196,13.8176 c -6.58499,2e-5 -10.66909,0.39584 -12.25233,1.18745 -1.90714,0.93559 -2.8607,2.39291 -2.86068,4.37198 -2e-5,2.33893 1.22341,3.85023 3.6703,4.5339 1.94308,0.53976 5.23555,0.80964 9.87743,0.80963 6.04516,10e-6 10.36316,-0.30585 12.95401,-0.91758 3.05853,-0.71965 4.58782,-2.39288 4.58787,-5.01968 -5e-5,-2.08701 -1.06156,-3.52634 -3.18452,-4.318 -1.11553,-0.43178 -5.37956,-0.64768 -12.79208,-0.6477" />
          <path
             inkscape:connector-curvature="0"
             id="path4692"
             style="fill:#555555;fill-opacity:1;stroke:none"
             d="m 1028.7875,505.00726 19.539,0 0,28.39086 0.8636,0 c 1.4393,-2.41083 3.0586,-4.15603 4.8578,-5.23558 1.7991,-1.11543 4.0121,-1.90706 6.6389,-2.3749 2.6267,-0.50371 6.0811,-0.75559 10.3632,-0.75565 7.4845,6e-5 13.4937,0.5578 18.0277,1.67323 5.7212,1.43938 9.5355,4.51596 11.4427,9.22973 0.9714,2.44691 1.5472,5.01971 1.7272,7.71843 0.1798,2.55485 0.2698,5.46949 0.2698,8.74395 0,6.36907 -0.3419,10.92096 -1.0255,13.65568 -1.4754,5.86529 -4.8038,9.75149 -9.9854,11.65861 -4.2461,1.54728 -10.885,2.32092 -19.9167,2.32092 -9.1039,0 -15.383,-1.04352 -18.8373,-3.13055 -1.5473,-0.93556 -3.0406,-2.62678 -4.48,-5.07365 l -1.0795,0 0,6.85483 -18.4055,0 0,-73.67591 m 36.7571,34.75991 c -6.585,4e-5 -11.029,0.61176 -13.3319,1.83516 -1.6552,0.89962 -2.7527,2.28497 -3.2925,4.15607 -0.3958,1.47535 -0.5937,3.94021 -0.5937,7.39458 0,4.06614 0.4858,6.83686 1.4573,8.31215 0.9356,1.3314 2.6988,2.30295 5.2896,2.91466 2.6268,0.61173 6.315,0.91758 11.0649,0.91757 6.8368,10e-6 11.3887,-0.71965 13.6557,-2.159 1.3673,-0.89957 2.2669,-2.3389 2.6987,-4.318 0.3238,-1.4753 0.4857,-3.86819 0.4858,-7.17868 -10e-5,-3.77822 -0.4679,-6.405 -1.4034,-7.88035 -0.8996,-1.40332 -2.6268,-2.41085 -5.1816,-3.0226 -2.5188,-0.64767 -6.1352,-0.97152 -10.8489,-0.97156" />
        </g>
      </g>
    </g>
  </g>
</svg>
