<?xml version="1.0" encoding="UTF-8" standalone="no"?>
<!-- Generated by IcoMoon.io -->

<svg
   xmlns:dc="http://purl.org/dc/elements/1.1/"
   xmlns:cc="http://creativecommons.org/ns#"
   xmlns:rdf="http://www.w3.org/1999/02/22-rdf-syntax-ns#"
   xmlns:svg="http://www.w3.org/2000/svg"
   xmlns="http://www.w3.org/2000/svg"
   xmlns:sodipodi="http://sodipodi.sourceforge.net/DTD/sodipodi-0.dtd"
   xmlns:inkscape="http://www.inkscape.org/namespaces/inkscape"
   version="1.1"
   width="32"
   height="32"
   viewBox="0 0 32 32"
   id="svg2"
   inkscape:version="0.48.4 r9939"
   sodipodi:docname="attribute-table.svg">
  <metadata
     id="metadata10">
    <rdf:RDF>
      <cc:Work
         rdf:about="">
        <dc:format>image/svg+xml</dc:format>
        <dc:type
           rdf:resource="http://purl.org/dc/dcmitype/StillImage" />
      </cc:Work>
    </rdf:RDF>
  </metadata>
  <defs
     id="defs8" />
  <sodipodi:namedview
     pagecolor="#ffffff"
     bordercolor="#666666"
     borderopacity="1"
     objecttolerance="10"
     gridtolerance="10"
     guidetolerance="10"
     inkscape:pageopacity="0"
     inkscape:pageshadow="2"
     inkscape:window-width="1920"
     inkscape:window-height="1028"
     id="namedview6"
     showgrid="false"
     inkscape:zoom="10.429825"
     inkscape:cx="-5.0385095"
     inkscape:cy="-1.0400304"
     inkscape:window-x="0"
     inkscape:window-y="25"
     inkscape:window-maximized="1"
     inkscape:current-layer="svg2" />
  <path
     d="m 2e-7,24.272599 0,-16.5452 C 2e-7,6.1497566 0.5430083,4.8007795 1.6290246,3.6804676 2.715041,2.5601558 4.0227226,2 5.5520696,2 L 26.44793,2 c 1.529347,0 2.837029,0.5601558 3.923046,1.6804676 C 31.456993,4.8007795 32,6.1497566 32,7.727399 l 0,16.5452 c 0,1.577644 -0.543007,2.926621 -1.629024,4.046934 C 29.284959,29.439845 27.977277,30 26.44793,30 L 5.5520696,30 C 4.0227226,30 2.715041,29.439845 1.6290246,28.319533 0.5430083,27.19922 2e-7,25.850243 2e-7,24.272599 z m 2.4678264,0 c 0,0.875313 0.301911,1.624416 0.9057332,2.247307 0.6038223,0.62289 1.3299922,0.934335 2.1785098,0.934335 l 20.8958604,0 c 0.848517,0 1.574688,-0.311445 2.178511,-0.934335 0.603822,-0.622891 0.905733,-1.371994 0.905733,-2.247307 l 0,-16.5452 c 0,-0.8753129 -0.301911,-1.6244148 -0.905733,-2.2473053 C 28.022618,4.8572034 27.296447,4.5457582 26.44793,4.5457582 l -20.8958604,0 c -0.8485176,0 -1.5746875,0.3114452 -2.1785098,0.9343355 C 2.7697376,6.1029842 2.4678266,6.8520861 2.4678266,7.727399 z"
     id="path4"
     inkscape:connector-curvature="0"
     style="fill:#444444"
     sodipodi:nodetypes="ssssssssssssssssssssssssss" />
  <rect
     style="fill:#400054;fill-opacity:1;stroke:#444444;stroke-width:1.00000012;stroke-linejoin:round;stroke-miterlimit:4;stroke-opacity:1;stroke-dasharray:none"
     id="rect2986"
     width="0.38351554"
     height="19"
     x="10.943649"
     y="6.5" />
  <rect
     y="4.25"
     x="-9.8790102"
     height="23.5"
     width="0.38351554"
     id="rect3756"
     style="fill:#400054;fill-opacity:1;stroke:#444444;stroke-width:1;stroke-linejoin:round;stroke-miterlimit:4;stroke-opacity:1;stroke-dasharray:none"
     transform="matrix(0,-1,1,0,0,0)" />
  <rect
     y="4.25"
     x="-16.191757"
     height="23.5"
     width="0.38351554"
     id="rect3760"
     style="fill:#400054;fill-opacity:1;stroke:#444444;stroke-width:1;stroke-linejoin:round;stroke-miterlimit:4;stroke-opacity:1;stroke-dasharray:none"
     transform="matrix(0,-1,1,0,0,0)" />
  <rect
     transform="matrix(0,-1,1,0,0,0)"
     style="fill:#400054;fill-opacity:1;stroke:#444444;stroke-width:1;stroke-linejoin:round;stroke-miterlimit:4;stroke-opacity:1;stroke-dasharray:none"
     id="rect3762"
     width="0.38351554"
     height="23.5"
     x="-22.550159"
     y="4.25" />
  <rect
     y="6.5"
     x="20.943649"
     height="19"
     width="0.38351554"
     id="rect3764"
     style="fill:#444444;fill-opacity:1;stroke:#444444;stroke-width:1.00000012;stroke-linejoin:round;stroke-miterlimit:4;stroke-opacity:1;stroke-dasharray:none" />
</svg>
