<?xml version="1.0" encoding="UTF-8" standalone="no"?>
<!-- Generated by IcoMoon.io -->

<svg
   xmlns:dc="http://purl.org/dc/elements/1.1/"
   xmlns:cc="http://creativecommons.org/ns#"
   xmlns:rdf="http://www.w3.org/1999/02/22-rdf-syntax-ns#"
   xmlns:svg="http://www.w3.org/2000/svg"
   xmlns="http://www.w3.org/2000/svg"
   xmlns:sodipodi="http://sodipodi.sourceforge.net/DTD/sodipodi-0.dtd"
   xmlns:inkscape="http://www.inkscape.org/namespaces/inkscape"
   version="1.1"
   width="32"
   height="32"
   viewBox="0 0 32 32"
   id="svg2"
   inkscape:version="0.48.4 r9939"
   sodipodi:docname="attribute-table.svg">
  <metadata
     id="metadata10">
    <rdf:RDF>
      <cc:Work
         rdf:about="">
        <dc:format>image/svg+xml</dc:format>
        <dc:type
           rdf:resource="http://purl.org/dc/dcmitype/StillImage" />
      </cc:Work>
    </rdf:RDF>
  </metadata>
  <defs
     id="defs8" />
  <sodipodi:namedview
     pagecolor="#ffffff"
     bordercolor="#666666"
     borderopacity="1"
     objecttolerance="10"
     gridtolerance="10"
     guidetolerance="10"
     inkscape:pageopacity="0"
     inkscape:pageshadow="2"
     inkscape:window-width="1920"
     inkscape:window-height="1028"
     id="namedview6"
     showgrid="false"
     inkscape:zoom="14.75"
     inkscape:cx="8.0368516"
     inkscape:cy="15.433614"
     inkscape:window-x="0"
     inkscape:window-y="25"
     inkscape:window-maximized="1"
     inkscape:current-layer="svg2" />
  <path
     d="m 2e-7,24.272599 0,-16.5452 C 2e-7,6.1497566 0.5430083,4.8007795 1.6290246,3.6804676 2.715041,2.5601558 4.0227226,2 5.5520696,2 L 26.44793,2 c 1.529347,0 2.837029,0.5601558 3.923046,1.6804676 C 31.456993,4.8007795 32,6.1497566 32,7.727399 l 0,16.5452 c 0,1.577644 -0.543007,2.926621 -1.629024,4.046934 C 29.284959,29.439845 27.977277,30 26.44793,30 L 5.5520696,30 C 4.0227226,30 2.715041,29.439845 1.6290246,28.319533 0.5430083,27.19922 2e-7,25.850243 2e-7,24.272599 z m 2.4678264,0 c 0,0.875313 0.301911,1.624416 0.9057332,2.247307 0.6038223,0.62289 1.3299922,0.934335 2.1785098,0.934335 l 20.8958604,0 c 0.848517,0 1.574688,-0.311445 2.178511,-0.934335 0.603822,-0.622891 0.905733,-1.371994 0.905733,-2.247307 l 0,-16.5452 c 0,-0.8753129 -0.301911,-1.6244148 -0.905733,-2.2473053 C 28.022618,4.8572034 27.296447,4.5457582 26.44793,4.5457582 l -20.8958604,0 c -0.8485176,0 -1.5746875,0.3114452 -2.1785098,0.9343355 C 2.7697376,6.1029842 2.4678266,6.8520861 2.4678266,7.727399 z"
     id="path4"
     inkscape:connector-curvature="0"
     style="fill:#444444"
     sodipodi:nodetypes="ssssssssssssssssssssssssss" />
  <path
     style="font-size:medium;font-style:normal;font-variant:normal;font-weight:normal;font-stretch:normal;text-indent:0;text-align:start;text-decoration:none;line-height:normal;letter-spacing:normal;word-spacing:normal;text-transform:none;direction:ltr;block-progression:tb;writing-mode:lr-tb;text-anchor:start;baseline-shift:baseline;color:#000000;fill:#444444;fill-opacity:1;fill-rule:nonzero;stroke:none;stroke-width:1.00000012;marker:none;visibility:visible;display:inline;overflow:visible;enable-background:accumulate;font-family:Sans;-inkscape-font-specification:Sans"
     d="M 10.78125 6 A 0.50005006 0.50005006 0 0 0 10.4375 6.5 L 10.4375 9 L 4.25 9 A 0.50005 0.50005 0 0 0 3.75 9.5 L 3.75 9.875 A 0.50005 0.50005 0 0 0 3.75 9.96875 A 0.50005 0.50005 0 0 0 4.25 10.375 L 10.4375 10.375 L 10.4375 15.3125 L 4.25 15.3125 A 0.50005 0.50005 0 0 0 3.75 15.8125 L 3.75 16.1875 A 0.50005 0.50005 0 0 0 3.75 16.28125 A 0.50005 0.50005 0 0 0 4.25 16.6875 L 10.4375 16.6875 L 10.4375 21.65625 L 4.25 21.65625 A 0.50005 0.50005 0 0 0 3.75 22.15625 L 3.75 22.5625 A 0.50005 0.50005 0 0 0 3.75 22.65625 A 0.50005 0.50005 0 0 0 4.25 23.0625 L 10.4375 23.0625 L 10.4375 25.5 A 0.50005006 0.50005006 0 0 0 10.9375 26 L 11.3125 26 A 0.50005006 0.50005006 0 0 0 11.8125 25.5 L 11.8125 23.0625 L 20.4375 23.0625 L 20.4375 25.5 A 0.50005006 0.50005006 0 0 0 20.9375 26 L 21.3125 26 A 0.50005006 0.50005006 0 0 0 21.8125 25.5 L 21.8125 23.0625 L 27.75 23.0625 A 0.50005 0.50005 0 0 0 28.25 22.5625 L 28.25 22.15625 A 0.50005 0.50005 0 0 0 27.75 21.65625 L 21.8125 21.65625 L 21.8125 16.6875 L 27.75 16.6875 A 0.50005 0.50005 0 0 0 28.25 16.1875 L 28.25 15.8125 A 0.50005 0.50005 0 0 0 27.75 15.3125 L 21.8125 15.3125 L 21.8125 10.375 L 27.75 10.375 A 0.50005 0.50005 0 0 0 28.25 9.875 L 28.25 9.5 A 0.50005 0.50005 0 0 0 27.75 9 L 21.8125 9 L 21.8125 6.5 A 0.50005006 0.50005006 0 0 0 21.3125 6 L 20.9375 6 A 0.50005006 0.50005006 0 0 0 20.84375 6 A 0.50005006 0.50005006 0 0 0 20.4375 6.5 L 20.4375 9 L 11.8125 9 L 11.8125 6.5 A 0.50005006 0.50005006 0 0 0 11.3125 6 L 10.9375 6 A 0.50005006 0.50005006 0 0 0 10.84375 6 A 0.50005006 0.50005006 0 0 0 10.78125 6 z M 11.8125 10.375 L 20.4375 10.375 L 20.4375 15.3125 L 11.8125 15.3125 L 11.8125 10.375 z M 11.8125 16.6875 L 20.4375 16.6875 L 20.4375 21.65625 L 11.8125 21.65625 L 11.8125 16.6875 z "
     id="rect2986" />
</svg>
