<?xml version="1.0" encoding="UTF-8" standalone="no"?>
<!-- Generated by IcoMoon.io -->

<svg
   xmlns:dc="http://purl.org/dc/elements/1.1/"
   xmlns:cc="http://creativecommons.org/ns#"
   xmlns:rdf="http://www.w3.org/1999/02/22-rdf-syntax-ns#"
   xmlns:svg="http://www.w3.org/2000/svg"
   xmlns="http://www.w3.org/2000/svg"
   xmlns:sodipodi="http://sodipodi.sourceforge.net/DTD/sodipodi-0.dtd"
   xmlns:inkscape="http://www.inkscape.org/namespaces/inkscape"
   version="1.1"
   width="32"
   height="32"
   viewBox="0 0 32 32"
   id="svg2"
   inkscape:version="0.48.4 r9939"
   sodipodi:docname="attribute-table.svg">
  <metadata
     id="metadata10">
    <rdf:RDF>
      <cc:Work
         rdf:about="">
        <dc:format>image/svg+xml</dc:format>
        <dc:type
           rdf:resource="http://purl.org/dc/dcmitype/StillImage" />
      </cc:Work>
    </rdf:RDF>
  </metadata>
  <defs
     id="defs8" />
  <sodipodi:namedview
     pagecolor="#ffffff"
     bordercolor="#666666"
     borderopacity="1"
     objecttolerance="10"
     gridtolerance="10"
     guidetolerance="10"
     inkscape:pageopacity="0"
     inkscape:pageshadow="2"
     inkscape:window-width="1920"
     inkscape:window-height="1028"
     id="namedview6"
     showgrid="false"
     inkscape:zoom="14.75"
     inkscape:cx="8.0368516"
     inkscape:cy="15.433614"
     inkscape:window-x="0"
     inkscape:window-y="25"
     inkscape:window-maximized="1"
     inkscape:current-layer="svg2" />
  <path
     style="fill:#444444"
     d="M 5.5625 2 C 4.033153 2 2.7110164 2.5671882 1.625 3.6875 C 0.5389837 4.8078119 0 6.1411076 0 7.71875 L 0 24.28125 C -2.9605947e-16 25.858894 0.5389837 27.192187 1.625 28.3125 C 2.7110164 29.432812 4.033153 30 5.5625 30 L 26.4375 30 C 27.966847 30 29.288983 29.432812 30.375 28.3125 C 31.461017 27.192187 32 25.858894 32 24.28125 L 32 7.71875 C 32 6.1411076 31.461017 4.8078119 30.375 3.6875 C 29.288983 2.5671882 27.966847 2 26.4375 2 L 5.5625 2 z M 5.5625 4.53125 L 26.4375 4.53125 C 27.286017 4.53125 28.021177 4.8458597 28.625 5.46875 C 29.228822 6.0916405 29.53125 6.8434371 29.53125 7.71875 L 29.53125 24.28125 C 29.53125 25.156563 29.228822 25.908359 28.625 26.53125 C 28.021177 27.15414 27.286017 27.46875 26.4375 27.46875 L 5.5625 27.46875 C 4.7139824 27.46875 3.9788223 27.15414 3.375 26.53125 C 2.7711778 25.908359 2.46875 25.156563 2.46875 24.28125 L 2.46875 7.71875 C 2.46875 6.8434371 2.7711778 6.0916405 3.375 5.46875 C 3.9788223 4.8458597 4.7139824 4.53125 5.5625 4.53125 z M 10.78125 6 A 0.50005006 0.50005006 0 0 0 10.4375 6.5 L 10.4375 9 L 4.25 9 A 0.50005 0.50005 0 0 0 3.75 9.5 L 3.75 9.875 A 0.50005 0.50005 0 0 0 3.75 9.96875 A 0.50005 0.50005 0 0 0 4.25 10.375 L 10.4375 10.375 L 10.4375 15.3125 L 4.25 15.3125 A 0.50005 0.50005 0 0 0 3.75 15.8125 L 3.75 16.1875 A 0.50005 0.50005 0 0 0 3.75 16.28125 A 0.50005 0.50005 0 0 0 4.25 16.6875 L 10.4375 16.6875 L 10.4375 21.65625 L 4.25 21.65625 A 0.50005 0.50005 0 0 0 3.75 22.15625 L 3.75 22.5625 A 0.50005 0.50005 0 0 0 3.75 22.65625 A 0.50005 0.50005 0 0 0 4.25 23.0625 L 10.4375 23.0625 L 10.4375 25.5 A 0.50005006 0.50005006 0 0 0 10.9375 26 L 11.3125 26 A 0.50005006 0.50005006 0 0 0 11.8125 25.5 L 11.8125 23.0625 L 20.4375 23.0625 L 20.4375 25.5 A 0.50005006 0.50005006 0 0 0 20.9375 26 L 21.3125 26 A 0.50005006 0.50005006 0 0 0 21.8125 25.5 L 21.8125 23.0625 L 27.75 23.0625 A 0.50005 0.50005 0 0 0 28.25 22.5625 L 28.25 22.15625 A 0.50005 0.50005 0 0 0 27.75 21.65625 L 21.8125 21.65625 L 21.8125 16.6875 L 27.75 16.6875 A 0.50005 0.50005 0 0 0 28.25 16.1875 L 28.25 15.8125 A 0.50005 0.50005 0 0 0 27.75 15.3125 L 21.8125 15.3125 L 21.8125 10.375 L 27.75 10.375 A 0.50005 0.50005 0 0 0 28.25 9.875 L 28.25 9.5 A 0.50005 0.50005 0 0 0 27.75 9 L 21.8125 9 L 21.8125 6.5 A 0.50005006 0.50005006 0 0 0 21.3125 6 L 20.9375 6 A 0.50005006 0.50005006 0 0 0 20.84375 6 A 0.50005006 0.50005006 0 0 0 20.4375 6.5 L 20.4375 9 L 11.8125 9 L 11.8125 6.5 A 0.50005006 0.50005006 0 0 0 11.3125 6 L 10.9375 6 A 0.50005006 0.50005006 0 0 0 10.84375 6 A 0.50005006 0.50005006 0 0 0 10.78125 6 z M 11.8125 10.375 L 20.4375 10.375 L 20.4375 15.3125 L 11.8125 15.3125 L 11.8125 10.375 z M 11.8125 16.6875 L 20.4375 16.6875 L 20.4375 21.65625 L 11.8125 21.65625 L 11.8125 16.6875 z "
     id="path4" />
</svg>
