<?xml version="1.0" encoding="utf-8"?>
<!-- Generated by IcoMoon.io -->
<!DOCTYPE svg PUBLIC "-//W3C//DTD SVG 1.1//EN" "http://www.w3.org/Graphics/SVG/1.1/DTD/svg11.dtd">
<svg version="1.1" xmlns="http://www.w3.org/2000/svg" xmlns:xlink="http://www.w3.org/1999/xlink" width="32" height="32" viewBox="0 0 32 32">
<path fill="#444444" d="M4.594 3c-0.342 0.075-0.594 0.375-0.594 0.734 0 0.006 0 0.011 0 0.017v3.499c0 0.414 0.336 0.75 0.75 0.75h22.5c0.414-0 0.75-0.336 0.75-0.75v-3.5c-0-0.414-0.336-0.75-0.75-0.75h-22.5c-0.023-0.003-0.051-0.004-0.078-0.004s-0.055 0.001-0.081 0.004zM5.5 4.5h21v2h-21v-2zM1 19.75h30v1.5h-30zM4.594 12c-0.342 0.075-0.594 0.375-0.594 0.734 0 0.006 0 0.011 0 0.017v3.499c0 0.414 0.336 0.75 0.75 0.75h22.5c0.414-0 0.75-0.336 0.75-0.75v-3.5c-0-0.414-0.336-0.75-0.75-0.75h-22.5c-0.023-0.003-0.051-0.004-0.078-0.004s-0.055 0.001-0.081 0.004zM5.5 13.5h21v2h-21v-2zM4.75 24h22.5c0.416 0 0.75 0.334 0.75 0.75v3.5c0 0.416-0.334 0.75-0.75 0.75h-22.5c-0.415 0-0.75-0.334-0.75-0.75v-3.5c0-0.416 0.335-0.75 0.75-0.75z"></path>
</svg>
