<?xml version="1.0" encoding="UTF-8" standalone="no"?>
<!-- Generator: Adobe Illustrator 13.0.2, SVG Export Plug-In . SVG Version: 6.00 Build 14948)  -->

<svg
   xmlns:dc="http://purl.org/dc/elements/1.1/"
   xmlns:cc="http://creativecommons.org/ns#"
   xmlns:rdf="http://www.w3.org/1999/02/22-rdf-syntax-ns#"
   xmlns:svg="http://www.w3.org/2000/svg"
   xmlns="http://www.w3.org/2000/svg"
   xmlns:sodipodi="http://sodipodi.sourceforge.net/DTD/sodipodi-0.dtd"
   xmlns:inkscape="http://www.inkscape.org/namespaces/inkscape"
   version="1.1"
   id="Layer_1"
   x="0px"
   y="0px"
   width="32"
   height="32"
   viewBox="-0.258 -0.548 32.000001 32"
   xml:space="preserve"
   inkscape:version="0.48.4 r9939"
   sodipodi:docname="binocular.svg"><metadata
     id="metadata23"><rdf:RDF><cc:Work
         rdf:about=""><dc:format>image/svg+xml</dc:format><dc:type
           rdf:resource="http://purl.org/dc/dcmitype/StillImage" /><dc:title /></cc:Work></rdf:RDF></metadata><defs
     id="defs21" /><sodipodi:namedview
     pagecolor="#ffffff"
     bordercolor="#666666"
     borderopacity="1"
     objecttolerance="10"
     gridtolerance="10"
     guidetolerance="10"
     inkscape:pageopacity="0"
     inkscape:pageshadow="2"
     inkscape:window-width="1258"
     inkscape:window-height="901"
     id="namedview19"
     showgrid="false"
     inkscape:zoom="7.6413115"
     inkscape:cx="15.532601"
     inkscape:cy="-0.49869895"
     inkscape:window-x="550"
     inkscape:window-y="99"
     inkscape:window-maximized="0"
     inkscape:current-layer="Layer_1" /><path
     id="rect17"
     style="fill:#444444;fill-opacity:1"
     d="m 18.485203,0.45199953 5.707979,0 0,4.27384397 -5.707979,0 z m -4.229689,5.63019117 2.959141,0 0,10.9680183 -2.959141,0 z M 12.018242,18.917805 c 0.539945,0 0.978012,-0.454909 0.978012,-1.023257 l 0,-11.8123576 -8.6129071,0 L 0.742,22.189331 l 0.0171,1.049901 0,6.219586 c 0,0.547411 0.426424,0.993182 0.949268,0.993182 l 8.382594,0 c 0.531574,0 0.958,-0.446152 0.958,-0.993182 l 0,-10.541013 0.89833,0 m 7.513009,-0.02666 c -0.542855,0 -0.975101,-0.457952 -0.975101,-1.023254 l 0,-11.8035971 8.621275,0 3.635526,16.1071391 -0.02001,1.040766 0,6.21654 c 0,0.550075 -0.426426,0.996228 -0.94927,0.996228 l -8.385504,0 c -0.525754,0 -0.952179,-0.446153 -0.952179,-0.996228 l 0,-10.537588 -0.903788,0 M 7.3141077,0.45199953 l 5.7079793,0 0,4.27384397 -5.7079793,0 z"
     inkscape:connector-curvature="0"
     sodipodi:nodetypes="cccccccccccsccccsssscccsccccssssccccccc" /></svg>