<?xml version="1.0" encoding="UTF-8" standalone="no"?>
<!-- Generated by IcoMoon.io -->

<svg
   xmlns:dc="http://purl.org/dc/elements/1.1/"
   xmlns:cc="http://creativecommons.org/ns#"
   xmlns:rdf="http://www.w3.org/1999/02/22-rdf-syntax-ns#"
   xmlns:svg="http://www.w3.org/2000/svg"
   xmlns="http://www.w3.org/2000/svg"
   xmlns:sodipodi="http://sodipodi.sourceforge.net/DTD/sodipodi-0.dtd"
   xmlns:inkscape="http://www.inkscape.org/namespaces/inkscape"
   version="1.1"
   width="32"
   height="32"
   viewBox="0 0 32 32"
   id="svg2"
   inkscape:version="0.48.4 r9939"
   sodipodi:docname="checkbox-border.svg">
  <metadata
     id="metadata10">
    <rdf:RDF>
      <cc:Work
         rdf:about="">
        <dc:format>image/svg+xml</dc:format>
        <dc:type
           rdf:resource="http://purl.org/dc/dcmitype/StillImage" />
      </cc:Work>
    </rdf:RDF>
  </metadata>
  <defs
     id="defs8" />
  <sodipodi:namedview
     pagecolor="#ffffff"
     bordercolor="#666666"
     borderopacity="1"
     objecttolerance="10"
     gridtolerance="10"
     guidetolerance="10"
     inkscape:pageopacity="0"
     inkscape:pageshadow="2"
     inkscape:window-width="1003"
     inkscape:window-height="789"
     id="namedview6"
     showgrid="false"
     inkscape:zoom="7.375"
     inkscape:cx="4.1781877"
     inkscape:cy="1.4322998"
     inkscape:window-x="345"
     inkscape:window-y="89"
     inkscape:window-maximized="0"
     inkscape:current-layer="svg2" />
  <path
     d="M 1.0034674,23.49746 V 8.4981729 q 0,-2.1453514 1.5234519,-3.6688034 1.523452,-1.5234519 3.6688034,-1.5234519 H 21.195007 q 2.145352,0 3.668805,1.5234519 1.523452,1.523452 1.523452,3.6688034 V 23.49746 q 0,2.145352 -1.523452,3.668805 -1.523453,1.523452 -3.668805,1.523452 H 6.1957227 q -2.1453514,0 -3.6688034,-1.523452 Q 1.0034674,25.642812 1.0034674,23.49746 z m 2.3078934,0 q 0,1.190292 0.8470352,2.037328 0.8470354,0.847035 2.0373267,0.847035 H 21.195007 q 1.190292,0 2.037328,-0.847035 0.847035,-0.847036 0.847035,-2.037328 V 8.4981729 q 0,-1.1902913 -0.847035,-2.0373267 Q 22.385299,5.613811 21.195007,5.613811 H 6.1957227 q -1.1902913,0 -2.0373267,0.8470352 Q 3.3113608,7.3078816 3.3113608,8.4981729 V 23.49746 z"
     id="path4"
     inkscape:connector-curvature="0"
     style="fill:#444444" />
</svg>
