<?xml version="1.0" encoding="UTF-8" standalone="no"?>
<!-- Generated by IcoMoon.io -->

<svg
   xmlns:dc="http://purl.org/dc/elements/1.1/"
   xmlns:cc="http://creativecommons.org/ns#"
   xmlns:rdf="http://www.w3.org/1999/02/22-rdf-syntax-ns#"
   xmlns:svg="http://www.w3.org/2000/svg"
   xmlns="http://www.w3.org/2000/svg"
   xmlns:sodipodi="http://sodipodi.sourceforge.net/DTD/sodipodi-0.dtd"
   xmlns:inkscape="http://www.inkscape.org/namespaces/inkscape"
   version="1.1"
   width="32"
   height="32"
   viewBox="0 0 32 32"
   id="svg2"
   inkscape:version="0.48.4 r9939"
   sodipodi:docname="checkbox-checked.svg">
  <metadata
     id="metadata10">
    <rdf:RDF>
      <cc:Work
         rdf:about="">
        <dc:format>image/svg+xml</dc:format>
        <dc:type
           rdf:resource="http://purl.org/dc/dcmitype/StillImage" />
      </cc:Work>
    </rdf:RDF>
  </metadata>
  <defs
     id="defs8" />
  <sodipodi:namedview
     pagecolor="#ffffff"
     bordercolor="#666666"
     borderopacity="1"
     objecttolerance="10"
     gridtolerance="10"
     guidetolerance="10"
     inkscape:pageopacity="0"
     inkscape:pageshadow="2"
     inkscape:window-width="887"
     inkscape:window-height="640"
     id="namedview6"
     showgrid="false"
     inkscape:zoom="7.375"
     inkscape:cx="-0.66101695"
     inkscape:cy="14.915254"
     inkscape:window-x="0"
     inkscape:window-y="25"
     inkscape:window-maximized="0"
     inkscape:current-layer="svg2" />
  <path
     d="M 1.0020203,23.503788 V 8.496212 q 0,-2.1465369 1.5242937,-3.6708307 Q 4.0506078,3.3010876 6.1971447,3.3010876 H 21.204721 q 1.136402,0 2.110172,0.4505202 0.270716,0.1262669 0.324253,0.4151655 0.05455,0.307081 -0.162632,0.5232499 l -0.883868,0.8838682 q -0.180814,0.1808141 -0.415165,0.1808141 -0.05455,0 -0.162632,-0.036365 Q 21.599683,5.6102562 21.2027,5.6102562 H 6.1951244 q -1.1909492,0 -2.0384525,0.8475033 Q 3.3091687,7.3052628 3.3091687,8.496212 v 15.007576 q 0,1.190949 0.8475032,2.038452 0.8475033,0.847503 2.0384525,0.847503 H 21.2027 q 1.19095,0 2.038453,-0.847503 0.847503,-0.847503 0.847503,-2.038452 v -4.581973 q 0,-0.234351 0.162632,-0.396983 l 1.154584,-1.154584 q 0.180814,-0.180814 0.415166,-0.180814 0.108084,0 0.216169,0.05455 0.360618,0.144449 0.360618,0.52325 v 5.736557 q 0,2.146537 -1.524294,3.67083 -1.524294,1.524291 -3.670831,1.524291 H 6.1951244 q -2.1465369,0 -3.6708307,-1.524294 Q 1,25.650325 1,23.503788 z M 5.6375299,14.84491 q 0,-0.594969 0.4333479,-1.028317 L 8.054783,11.832688 q 0.4333479,-0.433348 1.0283174,-0.433348 0.5949696,0 1.0283176,0.433348 l 4.743594,4.743594 11.6711,-11.6711 q 0.433348,-0.433348 1.028317,-0.433348 0.59497,0 1.028318,0.433348 l 1.983905,1.9839052 Q 31,7.3224351 31,7.9174046 31,8.5123741 30.566652,8.9457221 L 15.883329,23.629044 q -0.433348,0.433348 -1.028317,0.433348 -0.59497,0 -1.028317,-0.433348 L 6.0698677,15.872217 Q 5.6365197,15.43887 5.6365197,14.8439 z"
     id="path4"
     inkscape:connector-curvature="0"
     style="fill:#444444" />
</svg>
