<?xml version="1.0" encoding="UTF-8" standalone="no"?>
<!-- Generated by IcoMoon.io -->

<svg
   xmlns:dc="http://purl.org/dc/elements/1.1/"
   xmlns:cc="http://creativecommons.org/ns#"
   xmlns:rdf="http://www.w3.org/1999/02/22-rdf-syntax-ns#"
   xmlns:svg="http://www.w3.org/2000/svg"
   xmlns="http://www.w3.org/2000/svg"
   xmlns:sodipodi="http://sodipodi.sourceforge.net/DTD/sodipodi-0.dtd"
   xmlns:inkscape="http://www.inkscape.org/namespaces/inkscape"
   version="1.1"
   width="32"
   height="32"
   viewBox="0 0 32 32"
   id="svg2"
   inkscape:version="0.48.4 r9939"
   sodipodi:docname="circle-x.svg">
  <metadata
     id="metadata12">
    <rdf:RDF>
      <cc:Work
         rdf:about="">
        <dc:format>image/svg+xml</dc:format>
        <dc:type
           rdf:resource="http://purl.org/dc/dcmitype/StillImage" />
      </cc:Work>
    </rdf:RDF>
  </metadata>
  <defs
     id="defs10" />
  <sodipodi:namedview
     pagecolor="#ffffff"
     bordercolor="#666666"
     borderopacity="1"
     objecttolerance="10"
     gridtolerance="10"
     guidetolerance="10"
     inkscape:pageopacity="0"
     inkscape:pageshadow="2"
     inkscape:window-width="813"
     inkscape:window-height="559"
     id="namedview8"
     showgrid="false"
     showguides="true"
     inkscape:guide-bbox="true"
     inkscape:zoom="7.375"
     inkscape:cx="12.542373"
     inkscape:cy="14.508475"
     inkscape:window-x="0"
     inkscape:window-y="25"
     inkscape:window-maximized="0"
     inkscape:current-layer="svg2" />
  <path
     id="path6"
     style="fill:#444444"
     d="M 20.6875,8.5 16,13.1875 11.3125,8.5 8.5,11.3125 13.1875,16 8.5,20.6875 11.3125,23.5 16,18.8125 20.6875,23.5 23.5,20.6875 18.8125,16 23.5,11.3125 z M 16,1 C 7.7153125,1 1,7.7153125 1,16 1,24.284687 7.7153125,31 16,31 24.284687,31 31,24.284687 31,16 31,7.7153125 24.284687,1 16,1 z m 0,27.1875 C 9.26875,28.1875 3.8125,22.73125 3.8125,16 3.8125,9.26875 9.26875,3.8125 16,3.8125 c 6.73125,0 12.1875,5.45625 12.1875,12.1875 0,6.73125 -5.45625,12.1875 -12.1875,12.1875 z" />
</svg>
