<?xml version="1.0" encoding="UTF-8" standalone="no"?>
<!-- Generated by IcoMoon.io -->

<svg
   xmlns:dc="http://purl.org/dc/elements/1.1/"
   xmlns:cc="http://creativecommons.org/ns#"
   xmlns:rdf="http://www.w3.org/1999/02/22-rdf-syntax-ns#"
   xmlns:svg="http://www.w3.org/2000/svg"
   xmlns="http://www.w3.org/2000/svg"
   xmlns:sodipodi="http://sodipodi.sourceforge.net/DTD/sodipodi-0.dtd"
   xmlns:inkscape="http://www.inkscape.org/namespaces/inkscape"
   version="1.1"
   width="32"
   height="32"
   viewBox="0 0 32 32"
   id="svg2"
   inkscape:version="0.48.4 r9939"
   sodipodi:docname="circle-x.svg">
  <metadata
     id="metadata12">
    <rdf:RDF>
      <cc:Work
         rdf:about="">
        <dc:format>image/svg+xml</dc:format>
        <dc:type
           rdf:resource="http://purl.org/dc/dcmitype/StillImage" />
        <dc:title></dc:title>
      </cc:Work>
    </rdf:RDF>
  </metadata>
  <defs
     id="defs10" />
  <sodipodi:namedview
     pagecolor="#ffffff"
     bordercolor="#666666"
     borderopacity="1"
     objecttolerance="10"
     gridtolerance="10"
     guidetolerance="10"
     inkscape:pageopacity="0"
     inkscape:pageshadow="2"
     inkscape:window-width="1339"
     inkscape:window-height="793"
     id="namedview8"
     showgrid="false"
     showguides="true"
     inkscape:guide-bbox="true"
     inkscape:zoom="7.375"
     inkscape:cx="-9.8305084"
     inkscape:cy="13.423729"
     inkscape:window-x="0"
     inkscape:window-y="25"
     inkscape:window-maximized="0"
     inkscape:current-layer="svg2" />
  <path
     id="path6"
     style="fill:#444444"
     d="m 14.011262,7.3821361 0,6.6291259 -6.6291259,0 0,3.977476 6.6291259,0 0,6.629126 3.977476,0 0,-6.629126 6.629126,0 0,-3.977476 -6.629126,0 0,-6.6291259 z M 5.3933983,5.3933983 c -5.85815873,5.8581587 -5.85815873,15.3550447 0,21.2132037 5.8581587,5.858158 15.3550447,5.858158 21.2132037,0 5.858158,-5.858159 5.858158,-15.355045 0,-21.2132037 -5.858159,-5.85815873 -15.355045,-5.85815838 -21.2132037,0 z M 24.617864,24.617864 c -4.759713,4.759712 -12.476015,4.759712 -17.2357279,0 -4.7597125,-4.759713 -4.7597125,-12.476015 0,-17.2357279 4.7597129,-4.7597125 12.4760149,-4.7597125 17.2357279,0 4.759712,4.7597129 4.759712,12.4760149 0,17.2357279 z"
     inkscape:connector-curvature="0" />
</svg>
