<?xml version="1.0" encoding="UTF-8" standalone="no"?>
<!-- Generated by IcoMoon.io -->

<svg
   xmlns:dc="http://purl.org/dc/elements/1.1/"
   xmlns:cc="http://creativecommons.org/ns#"
   xmlns:rdf="http://www.w3.org/1999/02/22-rdf-syntax-ns#"
   xmlns:svg="http://www.w3.org/2000/svg"
   xmlns="http://www.w3.org/2000/svg"
   xmlns:sodipodi="http://sodipodi.sourceforge.net/DTD/sodipodi-0.dtd"
   xmlns:inkscape="http://www.inkscape.org/namespaces/inkscape"
   version="1.1"
   width="32"
   height="32"
   viewBox="0 0 32 32"
   id="svg2"
   inkscape:version="0.48.4 r9939"
   sodipodi:docname="compass.svg">
  <metadata
     id="metadata10">
    <rdf:RDF>
      <cc:Work
         rdf:about="">
        <dc:format>image/svg+xml</dc:format>
        <dc:type
           rdf:resource="http://purl.org/dc/dcmitype/StillImage" />
      </cc:Work>
    </rdf:RDF>
  </metadata>
  <defs
     id="defs8" />
  <sodipodi:namedview
     pagecolor="#ffffff"
     bordercolor="#666666"
     borderopacity="1"
     objecttolerance="10"
     gridtolerance="10"
     guidetolerance="10"
     inkscape:pageopacity="0"
     inkscape:pageshadow="2"
     inkscape:window-width="1028"
     inkscape:window-height="680"
     id="namedview6"
     showgrid="false"
     inkscape:zoom="7.375"
     inkscape:cx="-3.8016289"
     inkscape:cy="10.512891"
     inkscape:window-x="0"
     inkscape:window-y="25"
     inkscape:window-maximized="0"
     inkscape:current-layer="svg2" />
  <path
     d="m 5.3932028,5.3932028 c -5.85760382,5.8576042 -5.85760382,15.3559912 0,21.2135942 5.8576032,5.857604 15.3559902,5.857604 21.2135942,0 5.857604,-5.857603 5.857604,-15.35599 0,-21.2135942 -5.857604,-5.85760374 -15.355991,-5.85760374 -21.2135942,0 z M 7.3819772,24.618023 c -4.7598001,-4.759801 -4.7598001,-12.476245 0,-17.2360457 2.2698547,-2.2698546 5.2119148,-3.45649 8.1857958,-3.5612322 L 10.696602,16 15.567773,28.179255 C 12.593892,28.074513 9.6518319,26.887878 7.3819772,24.618023 z M 19.030892,16 16,23.578557 12.969108,16 l 6.061784,0 z m 5.587131,8.618023 c -2.269854,2.269855 -5.211915,3.45649 -8.185796,3.561232 L 21.303398,16 16.432227,3.8207451 c 2.973881,0.1047422 5.915942,1.2913776 8.185796,3.5612322 4.7598,4.7598007 4.7598,12.4762447 0,17.2360457 z"
     id="path4"
     inkscape:connector-curvature="0"
     style="fill:#444444" />
</svg>
