<?xml version="1.0" encoding="UTF-8" standalone="no"?>
<!-- Generated by IcoMoon.io -->

<svg
   xmlns:dc="http://purl.org/dc/elements/1.1/"
   xmlns:cc="http://creativecommons.org/ns#"
   xmlns:rdf="http://www.w3.org/1999/02/22-rdf-syntax-ns#"
   xmlns:svg="http://www.w3.org/2000/svg"
   xmlns="http://www.w3.org/2000/svg"
   xmlns:sodipodi="http://sodipodi.sourceforge.net/DTD/sodipodi-0.dtd"
   xmlns:inkscape="http://www.inkscape.org/namespaces/inkscape"
   version="1.1"
   width="32"
   height="32"
   viewBox="0 0 32 32"
   id="svg2"
   inkscape:version="0.48.4 r9939"
   sodipodi:docname="delete.svg">
  <metadata
     id="metadata12">
    <rdf:RDF>
      <cc:Work
         rdf:about="">
        <dc:format>image/svg+xml</dc:format>
        <dc:type
           rdf:resource="http://purl.org/dc/dcmitype/StillImage" />
      </cc:Work>
    </rdf:RDF>
  </metadata>
  <defs
     id="defs10" />
  <sodipodi:namedview
     pagecolor="#ffffff"
     bordercolor="#666666"
     borderopacity="1"
     objecttolerance="10"
     gridtolerance="10"
     guidetolerance="10"
     inkscape:pageopacity="0"
     inkscape:pageshadow="2"
     inkscape:window-width="1389"
     inkscape:window-height="864"
     id="namedview8"
     showgrid="false"
     showguides="true"
     inkscape:guide-bbox="true"
     inkscape:zoom="7.375"
     inkscape:cx="17.757398"
     inkscape:cy="13.506986"
     inkscape:window-x="0"
     inkscape:window-y="25"
     inkscape:window-maximized="0"
     inkscape:current-layer="svg2" />
  <path
     id="path6"
     style="fill:#444444"
     d="M 22.6875,8.5 18,13.1875 13.3125,8.5 10.5,11.3125 15.1875,16 10.5,20.6875 13.3125,23.5 18,18.8125 22.6875,23.5 25.5,20.6875 20.8125,16 25.5,11.3125 z"
     inkscape:connector-curvature="0"
     sodipodi:nodetypes="ccccccccccccc" />
  <path
     style="font-size:medium;font-style:normal;font-variant:normal;font-weight:normal;font-stretch:normal;text-indent:0;text-align:start;text-decoration:none;line-height:normal;letter-spacing:normal;word-spacing:normal;text-transform:none;direction:ltr;block-progression:tb;writing-mode:lr-tb;text-anchor:start;baseline-shift:baseline;color:#000000;fill:#444444;fill-opacity:1;stroke:none;stroke-width:3.5;marker:none;visibility:visible;display:inline;overflow:visible;enable-background:accumulate;font-family:Sans;-inkscape-font-specification:Sans"
     d="m 9.375,2.1875 c -0.8185714,0 -1.625164,0.5588579 -1.96875,1 -0.343586,0.4411421 -0.4748972,0.7466347 -0.5625,0.90625 l -6,10.9375 a 1.750175,1.750175 0 0 0 0,1.625 l 6,11.625 c 0.096772,0.187257 0.2101892,0.522961 0.5625,0.96875 0.3523108,0.445789 1.157025,0.96875 1.96875,0.96875 l 19.25,0 c 1.49323,0 2.75,-1.25677 2.75,-2.75 l 0,-22.53125 c 0,-1.4932298 -1.25677,-2.75 -2.75,-2.75 l -19.25,0 z m 0.59375,3.5 17.90625,0 0,21.03125 -17.90625,0 c -0.020986,-0.03949 -0.0074,-0.01634 -0.03125,-0.0625 l -5.5625,-10.75 5.5625,-10.125 c 0.033961,-0.061877 0.00296,-0.042743 0.03125,-0.09375 z"
     id="rect2982"
     inkscape:connector-curvature="0" />
</svg>
