<?xml version="1.0" encoding="UTF-8" standalone="no"?>
<!-- Generated by IcoMoon.io -->

<svg
   xmlns:dc="http://purl.org/dc/elements/1.1/"
   xmlns:cc="http://creativecommons.org/ns#"
   xmlns:rdf="http://www.w3.org/1999/02/22-rdf-syntax-ns#"
   xmlns:svg="http://www.w3.org/2000/svg"
   xmlns="http://www.w3.org/2000/svg"
   xmlns:sodipodi="http://sodipodi.sourceforge.net/DTD/sodipodi-0.dtd"
   xmlns:inkscape="http://www.inkscape.org/namespaces/inkscape"
   version="1.1"
   width="32"
   height="32"
   viewBox="0 0 32 32"
   id="svg2"
   inkscape:version="0.48.4 r9939"
   sodipodi:docname="earth.svg">
  <metadata
     id="metadata10">
    <rdf:RDF>
      <cc:Work
         rdf:about="">
        <dc:format>image/svg+xml</dc:format>
        <dc:type
           rdf:resource="http://purl.org/dc/dcmitype/StillImage" />
      </cc:Work>
    </rdf:RDF>
  </metadata>
  <defs
     id="defs8" />
  <sodipodi:namedview
     pagecolor="#ffffff"
     bordercolor="#666666"
     borderopacity="1"
     objecttolerance="10"
     gridtolerance="10"
     guidetolerance="10"
     inkscape:pageopacity="0"
     inkscape:pageshadow="2"
     inkscape:window-width="980"
     inkscape:window-height="684"
     id="namedview6"
     showgrid="false"
     inkscape:zoom="7.375"
     inkscape:cx="0.33898305"
     inkscape:cy="14.915254"
     inkscape:window-x="0"
     inkscape:window-y="25"
     inkscape:window-maximized="0"
     inkscape:current-layer="svg2" />
  <path
     d="m 22.763929,7.2946429 c 0.133928,0.2678571 0.469285,0.8035714 0.201428,1.005 C 22.763929,8.4335714 22.295714,8.4335714 22.094286,7.9642857 21.892857,7.495 22.094286,7.2271429 21.758929,7.3610714 21.423571,7.495 21.289643,7.1596429 21.357143,7.0932143 c 0.0675,-0.1339286 0.201428,-0.2014286 0.335357,-0.2678572 0,-0.1339285 -0.267857,-0.5357142 0.133929,-0.4692857 0.267857,0.0675 0.803571,0.6696429 0.9375,0.9375 z m 1.271785,3.0139281 v 0 0 z m 3.951429,1.741072 c 0,0 -0.133929,0 0,0 v 0 z M 16,1 C 24.303571,1 31,7.6964286 31,16 31,24.303571 24.303571,31 16,31 7.6964286,31 1,24.303571 1,16 1,7.6964286 7.6964286,1 16,1 z m -5.5575,26.585357 0.535714,0.267857 c 0.201429,0.0675 0.401786,0.133929 0.669643,0.201429 0.9375,0.335357 1.875,0.535714 2.88,0.669643 1.875,0.201428 3.75,0.0675 5.558572,-0.535715 1.005,-0.335357 2.008928,-0.737142 2.88,-1.339285 0.401785,-0.267857 0.401785,-1.071429 0.669642,-1.607143 0.535715,-1.071429 -0.133928,-2.210357 0.803572,-3.147857 0.803571,-0.9375 0.267857,-1.272857 0.267857,-2.276786 0,-0.669643 0.535714,-1.205357 0.267857,-1.9425 -0.0675,-0.267857 -0.469286,0.201429 -0.603214,-0.0675 -0.335357,-0.469286 -1.406786,-0.0675 -1.875,-0.133929 -0.871072,-0.133928 -1.607143,-0.9375 -2.210357,-1.540714 -0.335357,-0.335357 0,-1.339286 0.0675,-1.741071 0.267857,-1.005 0,-2.210357 1.272857,-2.544643 0.335357,-0.0675 0.335357,-0.603214 0.669643,-0.737143 0.335357,-0.0675 0.669643,-0.201429 1.005,-0.267857 0.603214,-0.0675 1.138928,0.133928 1.741071,0.133928 0.669643,0 0.9375,0.335358 1.473214,0.737143 0.469286,0.401786 0.871072,0.201429 1.473215,0.335357 0.469285,0 0,-0.335357 -0.133929,-0.535714 C 27.653929,11.378929 27.453571,11.378929 27.319643,11.378929 26.248214,11.111071 25.778929,9.9057143 24.908929,9.37 c -0.401786,-0.2014286 -0.603215,-0.1339286 -0.737143,0 -0.0675,0.0675 0.0675,0.803571 0.0675,0.803571 -0.0675,0.201429 -0.669643,0.267858 -0.871072,0.335358 -0.603214,0.133928 -1.9425,-1.138929 -1.005,-1.4732147 0.267857,-0.0675 1.808572,-0.3353572 1.607143,-1.005 C 23.768929,7.6289286 24.104286,7.1596429 23.635,7.0932143 23.099286,7.0257143 23.165714,6.6239286 22.63,6.5575 22.294643,6.49 22.294643,5.8203571 22.294643,5.62 c 0,-0.6032143 0.133928,-0.4017857 0.603214,-0.4692857 C 21.758929,4.4135714 20.419643,3.8778571 19.080357,3.5435714 19.012857,3.745 18.745,4.3471429 18.544643,4.3471429 c -0.335357,0.0675 -0.401786,0 -0.603214,0.2014285 -0.603215,0.6696429 -1.071429,1.875 -1.674643,0.4692857 -0.267857,-0.7371428 0.335357,-1.2728571 0.133928,-1.875 H 15.7975 c 0.401786,0.8035715 -0.335357,1.2053572 -0.535714,1.2728572 -0.535715,0 -0.669643,-0.3353572 -1.138929,-0.2678572 C 13.855,4.2153571 13.653571,3.88 13.385714,4.0139286 13.117857,4.1478571 12.514643,4.5496429 12.448214,4.8175 12.246786,5.6210714 12.85,5.6885714 13.385714,5.2192857 13.7875,4.8175 14.524643,4.4157143 15.060357,4.8175 c 0.401786,0.3353571 0.335357,0.6032143 0.335357,0.9375 0,0.3342857 -0.0675,1.2053571 -0.603214,1.0714286 C 14.524643,6.7589286 14.323214,6.4246429 14.055357,6.625 13.519643,7.0942857 12.85,7.0267857 12.112857,7.2282143 11.443214,7.3621429 11.041429,7.63 10.438214,7.8314286 9.9025,8.0328571 9.7010714,8.0992857 9.6346429,8.635 c 0,0.1339286 0,0.9375 -0.2014286,1.005 C 9.0978571,9.7739286 8.8975,8.1667857 7.96,8.3007143 c -0.8035714,0.0675 -2.0089286,0.8710714 -1.6746429,1.8749997 0.1339286,0.335357 1.875,0.201429 0.6696429,0.9375 -0.1339286,0.0675 0.1339286,1.138929 0.1339286,1.339286 0.0675,0.535714 0.8710714,1.205357 1.4067857,0.669643 0.4017857,-0.401786 0.4017857,-0.335357 0.9375,-0.133929 1.0049997,0.535715 2.2103567,1.005 3.0139287,1.808572 0.401786,0.401785 0.603214,1.607143 1.138928,1.875 0.603215,0.335357 1.272858,0.335357 1.741072,0.9375 0.401786,0.469285 -0.133929,1.272857 -0.535714,1.540714 -0.267858,0.133929 -0.803572,1.607143 -1.071429,1.9425 -0.133929,0.267857 -0.803571,0.401786 -1.071429,0.469286 -0.201428,0 -0.469285,0.603214 -0.603214,0.737143 C 11.576071,22.768214 11.509643,23.17 10.906429,23.571786 9.7010714,24.375357 9.4332143,25.1125 9.7010714,26.518214 9.835,27.053929 10.036429,27.389286 10.438214,27.589643 z m -2.7460714,-1.808571 0.1339285,0.133928 c 0.4692858,0.401786 1.005,0.737143 1.5407143,1.071429 C 7.9642857,25.575357 7.8303571,23.700357 7.9642857,21.758929 l 0.2014286,-1.607143 c 0.0675,-0.201429 -0.2678572,-0.469286 -0.2678572,-0.737143 0,-0.669643 0,-0.335357 -0.5357142,-0.871072 C 7.0942857,18.275714 6.6925,17.806429 6.5585714,17.404643 c -0.4692857,-1.071429 0.0675,-2.008929 0.6696429,-2.88 C 7.8314286,13.587143 6.7589286,13.185357 6.5585714,12.381786 6.4910714,11.98 6.0892857,11.98 6.1567857,11.578214 6.2242857,11.108929 5.8889286,11.242857 5.5535714,10.975 4.75,10.439286 5.4860714,9.6357143 5.0842857,9.2339286 c -2.88,4.6875004 -2.4107143,10.8482144 1.0714286,15.0000004 0.0675,0.0675 0,0.0675 0.0675,0.133928 h 0.0675 C 6.4921429,24.635714 6.6925,24.903571 6.8939286,25.105 c 0.2014285,0.201429 0.4692857,0.401786 0.6696428,0.603214 z"
     id="path4"
     inkscape:connector-curvature="0"
     style="fill:#444444" />
</svg>
