<?xml version="1.0" encoding="UTF-8" standalone="no"?>
<!-- Generated by IcoMoon.io -->

<svg
   xmlns:dc="http://purl.org/dc/elements/1.1/"
   xmlns:cc="http://creativecommons.org/ns#"
   xmlns:rdf="http://www.w3.org/1999/02/22-rdf-syntax-ns#"
   xmlns:svg="http://www.w3.org/2000/svg"
   xmlns="http://www.w3.org/2000/svg"
   xmlns:sodipodi="http://sodipodi.sourceforge.net/DTD/sodipodi-0.dtd"
   xmlns:inkscape="http://www.inkscape.org/namespaces/inkscape"
   version="1.1"
   width="32"
   height="32"
   viewBox="0 0 32 32"
   id="svg2"
   inkscape:version="0.48.4 r9939"
   sodipodi:docname="help.svg">
  <metadata
     id="metadata10">
    <rdf:RDF>
      <cc:Work
         rdf:about="">
        <dc:format>image/svg+xml</dc:format>
        <dc:type
           rdf:resource="http://purl.org/dc/dcmitype/StillImage" />
      </cc:Work>
    </rdf:RDF>
  </metadata>
  <defs
     id="defs8" />
  <sodipodi:namedview
     pagecolor="#ffffff"
     bordercolor="#666666"
     borderopacity="1"
     objecttolerance="10"
     gridtolerance="10"
     guidetolerance="10"
     inkscape:pageopacity="0"
     inkscape:pageshadow="2"
     inkscape:window-width="985"
     inkscape:window-height="565"
     id="namedview6"
     showgrid="false"
     inkscape:zoom="7.3750001"
     inkscape:cx="-12.741771"
     inkscape:cy="16.30776"
     inkscape:window-x="334"
     inkscape:window-y="25"
     inkscape:window-maximized="0"
     inkscape:current-layer="svg2" />
  <path
     d="m 20.730056,6.4869894 c 1.328853,1.010031 2.072773,2.444309 2.072773,4.4108076 0,1.169017 -0.425097,2.23176 -1.010031,3.029243 -0.372385,0.478658 -1.116305,1.116304 -2.125485,1.912937 l -1.116305,0.743919 c -0.531373,0.425098 -0.903758,0.956469 -1.062743,1.487841 -0.106275,0.318822 -0.159837,1.01003 -0.159837,1.541402 0,0.106274 -0.05356,0.318823 -0.372384,0.318823 h -3.294503 c -0.372386,0 -0.372386,-0.159837 -0.372386,-0.266111 0.05356,-1.381565 0.212549,-2.604145 0.797483,-3.507052 0.797482,-1.22258 3.029241,-2.550582 3.029241,-2.550582 0.318823,-0.266111 0.584934,-0.47866 0.797483,-0.797482 0.372385,-0.531372 0.637646,-1.116306 0.637646,-1.700389 0,-0.691208 -0.159837,-1.3815656 -0.584934,-1.9129366 -0.531372,-0.637646 -1.116305,-0.956469 -2.179048,-0.956469 -1.062743,0 -1.700388,0.584934 -2.125485,1.275292 -0.425098,0.6903566 -0.372386,1.5414016 -0.372386,2.2853216 H 9.1971705 c 0,-2.8694056 0.7439199,-4.6760686 2.3380335,-5.7388116 C 12.597947,5.3188228 13.926801,5 15.520915,5 c 2.072773,0 3.7196,0.3723851 5.20744,1.4878404 z M 15.256505,22.055747 c 1.435129,0.05356 2.49787,1.062743 2.444308,2.550582 -0.05357,1.48784 -1.169017,2.444309 -2.604145,2.391597 -1.381566,-0.05356 -2.444309,-1.01003 -2.391596,-2.49787 0.05271,-1.487841 1.169017,-2.497871 2.550582,-2.444309 z"
     id="path4"
     inkscape:connector-curvature="0"
     style="fill:#444444" />
</svg>
