<?xml version="1.0" encoding="UTF-8" standalone="no"?>
<!-- Generated by IcoMoon.io -->

<svg
   xmlns:dc="http://purl.org/dc/elements/1.1/"
   xmlns:cc="http://creativecommons.org/ns#"
   xmlns:rdf="http://www.w3.org/1999/02/22-rdf-syntax-ns#"
   xmlns:svg="http://www.w3.org/2000/svg"
   xmlns="http://www.w3.org/2000/svg"
   xmlns:sodipodi="http://sodipodi.sourceforge.net/DTD/sodipodi-0.dtd"
   xmlns:inkscape="http://www.inkscape.org/namespaces/inkscape"
   version="1.1"
   width="32"
   height="32"
   viewBox="0 0 32 32"
   id="svg2"
   inkscape:version="0.48.4 r9939"
   sodipodi:docname="help.svg">
  <metadata
     id="metadata10">
    <rdf:RDF>
      <cc:Work
         rdf:about="">
        <dc:format>image/svg+xml</dc:format>
        <dc:type
           rdf:resource="http://purl.org/dc/dcmitype/StillImage" />
      </cc:Work>
    </rdf:RDF>
  </metadata>
  <defs
     id="defs8" />
  <sodipodi:namedview
     pagecolor="#ffffff"
     bordercolor="#666666"
     borderopacity="1"
     objecttolerance="10"
     gridtolerance="10"
     guidetolerance="10"
     inkscape:pageopacity="0"
     inkscape:pageshadow="2"
     inkscape:window-width="985"
     inkscape:window-height="565"
     id="namedview6"
     showgrid="false"
     inkscape:zoom="2.6074563"
     inkscape:cx="-3.0219973"
     inkscape:cy="-1.9586273"
     inkscape:window-x="0"
     inkscape:window-y="25"
     inkscape:window-maximized="0"
     inkscape:current-layer="svg2" />
  <path
     d="m 22.450077,3.0277135 c 1.812072,1.3773148 2.826508,3.333148 2.826508,6.014738 0,1.5941145 -0.579678,3.0433085 -1.377315,4.1307845 -0.507797,0.652717 -1.522234,1.522234 -2.898389,2.608551 l -1.522234,1.014436 c -0.724598,0.579678 -1.232396,1.304275 -1.449194,2.028873 -0.144921,0.434758 -0.21796,1.377314 -0.21796,2.101912 0,0.144919 -0.07304,0.434758 -0.507797,0.434758 h -4.492504 c -0.507798,0 -0.507798,-0.217959 -0.507798,-0.362878 0.07304,-1.883953 0.289839,-3.551107 1.087476,-4.782343 1.087476,-1.667154 4.130784,-3.478067 4.130784,-3.478067 0.434759,-0.362879 0.797637,-0.652718 1.087476,-1.087476 0.507798,-0.724597 0.869517,-1.522234 0.869517,-2.3187115 0,-0.9425563 -0.217959,-1.8839532 -0.797637,-2.6085506 -0.724597,-0.8695169 -1.522233,-1.3042753 -2.971429,-1.3042753 -1.449194,0 -2.318711,0.7976368 -2.898389,1.7390337 -0.579678,0.9413969 -0.507798,2.1019121 -0.507798,3.1163487 H 6.7234145 c 0,-3.9128261 1.0144363,-6.3764572 3.1882285,-7.825652 1.449195,-1.0144364 3.261268,-1.4491948 5.43506,-1.4491948 2.826509,0 5.072181,0.5077978 7.101054,2.0288727 z M 14.986143,24.257837 c 1.956994,0.07304 3.406187,1.449195 3.333148,3.478067 -0.07304,2.028873 -1.594114,3.333148 -3.551107,3.261268 -1.883953,-0.07304 -3.333148,-1.377314 -3.261267,-3.406187 0.07188,-2.028873 1.594114,-3.406187 3.478067,-3.333148 z"
     id="path4"
     inkscape:connector-curvature="0"
     style="fill:#444444" />
</svg>
