<?xml version="1.0" encoding="UTF-8" standalone="no"?>
<!-- Generated by IcoMoon.io -->

<svg
   xmlns:dc="http://purl.org/dc/elements/1.1/"
   xmlns:cc="http://creativecommons.org/ns#"
   xmlns:rdf="http://www.w3.org/1999/02/22-rdf-syntax-ns#"
   xmlns:svg="http://www.w3.org/2000/svg"
   xmlns="http://www.w3.org/2000/svg"
   xmlns:sodipodi="http://sodipodi.sourceforge.net/DTD/sodipodi-0.dtd"
   xmlns:inkscape="http://www.inkscape.org/namespaces/inkscape"
   version="1.1"
   width="32"
   height="32"
   viewBox="0 0 32 32"
   id="svg2"
   inkscape:version="0.48.4 r9939"
   sodipodi:docname="history.svg">
  <metadata
     id="metadata10">
    <rdf:RDF>
      <cc:Work
         rdf:about="">
        <dc:format>image/svg+xml</dc:format>
        <dc:type
           rdf:resource="http://purl.org/dc/dcmitype/StillImage" />
      </cc:Work>
    </rdf:RDF>
  </metadata>
  <defs
     id="defs8" />
  <sodipodi:namedview
     pagecolor="#ffffff"
     bordercolor="#666666"
     borderopacity="1"
     objecttolerance="10"
     gridtolerance="10"
     guidetolerance="10"
     inkscape:pageopacity="0"
     inkscape:pageshadow="2"
     inkscape:window-width="1325"
     inkscape:window-height="733"
     id="namedview6"
     showgrid="false"
     inkscape:zoom="7.375"
     inkscape:cx="0.33898305"
     inkscape:cy="14.915254"
     inkscape:window-x="0"
     inkscape:window-y="25"
     inkscape:window-maximized="0"
     inkscape:current-layer="svg2" />
  <path
     d="M 1.0021904,12.250547 V 3.5003646 q 0,-0.8203296 0.7809253,-1.1528365 0.761238,-0.3325069 1.3474788,0.2734432 L 5.6691484,5.1410238 Q 7.7592718,3.1678577 10.444385,2.0839288 13.129499,1 16.000548,1 19.047687,1 21.8203,2.1911186 24.592913,3.3822371 26.605381,5.3947791 28.617849,7.407321 29.808925,10.180035 31,12.952749 31,16 q 0,3.047251 -1.191075,5.819965 -1.191076,2.772714 -3.203544,4.785256 -2.012468,2.012542 -4.785081,3.20366 Q 19.047687,31 16.000548,31 12.641694,31 9.6142422,29.583564 6.5867902,28.167128 4.4583861,25.589106 4.3216695,25.393321 4.3315131,25.149409 q 0.00984,-0.243911 0.1662474,-0.40032 L 7.173031,22.054032 q 0.1957781,-0.176097 0.4878048,-0.176097 0.3128076,0.03938 0.4495242,0.234067 1.4262272,1.855039 3.495569,2.871154 2.069343,1.016115 4.394619,1.016115 2.031062,0 3.877283,-0.790798 1.846221,-0.790798 3.193699,-2.138326 1.347479,-1.347528 2.138248,-3.193816 0.790769,-1.846289 0.790769,-3.877425 0,-2.031136 -0.790769,-3.877424 Q 24.419009,10.275193 23.07153,8.9276652 21.724052,7.5801371 19.877831,6.7893394 18.03161,5.9985416 16.000548,5.9985416 q -1.914033,0 -3.671661,0.693452 -1.757629,0.6934519 -3.1247938,1.98301 L 11.879363,11.37006 q 0.605928,0.586262 0.273433,1.347528 -0.332495,0.780954 -1.152795,0.780954 H 2.2501396 q -0.507492,0 -0.8793612,-0.370789 Q 0.9989092,12.756964 1.000003,12.248359 z m 9.9999986,6.875456 V 17.87582 q 0,-0.273443 0.176091,-0.44954 0.176091,-0.176098 0.449524,-0.176098 h 4.374931 v -6.875455 q 0,-0.273444 0.176091,-0.4495411 0.176091,-0.1760974 0.449524,-0.1760974 h 1.250137 q 0.273433,0 0.449524,0.1760974 0.176091,0.1760971 0.176091,0.4495411 v 8.750182 q 0,0.273443 -0.176091,0.44954 -0.176091,0.176098 -0.449524,0.176098 h -6.249589 q -0.273433,0 -0.449524,-0.176098 -0.176091,-0.176097 -0.176091,-0.44954 z"
     id="path4"
     inkscape:connector-curvature="0"
     style="fill:#444444" />
</svg>
