<?xml version="1.0" encoding="UTF-8" standalone="no"?>
<!-- Generated by IcoMoon.io -->

<svg
   xmlns:dc="http://purl.org/dc/elements/1.1/"
   xmlns:cc="http://creativecommons.org/ns#"
   xmlns:rdf="http://www.w3.org/1999/02/22-rdf-syntax-ns#"
   xmlns:svg="http://www.w3.org/2000/svg"
   xmlns="http://www.w3.org/2000/svg"
   xmlns:sodipodi="http://sodipodi.sourceforge.net/DTD/sodipodi-0.dtd"
   xmlns:inkscape="http://www.inkscape.org/namespaces/inkscape"
   version="1.1"
   width="32"
   height="32"
   viewBox="0 0 32 32"
   id="svg2"
   inkscape:version="0.48.4 r9939"
   sodipodi:docname="layers.svg">
  <metadata
     id="metadata10">
    <rdf:RDF>
      <cc:Work
         rdf:about="">
        <dc:format>image/svg+xml</dc:format>
        <dc:type
           rdf:resource="http://purl.org/dc/dcmitype/StillImage" />
      </cc:Work>
    </rdf:RDF>
  </metadata>
  <defs
     id="defs8" />
  <sodipodi:namedview
     pagecolor="#ffffff"
     bordercolor="#666666"
     borderopacity="1"
     objecttolerance="10"
     gridtolerance="10"
     guidetolerance="10"
     inkscape:pageopacity="0"
     inkscape:pageshadow="2"
     inkscape:window-width="1115"
     inkscape:window-height="710"
     id="namedview6"
     showgrid="false"
     inkscape:zoom="7.375"
     inkscape:cx="-3.6610169"
     inkscape:cy="14.915254"
     inkscape:window-x="0"
     inkscape:window-y="25"
     inkscape:window-maximized="0"
     inkscape:current-layer="svg2" />
  <path
     d="m 1.5296914,8.8130989 c -0.70458671,-0.312474 -0.70458671,-0.8599283 0,-1.1724023 L 14.74914,1.2349804 C 15.062011,1.0787434 15.531318,1 16.000625,1 16.469933,1 16.93924,1.078743 17.252112,1.2349804 L 30.47156,7.6406966 c 0.704587,0.312474 0.704587,0.8599283 0,1.1724023 L 17.252112,15.218815 c -0.312872,0.156237 -0.782179,0.234981 -1.251487,0.234981 -0.469307,0 -0.938614,-0.07874 -1.251485,-0.234981 z M 30.470309,15.375052 c 0.704586,0.312474 0.704586,0.937422 0,1.249896 L 17.25086,22.95317 c -0.312872,0.156237 -0.782179,0.312475 -1.251485,0.312475 -0.469308,0 -0.938615,-0.156238 -1.251487,-0.312475 L 1.5284399,16.624948 c -0.7045867,-0.312474 -0.7045867,-0.937422 0,-1.249896 0,0 2.1125086,-1.016165 2.5818159,-1.249895 0.3917151,-0.234981 0.5481509,-0.234981 1.0174582,0 0.4693074,0.234979 9.621426,4.687109 9.621426,4.687109 0.312871,0.156237 0.782178,0.23498 1.251485,0.23498 0.469308,0 0.938615,-0.07874 1.251487,-0.23498 0,0 9.464989,-4.609617 9.777861,-4.765853 0.312871,-0.156237 0.391715,-0.156237 0.704587,0 0.312871,0.156236 2.738252,1.328639 2.738252,1.328639 z m 0,7.811849 c 0.704586,0.312474 0.704586,0.859929 0,1.172402 L 17.25086,30.765019 C 16.937988,30.921257 16.468681,31 15.999375,31 15.530067,31 15.06076,30.92126 14.747888,30.765019 L 1.5284399,24.359303 c -0.7045867,-0.312473 -0.7045867,-0.859928 0,-1.172402 0,0 2.1125086,-1.093659 2.5818159,-1.328639 0.3917151,-0.23498 0.5481509,-0.156237 1.0174582,0.07874 0.4693074,0.23498 9.621426,4.609615 9.621426,4.609615 0.312871,0.156237 0.782178,0.234981 1.251485,0.234981 0.469308,0 0.938615,-0.07874 1.251487,-0.234981 0,0 9.464989,-4.530872 9.777861,-4.687109 0.312871,-0.156237 0.391715,-0.156237 0.704587,0 0.312871,0.156237 2.738252,1.328639 2.738252,1.328639 z"
     id="path4"
     inkscape:connector-curvature="0"
     style="fill:#444444" />
</svg>
