<?xml version="1.0" encoding="UTF-8" standalone="no"?>
<!-- Generated by IcoMoon.io -->

<svg
   xmlns:dc="http://purl.org/dc/elements/1.1/"
   xmlns:cc="http://creativecommons.org/ns#"
   xmlns:rdf="http://www.w3.org/1999/02/22-rdf-syntax-ns#"
   xmlns:svg="http://www.w3.org/2000/svg"
   xmlns="http://www.w3.org/2000/svg"
   xmlns:sodipodi="http://sodipodi.sourceforge.net/DTD/sodipodi-0.dtd"
   xmlns:inkscape="http://www.inkscape.org/namespaces/inkscape"
   version="1.1"
   width="32"
   height="32"
   viewBox="0 0 32 32"
   id="svg2"
   inkscape:version="0.48.4 r9939"
   sodipodi:docname="legend2.svg">
  <metadata
     id="metadata10">
    <rdf:RDF>
      <cc:Work
         rdf:about="">
        <dc:format>image/svg+xml</dc:format>
        <dc:type
           rdf:resource="http://purl.org/dc/dcmitype/StillImage" />
        <dc:title />
      </cc:Work>
    </rdf:RDF>
  </metadata>
  <defs
     id="defs8" />
  <sodipodi:namedview
     pagecolor="#ffffff"
     bordercolor="#666666"
     borderopacity="1"
     objecttolerance="10"
     gridtolerance="10"
     guidetolerance="10"
     inkscape:pageopacity="0"
     inkscape:pageshadow="2"
     inkscape:window-width="1920"
     inkscape:window-height="1028"
     id="namedview6"
     showgrid="false"
     inkscape:zoom="20.85965"
     inkscape:cx="8.3725452"
     inkscape:cy="14.067618"
     inkscape:window-x="0"
     inkscape:window-y="25"
     inkscape:window-maximized="1"
     inkscape:current-layer="svg2" />
  <path
     id="path3000"
     style="fill:#444444;fill-opacity:1"
     d="m 2.0006176,4.7729871 6.2464256,0 0,5.0000004 -6.2464257,0 z M 2.0001496,13.5 l 6.2943649,0 0,5 -6.294365,0 z M 2,22.227013 l 6.294365,0 0,5 -6.294365,0 z M 11,8.9094811 11,5.6364934 c 0,-0.147629 0.04462,-0.2755322 0.133871,-0.3837093 0.08924,-0.1081772 0.194767,-0.1622657 0.316562,-0.1622657 l 17.099135,0 c 0.121794,0 0.227317,0.054095 0.316563,0.1622657 C 28.955375,5.3609612 29,5.4888644 29,5.6364934 l 0,3.2729877 c 0,0.1476304 -0.04462,0.2755335 -0.133869,0.3837106 -0.08925,0.1081771 -0.194769,0.1622644 -0.316563,0.1622644 l -17.099135,0 c -0.121795,0 -0.227317,-0.054082 -0.316562,-0.1622644 C 11.044627,9.1850146 11,9.0571115 11,8.9094811 z m 0,8.7270129 0,-3.272987 c 0,-0.14763 0.04462,-0.275533 0.133871,-0.383711 0.08924,-0.108176 0.194767,-0.162265 0.316562,-0.162265 l 13.099135,0 c 0.121794,0 0.227317,0.05409 0.316563,0.162265 C 24.955375,14.087974 25,14.215877 25,14.363507 l 0,3.272987 c 0,0.14763 -0.04462,0.275533 -0.133869,0.38371 -0.08925,0.108177 -0.194769,0.162265 -0.316563,0.162265 l -13.099135,0 c -0.121795,0 -0.227317,-0.05409 -0.316562,-0.162265 C 11.044627,17.912027 11,17.784124 11,17.636494 z m 0,8.727013 0,-3.272988 c 0,-0.14763 0.04462,-0.275534 0.133871,-0.383711 0.08924,-0.108177 0.194767,-0.162264 0.316562,-0.162264 l 17.099135,0 c 0.121794,0 0.227317,0.0541 0.316563,0.162264 C 28.955375,22.814985 29,22.942889 29,23.090519 l 0,3.272988 c 0,0.147629 -0.04462,0.275532 -0.133869,0.38371 -0.08925,0.108176 -0.194769,0.162265 -0.316563,0.162265 l -17.099135,0 c -0.121795,0 -0.227317,-0.05409 -0.316562,-0.162265 C 11.044627,26.639039 11,26.511136 11,26.363507 z" />
</svg>
