<?xml version="1.0" encoding="UTF-8" standalone="no"?>
<!-- Generated by IcoMoon.io -->

<svg
   xmlns:dc="http://purl.org/dc/elements/1.1/"
   xmlns:cc="http://creativecommons.org/ns#"
   xmlns:rdf="http://www.w3.org/1999/02/22-rdf-syntax-ns#"
   xmlns:svg="http://www.w3.org/2000/svg"
   xmlns="http://www.w3.org/2000/svg"
   xmlns:sodipodi="http://sodipodi.sourceforge.net/DTD/sodipodi-0.dtd"
   xmlns:inkscape="http://www.inkscape.org/namespaces/inkscape"
   version="1.1"
   width="32"
   height="32"
   viewBox="0 0 32 32"
   id="svg2"
   inkscape:version="0.48.4 r9939"
   sodipodi:docname="load.svg">
  <metadata
     id="metadata10">
    <rdf:RDF>
      <cc:Work
         rdf:about="">
        <dc:format>image/svg+xml</dc:format>
        <dc:type
           rdf:resource="http://purl.org/dc/dcmitype/StillImage" />
      </cc:Work>
    </rdf:RDF>
  </metadata>
  <defs
     id="defs8" />
  <sodipodi:namedview
     pagecolor="#ffffff"
     bordercolor="#666666"
     borderopacity="1"
     objecttolerance="10"
     gridtolerance="10"
     guidetolerance="10"
     inkscape:pageopacity="0"
     inkscape:pageshadow="2"
     inkscape:window-width="1247"
     inkscape:window-height="719"
     id="namedview6"
     showgrid="false"
     inkscape:zoom="7.375"
     inkscape:cx="0.33898305"
     inkscape:cy="14.915254"
     inkscape:window-x="0"
     inkscape:window-y="25"
     inkscape:window-maximized="0"
     inkscape:current-layer="svg2" />
  <path
     d="m 31,13.987394 c 0,0.201339 0,0.401606 -0.06745,0.602945 -0.267666,0.535474 -1.004281,0.803211 -1.539611,0.469075 -0.267666,-0.133869 -0.401498,-0.469075 -0.46895,-0.736813 -0.06745,-0.335207 -0.06745,-0.602944 -0.133833,-0.93708 C 28.522491,12.046835 27.98716,10.70815 27.317997,9.5033324 26.515,8.0971768 25.444339,6.7584909 24.172393,5.755012 22.967899,4.7504621 21.49574,4.0147204 20.02358,3.5456449 18.617802,3.1440391 17.213094,2.9427008 15.740935,2.9427008 H 15.47327 c -0.201285,0 -0.401498,0.06747 -0.602783,0.06747 -0.401498,0 -0.936828,0.06747 -1.338326,0.1338686 C 12.661713,3.277908 11.858717,3.5456452 11.055721,3.8808521 9.6499423,4.4163262 8.3790673,5.2195377 7.2409543,6.2240875 6.1028413,7.2286374 5.1660126,8.4334547 4.4304683,9.7046707 3.6274723,11.177225 3.0921416,12.717249 2.8244763,14.390071 c -0.1338327,0.736813 -0.1338327,1.540024 -0.1338327,2.275766 0,0.401606 0,0.736813 0.067452,1.070949 0.067452,0.401606 0.1338327,0.870681 0.2012843,1.272287 0.335117,1.606423 0.9368287,3.146447 1.8736574,4.485133 0.8704476,1.338686 1.941109,2.543503 3.211984,3.480583 1.3383267,1.00455 2.8104857,1.740292 4.3500967,2.209367 1.673444,0.469076 3.345817,0.602944 5.085642,0.469076 1.673443,-0.133869 3.345816,-0.602944 4.885427,-1.338686 0.736615,-0.335207 1.47216,-0.803212 2.141323,-1.272287 0.669163,-0.469076 1.271946,-1.00455 1.807276,-1.606423 0.267666,-0.267737 0.535331,-0.602944 0.802996,-0.93708 0.267666,-0.334136 0.46895,-0.669343 0.669164,-1.00455 0.200213,-0.335207 0.802996,-1.338686 1.138113,-2.075499 0.267665,-0.535474 0.53533,-1.070948 0.736615,-1.673892 0.133832,-0.267738 0.201284,-0.602945 0.267665,-0.870682 0.06638,-0.267737 0.06745,-0.469075 0.133833,-0.736812 0.06745,0.602944 0.06745,1.204817 -0.06745,1.740291 -0.06745,0.335207 -0.133833,0.736813 -0.267665,1.070949 -0.06745,0.335207 -0.201285,0.669343 -0.335117,1.00455 -0.267666,0.669343 -0.535331,1.272287 -0.870448,1.87416 -0.401498,0.736813 -0.802996,1.406156 -1.338327,2.008029 -0.53533,0.601873 -1.070661,1.204817 -1.673443,1.740291 -1.204494,1.00455 -2.676654,1.807762 -4.148813,2.409635 -1.539611,0.602944 -3.211984,0.93708 -4.885428,1.00455 -1.673443,0.06747 -3.413268,-0.201339 -5.01926,-0.736813 C 9.9176077,29.783887 8.4454483,28.980676 7.1071217,28.043596 5.835176,27.106516 4.6981336,25.968097 3.761305,24.696881 3.2923553,24.027538 2.8908573,23.358195 2.556811,22.621383 2.2227646,21.88457 1.9540286,21.215227 1.6863633,20.412016 1.2848653,19.207198 1.083581,17.934911 1.0172,16.663695 0.94974832,15.325009 1.0846516,14.052722 1.352317,12.781506 1.687434,11.175083 2.3565973,9.6350591 3.2259743,8.2299744 4.0289703,6.9576874 4.965799,5.8867387 6.0364603,4.8832598 7.1071217,3.8797809 8.3790673,3.0754984 9.717394,2.4736252 c 1.539611,-0.7368127 3.211984,-1.272287 4.951809,-1.4061556 0.669163,-0.0674698 1.271946,-0.0674698 1.941109,-0.0674698 0.870448,0 1.739825,0.13386859 2.542821,0.26773719 1.605992,0.3352069 3.145603,0.9370801 4.55031,1.7402916 1.404708,0.8032115 2.744105,1.94163 3.814767,3.2128461 1.00428,1.2048172 1.807276,2.4771043 2.408988,3.8821893 0.267665,0.669343 0.468949,1.406155 0.669163,2.141897 0.133833,0.535474 0.335117,1.138418 0.401498,1.740292 z"
     id="path4"
     inkscape:connector-curvature="0"
     style="fill:#444444" />
</svg>
