<?xml version="1.0" encoding="UTF-8" standalone="no"?>
<!-- Created with Inkscape (http://www.inkscape.org/) -->

<svg
   xmlns:dc="http://purl.org/dc/elements/1.1/"
   xmlns:cc="http://creativecommons.org/ns#"
   xmlns:rdf="http://www.w3.org/1999/02/22-rdf-syntax-ns#"
   xmlns:svg="http://www.w3.org/2000/svg"
   xmlns="http://www.w3.org/2000/svg"
   xmlns:sodipodi="http://sodipodi.sourceforge.net/DTD/sodipodi-0.dtd"
   xmlns:inkscape="http://www.inkscape.org/namespaces/inkscape"
   width="32"
   height="32"
   id="svg4344"
   version="1.1"
   inkscape:version="0.48.4 r9939"
   sodipodi:docname="location-target.svg">
  <defs
     id="defs4346" />
  <sodipodi:namedview
     id="base"
     pagecolor="#ffffff"
     bordercolor="#666666"
     borderopacity="1.0"
     inkscape:pageopacity="0.0"
     inkscape:pageshadow="2"
     inkscape:zoom="16"
     inkscape:cx="21.055792"
     inkscape:cy="10.694957"
     inkscape:document-units="px"
     inkscape:current-layer="layer1"
     showgrid="false"
     inkscape:window-width="1920"
     inkscape:window-height="1028"
     inkscape:window-x="0"
     inkscape:window-y="25"
     inkscape:window-maximized="1"
     showguides="true"
     inkscape:guide-bbox="true">
    <sodipodi:guide
       orientation="0,1"
       position="-0.53125,12"
       id="guide3013" />
    <sodipodi:guide
       orientation="1,0"
       position="12,24.265625"
       id="guide3015" />
  </sodipodi:namedview>
  <metadata
     id="metadata4349">
    <rdf:RDF>
      <cc:Work
         rdf:about="">
        <dc:format>image/svg+xml</dc:format>
        <dc:type
           rdf:resource="http://purl.org/dc/dcmitype/StillImage" />
        <dc:title />
      </cc:Work>
    </rdf:RDF>
  </metadata>
  <g
     inkscape:label="Layer 1"
     inkscape:groupmode="layer"
     id="layer1"
     transform="translate(0,-1020.3622)">
    <path
       style="font-size:medium;font-style:normal;font-variant:normal;font-weight:normal;font-stretch:normal;text-indent:0;text-align:start;text-decoration:none;line-height:normal;letter-spacing:normal;word-spacing:normal;text-transform:none;direction:ltr;block-progression:tb;writing-mode:lr-tb;text-anchor:start;baseline-shift:baseline;color:#000000;fill:#1a1a1a;fill-opacity:1;stroke:none;stroke-width:1.93299997;marker:none;visibility:visible;display:inline;overflow:visible;enable-background:accumulate;font-family:Sans;-inkscape-font-specification:Sans"
       d="M 16.020861,1020.3622 C 7.168283,1020.3622 0,1027.5434 0,1036.3413 c 0,8.7978 7.168283,16.0209 16.020861,16.0209 8.852577,0 15.979139,-7.2231 15.979139,-16.0209 0,-8.7979 -7.126562,-15.9791 -15.979139,-15.9791 z m -2.670144,2.8863 0,5.0196 5.340287,0 0,-5.0196 c 5.204641,1.0615 9.333085,5.1599 10.388527,10.4157 l -5.006519,0 0,5.3542 5.006519,0 c -1.068354,5.2432 -5.197197,9.3498 -10.388527,10.4157 l 0,-5.0196 -5.340287,0 0,5.0196 c -5.1841187,-1.0659 -9.2856633,-5.1725 -10.3468056,-10.4157 l 5.0482399,0 0,-5.3542 -5.0482399,0 c 1.048418,-5.2556 5.1495083,-9.3542 10.3468056,-10.4157 z"
       id="path3772"
       inkscape:connector-curvature="0" />
  </g>
</svg>
