<?xml version="1.0" encoding="UTF-8" standalone="no"?>
<!-- Generated by IcoMoon.io -->

<svg
   xmlns:dc="http://purl.org/dc/elements/1.1/"
   xmlns:cc="http://creativecommons.org/ns#"
   xmlns:rdf="http://www.w3.org/1999/02/22-rdf-syntax-ns#"
   xmlns:svg="http://www.w3.org/2000/svg"
   xmlns="http://www.w3.org/2000/svg"
   xmlns:sodipodi="http://sodipodi.sourceforge.net/DTD/sodipodi-0.dtd"
   xmlns:inkscape="http://www.inkscape.org/namespaces/inkscape"
   version="1.1"
   width="32"
   height="32"
   viewBox="0 0 32 32"
   id="svg2"
   inkscape:version="0.48.4 r9939"
   sodipodi:docname="locaion-target.svg">
  <metadata
     id="metadata10">
    <rdf:RDF>
      <cc:Work
         rdf:about="">
        <dc:format>image/svg+xml</dc:format>
        <dc:type
           rdf:resource="http://purl.org/dc/dcmitype/StillImage" />
      </cc:Work>
    </rdf:RDF>
  </metadata>
  <defs
     id="defs8" />
  <sodipodi:namedview
     pagecolor="#ffffff"
     bordercolor="#666666"
     borderopacity="1"
     objecttolerance="10"
     gridtolerance="10"
     guidetolerance="10"
     inkscape:pageopacity="0"
     inkscape:pageshadow="2"
     inkscape:window-width="1015"
     inkscape:window-height="692"
     id="namedview6"
     showgrid="false"
     inkscape:zoom="7.375"
     inkscape:cx="0.33898305"
     inkscape:cy="14.915254"
     inkscape:window-x="0"
     inkscape:window-y="25"
     inkscape:window-maximized="0"
     inkscape:current-layer="svg2" />
  <path
     d="m 15.999464,10.642513 c 2.946324,0 5.356952,2.410628 5.356952,5.356951 0,2.946324 -2.410628,5.356952 -5.356952,5.356952 -2.946323,0 -5.356951,-2.410628 -5.356951,-5.356952 0,-2.946323 2.410628,-5.356951 5.356951,-5.356951 z M 28.789722,14.5938 H 31 v 2.8124 H 28.789722 C 28.120103,23.366344 23.365273,28.120103 17.4062,28.789722 V 31 H 14.5938 V 28.789722 C 8.6336559,28.120103 3.8798971,23.365273 3.2102782,17.4062 H 1 V 14.5938 H 3.2102782 C 3.8798971,8.6336559 8.6347273,3.8798971 14.5938,3.2102782 V 1 h 2.8124 V 3.2102782 C 23.366344,3.8798971 28.120103,8.6347273 28.789722,14.5938 z M 15.999464,25.977322 c 5.490876,0 9.977858,-4.486982 9.977858,-9.977858 0,-5.490875 -4.486982,-9.9778576 -9.977858,-9.9778576 -5.490875,0 -9.9778576,4.4869826 -9.9778576,9.9778576 0,5.490876 4.4869826,9.977858 9.9778576,9.977858 z"
     id="path4"
     inkscape:connector-curvature="0"
     style="fill:#444444" />
</svg>
