<?xml version="1.0" encoding="UTF-8" standalone="no"?>
<!-- Generated by IcoMoon.io -->

<svg
   xmlns:dc="http://purl.org/dc/elements/1.1/"
   xmlns:cc="http://creativecommons.org/ns#"
   xmlns:rdf="http://www.w3.org/1999/02/22-rdf-syntax-ns#"
   xmlns:svg="http://www.w3.org/2000/svg"
   xmlns="http://www.w3.org/2000/svg"
   xmlns:sodipodi="http://sodipodi.sourceforge.net/DTD/sodipodi-0.dtd"
   xmlns:inkscape="http://www.inkscape.org/namespaces/inkscape"
   version="1.1"
   width="32"
   height="32"
   viewBox="0 0 32 32"
   id="svg2"
   inkscape:version="0.48.4 r9939"
   sodipodi:docname="lock.svg">
  <metadata
     id="metadata10">
    <rdf:RDF>
      <cc:Work
         rdf:about="">
        <dc:format>image/svg+xml</dc:format>
        <dc:type
           rdf:resource="http://purl.org/dc/dcmitype/StillImage" />
      </cc:Work>
    </rdf:RDF>
  </metadata>
  <defs
     id="defs8" />
  <sodipodi:namedview
     pagecolor="#ffffff"
     bordercolor="#666666"
     borderopacity="1"
     objecttolerance="10"
     gridtolerance="10"
     guidetolerance="10"
     inkscape:pageopacity="0"
     inkscape:pageshadow="2"
     inkscape:window-width="1003"
     inkscape:window-height="639"
     id="namedview6"
     showgrid="false"
     inkscape:zoom="7.375"
     inkscape:cx="-5.1610169"
     inkscape:cy="13.830508"
     inkscape:window-x="0"
     inkscape:window-y="25"
     inkscape:window-maximized="0"
     inkscape:current-layer="svg2" />
  <path
     d="M 3.0012639,28.954898 V 16.6819 q 0,-0.851927 0.6319576,-1.448515 0.6319576,-0.596587 1.5343931,-0.596587 H 5.8893101 V 10.5454 q 0,-3.9207729 2.9790483,-6.7330864 Q 11.847407,1 16.000632,1 q 4.153225,0 7.132274,2.8123136 2.979048,2.8123135 2.979048,6.7330864 v 4.091398 h 0.721696 q 0.902435,0 1.534392,0.596587 Q 29,15.829973 29,16.6819 v 12.272998 q 0,0.851927 -0.631958,1.448514 Q 27.736085,31 26.83365,31 H 5.1663507 Q 4.2639151,31 3.6319576,30.403412 3,29.806825 3,28.954898 z m 7.2220121,-14.3181 H 21.779253 V 10.5454 q 0,-2.25868 -1.692384,-3.8563414 -1.692382,-1.5976614 -4.084972,-1.5976614 -2.392593,0 -4.084975,1.5976614 Q 10.22454,8.28672 10.22454,10.5454 v 4.091398 z"
     id="path4"
     inkscape:connector-curvature="0"
     style="fill:#444444" />
</svg>
