<?xml version="1.0" encoding="UTF-8" standalone="no"?>
<!-- Generated by IcoMoon.io -->

<svg
   xmlns:dc="http://purl.org/dc/elements/1.1/"
   xmlns:cc="http://creativecommons.org/ns#"
   xmlns:rdf="http://www.w3.org/1999/02/22-rdf-syntax-ns#"
   xmlns:svg="http://www.w3.org/2000/svg"
   xmlns="http://www.w3.org/2000/svg"
   xmlns:sodipodi="http://sodipodi.sourceforge.net/DTD/sodipodi-0.dtd"
   xmlns:inkscape="http://www.inkscape.org/namespaces/inkscape"
   version="1.1"
   width="32"
   height="32"
   viewBox="0 0 32 32"
   id="svg2"
   inkscape:version="0.48.4 r9939"
   sodipodi:docname="logout.svg">
  <metadata
     id="metadata12">
    <rdf:RDF>
      <cc:Work
         rdf:about="">
        <dc:format>image/svg+xml</dc:format>
        <dc:type
           rdf:resource="http://purl.org/dc/dcmitype/StillImage" />
        <dc:title />
      </cc:Work>
    </rdf:RDF>
  </metadata>
  <defs
     id="defs10" />
  <sodipodi:namedview
     pagecolor="#ffffff"
     bordercolor="#666666"
     borderopacity="1"
     objecttolerance="10"
     gridtolerance="10"
     guidetolerance="10"
     inkscape:pageopacity="0"
     inkscape:pageshadow="2"
     inkscape:window-width="1545"
     inkscape:window-height="902"
     id="namedview8"
     showgrid="false"
     showguides="true"
     inkscape:guide-bbox="true"
     inkscape:zoom="11.313709"
     inkscape:cx="11.7356"
     inkscape:cy="15.287459"
     inkscape:window-x="0"
     inkscape:window-y="25"
     inkscape:window-maximized="0"
     inkscape:current-layer="svg2" />
  <g
     id="g2985"
     style="font-size:22px;font-style:normal;font-variant:normal;font-weight:bold;font-stretch:normal;line-height:125%;letter-spacing:0px;word-spacing:0px;fill:#729fcf;fill-opacity:1;stroke:none;font-family:Noto Serif;-inkscape-font-specification:Noto Serif Bold"
     transform="matrix(0.96464518,0,0,0.96464518,0.56567724,0.56567718)" />
  <path
     style="font-size:medium;font-style:normal;font-variant:normal;font-weight:normal;font-stretch:normal;text-indent:0;text-align:start;text-decoration:none;line-height:normal;letter-spacing:normal;word-spacing:normal;text-transform:none;direction:ltr;block-progression:tb;writing-mode:lr-tb;text-anchor:start;baseline-shift:baseline;color:#000000;fill:#444444;fill-opacity:1;fill-rule:nonzero;stroke:none;stroke-width:4.08193445;marker:none;visibility:visible;display:inline;overflow:visible;enable-background:accumulate;font-family:Sans;-inkscape-font-specification:Sans"
     d="M 15.78125,39.21875 A 2.0002,2.0002 0 0 0 14,41.25 l 0,8.5 a 2.0002,2.0002 0 1 0 4,0 l 0,-8.5 A 2.0002,2.0002 0 0 0 15.78125,39.21875 z M 21,42.125 l 0,4.5 c 2.405466,1.601117 4,4.362663 4,7.5 0,4.994251 -4.005748,9 -9,9 -4.994251,0 -9,-4.005749 -9,-9 0,-3.136772 1.5862833,-5.898762 4,-7.5 l 0,-4.46875 C 6.3190027,44.12439 3,48.747627 3,54.125 c 0,7.156013 5.8439873,13 13,13 7.156013,0 13,-5.843987 13,-13 0,-5.391554 -3.307984,-10.040746 -8,-12 z"
     id="path2989"
     inkscape:connector-curvature="0" />
  <path
     style="font-size:medium;font-style:normal;font-variant:normal;font-weight:normal;font-stretch:normal;text-indent:0;text-align:start;text-decoration:none;line-height:normal;letter-spacing:normal;word-spacing:normal;text-transform:none;direction:ltr;block-progression:tb;writing-mode:lr-tb;text-anchor:start;baseline-shift:baseline;color:#000000;fill:#662222;fill-opacity:1;fill-rule:nonzero;stroke:none;stroke-width:3.74177337;marker:none;visibility:visible;display:inline;overflow:visible;enable-background:accumulate;font-family:Sans;-inkscape-font-specification:Sans"
     d="M 9.870112,4.0625 C 5.0704087,6.320517 1.75,11.130944 1.75,16.6875 c 0,7.708297 6.3793661,14.03125 14.234079,14.03125 7.854711,0 14.265921,-6.322953 14.265921,-14.03125 0,-5.557047 -3.349596,-10.3672733 -8.151956,-12.625 l 0,4.625 c 2.472496,1.817443 4.075979,4.711848 4.075979,8 0,5.546537 -4.538054,10 -10.189944,10 -5.651891,0 -10.1899449,-4.453463 -10.1899449,-10 0,-3.280336 1.6042579,-6.1803 4.0759779,-8 l 0,-4.625 z"
     id="path3763"
     inkscape:connector-curvature="0" />
  <path
     style="font-size:medium;font-style:normal;font-variant:normal;font-weight:normal;font-stretch:normal;text-indent:0;text-align:start;text-decoration:none;line-height:normal;letter-spacing:normal;word-spacing:normal;text-transform:none;direction:ltr;block-progression:tb;writing-mode:lr-tb;text-anchor:start;baseline-shift:baseline;color:#000000;fill:#000000;fill-opacity:1;stroke:none;stroke-width:4;marker:none;visibility:visible;display:inline;overflow:visible;enable-background:accumulate;font-family:Sans;-inkscape-font-specification:Sans"
     d="M 15.96875,1.4545884 A 2.0002,2.0151228 0 0 0 14,3.5009929 l 0,8.9097301 a 2.0002,2.0151228 0 1 0 4,0 L 18,3.5009929 A 2.0002,2.0151228 0 0 0 15.96875,1.4545884 z"
     id="path3767"
     inkscape:connector-curvature="0" />
</svg>
