<?xml version="1.0" encoding="UTF-8" standalone="no"?>
<!-- Generated by IcoMoon.io -->

<svg
   xmlns:dc="http://purl.org/dc/elements/1.1/"
   xmlns:cc="http://creativecommons.org/ns#"
   xmlns:rdf="http://www.w3.org/1999/02/22-rdf-syntax-ns#"
   xmlns:svg="http://www.w3.org/2000/svg"
   xmlns="http://www.w3.org/2000/svg"
   xmlns:sodipodi="http://sodipodi.sourceforge.net/DTD/sodipodi-0.dtd"
   xmlns:inkscape="http://www.inkscape.org/namespaces/inkscape"
   version="1.1"
   width="32"
   height="32"
   viewBox="0 0 32 32"
   id="svg2"
   inkscape:version="0.48.4 r9939"
   sodipodi:docname="menu.svg">
  <metadata
     id="metadata10">
    <rdf:RDF>
      <cc:Work
         rdf:about="">
        <dc:format>image/svg+xml</dc:format>
        <dc:type
           rdf:resource="http://purl.org/dc/dcmitype/StillImage" />
      </cc:Work>
    </rdf:RDF>
  </metadata>
  <defs
     id="defs8" />
  <sodipodi:namedview
     pagecolor="#ffffff"
     bordercolor="#666666"
     borderopacity="1"
     objecttolerance="10"
     gridtolerance="10"
     guidetolerance="10"
     inkscape:pageopacity="0"
     inkscape:pageshadow="2"
     inkscape:window-width="904"
     inkscape:window-height="480"
     id="namedview6"
     showgrid="false"
     inkscape:zoom="7.375"
     inkscape:cx="-15.322034"
     inkscape:cy="12.745762"
     inkscape:window-x="0"
     inkscape:window-y="25"
     inkscape:window-maximized="0"
     inkscape:current-layer="svg2" />
  <path
     d="m 2.000003,27.699884 v -2.600227 q 0,-0.52778 0.346057,-0.914515 0.3460569,-0.386736 0.8207369,-0.385597 H 28.833201 q 0.473659,0 0.820738,0.385597 0.347077,0.385598 0.346058,0.914515 v 2.600227 q 0,0.527781 -0.346058,0.914516 -0.346057,0.386735 -0.820738,0.385597 H 3.1667969 q -0.4736592,0 -0.8207369,-0.385597 -0.3470778,-0.3856 -0.346057,-0.914516 z m 0,-10.39977 v -2.600227 q 0,-0.527781 0.346057,-0.914514 0.3460569,-0.386737 0.8207369,-0.385599 H 28.833201 q 0.473659,0 0.820738,0.385599 0.347077,0.385596 0.346058,0.914514 v 2.600227 q 0,0.527779 -0.346058,0.914514 -0.346057,0.386737 -0.820738,0.385601 H 3.1667969 q -0.4736592,0 -0.8207369,-0.385601 -0.3470778,-0.385596 -0.346057,-0.914514 z m 0,-10.3997703 V 4.3001169 q 0,-0.5277803 0.346057,-0.9145157 0.3460569,-0.3867354 0.8207369,-0.385598 H 28.833201 q 0.473659,0 0.820738,0.385598 0.347077,0.3855981 0.346058,0.9145157 v 2.6002268 q 0,0.5277806 -0.346058,0.9145149 -0.346057,0.3867353 -0.820738,0.3855978 H 3.1667969 q -0.4736592,0 -0.8207369,-0.3855978 Q 1.9989822,7.4292618 2.000003,6.9003437 z"
     id="path4"
     inkscape:connector-curvature="0"
     style="fill:#444444" />
</svg>
