<?xml version="1.0" encoding="UTF-8" standalone="no"?>
<!-- Generated by IcoMoon.io -->

<svg
   xmlns:dc="http://purl.org/dc/elements/1.1/"
   xmlns:cc="http://creativecommons.org/ns#"
   xmlns:rdf="http://www.w3.org/1999/02/22-rdf-syntax-ns#"
   xmlns:svg="http://www.w3.org/2000/svg"
   xmlns="http://www.w3.org/2000/svg"
   xmlns:sodipodi="http://sodipodi.sourceforge.net/DTD/sodipodi-0.dtd"
   xmlns:inkscape="http://www.inkscape.org/namespaces/inkscape"
   version="1.1"
   width="32"
   height="32"
   viewBox="0 0 32 32"
   id="svg2"
   inkscape:version="0.48.4 r9939"
   sodipodi:docname="options.svg">
  <metadata
     id="metadata10">
    <rdf:RDF>
      <cc:Work
         rdf:about="">
        <dc:format>image/svg+xml</dc:format>
        <dc:type
           rdf:resource="http://purl.org/dc/dcmitype/StillImage" />
      </cc:Work>
    </rdf:RDF>
  </metadata>
  <defs
     id="defs8" />
  <sodipodi:namedview
     pagecolor="#ffffff"
     bordercolor="#666666"
     borderopacity="1"
     objecttolerance="10"
     gridtolerance="10"
     guidetolerance="10"
     inkscape:pageopacity="0"
     inkscape:pageshadow="2"
     inkscape:window-width="793"
     inkscape:window-height="502"
     id="namedview6"
     showgrid="false"
     inkscape:zoom="7.375"
     inkscape:cx="15"
     inkscape:cy="14.915254"
     inkscape:window-x="0"
     inkscape:window-y="25"
     inkscape:window-maximized="0"
     inkscape:current-layer="svg2" />
  <path
     d="m 1,26.708589 q 0,-0.96728 0.6951032,-1.661554 L 14.144515,12.612474 q 0.712506,1.789366 2.093499,3.16769 1.380993,1.378323 3.171472,2.091002 L 6.9416482,30.324131 Q 6.2649718,31 5.2965364,31 4.3455042,31 3.6329978,30.324131 L 1.6951032,28.351738 Q 1,27.694274 1,26.708589 z m 4.2955127,-1.168712 q 0,0.474438 0.3470398,0.822086 0.3470397,0.347648 0.8230677,0.346626 0.476028,-0.001 0.8230677,-0.346626 0.3470398,-0.345603 0.3470398,-0.822086 0,-0.476482 -0.3470398,-0.822086 -0.3470397,-0.345603 -0.8230677,-0.346625 -0.476028,-10e-4 -0.8230677,0.346625 -0.3470398,0.347649 -0.3470398,0.822086 z M 14.655349,9.1799591 q 0,-3.3783231 2.403685,-5.7791411 Q 19.46272,1 22.845078,1 q 1.06057,0 2.221464,0.301636 1.160894,0.301636 1.965534,0.8486707 0.292783,0.200409 0.292783,0.5112475 0,0.3108384 -0.292783,0.5112474 l -5.356082,3.0858896 v 4.0899798 l 3.527726,1.953987 q 0.09111,-0.05521 1.444463,-0.88548 1.353353,-0.830266 2.477393,-1.478528 1.12404,-0.6482615 1.288858,-0.6482615 0.274356,0 0.429961,0.1830265 Q 31,9.656442 31,9.929448 q 0,0.711656 -0.420747,1.935583 -0.858898,2.44683 -3.007678,3.97137 -2.14878,1.52454 -4.725474,1.52454 -3.382358,0 -5.786043,-2.400818 -2.403685,-2.400818 -2.403685,-5.7791414 z"
     id="path4"
     inkscape:connector-curvature="0"
     style="fill:#444444" />
</svg>
