<?xml version="1.0" encoding="UTF-8" standalone="no"?>
<!-- Generated by IcoMoon.io -->

<svg
   xmlns:dc="http://purl.org/dc/elements/1.1/"
   xmlns:cc="http://creativecommons.org/ns#"
   xmlns:rdf="http://www.w3.org/1999/02/22-rdf-syntax-ns#"
   xmlns:svg="http://www.w3.org/2000/svg"
   xmlns="http://www.w3.org/2000/svg"
   xmlns:sodipodi="http://sodipodi.sourceforge.net/DTD/sodipodi-0.dtd"
   xmlns:inkscape="http://www.inkscape.org/namespaces/inkscape"
   version="1.1"
   width="32"
   height="32"
   viewBox="0 0 32 32"
   id="svg2"
   inkscape:version="0.48.4 r9939"
   sodipodi:docname="page-last.svg">
  <metadata
     id="metadata10">
    <rdf:RDF>
      <cc:Work
         rdf:about="">
        <dc:format>image/svg+xml</dc:format>
        <dc:type
           rdf:resource="http://purl.org/dc/dcmitype/StillImage" />
        <dc:title></dc:title>
      </cc:Work>
    </rdf:RDF>
  </metadata>
  <defs
     id="defs8" />
  <sodipodi:namedview
     pagecolor="#ffffff"
     bordercolor="#666666"
     borderopacity="1"
     objecttolerance="10"
     gridtolerance="10"
     guidetolerance="10"
     inkscape:pageopacity="0"
     inkscape:pageshadow="2"
     inkscape:window-width="1920"
     inkscape:window-height="1028"
     id="namedview6"
     showgrid="false"
     inkscape:zoom="5.6568543"
     inkscape:cx="29.843837"
     inkscape:cy="-7.0378296"
     inkscape:window-x="0"
     inkscape:window-y="25"
     inkscape:window-maximized="1"
     inkscape:current-layer="svg2" />
  <path
     d="m 7.9318466,2 q -0.357129,0 -0.632672,0.281194 l -1.374639,1.402828 q -0.275544,0.281194 -0.275544,0.645646 0,0.364452 0.275544,0.645646 L 16.727691,16 5.9245356,27.024686 q -0.275544,0.281194 -0.275544,0.645646 0,0.364452 0.275544,0.645646 l 1.374639,1.402828 Q 7.5747176,30 7.9318466,30 q 0.35713,0 0.632673,-0.281194 L 21.373449,16.647217 q 0.275544,-0.281194 0.275544,-0.645647 0,-0.364451 -0.275544,-0.645645 L 8.5645196,2.284336 Q 8.2889766,2.003142 7.9318466,2.003142 z"
     id="path4"
     inkscape:connector-curvature="0"
     style="fill:#444444" />
  <rect
     style="fill:#444444;fill-opacity:1;stroke:none"
     id="rect2991"
     width="3.8399999"
     height="28"
     x="-26.351007"
     y="2"
     rx="0.80000001"
     ry="0.80000001"
     transform="scale(-1,1)" />
</svg>
