<?xml version="1.0" encoding="UTF-8" standalone="no"?>
<!-- Generated by IcoMoon.io -->

<svg
   xmlns:dc="http://purl.org/dc/elements/1.1/"
   xmlns:cc="http://creativecommons.org/ns#"
   xmlns:rdf="http://www.w3.org/1999/02/22-rdf-syntax-ns#"
   xmlns:svg="http://www.w3.org/2000/svg"
   xmlns="http://www.w3.org/2000/svg"
   xmlns:sodipodi="http://sodipodi.sourceforge.net/DTD/sodipodi-0.dtd"
   xmlns:inkscape="http://www.inkscape.org/namespaces/inkscape"
   version="1.1"
   width="32"
   height="32"
   viewBox="0 0 32 32"
   id="svg2"
   inkscape:version="0.48.4 r9939"
   sodipodi:docname="phone.svg">
  <metadata
     id="metadata10">
    <rdf:RDF>
      <cc:Work
         rdf:about="">
        <dc:format>image/svg+xml</dc:format>
        <dc:type
           rdf:resource="http://purl.org/dc/dcmitype/StillImage" />
      </cc:Work>
    </rdf:RDF>
  </metadata>
  <defs
     id="defs8" />
  <sodipodi:namedview
     pagecolor="#ffffff"
     bordercolor="#666666"
     borderopacity="1"
     objecttolerance="10"
     gridtolerance="10"
     guidetolerance="10"
     inkscape:pageopacity="0"
     inkscape:pageshadow="2"
     inkscape:window-width="1057"
     inkscape:window-height="704"
     id="namedview6"
     showgrid="false"
     inkscape:zoom="7.375"
     inkscape:cx="-5.1610169"
     inkscape:cy="14.915254"
     inkscape:window-x="0"
     inkscape:window-y="25"
     inkscape:window-maximized="0"
     inkscape:current-layer="svg2" />
  <path
     d="M 4,27.591099 V 4.4089011 Q 4,3.0021477 4.9788538,2.0010739 5.9577074,1 7.3332361,1 H 24.666764 Q 26.042292,1 27.021146,2.0010739 28,3.0021477 28,4.4089011 V 27.591099 q 0,1.406753 -0.978854,2.407827 Q 26.042292,31 24.666764,31 H 7.3332361 Q 5.9577074,31 4.9788538,29.998926 4,28.997852 4,27.591099 z m 2.6670555,-2.726405 q 0,0.276817 0.1983375,0.479656 0.1983375,0.20284 0.4690098,0.20284 H 24.667931 q 0.270671,0 0.469009,-0.20284 0.198338,-0.202839 0.198338,-0.479656 V 4.4100943 q 0,-0.2768166 -0.198338,-0.4796564 Q 24.938602,3.7275981 24.667931,3.7275981 H 7.3344028 q -0.2706723,0 -0.4690098,0.2028398 Q 6.6670555,4.1332777 6.6670555,4.4100943 V 24.864694 z m 7.9999995,3.408901 q 0,0.553633 0.395509,0.959313 0.395508,0.405679 0.938019,0.404486 0.542512,-0.0012 0.93802,-0.404486 0.395508,-0.403293 0.395508,-0.959313 0,-0.55602 -0.395508,-0.959313 -0.395508,-0.403293 -0.93802,-0.404486 -0.542511,-0.0012 -0.938019,0.404486 -0.395509,0.40568 -0.395509,0.959313 z"
     id="path4"
     inkscape:connector-curvature="0"
     style="fill:#444444" />
</svg>
