<?xml version="1.0" encoding="UTF-8" standalone="no"?>
<!-- Generated by IcoMoon.io -->

<svg
   xmlns:dc="http://purl.org/dc/elements/1.1/"
   xmlns:cc="http://creativecommons.org/ns#"
   xmlns:rdf="http://www.w3.org/1999/02/22-rdf-syntax-ns#"
   xmlns:svg="http://www.w3.org/2000/svg"
   xmlns="http://www.w3.org/2000/svg"
   xmlns:sodipodi="http://sodipodi.sourceforge.net/DTD/sodipodi-0.dtd"
   xmlns:inkscape="http://www.inkscape.org/namespaces/inkscape"
   version="1.1"
   width="32"
   height="32"
   viewBox="0 0 32 32"
   id="svg2"
   inkscape:version="0.48.4 r9939"
   sodipodi:docname="profiles.svg">
  <metadata
     id="metadata10">
    <rdf:RDF>
      <cc:Work
         rdf:about="">
        <dc:format>image/svg+xml</dc:format>
        <dc:type
           rdf:resource="http://purl.org/dc/dcmitype/StillImage" />
      </cc:Work>
    </rdf:RDF>
  </metadata>
  <defs
     id="defs8" />
  <sodipodi:namedview
     pagecolor="#ffffff"
     bordercolor="#666666"
     borderopacity="1"
     objecttolerance="10"
     gridtolerance="10"
     guidetolerance="10"
     inkscape:pageopacity="0"
     inkscape:pageshadow="2"
     inkscape:window-width="992"
     inkscape:window-height="686"
     id="namedview6"
     showgrid="false"
     inkscape:zoom="7.375"
     inkscape:cx="0.33898305"
     inkscape:cy="14.915254"
     inkscape:window-x="0"
     inkscape:window-y="25"
     inkscape:window-maximized="0"
     inkscape:current-layer="svg2" />
  <path
     d="m 27.31656,20.672721 c 2.8124,1.083153 3.482019,1.760124 3.549516,2.234545 C 31,23.51708 31,29 31,29 h -6.562266 c 0,-1.218547 0,-4.807032 -0.0675,-5.213215 -0.0675,-0.676969 -0.0675,-1.963755 -3.68344,-3.384852 -0.535695,-0.203633 -0.937467,-0.339026 -1.272812,-0.474421 1.205314,-0.541576 1.004964,-1.015997 1.004964,-1.895517 0,-1.286786 -0.603192,-0.74521 -1.004964,-3.182303 -0.133924,-0.947759 -0.267847,-0.339027 -0.603193,-1.895518 -0.201421,-0.812365 0.0675,-0.812365 0.0675,-1.218547 0,-0.406181 -0.0675,-0.67697 -0.133924,-1.489335 -0.0675,-0.9477585 0.737117,-3.5202464 3.817364,-3.5202464 3.080247,0 3.951287,2.5724879 3.88379,3.5202464 -0.0675,0.812365 -0.133924,1.083154 -0.133924,1.489335 -0.0675,0.406182 0.267848,0.406182 0.0675,1.218547 -0.335346,1.557574 -0.469269,0.947759 -0.603193,1.895518 -0.401772,2.437093 -1.07139,1.895517 -1.07139,3.182303 0,1.963755 -0.133924,1.557573 2.612049,2.640726 z m -4.553409,8.326196 H 1 c 0,0 0,-4.40085 0.1339238,-5.213215 0.1339238,-0.67697 1.0049641,-1.489335 4.6209064,-2.911514 3.6159423,-1.353941 3.3480947,-1.151392 3.3480947,-3.72388 0,-1.624729 -0.8035427,-0.541576 -1.3392379,-3.65564 C 7.5622656,12.276121 7.4283418,13.020247 7.0265705,11.057574 6.8251491,10.041576 7.1604943,9.9744209 7.0940681,9.5 7.0276419,9.025579 6.9601443,8.5522413 6.8926467,7.536244 6.7587229,6.2494584 7.8976108,3 11.847827,3 c 3.950216,0 5.156601,3.317697 5.022678,4.536244 -0.0675,1.0159973 -0.133924,1.489335 -0.201422,1.963756 -0.0675,0.4744209 0.335345,0.541576 0.133924,1.557574 -0.401771,1.963756 -0.603193,1.218547 -0.803543,2.437094 -0.535695,3.114064 -1.339238,2.030911 -1.339238,3.65564 0,2.166306 -0.133923,2.437094 2.076355,3.249459 0.401771,0.135394 0.737116,0.270788 1.272812,0.474421 3.615942,1.422179 4.486982,2.234544 4.620906,2.911514 0.0675,0.406182 0.133924,1.895518 0.133924,3.182304 v 2.030911 z"
     id="path4"
     inkscape:connector-curvature="0"
     style="fill:#444444" />
</svg>
