<?xml version="1.0" encoding="UTF-8" standalone="no"?>
<!-- Generated by IcoMoon.io -->

<svg
   xmlns:dc="http://purl.org/dc/elements/1.1/"
   xmlns:cc="http://creativecommons.org/ns#"
   xmlns:rdf="http://www.w3.org/1999/02/22-rdf-syntax-ns#"
   xmlns:svg="http://www.w3.org/2000/svg"
   xmlns="http://www.w3.org/2000/svg"
   xmlns:sodipodi="http://sodipodi.sourceforge.net/DTD/sodipodi-0.dtd"
   xmlns:inkscape="http://www.inkscape.org/namespaces/inkscape"
   version="1.1"
   width="32"
   height="32"
   viewBox="0 0 32 32"
   id="svg2"
   inkscape:version="0.48.4 r9939"
   sodipodi:docname="project.svg">
  <metadata
     id="metadata10">
    <rdf:RDF>
      <cc:Work
         rdf:about="">
        <dc:format>image/svg+xml</dc:format>
        <dc:type
           rdf:resource="http://purl.org/dc/dcmitype/StillImage" />
      </cc:Work>
    </rdf:RDF>
  </metadata>
  <defs
     id="defs8" />
  <sodipodi:namedview
     pagecolor="#ffffff"
     bordercolor="#666666"
     borderopacity="1"
     objecttolerance="10"
     gridtolerance="10"
     guidetolerance="10"
     inkscape:pageopacity="0"
     inkscape:pageshadow="2"
     inkscape:window-width="845"
     inkscape:window-height="695"
     id="namedview6"
     showgrid="false"
     inkscape:zoom="8"
     inkscape:cx="24.535972"
     inkscape:cy="0.025061062"
     inkscape:window-x="842"
     inkscape:window-y="168"
     inkscape:window-maximized="0"
     inkscape:current-layer="svg2" />
  <path
     d="m 27.295576,4.2141709 c 1.557768,0 2.704847,1.1634567 2.704847,2.704116 l 0,21.3785931 C 30.000423,29.837539 28.853344,31 27.295576,31 L 4.7059533,31 C 3.148185,31 2.0000467,29.837539 2.0000467,28.29688 l 0,-21.3785931 c 0,-1.5406593 1.1481383,-2.704116 2.7059066,-2.704116 l 7.0968467,0 C 12.27728,2.3392379 13.969376,1 16.000541,1 c 2.031166,0 3.724345,1.3392379 4.197743,3.2141709 l 7.098374,0 z m -11.296117,0 c -0.812467,0 -1.422358,0.6031928 -1.422358,1.4067355 0,0.8035427 0.609891,1.4731617 1.422358,1.4731617 0.812465,0 1.422356,-0.669619 1.422356,-1.4731617 0,-0.8035427 -0.609891,-1.4067355 -1.422356,-1.4067355 z M 27.49815,28.49723 l 0,-21.7803645 -3.915674,0 0,4.8212565 -15.1660351,0 0,-4.8212565 -3.9141457,0 0,21.7803645 z"
     id="path4"
     inkscape:connector-curvature="0"
     style="fill:#444444"
     sodipodi:nodetypes="cssssssscscccsssssccccccccc" />
  <path
     id="path4-6"
     style="fill:#444444"
     d="m 8.5,20.807598 0,-2.5 15,0 0,2.5 z m 0,4.530377 0,-2.5 12.115385,0 0,2.5 z m 0,-9.054658 0,-2.5 9.807692,0 0,2.5 z"
     inkscape:connector-curvature="0" />
</svg>
