<?xml version="1.0" encoding="UTF-8" standalone="no"?>
<!-- Generated by IcoMoon.io -->

<svg
   xmlns:dc="http://purl.org/dc/elements/1.1/"
   xmlns:cc="http://creativecommons.org/ns#"
   xmlns:rdf="http://www.w3.org/1999/02/22-rdf-syntax-ns#"
   xmlns:svg="http://www.w3.org/2000/svg"
   xmlns="http://www.w3.org/2000/svg"
   xmlns:sodipodi="http://sodipodi.sourceforge.net/DTD/sodipodi-0.dtd"
   xmlns:inkscape="http://www.inkscape.org/namespaces/inkscape"
   version="1.1"
   width="32"
   height="32"
   viewBox="0 0 32 32"
   id="svg2"
   inkscape:version="0.48.4 r9939"
   sodipodi:docname="radio-button-checked.svg">
  <metadata
     id="metadata10">
    <rdf:RDF>
      <cc:Work
         rdf:about="">
        <dc:format>image/svg+xml</dc:format>
        <dc:type
           rdf:resource="http://purl.org/dc/dcmitype/StillImage" />
      </cc:Work>
    </rdf:RDF>
  </metadata>
  <defs
     id="defs8" />
  <sodipodi:namedview
     pagecolor="#ffffff"
     bordercolor="#666666"
     borderopacity="1"
     objecttolerance="10"
     gridtolerance="10"
     guidetolerance="10"
     inkscape:pageopacity="0"
     inkscape:pageshadow="2"
     inkscape:window-width="1920"
     inkscape:window-height="1028"
     id="namedview6"
     showgrid="false"
     inkscape:zoom="10.429825"
     inkscape:cx="-8.9776805"
     inkscape:cy="-6.4512526"
     inkscape:window-x="0"
     inkscape:window-y="25"
     inkscape:window-maximized="1"
     inkscape:current-layer="svg2" />
  <path
     id="path4"
     style="fill:#444444"
     d="M 1,23.507743 V 8.508456 Q 1,6.3631046 2.523452,4.8396526 4.046904,3.3162007 6.192256,3.3162007 H 21.19154 q 2.145352,0 3.668805,1.5234519 1.523452,1.523452 1.523452,3.6688034 v 14.999287 q 0,2.145352 -1.523452,3.668805 Q 23.336892,28.7 21.19154,28.7 H 6.192256 Q 4.046904,28.7 2.523452,27.176548 1,25.653095 1,23.507743 z m 2.307894,0 q 0,1.190292 0.847035,2.037328 0.847035,0.847035 2.037327,0.847035 H 21.19154 q 1.190292,0 2.037328,-0.847035 0.847035,-0.847036 0.847035,-2.037328 V 8.508456 q 0,-1.1902913 -0.847035,-2.0373267 Q 22.381832,5.6240941 21.19154,5.6240941 H 6.192256 q -1.190292,0 -2.037327,0.8470352 Q 3.307894,7.3181647 3.307894,8.508456 v 14.999287 z m 2.3840044,-2.772442 0,-9.454401 c 0,-0.901511 0.3200891,-1.6723546 0.9602673,-2.3125328 0.6401781,-0.640178 1.4110219,-0.9602669 2.3125329,-0.9602669 l 9.4544014,0 c 0.90151,0 1.672354,0.3200889 2.312532,0.9602669 0.640178,0.6401782 0.960267,1.4110218 0.960267,2.3125328 l 0,9.454401 c 0,0.90151 -0.320089,1.672353 -0.960267,2.312531 C 20.091454,23.68801 19.32061,24.0081 18.4191,24.0081 l -9.4544014,0 c -0.901511,0 -1.6723548,-0.32009 -2.3125329,-0.960268 C 6.0119875,22.407654 5.6918984,21.636811 5.6918984,20.735301 z" />
</svg>
