<?xml version="1.0" encoding="UTF-8" standalone="no"?>
<!-- Generated by IcoMoon.io -->

<svg
   xmlns:dc="http://purl.org/dc/elements/1.1/"
   xmlns:cc="http://creativecommons.org/ns#"
   xmlns:rdf="http://www.w3.org/1999/02/22-rdf-syntax-ns#"
   xmlns:svg="http://www.w3.org/2000/svg"
   xmlns="http://www.w3.org/2000/svg"
   xmlns:sodipodi="http://sodipodi.sourceforge.net/DTD/sodipodi-0.dtd"
   xmlns:inkscape="http://www.inkscape.org/namespaces/inkscape"
   version="1.1"
   width="32"
   height="32"
   viewBox="0 0 32 32"
   id="svg2"
   inkscape:version="0.48.4 r9939"
   sodipodi:docname="settings.svg">
  <metadata
     id="metadata10">
    <rdf:RDF>
      <cc:Work
         rdf:about="">
        <dc:format>image/svg+xml</dc:format>
        <dc:type
           rdf:resource="http://purl.org/dc/dcmitype/StillImage" />
      </cc:Work>
    </rdf:RDF>
  </metadata>
  <defs
     id="defs8" />
  <sodipodi:namedview
     pagecolor="#ffffff"
     bordercolor="#666666"
     borderopacity="1"
     objecttolerance="10"
     gridtolerance="10"
     guidetolerance="10"
     inkscape:pageopacity="0"
     inkscape:pageshadow="2"
     inkscape:window-width="1077"
     inkscape:window-height="666"
     id="namedview6"
     showgrid="false"
     inkscape:zoom="7.375"
     inkscape:cx="-2.6610169"
     inkscape:cy="14.915254"
     inkscape:window-x="0"
     inkscape:window-y="25"
     inkscape:window-maximized="0"
     inkscape:current-layer="svg2" />
  <path
     d="m 27.391606,17.514767 3.389047,2.451546 c 0.216862,0.216889 0.288381,0.721043 0.14419,1.00946 l -3.100667,5.119981 c -0.14419,0.288418 -0.505242,0.505307 -0.865141,0.361099 l -3.893137,-1.514768 c -0.865141,0.576835 -1.658764,1.153669 -2.595424,1.514768 l -0.576761,3.966313 C 19.821041,30.711583 19.461142,31 19.10009,31 h -6.128662 c -0.361052,0 -0.720951,-0.21689 -0.793623,-0.576834 L 11.601044,26.456853 C 10.663231,26.095754 9.7980893,25.51892 9.0056198,24.942085 L 5.1124833,26.456853 C 4.8241028,26.601061 4.3915321,26.384172 4.2473419,26.095754 L 1.146675,20.975773 C 0.92981284,20.614675 1.0024847,20.182049 1.2908652,19.966313 l 3.2448571,-2.451546 c 0,-0.505307 -0.072672,-1.00946 -0.072672,-1.514767 0,-0.505307 0.072672,-1.00946 0.072672,-1.514767 L 1.2193468,12.033687 C 1.0024847,11.816797 0.93096636,11.312644 1.0751566,11.024227 L 4.1758235,5.9042455 C 4.3200137,5.6158283 4.6810661,5.3989386 5.0409649,5.5431472 L 8.9341014,7.0579141 C 9.7992428,6.4810799 10.592866,5.9042455 11.529526,5.5431472 L 12.106287,1.5768343 C 12.178957,1.2884172 12.538857,1 12.89991,1 h 6.128662 c 0.361052,0 0.720951,0.2884172 0.793623,0.5768343 l 0.505242,3.9663129 c 0.937814,0.3610983 1.802955,0.9379327 2.595425,1.5147669 L 26.74448,5.5431472 c 0.28838,-0.1442086 0.793623,0.072681 0.937813,0.3610983 l 3.100667,5.1199815 c 0.216862,0.361098 0.14419,0.793724 -0.14419,1.00946 l -3.244857,2.451546 c 0,0.505307 0.07267,1.00946 0.07267,1.514767 0,0.505307 0,1.082142 -0.07267,1.514767 z m -11.462548,3.749424 c 2.956477,0 5.407711,-2.307338 5.407711,-5.264191 0,-2.956853 -2.451234,-5.26419 -5.407711,-5.26419 -2.956476,0 -5.335038,2.307337 -5.335038,5.26419 0,2.956853 2.379715,5.264191 5.335038,5.264191 z"
     id="path4"
     inkscape:connector-curvature="0"
     style="fill:#444444" />
</svg>
