<?xml version="1.0" encoding="UTF-8" standalone="no"?>
<!-- Generated by IcoMoon.io -->

<svg
   xmlns:dc="http://purl.org/dc/elements/1.1/"
   xmlns:cc="http://creativecommons.org/ns#"
   xmlns:rdf="http://www.w3.org/1999/02/22-rdf-syntax-ns#"
   xmlns:svg="http://www.w3.org/2000/svg"
   xmlns="http://www.w3.org/2000/svg"
   xmlns:sodipodi="http://sodipodi.sourceforge.net/DTD/sodipodi-0.dtd"
   xmlns:inkscape="http://www.inkscape.org/namespaces/inkscape"
   version="1.1"
   width="32"
   height="32"
   viewBox="0 0 32 32"
   id="svg2"
   inkscape:version="0.48.4 r9939"
   sodipodi:docname="toggle-plus.svg">
  <metadata
     id="metadata10">
    <rdf:RDF>
      <cc:Work
         rdf:about="">
        <dc:format>image/svg+xml</dc:format>
        <dc:type
           rdf:resource="http://purl.org/dc/dcmitype/StillImage" />
      </cc:Work>
    </rdf:RDF>
  </metadata>
  <defs
     id="defs8" />
  <sodipodi:namedview
     pagecolor="#ffffff"
     bordercolor="#666666"
     borderopacity="1"
     objecttolerance="10"
     gridtolerance="10"
     guidetolerance="10"
     inkscape:pageopacity="0"
     inkscape:pageshadow="2"
     inkscape:window-width="1920"
     inkscape:window-height="1028"
     id="namedview6"
     showgrid="false"
     inkscape:zoom="7.375"
     inkscape:cx="-15.901307"
     inkscape:cy="-1.198333"
     inkscape:window-x="0"
     inkscape:window-y="25"
     inkscape:window-maximized="1"
     inkscape:current-layer="svg2" />
  <path
     d="M 6.6378132,1 C 5.0888382,1 3.7400456,1.5401367 2.6400911,2.6400911 1.5401367,3.7400456 1,5.0888382 1,6.6378132 L 1,25.362187 c 0,1.548975 0.5401367,2.897767 1.6400911,3.997722 C 3.7400456,30.459863 5.0888382,31 6.6378132,31 l 18.7243738,0 c 1.548975,0 2.863599,-0.540137 3.963553,-1.640091 C 30.425695,28.259954 31,26.911162 31,25.362187 L 31,6.6378132 C 31,5.0888382 30.425695,3.7400456 29.32574,2.6400911 28.225786,1.5401367 26.911162,1 25.362187,1 L 6.6378132,1 z m 8.0979498,4.9886105 2.494305,0 c 0.338953,-7.293e-4 0.641276,0.1280178 0.888383,0.3758542 0.247107,0.2478363 0.375854,0.5501598 0.375854,0.8883827 l 0,6.2528476 6.252848,0 c 0.338952,-7.3e-4 0.641275,0.128018 0.888382,0.375854 0.247107,0.247836 0.341686,0.515991 0.341686,0.854214 l 0,2.528474 c 7.29e-4,0.338952 -0.09385,0.607107 -0.341686,0.854214 -0.247836,0.247107 -0.55016,0.375854 -0.888382,0.375854 l -6.252848,0 0,6.252848 c 7.3e-4,0.338952 -0.128018,0.641275 -0.375854,0.888382 -0.247836,0.247107 -0.55016,0.375855 -0.888383,0.375855 l -2.494305,0 c -0.338952,7.29e-4 -0.607107,-0.128018 -0.854214,-0.375855 -0.247107,-0.247836 -0.375854,-0.55016 -0.375854,-0.888382 l 0,-6.252848 -6.2528476,0 C 6.9138952,18.495035 6.6115718,18.366287 6.3644647,18.118451 6.1173576,17.870615 5.9886105,17.60246 5.9886105,17.264237 l 0,-2.528474 c -7.29e-4,-0.338952 0.1280182,-0.607107 0.3758542,-0.854214 0.247836,-0.247107 0.5501595,-0.375854 0.8883827,-0.375854 l 6.2528476,0 0,-6.2528476 c -7.3e-4,-0.3389522 0.128018,-0.6412756 0.375854,-0.8883827 0.247836,-0.2471071 0.515991,-0.3758542 0.854214,-0.3758542 z"
     id="path4"
     style="fill:#444444;fill-opacity:1"
     inkscape:connector-curvature="0" />
</svg>
