<?xml version="1.0" encoding="UTF-8" standalone="no"?>
<!-- Generated by IcoMoon.io -->

<svg
   xmlns:dc="http://purl.org/dc/elements/1.1/"
   xmlns:cc="http://creativecommons.org/ns#"
   xmlns:rdf="http://www.w3.org/1999/02/22-rdf-syntax-ns#"
   xmlns:svg="http://www.w3.org/2000/svg"
   xmlns="http://www.w3.org/2000/svg"
   xmlns:sodipodi="http://sodipodi.sourceforge.net/DTD/sodipodi-0.dtd"
   xmlns:inkscape="http://www.inkscape.org/namespaces/inkscape"
   version="1.1"
   width="32"
   height="32"
   viewBox="0 0 32 32"
   id="svg2"
   inkscape:version="0.48.4 r9939"
   sodipodi:docname="toggle-minus.svg">
  <metadata
     id="metadata10">
    <rdf:RDF>
      <cc:Work
         rdf:about="">
        <dc:format>image/svg+xml</dc:format>
        <dc:type
           rdf:resource="http://purl.org/dc/dcmitype/StillImage" />
      </cc:Work>
    </rdf:RDF>
  </metadata>
  <defs
     id="defs8" />
  <sodipodi:namedview
     pagecolor="#ffffff"
     bordercolor="#666666"
     borderopacity="1"
     objecttolerance="10"
     gridtolerance="10"
     guidetolerance="10"
     inkscape:pageopacity="0"
     inkscape:pageshadow="2"
     inkscape:window-width="964"
     inkscape:window-height="676"
     id="namedview6"
     showgrid="false"
     inkscape:zoom="7.375"
     inkscape:cx="0.33898305"
     inkscape:cy="14.915254"
     inkscape:window-x="0"
     inkscape:window-y="25"
     inkscape:window-maximized="0"
     inkscape:current-layer="svg2" />
  <path
     d="M 1,25.374932 V 6.6250684 Q 1,4.3008859 2.650443,2.650443 4.3008859,1 6.6250684,1 H 25.374932 Q 27.699114,1 29.349557,2.650443 31,4.3008859 31,6.6250684 V 25.374932 q 0,2.324182 -1.650443,3.974625 Q 27.699114,31 25.374932,31 H 6.6250684 Q 4.3008859,31 2.650443,29.349557 1,27.699114 1,25.374932 z m 4.9994531,-8.124248 q 0,0.507492 0.3707755,0.879361 0.3707754,0.371869 0.8793613,0.370775 H 24.749316 q 0.507492,0 0.879362,-0.370775 0.371869,-0.370776 0.370775,-0.879361 V 14.75041 q 0,-0.507492 -0.370775,-0.879361 -0.370776,-0.371869 -0.879362,-0.370776 H 7.2495899 q -0.5074921,0 -0.8793613,0.370776 -0.3718692,0.370775 -0.3707755,0.879361 v 2.500274 z"
     id="path4"
     inkscape:connector-curvature="0"
     style="fill:#444444" />
</svg>
