<?xml version="1.0" encoding="UTF-8" standalone="no"?>
<!-- Generated by IcoMoon.io -->

<svg
   xmlns:dc="http://purl.org/dc/elements/1.1/"
   xmlns:cc="http://creativecommons.org/ns#"
   xmlns:rdf="http://www.w3.org/1999/02/22-rdf-syntax-ns#"
   xmlns:svg="http://www.w3.org/2000/svg"
   xmlns="http://www.w3.org/2000/svg"
   xmlns:sodipodi="http://sodipodi.sourceforge.net/DTD/sodipodi-0.dtd"
   xmlns:inkscape="http://www.inkscape.org/namespaces/inkscape"
   version="1.1"
   width="32"
   height="32"
   viewBox="0 0 32 32"
   id="svg2"
   inkscape:version="0.48.4 r9939"
   sodipodi:docname="tracking4.svg">
  <metadata
     id="metadata10">
    <rdf:RDF>
      <cc:Work
         rdf:about="">
        <dc:format>image/svg+xml</dc:format>
        <dc:type
           rdf:resource="http://purl.org/dc/dcmitype/StillImage" />
        <dc:title></dc:title>
      </cc:Work>
    </rdf:RDF>
  </metadata>
  <defs
     id="defs8" />
  <sodipodi:namedview
     pagecolor="#ffffff"
     bordercolor="#666666"
     borderopacity="1"
     objecttolerance="10"
     gridtolerance="10"
     guidetolerance="10"
     inkscape:pageopacity="0"
     inkscape:pageshadow="2"
     inkscape:window-width="1920"
     inkscape:window-height="1028"
     id="namedview6"
     showgrid="false"
     inkscape:zoom="18.627844"
     inkscape:cx="6.6379928"
     inkscape:cy="11.274791"
     inkscape:window-x="0"
     inkscape:window-y="25"
     inkscape:window-maximized="1"
     inkscape:current-layer="svg2" />
  <path
     d="m 29.64237,14.500053 2.35763,0 0,2.999894 -2.35763,0 C 28.92811,23.857434 23.856291,28.92811 17.499947,29.64237 l 0,2.35763 -2.999894,0 0,-2.35763 C 8.1425663,28.92811 3.0718902,23.856291 2.3576301,17.499947 l -2.3576301,0 0,-2.999894 2.3576301,0 C 3.0718902,8.1425663 8.1437091,3.0718902 14.500053,2.3576301 l 0,-2.3576301 2.999894,0 0,2.3576301 C 23.857434,3.0718902 28.92811,8.1437091 29.64237,14.500053 z M 15.999428,26.642477 c 5.856935,0 10.643049,-4.786114 10.643049,-10.643049 0,-5.856933 -4.786114,-10.6430478 -10.643049,-10.6430478 -5.856933,0 -10.6430478,4.7861148 -10.6430478,10.6430478 0,5.856935 4.7861148,10.643049 10.6430478,10.643049 z"
     id="path4"
     inkscape:connector-curvature="0"
     style="fill:#444444"
     sodipodi:nodetypes="cccccccccccccccccsssss" />
  <rect
     style="fill:#444444;fill-opacity:1;stroke:none"
     id="rect2990"
     width="3.75"
     height="3.75"
     x="0"
     y="14.125" />
  <rect
     y="14.125"
     x="28.25"
     height="3.75"
     width="3.75"
     id="rect2992"
     style="fill:#444444;fill-opacity:1;stroke:none" />
  <rect
     y="0"
     x="14.125"
     height="3.75"
     width="3.75"
     id="rect2994"
     style="fill:#444444;fill-opacity:1;stroke:none" />
  <rect
     style="fill:#444444;fill-opacity:1;stroke:none"
     id="rect2996"
     width="3.75"
     height="3.75"
     x="14.125"
     y="28.25" />
  <path
     sodipodi:nodetypes="cccc"
     inkscape:connector-curvature="0"
     id="path3799"
     d="M 15.874328,8.9250164 21.25,21.425016 c -3.632586,-2.529111 -7.137463,-2.6527 -10.5,-0.09539 z"
     style="fill:#444444;fill-opacity:1;stroke:none" />
</svg>
