<?xml version="1.0" encoding="UTF-8" standalone="no"?>
<!-- Generated by IcoMoon.io -->

<svg
   xmlns:dc="http://purl.org/dc/elements/1.1/"
   xmlns:cc="http://creativecommons.org/ns#"
   xmlns:rdf="http://www.w3.org/1999/02/22-rdf-syntax-ns#"
   xmlns:svg="http://www.w3.org/2000/svg"
   xmlns="http://www.w3.org/2000/svg"
   xmlns:sodipodi="http://sodipodi.sourceforge.net/DTD/sodipodi-0.dtd"
   xmlns:inkscape="http://www.inkscape.org/namespaces/inkscape"
   version="1.1"
   width="32"
   height="32"
   viewBox="0 0 32 32"
   id="svg2"
   inkscape:version="0.48.4 r9939"
   sodipodi:docname="users.svg">
  <metadata
     id="metadata12">
    <rdf:RDF>
      <cc:Work
         rdf:about="">
        <dc:format>image/svg+xml</dc:format>
        <dc:type
           rdf:resource="http://purl.org/dc/dcmitype/StillImage" />
      </cc:Work>
    </rdf:RDF>
  </metadata>
  <defs
     id="defs10" />
  <sodipodi:namedview
     pagecolor="#ffffff"
     bordercolor="#666666"
     borderopacity="1"
     objecttolerance="10"
     gridtolerance="10"
     guidetolerance="10"
     inkscape:pageopacity="0"
     inkscape:pageshadow="2"
     inkscape:window-width="1191"
     inkscape:window-height="742"
     id="namedview8"
     showgrid="false"
     inkscape:zoom="7.375"
     inkscape:cx="2.3389831"
     inkscape:cy="14.915254"
     inkscape:window-x="0"
     inkscape:window-y="25"
     inkscape:window-maximized="0"
     inkscape:current-layer="svg2" />
  <path
     id="path6"
     style="fill:#444444"
     d="m 9.5208331,23.470563 c 1.4399999,-0.953438 3.2308329,-1.678219 5.2024999,-2.120345 -0.391667,-0.469124 -0.7475,-0.99225 -1.054167,-1.555874 -0.791666,-1.456313 -1.210833,-3.060281 -1.210833,-4.638094 0,-2.268844 0,-4.411125 0.796667,-6.163594 0.773333,-1.701 2.165,-2.754843 4.146666,-3.150563 C 16.960833,3.825531 15.788333,2.5 12.666666,2.5 c -5,0 -5,3.399469 -5,7.59375 0,2.61225 1.4975004,5.223656 3.333334,6.27075 v 1.391343 c -5.653333,0.468282 -10,3.2805 -10,6.680814 h 7.2658331 c 0.3783333,-0.340032 0.7966666,-0.664032 1.255,-0.966938 z M 21,22.819188 v -1.391344 c 1.835833,-1.047094 3.333333,-3.659344 3.333333,-6.27075 0,-4.194281 0,-7.59375 -5,-7.59375 -5,0 -5,3.399469 -5,7.59375 0,2.61225 1.4975,5.223656 3.333333,6.27075 v 1.391344 c -5.653333,0.468281 -10,3.2805 -10,6.680812 H 31 c 0,-3.400312 -4.346667,-6.213375 -10,-6.680812 z"
     inkscape:connector-curvature="0" />
</svg>
