<?xml version="1.0" encoding="UTF-8" standalone="no"?>
<!-- Generated by IcoMoon.io -->

<svg
   xmlns:dc="http://purl.org/dc/elements/1.1/"
   xmlns:cc="http://creativecommons.org/ns#"
   xmlns:rdf="http://www.w3.org/1999/02/22-rdf-syntax-ns#"
   xmlns:svg="http://www.w3.org/2000/svg"
   xmlns="http://www.w3.org/2000/svg"
   xmlns:sodipodi="http://sodipodi.sourceforge.net/DTD/sodipodi-0.dtd"
   xmlns:inkscape="http://www.inkscape.org/namespaces/inkscape"
   version="1.1"
   width="32"
   height="32"
   viewBox="0 0 32 32"
   id="svg2"
   inkscape:version="0.48.4 r9939"
   sodipodi:docname="user.svg">
  <metadata
     id="metadata10">
    <rdf:RDF>
      <cc:Work
         rdf:about="">
        <dc:format>image/svg+xml</dc:format>
        <dc:type
           rdf:resource="http://purl.org/dc/dcmitype/StillImage" />
      </cc:Work>
    </rdf:RDF>
  </metadata>
  <defs
     id="defs8" />
  <sodipodi:namedview
     pagecolor="#ffffff"
     bordercolor="#666666"
     borderopacity="1"
     objecttolerance="10"
     gridtolerance="10"
     guidetolerance="10"
     inkscape:pageopacity="0"
     inkscape:pageshadow="2"
     inkscape:window-width="1118"
     inkscape:window-height="670"
     id="namedview6"
     showgrid="false"
     inkscape:zoom="7.375"
     inkscape:cx="-13.909524"
     inkscape:cy="28.661139"
     inkscape:window-x="0"
     inkscape:window-y="25"
     inkscape:window-maximized="0"
     inkscape:current-layer="svg2" />
  <path
     d="m 2.2490873,25.941301 q 0,-1.034709 0.068908,-2.021292 0.068908,-0.986583 0.2734432,-2.128482 0.2045355,-1.141899 0.5173545,-2.119732 0.312819,-0.977833 0.8400175,-1.904258 0.5271985,-0.926426 1.2108065,-1.581596 0.683608,-0.65517 1.6701911,-1.044553 0.9865831,-0.389383 2.1777015,-0.390477 0.1760971,0 0.8203301,0.420009 0.6442323,0.420009 1.4547173,0.937364 0.810486,0.517354 2.109888,0.937363 1.299402,0.420009 2.607554,0.420009 1.308153,0 2.607555,-0.420009 1.299402,-0.420009 2.109888,-0.937363 0.810485,-0.517355 1.454717,-0.937364 0.644232,-0.420009 0.82033,-0.420009 1.191118,0 2.177702,0.390477 0.986583,0.390477 1.670191,1.044553 0.683608,0.654077 1.210806,1.581596 0.527199,0.927519 0.840018,1.904258 0.312819,0.976739 0.517354,2.119732 0.204536,1.142992 0.273443,2.128482 0.06891,0.985489 0.06891,2.021292 0,2.343955 -1.42628,3.701327 Q 26.898351,31 24.535801,31 H 7.4652897 Q 5.1016467,31 3.6764608,29.642628 2.2512748,28.285256 2.2501811,25.941301 z M 8.498905,8.5 q 0,-3.1052209 2.197389,-5.3026105 Q 12.893684,1 15.998905,1 q 3.105221,0 5.30261,2.1973895 2.19739,2.1973896 2.19739,5.3026105 0,3.105221 -2.19739,5.30261 Q 19.104126,16 15.998905,16 12.893684,16 10.696294,13.80261 8.498905,11.605221 8.498905,8.5 z"
     id="path4"
     inkscape:connector-curvature="0"
     style="fill:#444444" />
</svg>
