<?xml version="1.0" encoding="UTF-8" standalone="no"?>
<!-- Created with Inkscape (http://www.inkscape.org/) -->

<svg
   xmlns:dc="http://purl.org/dc/elements/1.1/"
   xmlns:cc="http://creativecommons.org/ns#"
   xmlns:rdf="http://www.w3.org/1999/02/22-rdf-syntax-ns#"
   xmlns:svg="http://www.w3.org/2000/svg"
   xmlns="http://www.w3.org/2000/svg"
   xmlns:sodipodi="http://sodipodi.sourceforge.net/DTD/sodipodi-0.dtd"
   xmlns:inkscape="http://www.inkscape.org/namespaces/inkscape"
   width="32"
   height="32"
   id="svg4344"
   version="1.1"
   inkscape:version="0.48.4 r9939"
   sodipodi:docname="zoom-max.svg">
  <defs
     id="defs4346" />
  <sodipodi:namedview
     id="base"
     pagecolor="#ffffff"
     bordercolor="#666666"
     borderopacity="1.0"
     inkscape:pageopacity="0.0"
     inkscape:pageshadow="2"
     inkscape:zoom="5.3333334"
     inkscape:cx="-21.95185"
     inkscape:cy="-1.6394115"
     inkscape:document-units="px"
     inkscape:current-layer="layer1"
     showgrid="false"
     inkscape:window-width="1334"
     inkscape:window-height="749"
     inkscape:window-x="27"
     inkscape:window-y="42"
     inkscape:window-maximized="0"
     showguides="true"
     inkscape:guide-bbox="true">
    <sodipodi:guide
       orientation="0,1"
       position="-0.53125,12"
       id="guide3013" />
    <sodipodi:guide
       orientation="1,0"
       position="12,24.265625"
       id="guide3015" />
  </sodipodi:namedview>
  <metadata
     id="metadata4349">
    <rdf:RDF>
      <cc:Work
         rdf:about="">
        <dc:format>image/svg+xml</dc:format>
        <dc:type
           rdf:resource="http://purl.org/dc/dcmitype/StillImage" />
        <dc:title />
      </cc:Work>
    </rdf:RDF>
  </metadata>
  <g
     inkscape:label="Layer 1"
     inkscape:groupmode="layer"
     id="layer1"
     transform="translate(0,-1020.3622)">
    <path
       style="font-size:medium;font-style:normal;font-variant:normal;font-weight:normal;font-stretch:normal;text-indent:0;text-align:start;text-decoration:none;line-height:normal;letter-spacing:normal;word-spacing:normal;text-transform:none;direction:ltr;block-progression:tb;writing-mode:lr-tb;text-anchor:start;baseline-shift:baseline;color:#000000;fill:#444444;fill-opacity:1;stroke:none;stroke-width:2.71758532999999991;marker:none;visibility:visible;display:inline;overflow:visible;enable-background:accumulate;font-family:Sans;-inkscape-font-specification:Sans"
       d="m 0,1020.3622 0,1.7917 0,10.125 3.625,0 0,-8.2916 8.375,0 0,-3.6251 -10.2083333,0 -1.7916667,0 z m 20,0 0,3.6251 8.375,0 0,8.2916 3.625,0 0,-10.125 0,-1.7917 -1.791667,0 -10.208333,0 z m -20,20.0417 0,10.125 0,1.8333 1.7916667,0 10.2083333,0 0,-3.6249 -8.375,0 0,-8.3334 -3.625,0 z m 28.375,0 0,8.3334 -8.375,0 0,3.6249 10.208333,0 1.791667,0 0,-1.8333 0,-10.125 -3.625,0 z"
       id="path3034"
       inkscape:connector-curvature="0" />
  </g>
</svg>
