<?xml version="1.0" encoding="UTF-8" standalone="no"?>
<!-- Generated by IcoMoon.io -->

<svg
   xmlns:dc="http://purl.org/dc/elements/1.1/"
   xmlns:cc="http://creativecommons.org/ns#"
   xmlns:rdf="http://www.w3.org/1999/02/22-rdf-syntax-ns#"
   xmlns:svg="http://www.w3.org/2000/svg"
   xmlns="http://www.w3.org/2000/svg"
   xmlns:sodipodi="http://sodipodi.sourceforge.net/DTD/sodipodi-0.dtd"
   xmlns:inkscape="http://www.inkscape.org/namespaces/inkscape"
   version="1.1"
   width="32"
   height="32"
   viewBox="0 0 32 32"
   id="svg2"
   inkscape:version="0.92.3 (2405546, 2018-03-11)"
   sodipodi:docname="time5.svg"
   inkscape:export-filename="ruler3.png"
   inkscape:export-xdpi="67.5"
   inkscape:export-ydpi="67.5">
  <metadata
     id="metadata10">
    <rdf:RDF>
      <cc:Work
         rdf:about="">
        <dc:format>image/svg+xml</dc:format>
        <dc:type
           rdf:resource="http://purl.org/dc/dcmitype/StillImage" />
        <dc:title />
      </cc:Work>
    </rdf:RDF>
  </metadata>
  <defs
     id="defs8" />
  <sodipodi:namedview
     pagecolor="#ffffff"
     bordercolor="#666666"
     borderopacity="1"
     objecttolerance="10"
     gridtolerance="10"
     guidetolerance="10"
     inkscape:pageopacity="0"
     inkscape:pageshadow="2"
     inkscape:window-width="3840"
     inkscape:window-height="2028"
     id="namedview6"
     showgrid="false"
     inkscape:zoom="45.254831"
     inkscape:cx="12.345632"
     inkscape:cy="0.8531271"
     inkscape:window-x="0"
     inkscape:window-y="68"
     inkscape:window-maximized="1"
     inkscape:current-layer="svg2" />
  <path
     style="stroke-width:0.95345348"
     d="m 16,0.04046038 c -5.468407,0 -9.921875,4.45346742 -9.921875,9.92187462 0,5.468405 4.453468,9.921873 9.921875,9.921873 5.468407,0 9.921875,-4.453468 9.921875,-9.921873 0,-5.4684072 -4.453468,-9.92187462 -9.921875,-9.92187462 z m -0.951172,2.14843772 1.900391,0.013672 -0.06445,8.5214829 3.730468,3.628906 -1.324218,1.361328 -4.3125,-4.193359 z"
     id="path816"
     inkscape:connector-curvature="0" />
  <circle
     r="3.6886785"
     cy="28.301338"
     cx="16.105221"
     id="circle822"
     style="fill:#000000;fill-opacity:1;stroke:none;stroke-width:2.17052221;stroke-miterlimit:4;stroke-dasharray:none;stroke-dashoffset:0;stroke-opacity:1" />
  <path
     d="m 6.9860403,25.819469 c -1.4184656,0 -2.5822263,1.161613 -2.5822264,2.580079 0,1.418465 1.1637608,2.580078 2.5822264,2.580078 1.4184656,0 2.5800788,-1.161613 2.5800788,-2.580078 0,-1.418466 -1.1616132,-2.580079 -2.5800788,-2.580079 z m 0,1.172959 c 0.7842845,0 1.4071201,0.622835 1.4071201,1.40712 0,0.784284 -0.6228356,1.407119 -1.4071201,1.407119 -0.7842845,0 -1.4092683,-0.622835 -1.4092683,-1.407119 0,-0.784285 0.6249838,-1.40712 1.4092683,-1.40712 z"
     id="circle824"
     inkscape:connector-curvature="0"
     style="stroke-width:1.0999167" />
  <path
     d="m 9.2461927,27.924211 v 1 H 22.908947 v -1 z"
     id="path825"
     inkscape:connector-curvature="0"
     style="stroke-width:0.78263396"
     sodipodi:nodetypes="ccccc" />
  <path
     sodipodi:nodetypes="ccccc"
     style="stroke-width:0.44731972"
     inkscape:connector-curvature="0"
     id="path852"
     d="m 1.0220015,27.924211 v 1 h 4.4633086 v -1 z" />
  <path
     d="m 26.782993,27.924211 v 1 h 4.06242 v -1 z"
     id="path858"
     inkscape:connector-curvature="0"
     style="stroke-width:0.42675829"
     sodipodi:nodetypes="ccccc" />
  <path
     inkscape:connector-curvature="0"
     id="path832"
     d="m 25.398465,25.819469 c -1.422761,0 -2.590046,1.165131 -2.590046,2.587892 0,1.422759 1.167285,2.58789 2.590046,2.58789 1.42276,0 2.587891,-1.165131 2.587891,-2.58789 0,-1.422761 -1.165131,-2.587892 -2.587891,-2.587892 z m 0,1.176511 c 0.786659,0 1.41138,0.624721 1.41138,1.411381 0,0.786658 -0.624721,1.411379 -1.41138,1.411379 -0.786659,0 -1.413535,-0.624721 -1.413535,-1.411379 0,-0.78666 0.626876,-1.411381 1.413535,-1.411381 z"
     style="stroke-width:1.10324728" />
  <path
     style="stroke-width:1.34096611"
     sodipodi:nodetypes="ccccccccc"
     inkscape:connector-curvature="0"
     id="path831"
     d="m 34.060818,27.260057 -1.095071,-2.690435 c 0.08381,-0.463135 0.401724,-0.371751 0.663447,-0.217373 l 2.426669,3.5132 c 0.109793,0.146172 0.107873,0.33885 0.03422,0.483652 l -2.247726,3.522491 c -0.419679,0.31524 -0.582847,0.04034 -0.659618,-0.274718 l 0.91344,-2.674568 c 0.214233,-0.76035 0.225815,-0.959094 -0.03536,-1.662249 z" />
</svg>
