<?xml version="1.0" encoding="UTF-8" standalone="no"?>
<svg
   xmlns:dc="http://purl.org/dc/elements/1.1/"
   xmlns:cc="http://creativecommons.org/ns#"
   xmlns:rdf="http://www.w3.org/1999/02/22-rdf-syntax-ns#"
   xmlns:svg="http://www.w3.org/2000/svg"
   xmlns="http://www.w3.org/2000/svg"
   xmlns:sodipodi="http://sodipodi.sourceforge.net/DTD/sodipodi-0.dtd"
   xmlns:inkscape="http://www.inkscape.org/namespaces/inkscape"
   width="500"
   height="220"
   viewBox="0 0 500 220"
   version="1.1"
   id="svg2"
   inkscape:version="0.48.4 r9939"
   sodipodi:docname="OSGeo_logo.svg">
  <metadata
     id="metadata23">
    <rdf:RDF>
      <cc:Work
         rdf:about="">
        <dc:format>image/svg+xml</dc:format>
        <dc:type
           rdf:resource="http://purl.org/dc/dcmitype/StillImage" />
      </cc:Work>
    </rdf:RDF>
  </metadata>
  <sodipodi:namedview
     pagecolor="#ffffff"
     bordercolor="#666666"
     borderopacity="1"
     objecttolerance="10"
     gridtolerance="10"
     guidetolerance="10"
     inkscape:pageopacity="0"
     inkscape:pageshadow="2"
     inkscape:window-width="919"
     inkscape:window-height="703"
     id="namedview21"
     showgrid="false"
     inkscape:zoom="0.63168206"
     inkscape:cx="275.04869"
     inkscape:cy="106.32032"
     inkscape:window-x="584"
     inkscape:window-y="155"
     inkscape:window-maximized="0"
     inkscape:current-layer="svg2" />
  <!-- Generator: Sketch 3.6.1 (26313) - http://www.bohemiancoding.com/sketch -->
  <title
     id="title4">OSGeo_logo</title>
  <desc
     id="desc6">Created with Sketch.</desc>
  <defs
     id="defs8" />
  <g
     id="Page-1"
     style="fill:none;stroke:none"
     transform="matrix(1.6251249,0,0,1.6251249,7.506468,5.7100472)">
    <g
       id="OSGeo_logo">
      <path
         d="m 87.78,115.14 -0.92,4.86 -1.8,0 0.92,-4.86 -2.48,-8.64 1.88,0 1.24,4.56 c 0.106667,0.4 0.206666,0.79333 0.3,1.18 0.09333,0.38667 0.179999,0.77333 0.26,1.16 l 0.02,0 c 0.226667,-0.41333 0.479998,-0.83667 0.76,-1.27 0.280001,-0.43334 0.566665,-0.87666 0.86,-1.33 l 2.8,-4.3 2.02,0 -5.86,8.64 z m 12.42,-1.68 c 0,1.02667 -0.16333,1.95333 -0.49,2.78 -0.326669,0.82667 -0.759998,1.53333 -1.3,2.12 -0.540003,0.58667 -1.159997,1.03667 -1.86,1.35 -0.700004,0.31334 -1.42333,0.47 -2.17,0.47 -1.25334,0 -2.173331,-0.30333 -2.76,-0.91 -0.58667,-0.60667 -0.88,-1.48333 -0.88,-2.63 0,-0.98667 0.146665,-1.89333 0.44,-2.72 0.293334,-0.82667 0.699997,-1.54 1.22,-2.14 0.520002,-0.6 1.129996,-1.06666 1.83,-1.4 0.700003,-0.33333 1.456662,-0.5 2.27,-0.5 0.653336,0 1.213331,0.0867 1.68,0.26 0.466669,0.17333 0.849998,0.42 1.15,0.74 0.300001,0.32 0.519999,0.7 0.66,1.14 0.14,0.44 0.21,0.92 0.21,1.44 l 0,0 z m -1.88,0.2 c 0,-0.73334 -0.169999,-1.29333 -0.51,-1.68 -0.340002,-0.38667 -0.869997,-0.58 -1.59,-0.58 -0.54667,0 -1.043331,0.14 -1.49,0.42 -0.446669,0.28 -0.829999,0.65 -1.15,1.11 -0.320002,0.46 -0.566666,0.98666 -0.74,1.58 -0.173335,0.59334 -0.26,1.20333 -0.26,1.83 0,0.74667 0.159998,1.31667 0.48,1.71 0.320001,0.39334 0.859996,0.59 1.62,0.59 0.480002,0 0.939997,-0.12333 1.38,-0.37 0.440002,-0.24667 0.826665,-0.59 1.16,-1.03 0.333335,-0.44 0.599999,-0.96666 0.8,-1.58 0.200001,-0.61334 0.3,-1.28 0.3,-2 l 0,0 z m 11.48,1.58 c -0.0133,0.08 -0.0433,0.24 -0.09,0.48 -0.0467,0.24 -0.10333,0.52666 -0.17,0.86 -0.0667,0.33334 -0.13333,0.68333 -0.2,1.05 -0.0667,0.36667 -0.13,0.71333 -0.19,1.04 -0.06,0.32667 -0.11,0.61333 -0.15,0.86 -0.04,0.24667 -0.0667,0.40333 -0.08,0.47 l -1.76,0 c 0.0667,-0.33334 0.18,-0.80333 0.34,-1.41 0.16,-0.60667 0.41333,-1.44333 0.76,-2.51 l -0.04,0 c -0.24,0.52 -0.51333,1.03 -0.82,1.53 -0.30667,0.5 -0.65333,0.94 -1.04,1.32 -0.38667,0.38 -0.80666,0.68666 -1.26,0.92 -0.45334,0.23334 -0.94,0.35 -1.46,0.35 -0.92001,0 -1.54667,-0.30333 -1.88,-0.91 -0.33333,-0.60667 -0.4,-1.42999 -0.2,-2.47 l 1.28,-6.76 1.78,0 -1.22,6.36 c -0.14667,0.78667 -0.15,1.35666 -0.01,1.71 0.14,0.35333 0.43,0.53 0.87,0.53 0.45334,0 0.91666,-0.21666 1.39,-0.65 0.47333,-0.43334 0.91,-0.97 1.31,-1.61 0.4,-0.64 0.74667,-1.33 1.04,-2.07 0.29333,-0.74 0.5,-1.41666 0.62,-2.03 l 0.42,-2.24 1.76,0 -1,5.18 z m 8.34,-3.62 c -0.46667,-0.13333 -0.92666,-0.0167 -1.38,0.35 -0.45334,0.36667 -0.87666,0.86333 -1.27,1.49 -0.39334,0.62667 -0.73667,1.32666 -1.03,2.1 -0.29334,0.77334 -0.50667,1.50666 -0.64,2.2 l -0.42,2.24 -1.76,0 1,-5.18 c 0.14667,-0.8 0.29333,-1.59333 0.44,-2.38 0.14667,-0.78667 0.29333,-1.58 0.44,-2.38 l 1.72,0 c -0.08,0.42667 -0.19667,0.92666 -0.35,1.5 -0.15333,0.57334 -0.37667,1.29333 -0.67,2.16 l 0.04,0.02 c 0.28,-0.6 0.56667,-1.15666 0.86,-1.67 0.29333,-0.51334 0.61,-0.94333 0.95,-1.29 0.34,-0.34667 0.71,-0.60333 1.11,-0.77 0.4,-0.16667 0.84,-0.21 1.32,-0.13 l -0.36,1.74 z m 16.5,-0.4 c 0,1.28001 -0.20333,2.46999 -0.61,3.57 -0.40667,1.10001 -0.96,2.05 -1.66,2.85 -0.7,0.8 -1.52333,1.42666 -2.47,1.88 -0.94667,0.45334 -1.95333,0.68 -3.02,0.68 -1.64001,0 -2.85333,-0.43333 -3.64,-1.3 -0.78667,-0.86667 -1.18,-2.07333 -1.18,-3.62 0,-1.21334 0.19666,-2.36666 0.59,-3.46 0.39334,-1.09334 0.93333,-2.04666 1.62,-2.86 0.68667,-0.81334 1.49999,-1.46 2.44,-1.94 0.94,-0.48 1.96333,-0.72 3.07,-0.72 1.57334,0 2.77666,0.42666 3.61,1.28 0.83334,0.85334 1.25,2.06666 1.25,3.64 l 0,0 z m -1.94,0.2 c 0,-1.08 -0.26333,-1.93333 -0.79,-2.56 -0.52667,-0.62667 -1.33666,-0.94 -2.43,-0.94 -0.8,0 -1.53666,0.19 -2.21,0.57 -0.67334,0.38 -1.25,0.89666 -1.73,1.55 -0.48,0.65334 -0.85667,1.40666 -1.13,2.26 -0.27334,0.85334 -0.41,1.76 -0.41,2.72 0,1.09334 0.26333,1.95666 0.79,2.59 0.52667,0.63334 1.30999,0.95 2.35,0.95 0.76,0 1.48,-0.18333 2.16,-0.55 0.68,-0.36667 1.27,-0.87333 1.77,-1.52 0.5,-0.64667 0.89666,-1.40333 1.19,-2.27 0.29333,-0.86667 0.44,-1.79999 0.44,-2.8 l 0,0 z m 11.76,1.46 c 0,0.92001 -0.12333,1.81333 -0.37,2.68 -0.24667,0.86667 -0.62333,1.64 -1.13,2.32 -0.50667,0.68 -1.15333,1.22667 -1.94,1.64 -0.78667,0.41334 -1.72666,0.62 -2.82,0.62 -0.48,0 -0.94667,-0.04 -1.4,-0.12 l -0.92,4.92 -1.76,0 1.94,-10.12 c 0.0133,-0.08 0.0433,-0.24 0.09,-0.48 0.0467,-0.24 0.1,-0.52333 0.16,-0.85 0.06,-0.32667 0.12333,-0.67667 0.19,-1.05 0.0667,-0.37333 0.13,-0.72333 0.19,-1.05 0.06,-0.32667 0.11333,-0.61 0.16,-0.85 0.0467,-0.24 0.0767,-0.4 0.09,-0.48 l 1.76,0 c -0.04,0.21333 -0.09,0.44 -0.15,0.68 -0.06,0.24 -0.13333,0.51666 -0.22,0.83 -0.0867,0.31334 -0.19,0.67 -0.31,1.07 -0.12,0.4 -0.26667,0.86666 -0.44,1.4 l 0.04,0.02 c 0.25333,-0.58667 0.54,-1.13333 0.86,-1.64 0.32,-0.50667 0.67333,-0.95 1.06,-1.33 0.38667,-0.38 0.80666,-0.68 1.26,-0.9 0.45333,-0.22 0.93333,-0.33 1.44,-0.33 0.72,0 1.27,0.24 1.65,0.72 0.38,0.48 0.57,1.24666 0.57,2.3 l 0,0 z m -1.82,0.34 c 0,-0.65334 -0.0933,-1.12 -0.28,-1.4 -0.18667,-0.28 -0.43333,-0.42 -0.74,-0.42 -0.30667,0 -0.62,0.10333 -0.94,0.31 -0.32,0.20667 -0.62667,0.47667 -0.92,0.81 -0.29334,0.33334 -0.57667,0.72 -0.85,1.16 -0.27334,0.44 -0.52,0.89333 -0.74,1.36 -0.22,0.46667 -0.40667,0.93333 -0.56,1.4 -0.15333,0.46667 -0.27,0.89333 -0.35,1.28 l -0.16,0.76 c 0.21333,0.0667 0.45333,0.12333 0.72,0.17 0.26667,0.0467 0.50666,0.07 0.72,0.07 0.73334,0 1.35666,-0.17 1.87,-0.51 0.51334,-0.34 0.93666,-0.77666 1.27,-1.31 0.33333,-0.53334 0.57667,-1.12666 0.73,-1.78 0.15333,-0.65334 0.23,-1.28666 0.23,-1.9 l 0,0 z m 10.96,-1.08 c 0,2.16001 -2.14665,3.32 -6.44,3.48 -0.0267,0.14667 -0.05,0.33 -0.07,0.55 -0.02,0.22 -0.03,0.42333 -0.03,0.61 0,0.38667 0.0367,0.70333 0.11,0.95 0.0733,0.24667 0.19333,0.44333 0.36,0.59 0.16667,0.14667 0.38666,0.25 0.66,0.31 0.27333,0.06 0.61,0.09 1.01,0.09 0.46667,0 0.94,-0.05 1.42,-0.15 0.48,-0.1 0.93333,-0.23667 1.36,-0.41 l 0.06,1.4 c -0.50667,0.2 -1.04666,0.35333 -1.62,0.46 -0.57334,0.10667 -1.18666,0.16 -1.84,0.16 -1.14667,0 -1.99,-0.25333 -2.53,-0.76 -0.54,-0.50667 -0.81,-1.32666 -0.81,-2.46 0,-0.96 0.13,-1.87 0.39,-2.73 0.26,-0.86 0.62666,-1.61333 1.1,-2.26 0.47333,-0.64667 1.04333,-1.15667 1.71,-1.53 0.66667,-0.37333 1.41333,-0.56 2.24,-0.56 0.53334,0 0.98333,0.0633 1.35,0.19 0.36667,0.12667 0.66666,0.29333 0.9,0.5 0.23333,0.20667 0.40333,0.44667 0.51,0.72 0.10667,0.27333 0.16,0.55667 0.16,0.85 l 0,0 z m -1.78,0.22 c 0,-0.36 -0.12333,-0.63667 -0.37,-0.83 -0.24667,-0.19333 -0.57,-0.29 -0.97,-0.29 -0.4,0 -0.76333,0.08 -1.09,0.24 -0.32667,0.16 -0.62,0.38 -0.88,0.66 -0.26,0.28 -0.48333,0.60666 -0.67,0.98 -0.18667,0.37334 -0.34,0.76666 -0.46,1.18 1.54667,-0.0667 2.67333,-0.25666 3.38,-0.57 0.70667,-0.31334 1.06,-0.77 1.06,-1.37 l 0,0 z m 10.32,7.64 -1.76,0 1.22,-6.36 c 0.14667,-0.78667 0.15,-1.35667 0.01,-1.71 -0.14,-0.35333 -0.43667,-0.53 -0.89,-0.53 -0.46667,0 -0.93,0.21666 -1.39,0.65 -0.46,0.43333 -0.89,0.97 -1.29,1.61 -0.4,0.64 -0.74666,1.33 -1.04,2.07 -0.29334,0.74 -0.5,1.41666 -0.62,2.03 l -0.42,2.24 -1.76,0 1,-5.18 c 0.0133,-0.08 0.0433,-0.24 0.09,-0.48 0.0467,-0.24 0.1,-0.52667 0.16,-0.86 0.06,-0.33333 0.12333,-0.68333 0.19,-1.05 0.0667,-0.36667 0.13,-0.71333 0.19,-1.04 0.06,-0.32667 0.11333,-0.61 0.16,-0.85 0.0467,-0.24 0.0767,-0.4 0.09,-0.48 l 1.74,0 c -0.0667,0.33333 -0.18,0.80333 -0.34,1.41 -0.16,0.60667 -0.41333,1.44333 -0.76,2.51 l 0.04,0 c 0.24,-0.52 0.51666,-1.03 0.83,-1.53 0.31333,-0.5 0.66333,-0.94 1.05,-1.32 0.38667,-0.38 0.80666,-0.68666 1.26,-0.92 0.45333,-0.23334 0.94,-0.35 1.46,-0.35 0.92,0 1.54333,0.30333 1.87,0.91 0.32667,0.60667 0.39667,1.43 0.21,2.47 l -1.3,6.76 z m 14.36,-11.86 c -0.33334,-0.12 -0.66667,-0.20333 -1,-0.25 -0.33334,-0.0467 -0.62667,-0.07 -0.88,-0.07 -0.50667,0 -0.94,0.0667 -1.3,0.2 -0.36,0.13333 -0.66,0.30333 -0.9,0.51 -0.24,0.20667 -0.41667,0.44333 -0.53,0.71 -0.11333,0.26667 -0.17,0.53333 -0.17,0.8 0,0.41333 0.10333,0.76333 0.31,1.05 0.20667,0.28667 0.46,0.55333 0.76,0.8 0.3,0.24667 0.63,0.48667 0.99,0.72 0.36,0.23333 0.69,0.49333 0.99,0.78 0.3,0.28667 0.55333,0.62 0.76,1 0.20667,0.38 0.31,0.83666 0.31,1.37 0,0.62667 -0.13,1.21 -0.39,1.75 -0.26,0.54 -0.62667,1.01 -1.1,1.41 -0.47334,0.4 -1.03666,0.71333 -1.69,0.94 -0.65334,0.22667 -1.37333,0.34 -2.16,0.34 -0.36,0 -0.73667,-0.0233 -1.13,-0.07 -0.39334,-0.0467 -0.75667,-0.12333 -1.09,-0.23 l 0.34,-1.76 c 0.28,0.12 0.60333,0.22333 0.97,0.31 0.36667,0.0867 0.72333,0.13 1.07,0.13 1.04,0 1.84333,-0.23 2.41,-0.69 0.56667,-0.46 0.85,-1.07 0.85,-1.83 0,-0.38667 -0.1,-0.72 -0.3,-1 -0.2,-0.28 -0.45333,-0.53666 -0.76,-0.77 -0.30667,-0.23334 -0.63667,-0.46333 -0.99,-0.69 -0.35334,-0.22667 -0.68333,-0.48333 -0.99,-0.77 -0.30667,-0.28667 -0.56,-0.61666 -0.76,-0.99 -0.2,-0.37333 -0.3,-0.83333 -0.3,-1.38 0,-0.56 0.10667,-1.09 0.32,-1.59 0.21333,-0.5 0.53,-0.94 0.95,-1.32 0.42,-0.38 0.94,-0.68333 1.56,-0.91 0.62,-0.22667 1.33666,-0.34 2.15,-0.34 0.34667,0 0.67666,0.0133 0.99,0.04 0.31333,0.0267 0.66333,0.08 1.05,0.16 l -0.34,1.64 z m 10.1,5.32 c 0,1.02667 -0.16333,1.95333 -0.49,2.78 -0.32667,0.82667 -0.76,1.53333 -1.3,2.12 -0.54,0.58667 -1.16,1.03667 -1.86,1.35 -0.7,0.31334 -1.42333,0.47 -2.17,0.47 -1.25334,0 -2.17333,-0.30333 -2.76,-0.91 -0.58667,-0.60667 -0.88,-1.48333 -0.88,-2.63 0,-0.98667 0.14666,-1.89333 0.44,-2.72 0.29333,-0.82667 0.7,-1.54 1.22,-2.14 0.52,-0.6 1.13,-1.06666 1.83,-1.4 0.7,-0.33333 1.45666,-0.5 2.27,-0.5 0.65334,0 1.21333,0.0867 1.68,0.26 0.46667,0.17333 0.85,0.42 1.15,0.74 0.3,0.32 0.52,0.7 0.66,1.14 0.14,0.44 0.21,0.92 0.21,1.44 l 0,0 z m -1.88,0.2 c 0,-0.73334 -0.17,-1.29333 -0.51,-1.68 -0.34,-0.38667 -0.87,-0.58 -1.59,-0.58 -0.54667,0 -1.04333,0.14 -1.49,0.42 -0.44667,0.28 -0.83,0.65 -1.15,1.11 -0.32,0.46 -0.56667,0.98666 -0.74,1.58 -0.17333,0.59334 -0.26,1.20333 -0.26,1.83 0,0.74667 0.16,1.31667 0.48,1.71 0.32,0.39334 0.86,0.59 1.62,0.59 0.48,0 0.94,-0.12333 1.38,-0.37 0.44,-0.24667 0.82666,-0.59 1.16,-1.03 0.33333,-0.44 0.6,-0.96666 0.8,-1.58 0.2,-0.61334 0.3,-1.28 0.3,-2 l 0,0 z m 11.48,1.58 c -0.0133,0.08 -0.0433,0.24 -0.09,0.48 -0.0467,0.24 -0.10333,0.52666 -0.17,0.86 -0.0667,0.33334 -0.13333,0.68333 -0.2,1.05 -0.0667,0.36667 -0.13,0.71333 -0.19,1.04 -0.06,0.32667 -0.11,0.61333 -0.15,0.86 -0.04,0.24667 -0.0667,0.40333 -0.08,0.47 l -1.76,0 c 0.0667,-0.33334 0.18,-0.80333 0.34,-1.41 0.16,-0.60667 0.41333,-1.44333 0.76,-2.51 l -0.04,0 c -0.24,0.52 -0.51333,1.03 -0.82,1.53 -0.30667,0.5 -0.65333,0.94 -1.04,1.32 -0.38667,0.38 -0.80667,0.68666 -1.26,0.92 -0.45334,0.23334 -0.94,0.35 -1.46,0.35 -0.92001,0 -1.54667,-0.30333 -1.88,-0.91 -0.33334,-0.60667 -0.4,-1.42999 -0.2,-2.47 l 1.28,-6.76 1.78,0 -1.22,6.36 c -0.14667,0.78667 -0.15,1.35666 -0.01,1.71 0.14,0.35333 0.43,0.53 0.87,0.53 0.45333,0 0.91666,-0.21666 1.39,-0.65 0.47334,-0.43334 0.91,-0.97 1.31,-1.61 0.4,-0.64 0.74666,-1.33 1.04,-2.07 0.29333,-0.74 0.5,-1.41666 0.62,-2.03 l 0.42,-2.24 1.76,0 -1,5.18 z m 8.34,-3.62 c -0.46667,-0.13333 -0.92667,-0.0167 -1.38,0.35 -0.45334,0.36667 -0.87667,0.86333 -1.27,1.49 -0.39334,0.62667 -0.73667,1.32666 -1.03,2.1 -0.29334,0.77334 -0.50667,1.50666 -0.64,2.2 l -0.42,2.24 -1.76,0 1,-5.18 c 0.14667,-0.8 0.29333,-1.59333 0.44,-2.38 0.14667,-0.78667 0.29333,-1.58 0.44,-2.38 l 1.72,0 c -0.08,0.42667 -0.19667,0.92666 -0.35,1.5 -0.15333,0.57334 -0.37667,1.29333 -0.67,2.16 l 0.04,0.02 c 0.28,-0.6 0.56666,-1.15666 0.86,-1.67 0.29333,-0.51334 0.61,-0.94333 0.95,-1.29 0.34,-0.34667 0.71,-0.60333 1.11,-0.77 0.4,-0.16667 0.84,-0.21 1.32,-0.13 l -0.36,1.74 z m 7.06,0.14 c -0.26667,-0.12 -0.55,-0.21333 -0.85,-0.28 -0.3,-0.0667 -0.62333,-0.1 -0.97,-0.1 -0.62667,0 -1.17333,0.16 -1.64,0.48 -0.46667,0.32 -0.85333,0.72666 -1.16,1.22 -0.30667,0.49334 -0.53333,1.04333 -0.68,1.65 -0.14667,0.60667 -0.22,1.19 -0.22,1.75 0,0.26667 0.0267,0.52333 0.08,0.77 0.0533,0.24667 0.15667,0.47 0.31,0.67 0.15333,0.2 0.36333,0.36 0.63,0.48 0.26667,0.12 0.62,0.18 1.06,0.18 0.38667,0 0.77,-0.04 1.15,-0.12 0.38,-0.08 0.72333,-0.19333 1.03,-0.34 l 0,1.52 c -0.36,0.14667 -0.77,0.27 -1.23,0.37 -0.46,0.1 -0.94333,0.15 -1.45,0.15 -0.64,0 -1.18333,-0.0833 -1.63,-0.25 -0.44667,-0.16667 -0.80333,-0.39667 -1.07,-0.69 -0.26667,-0.29333 -0.46,-0.64 -0.58,-1.04 -0.12,-0.4 -0.18,-0.83333 -0.18,-1.3 0,-0.94667 0.13,-1.84333 0.39,-2.69 0.26,-0.84667 0.63333,-1.58666 1.12,-2.22 0.48667,-0.63334 1.08333,-1.13666 1.79,-1.51 0.70667,-0.37334 1.50666,-0.56 2.4,-0.56 0.41333,0 0.79,0.0267 1.13,0.08 0.34,0.0533 0.66333,0.12667 0.97,0.22 l -0.4,1.56 z m 8.66,0.38 c 0,2.16001 -2.14664,3.32 -6.44,3.48 -0.0267,0.14667 -0.05,0.33 -0.07,0.55 -0.02,0.22 -0.03,0.42333 -0.03,0.61 0,0.38667 0.0367,0.70333 0.11,0.95 0.0733,0.24667 0.19333,0.44333 0.36,0.59 0.16667,0.14667 0.38666,0.25 0.66,0.31 0.27333,0.06 0.61,0.09 1.01,0.09 0.46667,0 0.94,-0.05 1.42,-0.15 0.48,-0.1 0.93333,-0.23667 1.36,-0.41 l 0.06,1.4 c -0.50667,0.2 -1.04666,0.35333 -1.62,0.46 -0.57334,0.10667 -1.18666,0.16 -1.84,0.16 -1.14667,0 -1.99,-0.25333 -2.53,-0.76 -0.54,-0.50667 -0.81,-1.32666 -0.81,-2.46 0,-0.96 0.13,-1.87 0.39,-2.73 0.26,-0.86 0.62666,-1.61333 1.1,-2.26 0.47334,-0.64667 1.04333,-1.15667 1.71,-1.53 0.66667,-0.37333 1.41333,-0.56 2.24,-0.56 0.53334,0 0.98333,0.0633 1.35,0.19 0.36667,0.12667 0.66666,0.29333 0.9,0.5 0.23333,0.20667 0.40333,0.44667 0.51,0.72 0.10667,0.27333 0.16,0.55667 0.16,0.85 l 0,0 z m -1.78,0.22 c 0,-0.36 -0.12333,-0.63667 -0.37,-0.83 -0.24667,-0.19333 -0.57,-0.29 -0.97,-0.29 -0.4,0 -0.76333,0.08 -1.09,0.24 -0.32667,0.16 -0.62,0.38 -0.88,0.66 -0.26,0.28 -0.48333,0.60666 -0.67,0.98 -0.18667,0.37334 -0.34,0.76666 -0.46,1.18 1.54667,-0.0667 2.67333,-0.25666 3.38,-0.57 0.70667,-0.31334 1.06,-0.77 1.06,-1.37 l 0,0 z m 16.72,-3.92 c -0.92,-0.32 -1.84,-0.48 -2.76,-0.48 -0.98667,0 -1.82666,0.21667 -2.52,0.65 -0.69334,0.43334 -1.26,0.99666 -1.7,1.69 -0.44,0.69334 -0.76333,1.47 -0.97,2.33 -0.20667,0.86 -0.31,1.71666 -0.31,2.57 0,0.49334 0.0533,0.94333 0.16,1.35 0.10667,0.40667 0.29,0.75666 0.55,1.05 0.26,0.29333 0.60666,0.52 1.04,0.68 0.43333,0.16 0.97666,0.24 1.63,0.24 0.56,0 1.10666,-0.0633 1.64,-0.19 0.53334,-0.12667 1.02,-0.28333 1.46,-0.47 l 0.06,1.6 c -0.54667,0.21333 -1.14333,0.38333 -1.79,0.51 -0.64667,0.12667 -1.27666,0.19 -1.89,0.19 -0.96001,0 -1.75333,-0.13 -2.38,-0.39 -0.62667,-0.26 -1.12333,-0.60666 -1.49,-1.04 -0.36667,-0.43333 -0.62333,-0.92666 -0.77,-1.48 -0.14667,-0.55334 -0.22,-1.13 -0.22,-1.73 0,-1.18667 0.16666,-2.32999 0.5,-3.43 0.33333,-1.10001 0.82333,-2.07333 1.47,-2.92 0.64667,-0.84667 1.45333,-1.52333 2.42,-2.03 0.96667,-0.50667 2.08999,-0.76 3.37,-0.76 0.57334,0 1.10666,0.0333 1.6,0.1 0.49334,0.0667 0.96,0.16667 1.4,0.3 l -0.5,1.66 z m 9.14,5.02 c 0,1.02667 -0.16333,1.95333 -0.49,2.78 -0.32667,0.82667 -0.76,1.53333 -1.3,2.12 -0.54,0.58667 -1.16,1.03667 -1.86,1.35 -0.7,0.31334 -1.42333,0.47 -2.17,0.47 -1.25334,0 -2.17333,-0.30333 -2.76,-0.91 -0.58667,-0.60667 -0.88,-1.48333 -0.88,-2.63 0,-0.98667 0.14666,-1.89333 0.44,-2.72 0.29333,-0.82667 0.7,-1.54 1.22,-2.14 0.52,-0.6 1.13,-1.06666 1.83,-1.4 0.7,-0.33333 1.45666,-0.5 2.27,-0.5 0.65334,0 1.21333,0.0867 1.68,0.26 0.46667,0.17333 0.85,0.42 1.15,0.74 0.3,0.32 0.52,0.7 0.66,1.14 0.14,0.44 0.21,0.92 0.21,1.44 l 0,0 z m -1.88,0.2 c 0,-0.73334 -0.17,-1.29333 -0.51,-1.68 -0.34,-0.38667 -0.87,-0.58 -1.59,-0.58 -0.54667,0 -1.04333,0.14 -1.49,0.42 -0.44667,0.28 -0.83,0.65 -1.15,1.11 -0.32,0.46 -0.56667,0.98666 -0.74,1.58 -0.17333,0.59334 -0.26,1.20333 -0.26,1.83 0,0.74667 0.16,1.31667 0.48,1.71 0.32,0.39334 0.86,0.59 1.62,0.59 0.48,0 0.94,-0.12333 1.38,-0.37 0.44,-0.24667 0.82666,-0.59 1.16,-1.03 0.33333,-0.44 0.6,-0.96666 0.8,-1.58 0.2,-0.61334 0.3,-1.28 0.3,-2 l 0,0 z M 259,120 l -1.78,0 1.22,-6.36 c 0.14667,-0.78667 0.15333,-1.36 0.02,-1.72 -0.13333,-0.36 -0.40667,-0.54 -0.82,-0.54 -0.4,0 -0.82333,0.18667 -1.27,0.56 -0.44667,0.37333 -0.87,0.86333 -1.27,1.47 -0.4,0.60667 -0.75667,1.29 -1.07,2.05 -0.31334,0.76 -0.54333,1.52666 -0.69,2.3 l -0.42,2.24 -1.76,0 1.22,-6.36 c 0.14667,-0.78667 0.15333,-1.36 0.02,-1.72 -0.13333,-0.36 -0.41333,-0.54 -0.84,-0.54 -0.4,0 -0.82,0.18667 -1.26,0.56 -0.44,0.37333 -0.86,0.86333 -1.26,1.47 -0.4,0.60667 -0.75667,1.29 -1.07,2.05 -0.31334,0.76 -0.54333,1.52666 -0.69,2.3 l -0.42,2.24 -1.76,0 1,-5.18 c 0.0133,-0.08 0.0433,-0.24 0.09,-0.48 0.0467,-0.24 0.1,-0.52667 0.16,-0.86 0.06,-0.33333 0.12333,-0.68333 0.19,-1.05 0.0667,-0.36667 0.13,-0.71333 0.19,-1.04 0.06,-0.32667 0.11333,-0.61 0.16,-0.85 0.0467,-0.24 0.0767,-0.4 0.09,-0.48 l 1.74,0 c -0.0667,0.33333 -0.18,0.80666 -0.34,1.42 -0.16,0.61334 -0.41333,1.44666 -0.76,2.5 l 0.04,0 c 0.22667,-0.52 0.49333,-1.02666 0.8,-1.52 0.30667,-0.49334 0.65,-0.93333 1.03,-1.32 0.38,-0.38667 0.79666,-0.69666 1.25,-0.93 0.45334,-0.23334 0.93333,-0.35 1.44,-0.35 0.64,0 1.13333,0.16666 1.48,0.5 0.34667,0.33334 0.52,0.81333 0.52,1.44 0,0.30667 -0.04,0.62333 -0.12,0.95 -0.08,0.32667 -0.2,0.74333 -0.36,1.25 l 0.04,0.02 c 0.22667,-0.53334 0.49333,-1.05 0.8,-1.55 0.30667,-0.5 0.65,-0.94333 1.03,-1.33 0.38,-0.38667 0.79666,-0.69666 1.25,-0.93 0.45334,-0.23334 0.93333,-0.35 1.44,-0.35 0.90667,0 1.52,0.30333 1.84,0.91 0.32,0.60667 0.38,1.43 0.18,2.47 L 259,120 z m 12.14,-7.12 c 0,0.92001 -0.12333,1.81333 -0.37,2.68 -0.24667,0.86667 -0.62333,1.64 -1.13,2.32 -0.50667,0.68 -1.15333,1.22667 -1.94,1.64 -0.78667,0.41334 -1.72666,0.62 -2.82,0.62 -0.48,0 -0.94666,-0.04 -1.4,-0.12 l -0.92,4.92 -1.76,0 1.94,-10.12 c 0.0133,-0.08 0.0433,-0.24 0.09,-0.48 0.0467,-0.24 0.1,-0.52333 0.16,-0.85 0.06,-0.32667 0.12333,-0.67667 0.19,-1.05 0.0667,-0.37333 0.13,-0.72333 0.19,-1.05 0.06,-0.32667 0.11333,-0.61 0.16,-0.85 0.0467,-0.24 0.0767,-0.4 0.09,-0.48 l 1.76,0 c -0.04,0.21333 -0.09,0.44 -0.15,0.68 -0.06,0.24 -0.13333,0.51666 -0.22,0.83 -0.0867,0.31334 -0.19,0.67 -0.31,1.07 -0.12,0.4 -0.26667,0.86666 -0.44,1.4 l 0.04,0.02 c 0.25333,-0.58667 0.54,-1.13333 0.86,-1.64 0.32,-0.50667 0.67333,-0.95 1.06,-1.33 0.38667,-0.38 0.80666,-0.68 1.26,-0.9 0.45334,-0.22 0.93333,-0.33 1.44,-0.33 0.72,0 1.27,0.24 1.65,0.72 0.38,0.48 0.57,1.24666 0.57,2.3 l 0,0 z m -1.82,0.34 c 0,-0.65334 -0.0933,-1.12 -0.28,-1.4 -0.18667,-0.28 -0.43333,-0.42 -0.74,-0.42 -0.30667,0 -0.62,0.10333 -0.94,0.31 -0.32,0.20667 -0.62667,0.47667 -0.92,0.81 -0.29334,0.33334 -0.57667,0.72 -0.85,1.16 -0.27334,0.44 -0.52,0.89333 -0.74,1.36 -0.22,0.46667 -0.40667,0.93333 -0.56,1.4 -0.15333,0.46667 -0.27,0.89333 -0.35,1.28 l -0.16,0.76 c 0.21333,0.0667 0.45333,0.12333 0.72,0.17 0.26667,0.0467 0.50667,0.07 0.72,0.07 0.73334,0 1.35666,-0.17 1.87,-0.51 0.51334,-0.34 0.93666,-0.77666 1.27,-1.31 0.33333,-0.53334 0.57667,-1.12666 0.73,-1.78 0.15333,-0.65334 0.23,-1.28666 0.23,-1.9 l 0,0 z m 11.9,-3.02 c -0.26667,1.38667 -0.49333,2.56666 -0.68,3.54 -0.18667,0.97334 -0.34667,1.82333 -0.48,2.55 -0.13333,0.72667 -0.25333,1.37666 -0.36,1.95 -0.10667,0.57334 -0.21333,1.16 -0.32,1.76 l -1.78,0 c 0.17333,-0.84 0.56,-2.18666 1.16,-4.04 l -0.04,-0.02 c -0.18667,0.38667 -0.41667,0.82666 -0.69,1.32 -0.27334,0.49334 -0.60333,0.95667 -0.99,1.39 -0.38667,0.43334 -0.82666,0.8 -1.32,1.1 -0.49334,0.3 -1.04,0.45 -1.64,0.45 -0.72,0 -1.27,-0.24 -1.65,-0.72 -0.38,-0.48 -0.57,-1.24666 -0.57,-2.3 0,-0.92 0.12,-1.81666 0.36,-2.69 0.24,-0.87334 0.61666,-1.65 1.13,-2.33 0.51334,-0.68 1.16333,-1.22666 1.95,-1.64 0.78667,-0.41333 1.71999,-0.62 2.8,-0.62 0.57334,0 1.12,0.0267 1.64,0.08 0.52,0.0533 1.01333,0.12667 1.48,0.22 l 0,0 z m -2,1.3 c -0.2,-0.0533 -0.41667,-0.0967 -0.65,-0.13 -0.23334,-0.0333 -0.49,-0.05 -0.77,-0.05 -0.74667,0 -1.38,0.17333 -1.9,0.52 -0.52,0.34667 -0.94333,0.78666 -1.27,1.32 -0.32667,0.53334 -0.56667,1.12666 -0.72,1.78 -0.15333,0.65334 -0.23,1.28666 -0.23,1.9 0,0.65334 0.0933,1.12 0.28,1.4 0.18667,0.28 0.43333,0.42 0.74,0.42 0.46667,0 0.93666,-0.22 1.41,-0.66 0.47334,-0.44 0.91,-0.98333 1.31,-1.63 0.4,-0.64667 0.74667,-1.33666 1.04,-2.07 0.29333,-0.73334 0.5,-1.4 0.62,-2 l 0.14,-0.8 z m 8.86,-0.02 c -0.48,-0.16 -0.98,-0.24 -1.5,-0.24 -0.65334,0 -1.14667,0.13667 -1.48,0.41 -0.33334,0.27333 -0.5,0.62333 -0.5,1.05 0,0.26667 0.0733,0.50333 0.22,0.71 0.14667,0.20667 0.33333,0.40333 0.56,0.59 0.22667,0.18667 0.47,0.37667 0.73,0.57 0.26,0.19333 0.50333,0.40333 0.73,0.63 0.22667,0.22667 0.41333,0.48 0.56,0.76 0.14667,0.28 0.22,0.60667 0.22,0.98 0,0.41334 -0.09,0.81666 -0.27,1.21 -0.18,0.39334 -0.45,0.74 -0.81,1.04 -0.36,0.3 -0.80666,0.54 -1.34,0.72 -0.53334,0.18 -1.15333,0.27 -1.86,0.27 -0.66667,0 -1.23333,-0.0467 -1.7,-0.14 l 0.32,-1.62 c 0.53334,0.18667 1.07333,0.28 1.62,0.28 0.65334,0 1.18,-0.13 1.58,-0.39 0.4,-0.26 0.6,-0.65 0.6,-1.17 0,-0.26667 -0.0733,-0.5 -0.22,-0.7 -0.14667,-0.2 -0.33333,-0.39 -0.56,-0.57 -0.22667,-0.18 -0.46667,-0.36 -0.72,-0.54 -0.25334,-0.18 -0.49333,-0.38333 -0.72,-0.61 -0.22667,-0.22667 -0.41333,-0.48667 -0.56,-0.78 -0.14667,-0.29333 -0.22,-0.64 -0.22,-1.04 0,-0.42667 0.0833,-0.82333 0.25,-1.19 0.16667,-0.36667 0.41667,-0.68666 0.75,-0.96 0.33334,-0.27334 0.74666,-0.48667 1.24,-0.64 0.49334,-0.15333 1.06,-0.23 1.7,-0.23 0.34667,0 0.65333,0.0133 0.92,0.04 0.26667,0.0267 0.52666,0.06 0.78,0.1 l -0.32,1.46 z m 7.04,0 c -0.48,-0.16 -0.98,-0.24 -1.5,-0.24 -0.65334,0 -1.14666,0.13667 -1.48,0.41 -0.33334,0.27333 -0.5,0.62333 -0.5,1.05 0,0.26667 0.0733,0.50333 0.22,0.71 0.14667,0.20667 0.33333,0.40333 0.56,0.59 0.22667,0.18667 0.47,0.37667 0.73,0.57 0.26,0.19333 0.50333,0.40333 0.73,0.63 0.22667,0.22667 0.41333,0.48 0.56,0.76 0.14667,0.28 0.22,0.60667 0.22,0.98 0,0.41334 -0.09,0.81666 -0.27,1.21 -0.18,0.39334 -0.45,0.74 -0.81,1.04 -0.36,0.3 -0.80666,0.54 -1.34,0.72 -0.53334,0.18 -1.15333,0.27 -1.86,0.27 -0.66667,0 -1.23333,-0.0467 -1.7,-0.14 l 0.32,-1.62 c 0.53334,0.18667 1.07333,0.28 1.62,0.28 0.65334,0 1.18,-0.13 1.58,-0.39 0.4,-0.26 0.6,-0.65 0.6,-1.17 0,-0.26667 -0.0733,-0.5 -0.22,-0.7 -0.14667,-0.2 -0.33333,-0.39 -0.56,-0.57 -0.22667,-0.18 -0.46667,-0.36 -0.72,-0.54 -0.25333,-0.18 -0.49333,-0.38333 -0.72,-0.61 -0.22667,-0.22667 -0.41333,-0.48667 -0.56,-0.78 -0.14667,-0.29333 -0.22,-0.64 -0.22,-1.04 0,-0.42667 0.0833,-0.82333 0.25,-1.19 0.16667,-0.36667 0.41666,-0.68666 0.75,-0.96 0.33333,-0.27334 0.74666,-0.48667 1.24,-0.64 0.49334,-0.15333 1.06,-0.23 1.7,-0.23 0.34667,0 0.65333,0.0133 0.92,0.04 0.26667,0.0267 0.52666,0.06 0.78,0.1 l -0.32,1.46 z"
         id="Your-Open-Source-Com"
         inkscape:connector-curvature="0"
         style="fill:#afd37e" />
      <path
         d="m 102.65625,74.263672 c 0,-7.039098 1.76528,-12.92706 5.2959,-17.664063 3.53062,-4.737003 8.29522,-7.105468 14.29394,-7.105468 6.75134,0 11.92544,2.180316 15.52246,6.541015 3.59703,4.360699 5.39551,10.43681 5.39551,18.228516 0,7.990925 -1.80402,14.249652 -5.41211,18.776367 -3.60809,4.526715 -8.77666,6.790039 -15.50586,6.790039 -6.13154,0 -10.92934,-2.390601 -14.39355,-7.171875 -3.46421,-4.781274 -5.19629,-10.912723 -5.19629,-18.394531 l 0,0 z m 6.97266,0 c 0,5.578153 1.10122,10.237611 3.30371,13.978515 2.20248,3.740905 5.30694,5.611329 9.31347,5.611329 4.53779,0 7.99641,-1.715478 10.37598,-5.146485 2.37957,-3.431006 3.56934,-8.245412 3.56934,-14.443359 0,-12.528709 -4.6484,-18.792969 -13.94532,-18.792969 -4.1172,0 -7.24933,1.682275 -9.39648,5.046875 -2.14715,3.3646 -3.2207,7.946586 -3.2207,13.746094 l 0,0 z m 39.01046,22.511719 2.42383,-6.109375 c 1.23959,0.907556 2.78352,1.665687 4.63184,2.274414 1.84832,0.608727 3.50292,0.913086 4.96387,0.913086 2.58985,0 4.67056,-0.708327 6.24218,-2.125 1.57163,-1.416674 2.35743,-3.220693 2.35743,-5.41211 0,-1.638029 -0.43717,-3.159824 -1.31153,-4.565429 -0.87435,-1.405606 -3.07127,-2.938469 -6.59082,-4.598633 l -3.91797,-1.826172 c -3.32033,-1.549487 -5.63899,-3.386708 -6.95605,-5.511719 -1.31707,-2.125011 -1.97559,-4.681626 -1.97559,-7.669922 0,-3.630226 1.28384,-6.640613 3.85156,-9.03125 2.56773,-2.390637 5.86587,-3.585937 9.89454,-3.585937 5.37893,0 9.11978,0.87434 11.22265,2.623047 l -1.95898,5.777343 c -0.88542,-0.64193 -2.23567,-1.261715 -4.05078,-1.859375 -1.81512,-0.597659 -3.49739,-0.896484 -5.04688,-0.896484 -2.25782,0 -4.03417,0.641921 -5.3291,1.925781 -1.29493,1.283861 -1.94238,2.932933 -1.94238,4.947266 0,1.239589 0.23242,2.368484 0.69726,3.386719 0.46485,1.018234 1.1123,1.870439 1.94239,2.55664 0.83008,0.686202 2.52895,1.649083 5.09668,2.888672 l 3.98437,1.892578 c 3.32033,1.571623 5.65006,3.447581 6.98926,5.62793 1.3392,2.180349 2.00879,4.952783 2.00879,8.317383 0,3.652362 -1.46646,6.751289 -4.39942,9.296875 -2.93295,2.545585 -6.85642,3.818359 -11.7705,3.818359 -4.31643,0 -8.00194,-1.018219 -11.05665,-3.054687 l 0,0 z m 68.62766,-43.03125 -2.75586,5.478515 c -3.34246,-2.479179 -6.61847,-3.71875 -9.82812,-3.71875 -5.09117,0 -9.10871,1.792951 -12.05274,5.378906 -2.94402,3.585956 -4.41601,8.333955 -4.41601,14.244141 0,5.622424 1.44432,10.149072 4.333,13.580078 2.88869,3.431007 6.82322,5.146485 11.80372,5.146485 3.54168,0 6.40819,-1.06249 8.5996,-3.1875 l 0,-11.388672 -6.74023,0 0,-5.644532 13.38086,0 0,21.183594 c -1.77084,1.505216 -4.23892,2.717118 -7.4043,3.635742 -3.16538,0.918625 -6.24217,1.37793 -9.23047,1.37793 -6.70706,0 -12.00291,-2.274391 -15.88769,-6.823242 -3.88479,-4.548851 -5.82715,-10.597293 -5.82715,-18.145508 0,-7.526079 2.13051,-13.629859 6.3916,-18.311523 4.26109,-4.681664 10.01071,-7.022461 17.24903,-7.022461 5.06903,0 9.19724,1.405585 12.38476,4.216797 l 0,0 z m 41.76633,28.089843 -25.63281,0 c 0,4.161479 1.13996,7.360015 3.41992,9.595703 2.01433,1.947927 4.60415,2.921875 7.76953,2.921875 3.60809,0 6.61848,-1.051421 9.03125,-3.154296 l 2.65625,4.548828 c -0.97396,0.973963 -2.46809,1.8151 -4.48242,2.523437 -2.52345,0.929692 -5.33462,1.394531 -8.4336,1.394531 -4.47137,0 -8.26756,-1.51626 -11.38867,-4.548828 -3.47528,-3.342464 -5.21289,-7.835909 -5.21289,-13.480468 0,-5.865915 1.78188,-10.569644 5.3457,-14.111329 3.18752,-3.16538 6.96157,-4.748046 11.32227,-4.748046 5.06904,0 9.0423,1.42772 11.91992,4.283203 2.78908,2.744805 4.1836,6.386045 4.1836,10.923828 0,1.394538 -0.16602,2.678379 -0.49805,3.851562 l 0,0 z M 243.72672,68.087891 c -2.81121,0 -5.16861,0.907543 -7.07227,2.722656 -1.81511,1.726571 -2.8444,3.873685 -3.08789,6.441406 l 19.68946,0 c 0,-2.545586 -0.79687,-4.670564 -2.39063,-6.375 -1.74871,-1.859384 -4.12824,-2.789062 -7.13867,-2.789062 l 0,0 z m 20.15109,13.048828 c 0,-5.489611 1.47753,-9.922184 4.43262,-13.297852 2.95509,-3.375668 6.84535,-5.063476 11.6709,-5.063476 5.09117,0 9.0423,1.621403 11.85351,4.864257 2.81122,3.242855 4.2168,7.741834 4.2168,13.497071 0,5.733101 -1.43879,10.254215 -4.31641,13.563476 -2.87761,3.309262 -6.79554,4.963867 -11.7539,4.963867 -5.06904,0 -9.02017,-1.671207 -11.85352,-5.013671 -2.83335,-3.342465 -4.25,-7.846977 -4.25,-13.513672 l 0,0 z m 6.64063,0 c 0,8.920617 3.15426,13.380859 9.46289,13.380859 2.94402,0 5.25162,-1.1953 6.92285,-3.585937 1.67123,-2.390637 2.50684,-5.655579 2.50684,-9.794922 0,-8.80994 -3.1432,-13.214844 -9.42969,-13.214844 -2.87762,0 -5.17415,1.173165 -6.88965,3.519531 -1.7155,2.346366 -2.57324,5.578105 -2.57324,9.695313 l 0,0 z"
         id="OSGeo"
         inkscape:connector-curvature="0"
         style="fill:#5bb358" />
      <g
         id="Compass"
         transform="translate(3,4)">
        <path
           d="M 51.231997,113.368 C 25.031997,112.453 4.5319976,90.469999 5.4469985,64.268999 6.3609984,38.064998 28.344999,17.568997 54.545996,18.483998 c 18.111999,0.633 33.497001,11.335 40.969001,26.537001 1.15,0.036 2.302,0.039 3.461,-0.175 C 91.224996,27.979001 74.474997,16 54.657,15.308001 26.667001,14.330001 3.1870002,36.227002 2.2089996,64.219002 1.2329996,92.205003 23.126998,115.687 51.117999,116.665 c 7.592999,0.264 14.850999,-1.166 21.420999,-3.934 -0.317,-0.983 -0.514,-2.108 -0.841,-3.215 -6.258997,2.707 -13.198,4.10501 -20.466001,3.852 0,0 7.268001,0.25301 0,0 l 0,0"
           id="Shape"
           inkscape:connector-curvature="0"
           style="fill:#5ab358" />
        <circle
           id="Oval"
           cx="52.5"
           cy="66.5"
           r="31.5"
           d="M 84,66.5 C 84,83.89697 69.89697,98 52.5,98 35.10303,98 21,83.89697 21,66.5 21,49.10303 35.10303,35 52.5,35 69.89697,35 84,49.10303 84,66.5 z"
           sodipodi:cx="52.5"
           sodipodi:cy="66.5"
           sodipodi:rx="31.5"
           sodipodi:ry="31.5"
           style="fill:#afd37e" />
        <path
           d="M 58.494001,49.061002 23.327,0.40700007 35.873002,59.876001 0.37899995,89.238001 46.515,82.587999 75.884004,117.407 69.411005,71.859003 104.593,42.548001 58.494001,49.061002 z"
           id="path17"
           inkscape:connector-curvature="0"
           style="fill:#ffffff;stroke:#99c66b;stroke-width:2" />
        <path
           d="M 55.605999,62.663002 73.371002,56.624 l -16.228,9.148003 9.84,5.131996 L 56.123001,69.171997 62.449997,87.554001 52.707001,70.986999 47.334999,80.403 48.976002,69.642998 31.388,75.514999 47.561001,66.082001 37.388,60.431 49.105999,62.806 43.326,45.021999 52.255001,61.431 l 5.413998,-9.98"
           id="path19"
           inkscape:connector-curvature="0"
           style="fill:#4da146" />
      </g>
    </g>
  </g>
</svg>
