<?xml version="1.0" encoding="UTF-8" standalone="no"?>
<!-- Generated by IcoMoon.io -->

<svg
   xmlns:dc="http://purl.org/dc/elements/1.1/"
   xmlns:cc="http://creativecommons.org/ns#"
   xmlns:rdf="http://www.w3.org/1999/02/22-rdf-syntax-ns#"
   xmlns:svg="http://www.w3.org/2000/svg"
   xmlns="http://www.w3.org/2000/svg"
   xmlns:sodipodi="http://sodipodi.sourceforge.net/DTD/sodipodi-0.dtd"
   xmlns:inkscape="http://www.inkscape.org/namespaces/inkscape"
   version="1.1"
   width="32"
   height="32"
   viewBox="0 0 32 32"
   id="svg2"
   inkscape:version="0.48.4 r9939"
   sodipodi:docname="base-layer2.svg">
  <metadata
     id="metadata10">
    <rdf:RDF>
      <cc:Work
         rdf:about="">
        <dc:format>image/svg+xml</dc:format>
        <dc:type
           rdf:resource="http://purl.org/dc/dcmitype/StillImage" />
        <dc:title></dc:title>
      </cc:Work>
    </rdf:RDF>
  </metadata>
  <defs
     id="defs8" />
  <sodipodi:namedview
     pagecolor="#ffffff"
     bordercolor="#666666"
     borderopacity="1"
     objecttolerance="10"
     gridtolerance="10"
     guidetolerance="10"
     inkscape:pageopacity="0"
     inkscape:pageshadow="2"
     inkscape:window-width="1348"
     inkscape:window-height="803"
     id="namedview6"
     showgrid="false"
     inkscape:zoom="7.9973777"
     inkscape:cx="22.746059"
     inkscape:cy="9.5969469"
     inkscape:window-x="543"
     inkscape:window-y="94"
     inkscape:window-maximized="0"
     inkscape:current-layer="svg2"
     showguides="true"
     inkscape:guide-bbox="true" />
  <path
     d="M 4 3 L 4 8 L 28 8 L 28 3 L 4 3 z M 5.59375 4.59375 L 26.40625 4.59375 L 26.40625 6.40625 L 5.59375 6.40625 L 5.59375 4.59375 z M 4 11.15625 L 4 16.15625 L 28 16.15625 L 28 11.15625 L 4 11.15625 z M 5.59375 12.78125 L 26.40625 12.78125 L 26.40625 14.5625 L 5.59375 14.5625 L 5.59375 12.78125 z M 1 19.46875 L 1 20.96875 L 31 20.96875 L 31 19.46875 L 1 19.46875 z M 4 23.84375 L 4 28.84375 L 28 28.84375 L 28 23.84375 L 4 23.84375 z "
     id="path4" />
  <path
     d="m 4,83.84375 0,0.8125 0,3.375 0,0.8125 0.8125,0 22.375,0 0.8125,0 0,-0.8125 0,-3.375 0,-0.8125 -0.8125,0 -22.375,0 -0.8125,0 z m 1.59375,1.59375 20.8125,0 0,1.8125 -20.8125,0 0,-1.8125 z"
     id="path3776"
     inkscape:connector-curvature="0" />
</svg>
