<?xml version="1.0" encoding="UTF-8" standalone="no"?>
<!-- Generated by IcoMoon.io -->

<svg
   xmlns:dc="http://purl.org/dc/elements/1.1/"
   xmlns:cc="http://creativecommons.org/ns#"
   xmlns:rdf="http://www.w3.org/1999/02/22-rdf-syntax-ns#"
   xmlns:svg="http://www.w3.org/2000/svg"
   xmlns="http://www.w3.org/2000/svg"
   xmlns:sodipodi="http://sodipodi.sourceforge.net/DTD/sodipodi-0.dtd"
   xmlns:inkscape="http://www.inkscape.org/namespaces/inkscape"
   version="1.1"
   width="32"
   height="32"
   viewBox="0 0 32 32"
   id="svg2"
   inkscape:version="0.48.4 r9939"
   sodipodi:docname="check.svg">
  <metadata
     id="metadata10">
    <rdf:RDF>
      <cc:Work
         rdf:about="">
        <dc:format>image/svg+xml</dc:format>
        <dc:type
           rdf:resource="http://purl.org/dc/dcmitype/StillImage" />
      </cc:Work>
    </rdf:RDF>
  </metadata>
  <defs
     id="defs8" />
  <sodipodi:namedview
     pagecolor="#ffffff"
     bordercolor="#666666"
     borderopacity="1"
     objecttolerance="10"
     gridtolerance="10"
     guidetolerance="10"
     inkscape:pageopacity="0"
     inkscape:pageshadow="2"
     inkscape:window-width="1778"
     inkscape:window-height="854"
     id="namedview6"
     showgrid="false"
     inkscape:zoom="8"
     inkscape:cx="-24.00921"
     inkscape:cy="3.8849534"
     inkscape:window-x="36"
     inkscape:window-y="72"
     inkscape:window-maximized="0"
     inkscape:current-layer="svg2" />
  <path
     d="m 26.25,6.5249736 c -0.255619,0 -0.491631,0.085381 -0.6875,0.28125 L 12.125,20.243724 6.4687501,14.587474 c -0.3917372,-0.391737 -1.0145128,-0.391737 -1.40625,0 l -1.4375,1.40625 c -0.3917372,0.391737 -0.3917372,1.014513 0,1.40625 2.59375,2.59375 5.1875,5.1875 7.7812499,7.78125 0.391737,0.391737 1.014513,0.391737 1.40625,0 C 17.996537,20.000675 23.186945,14.8265 28.375,9.6499736 c 0.391737,-0.3917372 0.391737,-1.0457628 0,-1.4375 l -1.40625,-1.40625 C 26.772881,6.610355 26.505619,6.5249736 26.25,6.5249736 z"
     id="rect3790"
     inkscape:connector-curvature="0"
     sodipodi:nodetypes="sscsccccccsss" />
</svg>
