<?xml version="1.0" encoding="UTF-8" standalone="no"?>
<!-- Generated by IcoMoon.io -->

<svg
   xmlns:dc="http://purl.org/dc/elements/1.1/"
   xmlns:cc="http://creativecommons.org/ns#"
   xmlns:rdf="http://www.w3.org/1999/02/22-rdf-syntax-ns#"
   xmlns:svg="http://www.w3.org/2000/svg"
   xmlns="http://www.w3.org/2000/svg"
   xmlns:sodipodi="http://sodipodi.sourceforge.net/DTD/sodipodi-0.dtd"
   xmlns:inkscape="http://www.inkscape.org/namespaces/inkscape"
   version="1.1"
   width="32"
   height="32"
   viewBox="0 0 32 32"
   id="svg2"
   inkscape:version="0.48.4 r9939"
   sodipodi:docname="6-circle-i-outline.svg">
  <metadata
     id="metadata12">
    <rdf:RDF>
      <cc:Work
         rdf:about="">
        <dc:format>image/svg+xml</dc:format>
        <dc:type
           rdf:resource="http://purl.org/dc/dcmitype/StillImage" />
        <dc:title />
      </cc:Work>
    </rdf:RDF>
  </metadata>
  <defs
     id="defs10" />
  <sodipodi:namedview
     pagecolor="#ffffff"
     bordercolor="#666666"
     borderopacity="1"
     objecttolerance="10"
     gridtolerance="10"
     guidetolerance="10"
     inkscape:pageopacity="0"
     inkscape:pageshadow="2"
     inkscape:window-width="1545"
     inkscape:window-height="902"
     id="namedview8"
     showgrid="false"
     showguides="true"
     inkscape:guide-bbox="true"
     inkscape:zoom="22.627417"
     inkscape:cx="13.706292"
     inkscape:cy="16.449931"
     inkscape:window-x="0"
     inkscape:window-y="25"
     inkscape:window-maximized="0"
     inkscape:current-layer="svg2" />
  <g
     id="g2985"
     style="font-size:22px;font-style:normal;font-variant:normal;font-weight:bold;font-stretch:normal;line-height:125%;letter-spacing:0px;word-spacing:0px;fill:#729fcf;fill-opacity:1;stroke:none;font-family:Noto Serif;-inkscape-font-specification:Noto Serif Bold"
     transform="matrix(0.96464518,0,0,0.96464518,0.56567724,0.56567718)" />
  <g
     style="font-size:22px;font-style:normal;font-variant:normal;font-weight:bold;font-stretch:normal;line-height:125%;letter-spacing:0px;word-spacing:0px;fill:#000000;fill-opacity:1;stroke:none;font-family:Noto Serif;-inkscape-font-specification:Noto Serif Bold"
     id="text2988">
    <path
       id="path2993"
       d="m 5.3933983,5.3933983 c -5.85815873,5.8581587 -5.85815873,15.3550447 0,21.2132037 5.8581587,5.858158 15.3550447,5.858158 21.2132037,0 5.858158,-5.858159 5.858158,-15.355045 0,-21.2132037 -5.858159,-5.85815873 -15.355045,-5.85815838 -21.2132037,0 z M 24.617864,24.617864 c -4.759713,4.759712 -12.476015,4.759712 -17.2357279,0 -4.7597125,-4.759713 -4.7597125,-12.476015 0,-17.2357279 4.7597129,-4.7597125 12.4760149,-4.7597125 17.2357279,0 4.759712,4.7597129 4.759712,12.4760149 0,17.2357279 z M 5.7683929,5.7683929 c -5.65104457,5.6510441 -5.65104457,14.8121701 0,20.4632151 5.6510441,5.651043 14.8121701,5.651043 20.4632151,0 5.651043,-5.651045 5.651043,-14.812171 0,-20.4632151 -5.651045,-5.65104463 -14.812171,-5.65104429 -20.4632151,0 z M 24.313181,24.313181 c -4.591434,4.591433 -12.034928,4.591433 -16.6263618,0 -4.5914337,-4.591434 -4.5914337,-12.034928 0,-16.6263618 4.5914338,-4.5914337 12.0349278,-4.5914337 16.6263618,0 4.591433,4.5914338 4.591433,12.0349278 0,16.6263618 z" />
  </g>
  <path
     d="m 13.999955,12.680624 3.999999,0 0,11.791379 -3.999999,0 z"
     id="rect2983"
     inkscape:connector-curvature="0" />
  <path
     d="m 18.000046,8.7830989 c 0,1.1045692 -0.89543,2.0000001 -2,2.0000001 -1.104569,0 -2,-0.8954309 -2,-2.0000001 0,-1.1045696 0.895431,-1.9999999 2,-1.9999999 1.10457,0 2,0.8954303 2,1.9999999 z"
     id="path2985"
     inkscape:connector-curvature="0" />
</svg>
