<?xml version="1.0" encoding="UTF-8" standalone="no"?>
<!-- Generated by IcoMoon.io -->

<svg
   xmlns:dc="http://purl.org/dc/elements/1.1/"
   xmlns:cc="http://creativecommons.org/ns#"
   xmlns:rdf="http://www.w3.org/1999/02/22-rdf-syntax-ns#"
   xmlns:svg="http://www.w3.org/2000/svg"
   xmlns="http://www.w3.org/2000/svg"
   xmlns:sodipodi="http://sodipodi.sourceforge.net/DTD/sodipodi-0.dtd"
   xmlns:inkscape="http://www.inkscape.org/namespaces/inkscape"
   version="1.1"
   width="32"
   height="32"
   viewBox="0 0 32 32"
   id="svg2"
   inkscape:version="0.48.4 r9939"
   sodipodi:docname="delete.svg">
  <metadata
     id="metadata12">
    <rdf:RDF>
      <cc:Work
         rdf:about="">
        <dc:format>image/svg+xml</dc:format>
        <dc:type
           rdf:resource="http://purl.org/dc/dcmitype/StillImage" />
      </cc:Work>
    </rdf:RDF>
  </metadata>
  <defs
     id="defs10" />
  <sodipodi:namedview
     pagecolor="#ffffff"
     bordercolor="#666666"
     borderopacity="1"
     objecttolerance="10"
     gridtolerance="10"
     guidetolerance="10"
     inkscape:pageopacity="0"
     inkscape:pageshadow="2"
     inkscape:window-width="1389"
     inkscape:window-height="864"
     id="namedview8"
     showgrid="false"
     showguides="true"
     inkscape:guide-bbox="true"
     inkscape:zoom="7.375"
     inkscape:cx="17.757398"
     inkscape:cy="13.506986"
     inkscape:window-x="0"
     inkscape:window-y="25"
     inkscape:window-maximized="0"
     inkscape:current-layer="svg2" />
  <path
     d="M 9.375 2.1875 C 8.5564286 2.1875 7.749836 2.7463579 7.40625 3.1875 C 7.062664 3.6286421 6.9313528 3.9341347 6.84375 4.09375 L 0.84375 15.03125 A 1.750175 1.750175 0 0 0 0.84375 16.65625 L 6.84375 28.28125 C 6.940522 28.468507 7.0539392 28.804211 7.40625 29.25 C 7.7585608 29.695789 8.563275 30.21875 9.375 30.21875 L 28.625 30.21875 C 30.11823 30.21875 31.375 28.96198 31.375 27.46875 L 31.375 4.9375 C 31.375 3.4442702 30.11823 2.1875 28.625 2.1875 L 9.375 2.1875 z M 9.96875 5.6875 L 27.875 5.6875 L 27.875 26.71875 L 9.96875 26.71875 C 9.947764 26.67926 9.96135 26.70241 9.9375 26.65625 L 4.375 15.90625 L 9.9375 5.78125 C 9.971461 5.719373 9.94046 5.738507 9.96875 5.6875 z M 13.3125 8.5 L 10.5 11.3125 L 15.1875 16 L 10.5 20.6875 L 13.3125 23.5 L 18 18.8125 L 22.6875 23.5 L 25.5 20.6875 L 20.8125 16 L 25.5 11.3125 L 22.6875 8.5 L 18 13.1875 L 13.3125 8.5 z "
     id="path6" />
</svg>
