<svg xmlns="http://www.w3.org/2000/svg" width="32" height="32"><path d="M9.375 2.188c-.954.014-1.811.654-2.262 1.418L.843 15.031a1.75 1.75 0 000 1.625c1.791 3.546 6.052 11.721 6.052 11.721.473 1.194 1.493 1.811 2.48 1.842h19.25c1.493 0 2.75-1.257 2.75-2.75V4.937c0-1.493-1.257-2.75-2.75-2.75zm.594 3.5h17.906v21.03H9.969c-.021-.039-.008-.016-.031-.062l-5.563-10.75L9.938 5.781c.033-.062.002-.042.03-.093zM13.313 8.5L10.5 11.313 15.188 16 10.5 20.688l2.813 2.812L18 18.812l4.688 4.688 2.812-2.813L20.812 16l4.688-4.688L22.687 8.5 18 13.188z"/></svg>