<svg viewBox="0 0 32 32" xmlns="http://www.w3.org/2000/svg"><path d="m2.342 14.829 1.873 12.777 20.443 1.396 6.053-10.464-2.877.171-4.462 7.675L6.3 25.074l-1.408-9.65Z" style="fill:#444;"/><path d="M17.255 3.978a5.264 5.264 0 1 0 0 10.528 5.264 5.264 0 0 0 0-10.528zm3.05 4.405V10.1h-6.1V8.383Z"/><path style="fill:#444;" d="m9.9 9.132-2.109.814.785 2.055 2.108-.815Zm-4.078 1.502-2.055.784.785 2.056 2.055-.785ZM23.461 12.686l1.882 1.423 1.366-1.725-1.883-1.423zm3.57 2.76 1.752 1.404 1.366-1.726-1.753-1.402z"/></svg>