<?xml version="1.0" encoding="UTF-8" standalone="no"?>
<!-- Created with Inkscape (http://www.inkscape.org/) -->

<svg
   xmlns:dc="http://purl.org/dc/elements/1.1/"
   xmlns:cc="http://creativecommons.org/ns#"
   xmlns:rdf="http://www.w3.org/1999/02/22-rdf-syntax-ns#"
   xmlns:svg="http://www.w3.org/2000/svg"
   xmlns="http://www.w3.org/2000/svg"
   xmlns:sodipodi="http://sodipodi.sourceforge.net/DTD/sodipodi-0.dtd"
   xmlns:inkscape="http://www.inkscape.org/namespaces/inkscape"
   width="32"
   height="32"
   id="svg4344"
   version="1.1"
   inkscape:version="0.48.4 r9939"
   sodipodi:docname="download.svg">
  <defs
     id="defs4346" />
  <sodipodi:namedview
     id="base"
     pagecolor="#ffffff"
     bordercolor="#666666"
     borderopacity="1.0"
     inkscape:pageopacity="0.0"
     inkscape:pageshadow="2"
     inkscape:zoom="16"
     inkscape:cx="9.510144"
     inkscape:cy="9.8536529"
     inkscape:document-units="px"
     inkscape:current-layer="layer1"
     showgrid="false"
     inkscape:window-width="1920"
     inkscape:window-height="1028"
     inkscape:window-x="0"
     inkscape:window-y="25"
     inkscape:window-maximized="1"
     showguides="true"
     inkscape:guide-bbox="true">
    <sodipodi:guide
       orientation="0,1"
       position="-0.53125,12"
       id="guide3013" />
    <sodipodi:guide
       orientation="1,0"
       position="12,24.265625"
       id="guide3015" />
  </sodipodi:namedview>
  <metadata
     id="metadata4349">
    <rdf:RDF>
      <cc:Work
         rdf:about="">
        <dc:format>image/svg+xml</dc:format>
        <dc:type
           rdf:resource="http://purl.org/dc/dcmitype/StillImage" />
        <dc:title />
      </cc:Work>
    </rdf:RDF>
  </metadata>
  <g
     inkscape:label="Layer 1"
     inkscape:groupmode="layer"
     id="layer1"
     transform="translate(0,-1020.3622)">
    <path
       d="m 7.664358,1033.7551 c 0,-0.1549 0.055809,-0.2921 0.1618563,-0.4016 0.1060482,-0.1097 0.2341885,-0.1698 0.378853,-0.1698 4.6600237,0.036 10.9166037,-0.022 15.5698337,-0.022 0.144664,0 0.272803,0.061 0.38887,0.1804 0.116066,0.1201 0.171871,0.2577 0.171871,0.4127 0,0.1548 -0.05581,0.2922 -0.167422,0.4117 l -7.782864,8.3341 c -0.111623,0.1188 -0.239758,0.1792 -0.384421,0.1792 -0.144663,0 -0.272803,-0.061 -0.384418,-0.1792 l -7.7828648,-8.3341 c -0.1116164,-0.1188 -0.1674238,-0.2569 -0.1674238,-0.4117 z"
       id="path4"
       inkscape:connector-curvature="0"
       sodipodi:nodetypes="cccccsccscccc" />
    <rect
       id="rect3001"
       width="5.9388008"
       height="12.752444"
       x="13.0306"
       y="1022.3043"
       rx="0.89999998"
       ry="0.89999998" />
    <rect
       id="rect3771"
       width="30"
       height="5.3330002"
       x="1"
       y="1044.7806"
       rx="0.89999998"
       ry="0.89999998" />
  </g>
</svg>
