<?xml version="1.0" encoding="UTF-8" standalone="no"?>
<!-- Created with Inkscape (http://www.inkscape.org/) -->

<svg
   xmlns:dc="http://purl.org/dc/elements/1.1/"
   xmlns:cc="http://creativecommons.org/ns#"
   xmlns:rdf="http://www.w3.org/1999/02/22-rdf-syntax-ns#"
   xmlns:svg="http://www.w3.org/2000/svg"
   xmlns="http://www.w3.org/2000/svg"
   xmlns:sodipodi="http://sodipodi.sourceforge.net/DTD/sodipodi-0.dtd"
   xmlns:inkscape="http://www.inkscape.org/namespaces/inkscape"
   version="1.1"
   viewBox="0 0 32 32"
   id="svg10"
   sodipodi:docname="polygon-edit.svg"
   inkscape:version="0.92.4 (5da689c313, 2019-01-14)">
  <sodipodi:namedview
     pagecolor="#ffffff"
     bordercolor="#666666"
     borderopacity="1"
     objecttolerance="10"
     gridtolerance="10"
     guidetolerance="10"
     inkscape:pageopacity="0"
     inkscape:pageshadow="2"
     inkscape:window-width="1920"
     inkscape:window-height="1016"
     id="namedview12"
     showgrid="false"
     inkscape:zoom="32"
     inkscape:cx="13.179955"
     inkscape:cy="15.693024"
     inkscape:window-x="0"
     inkscape:window-y="34"
     inkscape:window-maximized="1"
     inkscape:current-layer="svg10" />
  <title
     id="title2">polygon</title>
  <defs
     id="defs4" />
  <metadata
     id="metadata6">
    <rdf:RDF>
      <cc:Work
         rdf:about="">
        <dc:format>image/svg+xml</dc:format>
        <dc:type
           rdf:resource="http://purl.org/dc/dcmitype/StillImage" />
        <dc:title>polygon</dc:title>
        <dc:date>2011-04-20</dc:date>
        <dc:creator>
          <cc:Agent>
            <dc:title>Robert Szczepanek</dc:title>
          </cc:Agent>
        </dc:creator>
        <dc:rights>
          <cc:Agent>
            <dc:title />
          </cc:Agent>
        </dc:rights>
        <dc:subject>
          <rdf:Bag>
            <rdf:li>polygon</rdf:li>
          </rdf:Bag>
        </dc:subject>
        <dc:coverage>GIS icons 0.2</dc:coverage>
        <cc:license
           rdf:resource="http://creativecommons.org/licenses/by-sa/3.0/" />
      </cc:Work>
      <cc:License
         rdf:about="http://creativecommons.org/licenses/by-sa/3.0/">
        <cc:permits
           rdf:resource="http://creativecommons.org/ns#Reproduction" />
        <cc:permits
           rdf:resource="http://creativecommons.org/ns#Distribution" />
        <cc:requires
           rdf:resource="http://creativecommons.org/ns#Notice" />
        <cc:requires
           rdf:resource="http://creativecommons.org/ns#Attribution" />
        <cc:permits
           rdf:resource="http://creativecommons.org/ns#DerivativeWorks" />
        <cc:requires
           rdf:resource="http://creativecommons.org/ns#ShareAlike" />
      </cc:License>
    </rdf:RDF>
  </metadata>
  <path
     d="M 17.390625,5.9140625 18.425781,7.625 18.683594,7.4667969 17.650391,5.7558594 Z m -3.423828,2.0683594 1.035156,1.7109375 1.710938,-1.0332032 -1.035157,-1.7128906 z m -3.421875,2.0703121 1.033203,1.710938 1.712891,-1.035156 -1.035157,-1.7109379 z M 7.1210938,12.121094 8.15625,13.833984 9.8671875,12.798828 8.8320312,11.087891 Z M 4.59375,13.603516 5.6269531,15.314454 6.484375,14.796876 5.4492187,13.085938 Z"
     id="path824"
     inkscape:connector-curvature="0"
     sodipodi:nodetypes="ccccccccccccccccccccccccc" />
  <path
     d="m 19.792969,2.6660156 c -1.64501,0 -3,1.3549904 -3,3 0,1.6450096 1.35499,3 3,3 1.645009,0 3,-1.3549904 3,-3 0,-1.6450096 -1.354991,-3 -3,-3 z m 0,2 c 0.564129,0 1,0.4358706 1,1 0,0.5641294 -0.435871,1 -1,1 -0.56413,0 -1,-0.4358706 -1,-1 0,-0.5641294 0.43587,-1 1,-1 z"
     id="circle826"
     inkscape:connector-curvature="0" />
  <path
     d="M 22.638672,9.5507812 23.908203,10.964844 25.322266,9.6953125 24.052734,8.28125 Z m 2.537109,2.8281248 1.269531,1.414063 1.414063,-1.267578 -1.269531,-1.414063 z m 2.53711,2.828125 1.269531,1.416016 1.414062,-1.269531 -1.269531,-1.414063 z"
     id="path828"
     inkscape:connector-curvature="0"
     sodipodi:nodetypes="ccccccccccccccc" />
  <path
     d="m 19.816406,11.734375 -0.425781,0.123047 -9.4707031,2.732422 -5.3378907,-0.996094 -3.84179682,7.892578 7.94140622,6.539063 7.3671874,-3.539063 8.609375,4.515625 7.160156,-12.011719 z m -0.171875,2.603516 8.642578,3.785156 -4.546875,7.628906 -7.642578,-4.009765 -7.066406,3.394531 -5.2402344,-4.314453 2.1777344,-4.47461 4.072266,0.759766 z"
     id="path8-3"
     inkscape:connector-curvature="0" />
</svg>
