<svg xmlns="http://www.w3.org/2000/svg" viewBox="0 0 32 32"><path d="M13.967 7.982l1.035 1.711 1.71-1.033-1.034-1.713zm-3.422 2.07l1.033 1.712 1.713-1.035-1.035-1.711zm-3.424 2.07l1.035 1.712 1.711-1.035-1.035-1.711zm-2.527 1.482l1.89 1.193-1.035-1.711zM19.793 2.666c-1.645 0-3 1.355-3 3s1.355 3 3 3 3-1.355 3-3-1.355-3-3-3zm0 2c.564 0 1 .436 1 1 0 .564-.436 1-1 1-.564 0-1-.436-1-1 0-.564.436-1 1-1zM22.639 9.55l1.27 1.415 1.413-1.27-1.27-1.414zm2.537 2.829l1.27 1.414 1.413-1.268-1.27-1.414zm2.537 2.828l1.27 1.416 1.413-1.27-1.269-1.414z"/><path d="M19.816 11.734L9.92 14.59l-5.338-.996L.74 21.486l7.942 6.54 7.367-3.54 8.61 4.516 7.16-12.012zm-.171 2.604l8.642 3.785-4.547 7.629-7.642-4.01-7.067 3.395-5.24-4.315 2.178-4.474 4.072.76z"/></svg>