<svg xmlns="http://www.w3.org/2000/svg" width="32" height="32"><path d="M2 4.773l.002 5h6.244v-5H2zm9.55.311a.548.548 0 00-.55.549v3.26c0 .304.246.55.55.55h16.9a.55.55 0 00.55-.55v-3.26a.548.548 0 00-.55-.549h-16.9zM2 13.018v5h6.295v-5H2zm9.428.314c-.237 0-.428.246-.428.55v3.26c0 .305.19.551.428.551h13.144c.237 0 .428-.246.428-.55v-3.26c0-.305-.19-.551-.428-.551H11.428zM2 22.158v5h6.295v-5H2zm9.55.319a.55.55 0 00-.55.55v3.26c0 .305.246.55.55.55h16.9a.55.55 0 00.55-.55v-3.26a.55.55 0 00-.55-.55h-16.9z"/></svg>