<svg viewBox="0 0 20 20" xmlns="http://www.w3.org/2000/svg"><path d="M4 1C2.355 1 1 2.355 1 4v5.5c.065 1.326 1.932 1.347 2 0V4c0-.564.436-1 1-1h12c.564 0 1 .436 1 1v12c0 .564-.436 1-1 1h-5.5c-1.278.033-1.4 1.905 0 2H16c1.645 0 3-1.355 3-3V4c0-1.645-1.355-3-3-3H4zm6.5 4c-1.333 0-1.333 2 0 2h1.086L8.793 9.793c-.91.943.471 2.324 1.414 1.414L13 8.414V9.5c0 1.333 2 1.333 2 0V6c-.008-.558-.4-.987-1-1h-3.5zM3 12c-1.093 0-2 .907-2 2v3c0 1.093.907 2 2 2h3c1.093 0 2-.907 2-2v-3c0-1.093-.907-2-2-2H3zm0 2h3v3H3v-3z"/></svg>