<?xml version="1.0" encoding="UTF-8" standalone="no"?>
<!-- Created with Inkscape (http://www.inkscape.org/) -->

<svg
   xmlns:dc="http://purl.org/dc/elements/1.1/"
   xmlns:cc="http://creativecommons.org/ns#"
   xmlns:rdf="http://www.w3.org/1999/02/22-rdf-syntax-ns#"
   xmlns:svg="http://www.w3.org/2000/svg"
   xmlns="http://www.w3.org/2000/svg"
   xmlns:sodipodi="http://sodipodi.sourceforge.net/DTD/sodipodi-0.dtd"
   xmlns:inkscape="http://www.inkscape.org/namespaces/inkscape"
   version="1.1"
   viewBox="0 0 32 32"
   id="svg10"
   sodipodi:docname="node-tool.svg"
   inkscape:version="0.92.4 (5da689c313, 2019-01-14)">
  <sodipodi:namedview
     pagecolor="#ffffff"
     bordercolor="#666666"
     borderopacity="1"
     objecttolerance="10"
     gridtolerance="10"
     guidetolerance="10"
     inkscape:pageopacity="0"
     inkscape:pageshadow="2"
     inkscape:window-width="1920"
     inkscape:window-height="1016"
     id="namedview12"
     showgrid="false"
     inkscape:zoom="32.000001"
     inkscape:cx="54.250244"
     inkscape:cy="10.641073"
     inkscape:window-x="0"
     inkscape:window-y="34"
     inkscape:window-maximized="1"
     inkscape:current-layer="svg10" />
  <title
     id="title2">polygon</title>
  <defs
     id="defs4" />
  <metadata
     id="metadata6">
    <rdf:RDF>
      <cc:Work
         rdf:about="">
        <dc:format>image/svg+xml</dc:format>
        <dc:type
           rdf:resource="http://purl.org/dc/dcmitype/StillImage" />
        <dc:title>polygon</dc:title>
        <dc:date>2011-04-20</dc:date>
        <dc:creator>
          <cc:Agent>
            <dc:title>Robert Szczepanek</dc:title>
          </cc:Agent>
        </dc:creator>
        <dc:rights>
          <cc:Agent>
            <dc:title />
          </cc:Agent>
        </dc:rights>
        <dc:subject>
          <rdf:Bag>
            <rdf:li>polygon</rdf:li>
          </rdf:Bag>
        </dc:subject>
        <dc:coverage>GIS icons 0.2</dc:coverage>
        <cc:license
           rdf:resource="http://creativecommons.org/licenses/by-sa/3.0/" />
      </cc:Work>
      <cc:License
         rdf:about="http://creativecommons.org/licenses/by-sa/3.0/">
        <cc:permits
           rdf:resource="http://creativecommons.org/ns#Reproduction" />
        <cc:permits
           rdf:resource="http://creativecommons.org/ns#Distribution" />
        <cc:requires
           rdf:resource="http://creativecommons.org/ns#Notice" />
        <cc:requires
           rdf:resource="http://creativecommons.org/ns#Attribution" />
        <cc:permits
           rdf:resource="http://creativecommons.org/ns#DerivativeWorks" />
        <cc:requires
           rdf:resource="http://creativecommons.org/ns#ShareAlike" />
      </cc:License>
    </rdf:RDF>
  </metadata>
  <path
     sodipodi:nodetypes="ccccccccc"
     inkscape:connector-curvature="0"
     id="path821"
     d="m 41.053247,21.133595 6.588072,5.474716 7.227319,-3.483757 8.115643,4.27389 5.855077,-9.836995 -10.326271,-4.564944 -9.76025,2.865039 -4.667578,-0.889245 z"
     style="fill:none;stroke:#00b000;stroke-width:2.5;stroke-linecap:square;stroke-linejoin:miter;stroke-miterlimit:0;stroke-dasharray:none;stroke-dashoffset:0;stroke-opacity:1;paint-order:stroke fill markers" />
  <path
     inkscape:connector-curvature="0"
     id="path823"
     d="m 17.76777,5.6823751 c -1.64501,0 -3,1.35499 -3,3 0,1.6450099 1.35499,2.9999999 3,2.9999999 1.645009,0 3,-1.35499 3,-2.9999999 0,-1.64501 -1.354991,-3 -3,-3 z m 0,2 c 0.564129,0 1,0.435871 1,1 0,0.564129 -0.435871,1 -1,1 -0.56413,0 -1,-0.435871 -1,-1 0,-0.564129 0.43587,-1 1,-1 z" />
  <path
     d="m 28.354857,12.251919 c -1.64501,0 -3,1.35499 -3,3 0,1.64501 1.35499,3 3,3 1.645009,0 3,-1.35499 3,-3 0,-1.64501 -1.354991,-3 -3,-3 z m 0,2 c 0.564129,0 1,0.435871 1,1 0,0.564129 -0.435871,1 -1,1 -0.56413,0 -1,-0.435871 -1,-1 0,-0.564129 0.43587,-1 1,-1 z"
     id="path825"
     inkscape:connector-curvature="0" />
  <path
     inkscape:connector-curvature="0"
     id="path827"
     d="m 24.657015,23.841069 c -1.64501,0 -3,1.35499 -3,3 0,1.64501 1.35499,3 3,3 1.645009,0 3,-1.35499 3,-3 0,-1.64501 -1.354991,-3 -3,-3 z m 0,2 c 0.564129,0 1,0.435871 1,1 0,0.564129 -0.435871,1 -1,1 -0.56413,0 -1,-0.435871 -1,-1 0,-0.564129 0.43587,-1 1,-1 z" />
  <path
     inkscape:connector-curvature="0"
     id="path831"
     d="m 6.1847434,24.283931 c -1.64501,0 -3,1.35499 -3,3 0,1.64501 1.35499,3 3,3 1.645009,0 3,-1.35499 3,-3 0,-1.64501 -1.354991,-3 -3,-3 z m 0,2 c 0.564129,0 1,0.435871 1,1 0,0.564129 -0.435871,1 -1,1 -0.56413,0 -1,-0.435871 -1,-1 0,-0.564129 0.43587,-1 1,-1 z" />
  <path
     d="m 4.972656,9.359375 c -1.64501,0 -3,1.35499 -3,3 0,1.64501 1.35499,3 3,3 1.645009,0 3,-1.35499 3,-3 0,-1.64501 -1.354991,-3 -3,-3 z m 0,2 c 0.564129,0 1,0.435871 1,1 0,0.564129 -0.435871,1 -1,1 -0.56413,0 -1,-0.435871 -1,-1 0,-0.564129 0.43587,-1 1,-1 z"
     id="path833"
     inkscape:connector-curvature="0" />
  <path
     style="color:#000000;font-style:normal;font-variant:normal;font-weight:normal;font-stretch:normal;font-size:medium;line-height:normal;font-family:sans-serif;font-variant-ligatures:normal;font-variant-position:normal;font-variant-caps:normal;font-variant-numeric:normal;font-variant-alternates:normal;font-feature-settings:normal;text-indent:0;text-align:start;text-decoration:none;text-decoration-line:none;text-decoration-style:solid;text-decoration-color:#000000;letter-spacing:normal;word-spacing:normal;text-transform:none;writing-mode:lr-tb;direction:ltr;text-orientation:mixed;dominant-baseline:auto;baseline-shift:baseline;text-anchor:start;white-space:normal;shape-padding:0;clip-rule:nonzero;display:inline;overflow:visible;visibility:visible;opacity:1;isolation:auto;mix-blend-mode:normal;color-interpolation:sRGB;color-interpolation-filters:linearRGB;solid-color:#000000;solid-opacity:1;vector-effect:none;fill:#000000;fill-opacity:1;fill-rule:nonzero;stroke:none;stroke-width:1.5;stroke-linecap:butt;stroke-linejoin:miter;stroke-miterlimit:3.70000005;stroke-dasharray:1.5, 1.5;stroke-dashoffset:0;stroke-opacity:1;color-rendering:auto;image-rendering:auto;shape-rendering:auto;text-rendering:auto;enable-background:accumulate"
     d="m 4.6404745,16.141978 0.081544,1.498578 1.4967554,-0.08362 -0.08167,-1.49663 z m 0.163214,2.995208 0.081544,1.498579 1.4985789,-0.08154 -0.081544,-1.498578 z m 0.163214,2.995209 0.081544,1.498578 1.4985788,-0.08154 -0.081544,-1.498579 z"
     id="path835"
     inkscape:connector-curvature="0" />
  <path
     style="color:#000000;font-style:normal;font-variant:normal;font-weight:normal;font-stretch:normal;font-size:medium;line-height:normal;font-family:sans-serif;font-variant-ligatures:normal;font-variant-position:normal;font-variant-caps:normal;font-variant-numeric:normal;font-variant-alternates:normal;font-feature-settings:normal;text-indent:0;text-align:start;text-decoration:none;text-decoration-line:none;text-decoration-style:solid;text-decoration-color:#000000;letter-spacing:normal;word-spacing:normal;text-transform:none;writing-mode:lr-tb;direction:ltr;text-orientation:mixed;dominant-baseline:auto;baseline-shift:baseline;text-anchor:start;white-space:normal;shape-padding:0;clip-rule:nonzero;display:inline;overflow:visible;visibility:visible;opacity:1;isolation:auto;mix-blend-mode:normal;color-interpolation:sRGB;color-interpolation-filters:linearRGB;solid-color:#000000;solid-opacity:1;vector-effect:none;fill:#000000;fill-opacity:1;fill-rule:nonzero;stroke:none;stroke-width:1.5;stroke-linecap:butt;stroke-linejoin:miter;stroke-miterlimit:3.70000005;stroke-dasharray:1.5, 1.5;stroke-dashoffset:2.4000001;stroke-opacity:1;color-rendering:auto;image-rendering:auto;shape-rendering:auto;text-rendering:auto;enable-background:accumulate"
     d="m 26.207031,20.080078 1.410157,0.511719 0.509765,-1.412109 -1.410156,-0.509766 z m -1.021484,2.822266 1.410156,0.509765 0.509766,-1.410156 -1.410157,-0.509765 z"
     id="path837"
     inkscape:connector-curvature="0" />
  <path
     style="color:#000000;font-style:normal;font-variant:normal;font-weight:normal;font-stretch:normal;font-size:medium;line-height:normal;font-family:sans-serif;font-variant-ligatures:normal;font-variant-position:normal;font-variant-caps:normal;font-variant-numeric:normal;font-variant-alternates:normal;font-feature-settings:normal;text-indent:0;text-align:start;text-decoration:none;text-decoration-line:none;text-decoration-style:solid;text-decoration-color:#000000;letter-spacing:normal;word-spacing:normal;text-transform:none;writing-mode:lr-tb;direction:ltr;text-orientation:mixed;dominant-baseline:auto;baseline-shift:baseline;text-anchor:start;white-space:normal;shape-padding:0;clip-rule:nonzero;display:inline;overflow:visible;visibility:visible;opacity:1;isolation:auto;mix-blend-mode:normal;color-interpolation:sRGB;color-interpolation-filters:linearRGB;solid-color:#000000;solid-opacity:1;vector-effect:none;fill:#000000;fill-opacity:1;fill-rule:nonzero;stroke:none;stroke-width:1.5;stroke-linecap:butt;stroke-linejoin:miter;stroke-miterlimit:4;stroke-dasharray:1.5, 1.5;stroke-dashoffset:0;stroke-opacity:1;color-rendering:auto;image-rendering:auto;shape-rendering:auto;text-rendering:auto;enable-background:accumulate"
     d="m 11.478516,9.4160156 0.486328,1.4199224 1.417968,-0.486329 -0.484374,-1.4179684 z M 8.640625,10.386719 9.125,11.806641 10.544922,11.320312 10.060547,9.9003906 Z"
     id="path843"
     inkscape:connector-curvature="0" />
  <path
     style="color:#000000;font-style:normal;font-variant:normal;font-weight:normal;font-stretch:normal;font-size:medium;line-height:normal;font-family:sans-serif;font-variant-ligatures:normal;font-variant-position:normal;font-variant-caps:normal;font-variant-numeric:normal;font-variant-alternates:normal;font-feature-settings:normal;text-indent:0;text-align:start;text-decoration:none;text-decoration-line:none;text-decoration-style:solid;text-decoration-color:#000000;letter-spacing:normal;word-spacing:normal;text-transform:none;writing-mode:lr-tb;direction:ltr;text-orientation:mixed;dominant-baseline:auto;baseline-shift:baseline;text-anchor:start;white-space:normal;shape-padding:0;clip-rule:nonzero;display:inline;overflow:visible;visibility:visible;opacity:1;isolation:auto;mix-blend-mode:normal;color-interpolation:sRGB;color-interpolation-filters:linearRGB;solid-color:#000000;solid-opacity:1;vector-effect:none;fill:#000000;fill-opacity:1;fill-rule:nonzero;stroke:none;stroke-width:1.5;stroke-linecap:butt;stroke-linejoin:miter;stroke-miterlimit:4;stroke-dasharray:1.5, 1.5;stroke-dashoffset:0;stroke-opacity:1;color-rendering:auto;image-rendering:auto;shape-rendering:auto;text-rendering:auto;enable-background:accumulate"
     d="m 20.994141,10.15625 1.214843,0.880859 0.88086,-1.2167965 -1.216797,-0.8789063 z m 2.43164,1.759766 1.214844,0.878906 0.878906,-1.214844 -1.214843,-0.880859 z"
     id="path845"
     inkscape:connector-curvature="0" />
  <path
     sodipodi:nodetypes="cc"
     inkscape:connector-curvature="0"
     id="path859"
     d="m 5.6174175,45.606955 1,8.375"
     style="fill:none;stroke:#000000;stroke-width:1.5;stroke-linecap:butt;stroke-linejoin:miter;stroke-miterlimit:3.70000005;stroke-dasharray:1.5, 1.5;stroke-dashoffset:0;stroke-opacity:1" />
  <path
     style="fill:none;stroke:#000000;stroke-width:1.5;stroke-linecap:butt;stroke-linejoin:miter;stroke-miterlimit:3.70000005;stroke-dasharray:1.5, 1.5;stroke-dashoffset:2.4000001;stroke-opacity:1"
     d="m 27.626116,47.971344 -1.983107,5.48028"
     id="path861"
     inkscape:connector-curvature="0"
     sodipodi:nodetypes="cc" />
  <path
     style="fill:none;stroke:#000000;stroke-width:1.5;stroke-linecap:butt;stroke-linejoin:miter;stroke-miterlimit:3.70000005;stroke-dasharray:1.5, 1.5;stroke-dashoffset:0;stroke-opacity:1"
     d="m 10.723526,55.300913 1.75552,-1.059884"
     id="path863"
     inkscape:connector-curvature="0"
     sodipodi:nodetypes="cc" />
  <path
     sodipodi:nodetypes="cc"
     inkscape:connector-curvature="0"
     id="path865"
     d="M 21.144941,55.028546 19.095544,53.990188"
     style="fill:none;stroke:#000000;stroke-width:1.5;stroke-linecap:butt;stroke-linejoin:miter;stroke-miterlimit:3.70000005;stroke-dasharray:1.5, 1.5;stroke-dashoffset:0;stroke-opacity:1" />
  <path
     inkscape:connector-curvature="0"
     id="path867"
     d="M 8.8830289,40.706252 14.053747,38.938485"
     style="fill:none;stroke:#000000;stroke-width:1.5;stroke-linecap:butt;stroke-linejoin:miter;stroke-miterlimit:4;stroke-dasharray:1.5, 1.5;stroke-dashoffset:0;stroke-opacity:1" />
  <path
     inkscape:connector-curvature="0"
     id="path869"
     d="m 21.434174,39.159456 4.154253,3.005204"
     style="fill:none;stroke:#000000;stroke-width:1.5;stroke-linecap:butt;stroke-linejoin:miter;stroke-miterlimit:4;stroke-dasharray:1.5, 1.5;stroke-dashoffset:0;stroke-opacity:1" />
  <path
     style="color:#000000;font-style:normal;font-variant:normal;font-weight:normal;font-stretch:normal;font-size:medium;line-height:normal;font-family:sans-serif;font-variant-ligatures:normal;font-variant-position:normal;font-variant-caps:normal;font-variant-numeric:normal;font-variant-alternates:normal;font-feature-settings:normal;text-indent:0;text-align:start;text-decoration:none;text-decoration-line:none;text-decoration-style:solid;text-decoration-color:#000000;letter-spacing:normal;word-spacing:normal;text-transform:none;writing-mode:lr-tb;direction:ltr;text-orientation:mixed;dominant-baseline:auto;baseline-shift:baseline;text-anchor:start;white-space:normal;shape-padding:0;clip-rule:nonzero;display:inline;overflow:visible;visibility:visible;opacity:1;isolation:auto;mix-blend-mode:normal;color-interpolation:sRGB;color-interpolation-filters:linearRGB;solid-color:#000000;solid-opacity:1;vector-effect:none;fill:#000000;fill-opacity:1;fill-rule:nonzero;stroke:none;stroke-width:1.5;stroke-linecap:butt;stroke-linejoin:miter;stroke-miterlimit:3.70000005;stroke-dasharray:1.5, 1.5;stroke-dashoffset:0;stroke-opacity:1;color-rendering:auto;image-rendering:auto;shape-rendering:auto;text-rendering:auto;enable-background:accumulate"
     d="m 19.134766,26.5625 0.02148,1.5 1.5,-0.02148 -0.02148,-1.5 z m -3,0.04297 0.02148,1.5 1.5,-0.02148 -0.02148,-1.5 z m -3,0.04492 0.02148,1.5 1.5,-0.02148 -0.02148,-1.5 z m -3,0.04297 0.02148,1.5 1.5,-0.02148 -0.02148,-1.5 z"
     id="path836"
     inkscape:connector-curvature="0" />
  <path
     sodipodi:nodetypes="cc"
     inkscape:connector-curvature="0"
     id="path838"
     d="M 10.14575,59.351343 20.824273,59.196868"
     style="fill:none;stroke:#000000;stroke-width:1.5;stroke-linecap:butt;stroke-linejoin:miter;stroke-miterlimit:3.70000005;stroke-dasharray:1.5, 1.5;stroke-dashoffset:0;stroke-opacity:1" />
</svg>
