<svg xmlns="http://www.w3.org/2000/svg" viewBox="0 0 32 32"><path d="M17.768 5.682c-1.645 0-3 1.355-3 3s1.355 3 3 3 3-1.355 3-3-1.355-3-3-3zm0 2c.564 0 1 .436 1 1 0 .565-.436 1-1 1-.564 0-1-.435-1-1 0-.564.436-1 1-1zM28.355 12.252c-1.645 0-3 1.355-3 3s1.355 3 3 3 3-1.355 3-3-1.355-3-3-3zm0 2c.564 0 1 .436 1 1 0 .564-.436 1-1 1-.564 0-1-.436-1-1 0-.564.436-1 1-1zM24.657 23.841c-1.645 0-3 1.355-3 3s1.355 3 3 3 3-1.355 3-3-1.355-3-3-3zm0 2c.564 0 1 .436 1 1 0 .564-.436 1-1 1-.564 0-1-.436-1-1 0-.564.436-1 1-1zM6.185 24.284c-1.645 0-3 1.355-3 3s1.355 3 3 3 3-1.355 3-3-1.355-3-3-3zm0 2c.564 0 1 .436 1 1 0 .564-.436 1-1 1-.564 0-1-.436-1-1 0-.564.436-1 1-1zM4.973 9.36c-1.645 0-3 1.354-3 3 0 1.644 1.355 3 3 3s3-1.356 3-3c0-1.646-1.355-3-3-3zm0 2c.564 0 1 .435 1 1 0 .564-.436 1-1 1-.564 0-1-.436-1-1 0-.565.436-1 1-1z"/><path d="M4.64 16.142l.082 1.499 1.497-.084-.082-1.497zm.164 2.995l.081 1.499 1.499-.082-.082-1.498zm.163 2.995l.081 1.499 1.499-.082-.082-1.498zM26.207 20.08l1.41.512.51-1.412-1.41-.51zm-1.021 2.822l1.41.51.51-1.41-1.41-.51zM11.479 9.416l.486 1.42 1.418-.486-.485-1.418zm-2.838.97l.484 1.42 1.42-.486-.484-1.42zM20.994 10.156l1.215.881.88-1.217-1.216-.879zm2.432 1.76l1.215.879.879-1.215-1.215-.88zM19.135 26.563l.021 1.5 1.5-.022-.021-1.5zm-3 .042l.021 1.5 1.5-.021-.021-1.5zm-3 .045l.021 1.5 1.5-.021-.021-1.5zm-3 .043l.021 1.5 1.5-.021-.021-1.5z"/></svg>