<?xml version="1.0" encoding="UTF-8" standalone="no"?>
<!-- Created with Inkscape (http://www.inkscape.org/) -->
<svg xmlns:rdf="http://www.w3.org/1999/02/22-rdf-syntax-ns#" xmlns="http://www.w3.org/2000/svg" version="1.1" xmlns:cc="http://creativecommons.org/ns#" xmlns:xlink="http://www.w3.org/1999/xlink" viewBox="0 0 32 32" xmlns:dc="http://purl.org/dc/elements/1.1/">
<title>polygon</title>
<defs></defs>
<metadata>
<rdf:RDF>
<cc:Work rdf:about="">
<dc:format>image/svg+xml</dc:format>
<dc:type rdf:resource="http://purl.org/dc/dcmitype/StillImage"/>
<dc:title>polygon</dc:title>
<dc:date>2011-04-20</dc:date>
<dc:creator>
<cc:Agent>
<dc:title>Robert Szczepanek</dc:title>
</cc:Agent>
</dc:creator>
<dc:rights>
<cc:Agent>
<dc:title/>
</cc:Agent>
</dc:rights>
<dc:subject>
<rdf:Bag>
<rdf:li>polygon</rdf:li>
</rdf:Bag>
</dc:subject>
<dc:coverage>GIS icons 0.2</dc:coverage>
<cc:license rdf:resource="http://creativecommons.org/licenses/by-sa/3.0/"/>
</cc:Work>
<cc:License rdf:about="http://creativecommons.org/licenses/by-sa/3.0/">
<cc:permits rdf:resource="http://creativecommons.org/ns#Reproduction"/>
<cc:permits rdf:resource="http://creativecommons.org/ns#Distribution"/>
<cc:requires rdf:resource="http://creativecommons.org/ns#Notice"/>
<cc:requires rdf:resource="http://creativecommons.org/ns#Attribution"/>
<cc:permits rdf:resource="http://creativecommons.org/ns#DerivativeWorks"/>
<cc:requires rdf:resource="http://creativecommons.org/ns#ShareAlike"/>
</cc:License>
</rdf:RDF>
</metadata>
<path style="baseline-shift:baseline;block-progression:tb;direction:ltr;text-indent:0;text-align:start;enable-background:accumulate;text-transform:none;" d="m4.409,13.27c-1.875,0-3.409,1.534-3.409,3.409s1.534,3.409,3.409,3.409,3.409-1.534,3.409-3.409-1.534-3.409-3.409-3.409zm12.27-5.452c-1.875,0-3.409,1.534-3.409,3.409s1.534,3.409,3.409,3.409,3.409-1.534,3.409-3.409-1.534-3.409-3.409-3.409zm10.91,9.545c-1.875,0-3.409,1.534-3.409,3.409s1.534,3.409,3.409,3.409c1.88,0,3.41-1.53,3.41-3.41,0-1.87-1.53-3.41-3.41-3.41z"/>
</svg>
