<?xml version="1.0" encoding="UTF-8" standalone="no"?>
<!-- Generated by IcoMoon.io -->

<svg
   xmlns:dc="http://purl.org/dc/elements/1.1/"
   xmlns:cc="http://creativecommons.org/ns#"
   xmlns:rdf="http://www.w3.org/1999/02/22-rdf-syntax-ns#"
   xmlns:svg="http://www.w3.org/2000/svg"
   xmlns="http://www.w3.org/2000/svg"
   xmlns:sodipodi="http://sodipodi.sourceforge.net/DTD/sodipodi-0.dtd"
   xmlns:inkscape="http://www.inkscape.org/namespaces/inkscape"
   version="1.1"
   width="32"
   height="32"
   viewBox="0 0 32 32"
   id="svg2"
   inkscape:version="0.48.4 r9939"
   sodipodi:docname="printer.svg">
  <metadata
     id="metadata12">
    <rdf:RDF>
      <cc:Work
         rdf:about="">
        <dc:format>image/svg+xml</dc:format>
        <dc:type
           rdf:resource="http://purl.org/dc/dcmitype/StillImage" />
      </cc:Work>
    </rdf:RDF>
  </metadata>
  <defs
     id="defs10" />
  <sodipodi:namedview
     pagecolor="#ffffff"
     bordercolor="#666666"
     borderopacity="1"
     objecttolerance="10"
     gridtolerance="10"
     guidetolerance="10"
     inkscape:pageopacity="0"
     inkscape:pageshadow="2"
     inkscape:window-width="1335"
     inkscape:window-height="894"
     id="namedview8"
     showgrid="false"
     inkscape:zoom="10.429825"
     inkscape:cx="17.644897"
     inkscape:cy="11.333842"
     inkscape:window-x="0"
     inkscape:window-y="25"
     inkscape:window-maximized="0"
     inkscape:current-layer="svg2" />
  <path
     id="path6"
     d="m 29.125,8.5 -26.25,0 C 1.84375,8.5 1,9.34375 1,10.375 l 0,9.375 c 0,1.03125 0.84375,1.875 1.875,1.875 l 5.625,0 0,7.404121 15,0 0,-7.404121 5.625,0 C 30.15625,21.625 31,20.78125 31,19.75 l 0,-9.375 C 31,9.34375 30.15625,8.5 29.125,8.5 z M 4.75,14.125 c -1.035,0 -1.875,-0.84 -1.875,-1.875 0,-1.035 0.84,-1.875 1.875,-1.875 1.035,0 1.875,0.84 1.875,1.875 0,1.035 -0.84,1.875 -1.875,1.875 z m 16.875,13.029121 -11.25,0 0,-9.279121 11.25,0 z M 8.5,2.875 l 15,0 0,3.75 -15,0 z"
     inkscape:connector-curvature="0"
     sodipodi:nodetypes="sssssccccssssssssscccccccccc" />
</svg>
