<?xml version="1.0" encoding="UTF-8" standalone="no"?>
<svg
   xmlns:dc="http://purl.org/dc/elements/1.1/"
   xmlns:cc="http://creativecommons.org/ns#"
   xmlns:rdf="http://www.w3.org/1999/02/22-rdf-syntax-ns#"
   xmlns:svg="http://www.w3.org/2000/svg"
   xmlns="http://www.w3.org/2000/svg"
   xmlns:sodipodi="http://sodipodi.sourceforge.net/DTD/sodipodi-0.dtd"
   xmlns:inkscape="http://www.inkscape.org/namespaces/inkscape"
   height="24"
   viewBox="0 0 24 24"
   width="24"
   version="1.1"
   id="svg6"
   sodipodi:docname="reset_filter.svg"
   inkscape:version="0.92.4 (5da689c313, 2019-01-14)">
  <metadata
     id="metadata12">
    <rdf:RDF>
      <cc:Work
         rdf:about="">
        <dc:format>image/svg+xml</dc:format>
        <dc:type
           rdf:resource="http://purl.org/dc/dcmitype/StillImage" />
      </cc:Work>
    </rdf:RDF>
  </metadata>
  <defs
     id="defs10" />
  <sodipodi:namedview
     pagecolor="#ffffff"
     bordercolor="#666666"
     borderopacity="1"
     objecttolerance="10"
     gridtolerance="10"
     guidetolerance="10"
     inkscape:pageopacity="0"
     inkscape:pageshadow="2"
     inkscape:window-width="1534"
     inkscape:window-height="679"
     id="namedview8"
     showgrid="false"
     inkscape:zoom="6.9532168"
     inkscape:cx="-10.918399"
     inkscape:cy="-0.97573191"
     inkscape:window-x="-31"
     inkscape:window-y="294"
     inkscape:window-maximized="0"
     inkscape:current-layer="svg6" />
  <path
     d="m 7,20 h 4 V 18 H 7 Z M 0,8 v 2 H 10.379987 L 9.049668,8 Z m 3,7 H 15 V 13 H 3 Z"
     id="path2"
     inkscape:connector-curvature="0"
     sodipodi:nodetypes="ccccccccccccccc" />
  <path
     d="M0 0h24v24H0z"
     fill="none"
     id="path4" />
  <path
     style="stroke-width:0.55555558"
     inkscape:connector-curvature="0"
     d="m 22.888888,2 h -8.333332 c -0.383334,0 -0.683334,0.1944445 -0.883334,0.488889 l -3.005555,4.5111111 3.005555,4.5055559 C 13.872222,11.8 14.172222,12 14.555556,12 h 8.333332 C 23.499999,12 24,11.499999 24,10.888888 V 3.1111111 C 24,2.5000001 23.499999,2 22.888888,2 Z M 21.222222,8.9944444 20.438889,9.7777774 18.444444,7.7833333 16.45,9.7777774 15.666666,8.9944444 17.661111,7.0000001 15.666666,5.0055555 16.45,4.2222222 l 1.994444,1.9944445 1.994445,-1.9944445 0.783333,0.7833333 -1.994444,1.9944446 z"
     id="path4-3" />
</svg>
