<svg xmlns="http://www.w3.org/2000/svg" width="32" height="32"><path d="M2.8 16.571c-.812 0-1.467.638-1.467 1.429v8.571c0 .792.655 1.429 1.467 1.429h26.4c.812 0 1.467-.637 1.467-1.429V18c0-.791-.655-1.429-1.467-1.429zm3.867 1.459v3.065a.667.667 0 01-1.333 0V18.03c.042-.9 1.317-.838 1.333 0zm5.333 0v3.065c-.071.94-1.292.868-1.333 0V18.03c.05-.856 1.263-.88 1.333 0zm5.333 0V23c-.078.964-1.307.848-1.333 0v-4.97c.05-.882 1.286-.862 1.333 0zm5.334 0v3.065c-.052.937-1.308.868-1.334 0V18.03c.044-.883 1.308-.858 1.334 0zm5.333 0v3.065c-.067.956-1.303.86-1.333 0V18.03c.042-.889 1.31-.858 1.333 0zM26.779 5.489l-.063 2.215-21.356.09.062-2.215c0-.299-.31-.383-.489-.2L1.424 8.837c-.132.133-.117.347-.025.446l3.344 3.452c.238.21.498-.002.486-.254l.054-2.185 21.357-.09-.054 2.185c-.015.309.284.423.48.23l3.51-3.458c.116-.117.122-.367.033-.476l-3.352-3.421c-.249-.195-.479-.011-.478.223z"/></svg>