<?xml version="1.0" encoding="UTF-8" standalone="no"?>
<!-- Generated by IcoMoon.io -->

<svg
   xmlns:dc="http://purl.org/dc/elements/1.1/"
   xmlns:cc="http://creativecommons.org/ns#"
   xmlns:rdf="http://www.w3.org/1999/02/22-rdf-syntax-ns#"
   xmlns:svg="http://www.w3.org/2000/svg"
   xmlns="http://www.w3.org/2000/svg"
   xmlns:sodipodi="http://sodipodi.sourceforge.net/DTD/sodipodi-0.dtd"
   xmlns:inkscape="http://www.inkscape.org/namespaces/inkscape"
   version="1.1"
   width="32"
   height="32"
   viewBox="0 0 32 32"
   id="svg2"
   inkscape:version="0.48.4 r9939"
   sodipodi:docname="ruler-new.svg"
   inkscape:export-filename="ruler3.png"
   inkscape:export-xdpi="67.5"
   inkscape:export-ydpi="67.5">
  <metadata
     id="metadata10">
    <rdf:RDF>
      <cc:Work
         rdf:about="">
        <dc:format>image/svg+xml</dc:format>
        <dc:type
           rdf:resource="http://purl.org/dc/dcmitype/StillImage" />
        <dc:title />
      </cc:Work>
    </rdf:RDF>
  </metadata>
  <defs
     id="defs8" />
  <sodipodi:namedview
     pagecolor="#ffffff"
     bordercolor="#666666"
     borderopacity="1"
     objecttolerance="10"
     gridtolerance="10"
     guidetolerance="10"
     inkscape:pageopacity="0"
     inkscape:pageshadow="2"
     inkscape:window-width="1920"
     inkscape:window-height="1028"
     id="namedview6"
     showgrid="false"
     inkscape:zoom="15.999999"
     inkscape:cx="7.5208076"
     inkscape:cy="12.859876"
     inkscape:window-x="0"
     inkscape:window-y="25"
     inkscape:window-maximized="1"
     inkscape:current-layer="svg2" />
  <path
     d="m 2.800033,16.571425 c -0.8125313,0 -1.466663,0.637142 -1.466663,1.428572 l 0,8.571431 C 1.33337,27.362856 1.9875017,28 2.800033,28 l 26.399934,0 c 0.812531,0 1.466663,-0.637144 1.466663,-1.428572 l 0,-8.571431 c 0,-0.79143 -0.654132,-1.428572 -1.466663,-1.428572 z m 3.199992,0.803571 c 0.3611251,0 0.666665,0.285429 0.666665,0.654762 l 0,3.065478 c 0,0.369334 -0.3055399,0.684524 -0.666665,0.684524 -0.3611251,0 -0.6662761,-0.31519 -0.6662761,-0.684524 l 0,-3.065478 c 0,-0.369333 0.305151,-0.654762 0.6662761,-0.654762 z m 5.333376,0 c 0.361124,0 0.666609,0.285429 0.666609,0.654762 l 0,3.065478 c 0,0.369334 -0.305596,0.684524 -0.666721,0.684524 -0.361125,0 -0.66622,-0.31519 -0.66622,-0.684524 l 0,-3.065478 c 0,-0.369333 0.305206,-0.654762 0.666332,-0.654762 z m 5.333764,0 c 0.361124,0 0.666165,0.285429 0.666165,0.654762 l 0,4.97024 c 0,0.369334 -0.305041,0.684525 -0.666165,0.684525 -0.361126,0 -0.667498,-0.315191 -0.667498,-0.684525 l 0,-4.97024 c 0,-0.369333 0.306372,-0.654762 0.667498,-0.654762 z m 5.33282,0 c 0.361124,0 0.666665,0.285429 0.666665,0.654762 l 0,3.065478 c 0,0.369334 -0.305541,0.684524 -0.666665,0.684524 -0.361124,0 -0.666665,-0.31519 -0.666665,-0.684524 l 0,-3.065478 c 0,-0.369333 0.305541,-0.654762 0.666665,-0.654762 z m 5.33332,0 c 0.361124,0 0.666665,0.285429 0.666665,0.654762 l 0,3.065478 c 0,0.369334 -0.305541,0.684524 -0.666665,0.684524 -0.361126,0 -0.666665,-0.31519 -0.666665,-0.684524 l 0,-3.065478 c 0,-0.369333 0.305539,-0.654762 0.666665,-0.654762 z"
     id="rect3772"
     inkscape:connector-curvature="0"
     sodipodi:nodetypes="ssssssssssssssssssssssssssssssssssssssssssss" />
  <path
     d="m 27.096581,5.1887445 c -0.05185,-0.00819 -0.09866,-0.00467 -0.155787,0.021468 -0.114231,0.052276 -0.158719,0.1412129 -0.162187,0.2785116 L 26.71638,7.703768 5.3598051,7.794101 5.4220286,5.579056 C 5.4253253,5.448347 5.3638454,5.3645823 5.2524176,5.3055162 5.1408038,5.2530708 5.0306227,5.2871804 4.9330337,5.3786378 L 1.4242792,8.8371096 c -0.061268,0.065497 -0.088197,0.1421602 -0.090504,0.2337011 -0.00214,0.084951 0.00731,0.1466469 0.065284,0.2122329 l 3.3437162,3.4514854 c 0.093131,0.08502 0.2019326,0.107663 0.3161829,0.0554 0.1142232,-0.05228 0.1665263,-0.171397 0.1699981,-0.308696 l 0.054414,-2.184859 21.3565755,-0.09033 -0.05441,2.184859 c -0.0033,0.130715 0.05036,0.244698 0.161803,0.303725 0.111614,0.05245 0.221796,0.01834 0.319384,-0.07312 l 3.508754,-3.458472 c 0.06128,-0.065492 0.0882,-0.1421631 0.0905,-0.2337014 0.0021,-0.084943 4.97e-4,-0.1768311 -0.05747,-0.2424182 L 27.256979,5.2656163 c -0.04656,-0.042511 -0.108549,-0.068681 -0.160395,-0.076868 z"
     id="path3021"
     inkscape:connector-curvature="0"
     sodipodi:nodetypes="sccccccccccccccccccccccs" />
</svg>
