<svg xmlns="http://www.w3.org/2000/svg" width="20" height="20"><path d="M8.4 1.143c-.39.063-.515.29-.572.524l-.316 1.715a7.082 7.082 0 00-1.988 1.155l-1.648-.589c-.288-.09-.536-.019-.741.235a8.964 8.964 0 00-1.6 2.772c-.114.303-.052.548.167.761l1.332 1.137c-.138.826-.123 1.37 0 2.292L1.7 12.283a.65.65 0 00-.167.76 8.912 8.912 0 001.6 2.769.647.647 0 00.744.235l1.645-.585c.595.491 1.267.88 1.989 1.153l.316 1.716c.077.327.27.47.573.526 1.056.19 2.138.19 3.195 0 .318-.035.507-.25.57-.526l.32-1.707a7.023 7.023 0 002-1.159l1.635.582a.66.66 0 00.742-.233 8.966 8.966 0 001.6-2.772c.13-.26.033-.579-.17-.754l-1.315-1.127a6.749 6.749 0 000-2.321l1.315-1.125a.633.633 0 00.17-.76 8.917 8.917 0 00-1.6-2.772c-.18-.252-.463-.315-.741-.233l-1.635.581a7.076 7.076 0 00-2.002-1.158l-.316-1.707c-.043-.291-.298-.49-.573-.524-1.09-.203-2.14-.174-3.195 0zm1.6 5.32c4.716 0 4.716 7.074 0 7.074-4.715 0-4.715-7.074 0-7.074z"/></svg>