<svg viewBox="0 0 20 20" xmlns="http://www.w3.org/2000/svg"><path d="M2.645 2.645c-2.192 2.192-2.192 5.804 0 7.996l2.709 2.71 2.72 2.72 3.076-3.077-2.718-2.719-2.711-2.71c-1.236-1.298.615-3.018 1.843-1.844l2.711 2.709 2.72 2.72 3.077-3.076-2.72-2.72-2.711-2.71C8.3.375 4.78.522 2.645 2.645zm7.38.615 2.71 2.71-1.844 1.844-2.711-2.71C6.129 3.054 3.053 6.13 5.104 8.182l2.71 2.709-1.843 1.843-2.711-2.709c-1.856-1.852-1.856-4.913 0-6.765a4.797 4.797 0 0 1 6.765 0zm8.582 6.174-2.521 3.017c-2.296-.747-3.722 2.262-1.594 3.52l-1.031 3.33.816.297 1.051-3.403c2.005-.015 2.503-2.226 1.479-3.26l2.44-2.912z"/></svg>