<svg xmlns="http://www.w3.org/2000/svg" viewBox="0 0 20 20"><path d="M13.375 13.073v.806c2.339.329 3.938.987 3.938 1.746 0 1.087-3.274 1.969-7.313 1.969s-7.313-.882-7.313-1.969c0-.76 1.6-1.417 3.938-1.746v-.806a2.248 2.248 0 0 1-.559-.48C3.07 13.141 1 14.291 1 15.625 1 17.489 5.03 19 10 19s9-1.511 9-3.375c0-1.334-2.07-2.484-5.066-3.032a2.248 2.248 0 0 1-.559.48zM12.25 3.25a2.25 2.25 0 1 0-4.5 0 2.25 2.25 0 0 0 4.5 0zm-4.5 9v3.375c0 .621.504 1.125 1.125 1.125h2.25c.621 0 1.125-.504 1.125-1.125V12.25c.621 0 1.125-.504 1.125-1.125V7.75c0-.932-.756-1.688-1.688-1.688h-.414c-.39.177-.818.282-1.273.282-.455 0-.883-.105-1.273-.282h-.415c-.931 0-1.687.756-1.687 1.688v3.375c0 .621.504 1.125 1.125 1.125"/></svg>