<svg viewBox="0 0 20 20" xmlns="http://www.w3.org/2000/svg"><path d="M1 1v4h1V2h3V1Zm14 0v1h3v3h1V1ZM1 15v4h4v-1H2v-3zm17 0v3h-3v1h4v-4z"/><path d="M8.832 3v1.607a5.551 5.551 0 0 0-4.225 4.225H3v2.336h1.607a5.551 5.551 0 0 0 4.225 4.225V17h2.336v-1.607a5.551 5.551 0 0 0 4.225-4.225H17V8.832h-1.607a5.551 5.551 0 0 0-4.225-4.225V3ZM10 6.564A3.418 3.418 0 0 1 13.434 10 3.418 3.418 0 0 1 10 13.434 3.418 3.418 0 0 1 6.566 10C6.59 7.828 8.314 6.59 10 6.564Zm0 1.686a1.75 1.75 0 1 0 0 3.5 1.75 1.75 0 0 0 0-3.5z"/></svg>