<?xml version="1.0" encoding="UTF-8" standalone="no"?>
<!-- Generated by IcoMoon.io -->

<svg
   xmlns:dc="http://purl.org/dc/elements/1.1/"
   xmlns:cc="http://creativecommons.org/ns#"
   xmlns:rdf="http://www.w3.org/1999/02/22-rdf-syntax-ns#"
   xmlns:svg="http://www.w3.org/2000/svg"
   xmlns="http://www.w3.org/2000/svg"
   xmlns:sodipodi="http://sodipodi.sourceforge.net/DTD/sodipodi-0.dtd"
   xmlns:inkscape="http://www.inkscape.org/namespaces/inkscape"
   version="1.1"
   width="32"
   height="32"
   viewBox="0 0 32 32"
   id="svg2"
   inkscape:version="0.92.3 (2405546, 2018-03-11)"
   sodipodi:docname="time3.svg"
   inkscape:export-filename="ruler3.png"
   inkscape:export-xdpi="67.5"
   inkscape:export-ydpi="67.5">
  <metadata
     id="metadata10">
    <rdf:RDF>
      <cc:Work
         rdf:about="">
        <dc:format>image/svg+xml</dc:format>
        <dc:type
           rdf:resource="http://purl.org/dc/dcmitype/StillImage" />
        <dc:title />
      </cc:Work>
    </rdf:RDF>
  </metadata>
  <defs
     id="defs8" />
  <sodipodi:namedview
     pagecolor="#ffffff"
     bordercolor="#666666"
     borderopacity="1"
     objecttolerance="10"
     gridtolerance="10"
     guidetolerance="10"
     inkscape:pageopacity="0"
     inkscape:pageshadow="2"
     inkscape:window-width="3840"
     inkscape:window-height="2028"
     id="namedview6"
     showgrid="false"
     inkscape:zoom="15.999999"
     inkscape:cx="45.532242"
     inkscape:cy="-4.5427404"
     inkscape:window-x="0"
     inkscape:window-y="68"
     inkscape:window-maximized="1"
     inkscape:current-layer="svg2" />
  <path
     d="m 2.0934812,27.231884 1.095071,-2.690435 C 3.1047409,24.078314 2.7868286,24.169698 2.5251052,24.324076 l -2.42666901,3.5132 c -0.10979271,0.146172 -0.10787281,0.33885 -0.03421703,0.483652 l 2.24772604,3.522491 c 0.4196787,0.31524 0.5828466,0.04034 0.6596176,-0.274718 L 2.0581227,28.894133 c -0.214233,-0.76035 -0.2258147,-0.959094 0.035358,-1.662249 z"
     id="path3021"
     inkscape:connector-curvature="0"
     sodipodi:nodetypes="ccccccccc"
     style="stroke-width:1.34096611" />
  <path
     style="stroke-width:0.95345348"
     d="M 16 0.72070312 C 10.531593 0.72070312 6.078125 5.1741702 6.078125 10.642578 C 6.078125 16.110985 10.531593 20.564453 16 20.564453 C 21.468407 20.564453 25.921875 16.110985 25.921875 10.642578 C 25.921875 5.1741702 21.468407 0.72070312 16 0.72070312 z M 18.382812 5.2402344 L 19.548828 5.8320312 L 16.5 11.833984 L 19.242188 15.357422 L 18.212891 16.162109 L 14.957031 11.982422 L 18.382812 5.2402344 z "
     id="path816" />
  <circle
     r="3.1805408"
     cy="28.264175"
     cx="16"
     id="circle822"
     style="fill:#000000;fill-opacity:1;stroke:none;stroke-width:1.87151957;stroke-miterlimit:4;stroke-dasharray:none;stroke-dashoffset:0;stroke-opacity:1" />
  <path
     d="m 7.3984375,25.896484 c -1.2896118,0 -2.3476562,1.056092 -2.3476563,2.345704 0,1.289611 1.0580445,2.345703 2.3476563,2.345703 1.2896118,0 2.3457031,-1.056092 2.3457031,-2.345703 0,-1.289612 -1.0560913,-2.345704 -2.3457031,-2.345704 z m 0,1.066407 c 0.7130399,0 1.2792969,0.566257 1.2792969,1.279297 0,0.713039 -0.566257,1.279296 -1.2792969,1.279296 -0.7130399,0 -1.28125,-0.566257 -1.28125,-1.279296 0,-0.71304 0.5682101,-1.279297 1.28125,-1.279297 z"
     id="circle824"
     inkscape:connector-curvature="0" />
  <path
     d="m 9.0706613,27.769531 v 1 H 22.733416 v -1 z"
     id="path825"
     inkscape:connector-curvature="0"
     style="stroke-width:0.78263396"
     sodipodi:nodetypes="ccccc" />
  <path
     style="stroke-width:1.34096611"
     sodipodi:nodetypes="ccccccccc"
     inkscape:connector-curvature="0"
     id="path831"
     d="m 29.870016,27.231884 -1.095071,-2.690435 c 0.08381,-0.463135 0.401724,-0.371751 0.663447,-0.217373 l 2.426669,3.5132 c 0.109793,0.146172 0.107873,0.33885 0.03422,0.483652 l -2.247726,3.522491 c -0.419679,0.31524 -0.582847,0.04034 -0.659618,-0.274718 l 0.91344,-2.674568 c 0.214233,-0.76035 0.225815,-0.959094 -0.03536,-1.662249 z" />
  <path
     sodipodi:nodetypes="ccccc"
     style="stroke-width:0.46855474"
     inkscape:connector-curvature="0"
     id="path852"
     d="m 0.89878579,27.769531 v 1 H 5.7959148 v -1 z" />
  <path
     d="m 26.055037,27.769531 v 1 h 4.897129 v -1 z"
     id="path858"
     inkscape:connector-curvature="0"
     style="stroke-width:0.46855474"
     sodipodi:nodetypes="ccccc" />
  <path
     inkscape:connector-curvature="0"
     id="path832"
     d="m 24.273439,25.896484 c -1.289612,0 -2.347657,1.056092 -2.347657,2.345704 0,1.289611 1.058045,2.345703 2.347657,2.345703 1.289611,0 2.345703,-1.056092 2.345703,-2.345703 0,-1.289612 -1.056092,-2.345704 -2.345703,-2.345704 z m 0,1.066407 c 0.713039,0 1.279296,0.566257 1.279296,1.279297 0,0.713039 -0.566257,1.279296 -1.279296,1.279296 -0.71304,0 -1.28125,-0.566257 -1.28125,-1.279296 0,-0.71304 0.56821,-1.279297 1.28125,-1.279297 z" />
</svg>
