<?xml version="1.0" encoding="UTF-8" standalone="no"?>
<!-- Generated by IcoMoon.io -->

<svg
   xmlns:dc="http://purl.org/dc/elements/1.1/"
   xmlns:cc="http://creativecommons.org/ns#"
   xmlns:rdf="http://www.w3.org/1999/02/22-rdf-syntax-ns#"
   xmlns:svg="http://www.w3.org/2000/svg"
   xmlns="http://www.w3.org/2000/svg"
   xmlns:sodipodi="http://sodipodi.sourceforge.net/DTD/sodipodi-0.dtd"
   xmlns:inkscape="http://www.inkscape.org/namespaces/inkscape"
   version="1.1"
   width="32"
   height="32"
   viewBox="0 0 32 32"
   id="svg2"
   inkscape:version="0.92.3 (2405546, 2018-03-11)"
   sodipodi:docname="time6.svg"
   inkscape:export-filename="ruler3.png"
   inkscape:export-xdpi="67.5"
   inkscape:export-ydpi="67.5">
  <metadata
     id="metadata10">
    <rdf:RDF>
      <cc:Work
         rdf:about="">
        <dc:format>image/svg+xml</dc:format>
        <dc:type
           rdf:resource="http://purl.org/dc/dcmitype/StillImage" />
        <dc:title />
      </cc:Work>
    </rdf:RDF>
  </metadata>
  <defs
     id="defs8" />
  <sodipodi:namedview
     pagecolor="#ffffff"
     bordercolor="#666666"
     borderopacity="1"
     objecttolerance="10"
     gridtolerance="10"
     guidetolerance="10"
     inkscape:pageopacity="0"
     inkscape:pageshadow="2"
     inkscape:window-width="3840"
     inkscape:window-height="2028"
     id="namedview6"
     showgrid="false"
     inkscape:zoom="31.999998"
     inkscape:cx="19.280168"
     inkscape:cy="1.01302"
     inkscape:window-x="0"
     inkscape:window-y="68"
     inkscape:window-maximized="1"
     inkscape:current-layer="svg2" />
  <path
     style="stroke-width:0.95345348"
     d="m 17.908852,0.72070312 c -5.468407,0 -9.921875,4.45346718 -9.921875,9.92187488 0,5.468407 4.453468,9.921875 9.921875,9.921875 5.468407,0 9.921875,-4.453468 9.921875,-9.921875 0,-5.4684077 -4.453468,-9.92187488 -9.921875,-9.92187488 z m -0.951172,2.14843748 1.900391,0.013672 -0.06445,8.5214844 3.730468,3.628906 -1.324218,1.361328 -4.3125,-4.193359 z"
     id="path816"
     inkscape:connector-curvature="0" />
  <circle
     r="3.6886785"
     cy="28.301338"
     cx="17.355221"
     id="circle822"
     style="fill:#000000;fill-opacity:1;stroke:none;stroke-width:2.17052221;stroke-miterlimit:4;stroke-dasharray:none;stroke-dashoffset:0;stroke-opacity:1" />
  <path
     d="m 9.4924338,25.819469 c -1.4184656,0 -2.5822263,1.161613 -2.5822264,2.580079 0,1.418465 1.1637608,2.580078 2.5822264,2.580078 1.4184652,0 2.5800782,-1.161613 2.5800782,-2.580078 0,-1.418466 -1.161613,-2.580079 -2.5800782,-2.580079 z m 0,1.172959 c 0.7842842,0 1.4071202,0.622835 1.4071202,1.40712 0,0.784284 -0.622836,1.407119 -1.4071202,1.407119 -0.7842845,0 -1.4092683,-0.622835 -1.4092683,-1.407119 0,-0.784285 0.6249838,-1.40712 1.4092683,-1.40712 z"
     id="circle824"
     inkscape:connector-curvature="0"
     style="stroke-width:1.0999167" />
  <path
     d="m 11.074318,27.924211 v 1 h 13.536105 v -1 z"
     id="path825"
     inkscape:connector-curvature="0"
     style="stroke-width:0.77899814"
     sodipodi:nodetypes="ccccc" />
  <path
     sodipodi:nodetypes="ccccc"
     style="stroke-width:0.37562779"
     inkscape:connector-curvature="0"
     id="path852"
     d="m 4.6835346,27.924211 v 1 h 3.1472867 v -1 z" />
  <path
     inkscape:connector-curvature="0"
     id="path832"
     d="m 3.0857873,26.161685 c -1.2315025,0 -2.24187211,1.008505 -2.24187211,2.240007 0,1.231501 1.01036961,2.240006 2.24187211,2.240006 1.2315016,0 2.2400067,-1.008505 2.2400067,-2.240006 0,-1.231502 -1.0085051,-2.240007 -2.2400067,-2.240007 z m 0,1.018355 c 0.6809102,0 1.2216514,0.540741 1.2216514,1.221652 0,0.68091 -0.5407412,1.221651 -1.2216514,1.221651 -0.6809102,0 -1.2235167,-0.540741 -1.2235167,-1.221651 0,-0.680911 0.5426065,-1.221652 1.2235167,-1.221652 z"
     style="stroke-width:0.95494026" />
  <path
     style="stroke-width:1.51735187"
     sodipodi:nodetypes="cccccccccc"
     inkscape:connector-curvature="0"
     id="path831"
     d="m 28.951009,27.260057 -1.125887,-2.690435 c 0.107308,-0.463135 0.514357,-0.371751 0.849461,-0.217373 l 3.107045,3.5132 c 0.140576,0.146172 0.138118,0.33885 0.04381,0.483652 l -2.877931,3.522491 c -0.537346,0.31524 -0.746262,0.04034 -0.844558,-0.274718 l 0.893331,-2.674568 c 0.274299,-0.76035 0.289128,-0.959094 -0.04527,-1.662249 z" />
</svg>
