<?xml version="1.0" encoding="UTF-8" standalone="no"?>
<!-- Generated by IcoMoon.io -->

<svg
   xmlns:dc="http://purl.org/dc/elements/1.1/"
   xmlns:cc="http://creativecommons.org/ns#"
   xmlns:rdf="http://www.w3.org/1999/02/22-rdf-syntax-ns#"
   xmlns:svg="http://www.w3.org/2000/svg"
   xmlns="http://www.w3.org/2000/svg"
   xmlns:sodipodi="http://sodipodi.sourceforge.net/DTD/sodipodi-0.dtd"
   xmlns:inkscape="http://www.inkscape.org/namespaces/inkscape"
   version="1.1"
   width="32"
   height="32"
   viewBox="0 0 32 32"
   id="svg2"
   inkscape:version="0.92.3 (2405546, 2018-03-11)"
   sodipodi:docname="time.svg"
   inkscape:export-filename="ruler3.png"
   inkscape:export-xdpi="67.5"
   inkscape:export-ydpi="67.5">
  <metadata
     id="metadata10">
    <rdf:RDF>
      <cc:Work
         rdf:about="">
        <dc:format>image/svg+xml</dc:format>
        <dc:type
           rdf:resource="http://purl.org/dc/dcmitype/StillImage" />
        <dc:title />
      </cc:Work>
    </rdf:RDF>
  </metadata>
  <defs
     id="defs8" />
  <sodipodi:namedview
     pagecolor="#ffffff"
     bordercolor="#666666"
     borderopacity="1"
     objecttolerance="10"
     gridtolerance="10"
     guidetolerance="10"
     inkscape:pageopacity="0"
     inkscape:pageshadow="2"
     inkscape:window-width="3840"
     inkscape:window-height="2028"
     id="namedview6"
     showgrid="false"
     inkscape:zoom="45.254831"
     inkscape:cx="21.318309"
     inkscape:cy="-0.43056514"
     inkscape:window-x="0"
     inkscape:window-y="68"
     inkscape:window-maximized="1"
     inkscape:current-layer="svg2" />
  <path
     d="m 2.0934812,27.231884 1.095071,-2.690435 C 3.1047409,24.078314 2.7868286,24.169698 2.5251052,24.324076 l -2.42666901,3.5132 c -0.10979271,0.146172 -0.10787281,0.33885 -0.03421703,0.483652 l 2.24772604,3.522491 c 0.4196787,0.31524 0.5828466,0.04034 0.6596176,-0.274718 L 2.0581227,28.894133 c -0.214233,-0.76035 -0.2258147,-0.959094 0.035358,-1.662249 z"
     id="path3021"
     inkscape:connector-curvature="0"
     sodipodi:nodetypes="ccccccccc"
     style="stroke-width:1.34096611" />
  <path
     d="m 16.353516,0.15812755 c -5.735369,0 -10.4062504,4.67088095 -10.4062504,10.40625045 0,5.735369 4.6708814,10.40625 10.4062504,10.40625 5.735369,0 10.40625,-4.670881 10.40625,-10.40625 0,-5.7353695 -4.670881,-10.40625045 -10.40625,-10.40625045 z m 0,2.00000005 c 4.654488,0 8.40625,3.7517611 8.40625,8.4062504 0,4.654489 -3.751762,8.40625 -8.40625,8.40625 -4.654489,0 -8.4062504,-3.751761 -8.4062504,-8.40625 0,-4.6544893 3.7517614,-8.4062504 8.4062504,-8.4062504 z"
     id="path816"
     inkscape:connector-curvature="0" />
  <circle
     r="3.1805408"
     cy="28.264175"
     cx="16"
     id="circle822"
     style="fill:#000000;fill-opacity:1;stroke:none;stroke-width:1.87151957;stroke-miterlimit:4;stroke-dasharray:none;stroke-dashoffset:0;stroke-opacity:1" />
  <path
     d="m 18.308594,5.7401588 -3.140625,6.1835942 2.984375,3.832032 0.945312,-0.738282 -2.515625,-3.230468 2.796875,-5.5039074 z"
     id="path824"
     inkscape:connector-curvature="0" />
  <path
     sodipodi:nodetypes="ccccccccccccccccc"
     inkscape:connector-curvature="0"
     id="path828"
     d="m 62.339213,25.110424 -0.02908,1.4452 -23.606575,0.06148 0.02908,-1.4452 C 38.670866,24.881249 38.436544,24.9386 38.243636,25.035485 l -1.631858,2.104056 c -0.1023,0.177237 -0.07951,0.212656 -0.02522,0.303531 l 1.499966,2.114924 c 0.30933,0.197839 0.429596,0.02532 0.486181,-0.172408 l 0.05441,-1.440279 23.606576,-0.06148 0.0279,1.440279 c 0.01707,0.306361 0.285448,0.296788 0.4265,0.156964 l 1.637382,-2.11968 c 0.08993,-0.109756 0.09719,-0.212948 0.03303,-0.324077 L 62.828631,24.95856 c -0.161013,-0.229305 -0.472489,-0.06724 -0.489418,0.151864 z"
     style="color:#808080;fill-opacity:1;stroke-width:0.82502329" />
  <circle
     r="9.406251"
     cy="12.333342"
     cx="50.698002"
     id="circle830"
     style="fill:none;fill-opacity:1;stroke:#808080;stroke-width:2;stroke-miterlimit:4;stroke-dasharray:none;stroke-dashoffset:0;stroke-opacity:1" />
  <circle
     r="1.5688933"
     cy="27.424715"
     cx="42.851131"
     id="circle832"
     style="fill:#ffffff;fill-opacity:1;stroke:#000000;stroke-width:1;stroke-miterlimit:4;stroke-dasharray:none;stroke-dashoffset:0;stroke-opacity:1" />
  <circle
     style="fill:#ffffff;fill-opacity:1;stroke:#000000;stroke-width:1;stroke-miterlimit:4;stroke-dasharray:none;stroke-dashoffset:0;stroke-opacity:1"
     id="circle834"
     cx="58.34119"
     cy="27.424715"
     r="1.5688933" />
  <circle
     style="fill:#ffffff;fill-opacity:1;stroke:#000000;stroke-width:1.5;stroke-miterlimit:4;stroke-dasharray:none;stroke-dashoffset:0;stroke-opacity:1"
     id="circle836"
     cx="50.551964"
     cy="27.060114"
     r="2.5491645" />
  <path
     inkscape:connector-curvature="0"
     id="path838"
     d="m 53.187503,7.2499984 -2.96875,5.8437506 2.75,3.53125"
     style="fill:none;stroke:#808080;stroke-width:1.20000005;stroke-linecap:butt;stroke-linejoin:miter;stroke-miterlimit:4;stroke-dasharray:none;stroke-opacity:1" />
  <circle
     style="fill:#000000;fill-opacity:1;stroke:none;stroke-width:1.29290628;stroke-miterlimit:4;stroke-dasharray:none;stroke-dashoffset:0;stroke-opacity:1"
     id="circle824"
     cx="7.6760039"
     cy="28.253126"
     r="2.1972203" />
  <circle
     r="2.1972203"
     cy="28.253126"
     cx="24.827787"
     id="circle823"
     style="fill:#000000;fill-opacity:1;stroke:none;stroke-width:1.29290628;stroke-miterlimit:4;stroke-dasharray:none;stroke-dashoffset:0;stroke-opacity:1" />
  <path
     sodipodi:nodetypes="cccccccccccccccccc"
     inkscape:connector-curvature="0"
     id="path823"
     d="m 29.577847,35.433899 -0.03188,1.740859 -27.6560602,0.06741 0.6892704,-1.851343 C 2.5114438,35.072132 2.2545183,35.135015 2.0430027,35.241246 l -1.96114841,2.417505 c -0.0887306,0.100584 -0.087179,0.23317 -0.027653,0.332811 L 1.8707343,40.41546 c 0.3391695,0.216923 0.4710361,0.02776 0.5330797,-0.189039 l -0.5424827,-1.840425 27.6008187,-0.06741 0.03059,1.735463 c 0.01872,0.335914 0.312983,0.325417 0.467641,0.172105 l 1.920329,-2.324151 c 0.0986,-0.120344 0.106566,-0.23349 0.03622,-0.355339 l -1.802453,-2.279278 c -0.176545,-0.251425 -0.518067,-0.07373 -0.536629,0.166513 z" />
  <path
     d="m 6.2860336,27.769531 v 1 H 25.985684 v -1 z"
     id="path825"
     inkscape:connector-curvature="0"
     style="stroke-width:0.93976402"
     sodipodi:nodetypes="ccccc" />
  <path
     style="stroke-width:1.34096611"
     sodipodi:nodetypes="ccccccccc"
     inkscape:connector-curvature="0"
     id="path831"
     d="m 29.870016,27.231884 -1.095071,-2.690435 c 0.08381,-0.463135 0.401724,-0.371751 0.663447,-0.217373 l 2.426669,3.5132 c 0.109793,0.146172 0.107873,0.33885 0.03422,0.483652 l -2.247726,3.522491 c -0.419679,0.31524 -0.582847,0.04034 -0.659618,-0.274718 l 0.91344,-2.674568 c 0.214233,-0.76035 0.225815,-0.959094 -0.03536,-1.662249 z" />
</svg>
