<?xml version="1.0" encoding="UTF-8" standalone="no"?>
<!-- Generated by IcoMoon.io -->

<svg
   xmlns:dc="http://purl.org/dc/elements/1.1/"
   xmlns:cc="http://creativecommons.org/ns#"
   xmlns:rdf="http://www.w3.org/1999/02/22-rdf-syntax-ns#"
   xmlns:svg="http://www.w3.org/2000/svg"
   xmlns="http://www.w3.org/2000/svg"
   xmlns:sodipodi="http://sodipodi.sourceforge.net/DTD/sodipodi-0.dtd"
   xmlns:inkscape="http://www.inkscape.org/namespaces/inkscape"
   version="1.1"
   width="32"
   height="32"
   viewBox="0 0 32 32"
   id="svg2"
   inkscape:version="0.92.3 (2405546, 2018-03-11)"
   sodipodi:docname="time4.svg"
   inkscape:export-filename="ruler3.png"
   inkscape:export-xdpi="67.5"
   inkscape:export-ydpi="67.5">
  <metadata
     id="metadata10">
    <rdf:RDF>
      <cc:Work
         rdf:about="">
        <dc:format>image/svg+xml</dc:format>
        <dc:type
           rdf:resource="http://purl.org/dc/dcmitype/StillImage" />
        <dc:title />
      </cc:Work>
    </rdf:RDF>
  </metadata>
  <defs
     id="defs8" />
  <sodipodi:namedview
     pagecolor="#ffffff"
     bordercolor="#666666"
     borderopacity="1"
     objecttolerance="10"
     gridtolerance="10"
     guidetolerance="10"
     inkscape:pageopacity="0"
     inkscape:pageshadow="2"
     inkscape:window-width="3840"
     inkscape:window-height="2028"
     id="namedview6"
     showgrid="false"
     inkscape:zoom="7.9999995"
     inkscape:cx="119.0922"
     inkscape:cy="-46.544937"
     inkscape:window-x="0"
     inkscape:window-y="68"
     inkscape:window-maximized="1"
     inkscape:current-layer="svg2" />
  <path
     style="stroke-width:0.95345348"
     d="M 16 0.72070312 C 10.531593 0.72070312 6.078125 5.1741703 6.078125 10.642578 C 6.078125 16.110985 10.531593 20.564453 16 20.564453 C 21.468407 20.564453 25.921875 16.110985 25.921875 10.642578 C 25.921875 5.1741703 21.468407 0.72070312 16 0.72070312 z M 15.048828 2.8691406 L 16.949219 2.8828125 L 16.884766 11.404297 L 20.615234 15.033203 L 19.291016 16.394531 L 14.978516 12.201172 L 15.048828 2.8691406 z "
     id="path816" />
  <circle
     r="3.368366"
     cy="28.231026"
     cx="16"
     id="circle822"
     style="fill:#000000;fill-opacity:1;stroke:none;stroke-width:1.98204124;stroke-miterlimit:4;stroke-dasharray:none;stroke-dashoffset:0;stroke-opacity:1" />
  <path
     d="m 7.53102,25.896484 c -1.2896118,0 -2.3476562,1.056092 -2.3476563,2.345704 0,1.289611 1.0580445,2.345703 2.3476563,2.345703 1.2896118,0 2.3457031,-1.056092 2.3457031,-2.345703 0,-1.289612 -1.0560913,-2.345704 -2.3457031,-2.345704 z m 0,1.066407 c 0.7130399,0 1.2792969,0.566257 1.2792969,1.279297 0,0.713039 -0.566257,1.279296 -1.2792969,1.279296 -0.7130399,0 -1.28125,-0.566257 -1.28125,-1.279296 0,-0.71304 0.5682101,-1.279297 1.28125,-1.279297 z"
     id="circle824"
     inkscape:connector-curvature="0" />
  <path
     d="m 9.0706613,27.769531 v 1 H 22.733416 v -1 z"
     id="path825"
     inkscape:connector-curvature="0"
     style="stroke-width:0.78263396"
     sodipodi:nodetypes="ccccc" />
  <path
     sodipodi:nodetypes="ccccc"
     style="stroke-width:0.35276404"
     inkscape:connector-curvature="0"
     id="path852"
     d="m 3.0201063,27.769531 v 1 h 2.7758085 v -1 z" />
  <path
     d="m 26.055037,27.769531 v 1 h 2.928379 v -1 z"
     id="path858"
     inkscape:connector-curvature="0"
     style="stroke-width:0.36232907"
     sodipodi:nodetypes="ccccc" />
  <path
     inkscape:connector-curvature="0"
     id="path832"
     d="m 24.229245,25.896484 c -1.289612,0 -2.347657,1.056092 -2.347657,2.345704 0,1.289611 1.058045,2.345703 2.347657,2.345703 1.289611,0 2.345703,-1.056092 2.345703,-2.345703 0,-1.289612 -1.056092,-2.345704 -2.345703,-2.345704 z m 0,1.066407 c 0.713039,0 1.279296,0.566257 1.279296,1.279297 0,0.713039 -0.566257,1.279296 -1.279296,1.279296 -0.71304,0 -1.28125,-0.566257 -1.28125,-1.279296 0,-0.71304 0.56821,-1.279297 1.28125,-1.279297 z" />
  <path
     inkscape:connector-curvature="0"
     id="path820"
     d="m 1.7609998,26.44841 c -0.95870432,0 -1.74526011,0.785105 -1.74526018,1.743809 0,0.958704 0.78655586,1.743808 1.74526018,1.743808 0.9587042,0 1.743808,-0.785104 1.743808,-1.743808 0,-0.958704 -0.7851038,-1.743809 -1.743808,-1.743809 z m 0,0.792773 c 0.5300776,0 0.951036,0.420958 0.951036,0.951036 0,0.530077 -0.4209584,0.951035 -0.951036,0.951035 -0.5300777,0 -0.95248812,-0.420958 -0.95248812,-0.951035 0,-0.530078 0.42241042,-0.951036 0.95248812,-0.951036 z"
     style="stroke-width:0.74340528" />
  <path
     style="stroke-width:0.74340528"
     d="m 30.255886,26.44841 c -0.958705,0 -1.745261,0.785105 -1.745261,1.743809 0,0.958704 0.786556,1.743808 1.745261,1.743808 0.958704,0 1.743808,-0.785104 1.743808,-1.743808 0,-0.958704 -0.785104,-1.743809 -1.743808,-1.743809 z m 0,0.792773 c 0.530077,0 0.951036,0.420958 0.951036,0.951036 0,0.530077 -0.420959,0.951035 -0.951036,0.951035 -0.530078,0 -0.952489,-0.420958 -0.952489,-0.951035 0,-0.530078 0.422411,-0.951036 0.952489,-0.951036 z"
     id="path822"
     inkscape:connector-curvature="0" />
  <path
     sodipodi:nodetypes="ccc"
     inkscape:connector-curvature="0"
     id="path826"
     d="m 37.123108,2.8760376 -0.06629,8.9272234 4.021671,3.911185"
     style="fill:none;stroke:#e10000;stroke-width:1.89999998;stroke-linecap:butt;stroke-linejoin:miter;stroke-miterlimit:4;stroke-dasharray:none;stroke-opacity:1" />
</svg>
