<?xml version="1.0" encoding="utf-8"?>
<!-- Generated by IcoMoon.io -->
<!DOCTYPE svg PUBLIC "-//W3C//DTD SVG 1.1//EN" "http://www.w3.org/Graphics/SVG/1.1/DTD/svg11.dtd">
<svg version="1.1" xmlns="http://www.w3.org/2000/svg" xmlns:xlink="http://www.w3.org/1999/xlink" width="32" height="32" viewBox="0 0 32 32">
<path d="M8.408 11.69l19.943 1.514-0.303 3.989-19.943-1.514zM7.88 19.034l19.943 1.514-0.303 3.989-19.943-1.514zM22 2.188l-20.5 1.281c-0.87 0.055-1.556 0.814-1.5 1.688l1.063 16.281c0.056 0.874 0.818 1.555 1.688 1.5l1.219-0.094-0.25 3.563c-0.069 0.941 0.658 1.775 1.594 1.844l23.469 1.719c0.936 0.069 1.775-0.653 1.844-1.594l1.375-18.5c0.069-0.941-0.658-1.775-1.594-1.844l-6.438-0.469-0.25-3.906c-0.056-0.874-0.849-1.524-1.719-1.469zM22.094 3.656c0.077-0.005 0.121 0.034 0.125 0.094l0.219 3.688-15.5-1.125c-0.936-0.069-1.806 0.653-1.875 1.594l-0.969 13.438-1.438 0.094c-0.077 0.005-0.121-0.034-0.125-0.094l-1.031-16.281c-0.004-0.060 0.017-0.089 0.094-0.094l20.5-1.313zM6.813 7.813l23.469 1.719c0.148 0.011 0.228 0.097 0.219 0.219l-1.375 18.531c-0.009 0.122-0.071 0.198-0.219 0.188l-23.469-1.719c-0.148-0.011-0.259-0.128-0.25-0.25l1.375-18.5c0.009-0.122 0.102-0.198 0.25-0.188z"></path>
</svg>
