<svg xmlns="http://www.w3.org/2000/svg" width="32" height="32"><path d="M8.408 11.69l19.943 1.514-.303 3.989-19.943-1.514zm-.528 7.344l19.943 1.514-.303 3.989-19.943-1.514zM22 2.188L1.5 3.469c-.87.055-1.556.814-1.5 1.688l1.063 16.281c.056.874.818 1.555 1.688 1.5l1.219-.094-.25 3.563a1.738 1.738 0 001.594 1.844l23.469 1.719a1.737 1.737 0 001.844-1.594l1.375-18.5a1.738 1.738 0 00-1.594-1.844l-6.438-.469-.25-3.906c-.056-.874-.849-1.524-1.719-1.469zm.094 1.468c.077-.005.121.034.125.094l.219 3.688-15.5-1.125c-.936-.069-1.806.653-1.875 1.594l-.969 13.438-1.438.094c-.077.005-.121-.034-.125-.094L1.5 5.064c-.004-.06.017-.089.094-.094l20.5-1.313zM6.813 7.813l23.469 1.719c.148.011.228.097.219.219l-1.375 18.531c-.009.122-.071.198-.219.188L5.438 26.751c-.148-.011-.259-.128-.25-.25l1.375-18.5c.009-.122.102-.198.25-.188z"/></svg>