<svg xmlns="http://www.w3.org/2000/svg" width="20" height="20"><path d="M.5 1.77l3.361 3.36a11.673 11.673 0 00-3.74 4.352 1.17 1.17 0 000 1.036c2.737 5.4 8.893 7.834 14.4 5.273l3.71 3.709 1.269-1.27L1.77.5zm6.838 1.759L8.78 4.973c4.514-.659 8.117 2.32 9.477 5.027a10.038 10.038 0 01-1.934 2.516l1.203 1.203a11.822 11.822 0 002.348-3.201c.167-.325.167-.71 0-1.036-2.352-4.676-7.488-7.313-12.536-5.953zm2.519 2.52l4.018 4.017c.036-2.296-1.777-4.201-4.018-4.017zm-4.761.316l2.677 2.678a1.83 1.83 0 01-1.49-.152c-.95 3.917 3.076 6.213 5.79 4.45l1.142 1.143C8.8 16.143 4.199 14.387 1.738 10a9.779 9.779 0 013.358-3.635z"/></svg>