<?xml version="1.0" encoding="UTF-8" standalone="no"?>
<!-- Generated by IcoMoon.io -->

<svg
   xmlns:dc="http://purl.org/dc/elements/1.1/"
   xmlns:cc="http://creativecommons.org/ns#"
   xmlns:rdf="http://www.w3.org/1999/02/22-rdf-syntax-ns#"
   xmlns:svg="http://www.w3.org/2000/svg"
   xmlns="http://www.w3.org/2000/svg"
   xmlns:sodipodi="http://sodipodi.sourceforge.net/DTD/sodipodi-0.dtd"
   xmlns:inkscape="http://www.inkscape.org/namespaces/inkscape"
   version="1.1"
   width="32"
   height="32"
   viewBox="0 0 32 32"
   id="svg2"
   inkscape:version="0.48.4 r9939"
   sodipodi:docname="zoom-max.svg">
  <metadata
     id="metadata10">
    <rdf:RDF>
      <cc:Work
         rdf:about="">
        <dc:format>image/svg+xml</dc:format>
        <dc:type
           rdf:resource="http://purl.org/dc/dcmitype/StillImage" />
      </cc:Work>
    </rdf:RDF>
  </metadata>
  <defs
     id="defs8" />
  <sodipodi:namedview
     pagecolor="#ffffff"
     bordercolor="#666666"
     borderopacity="1"
     objecttolerance="10"
     gridtolerance="10"
     guidetolerance="10"
     inkscape:pageopacity="0"
     inkscape:pageshadow="2"
     inkscape:window-width="1920"
     inkscape:window-height="1028"
     id="namedview6"
     showgrid="false"
     inkscape:zoom="14.75"
     inkscape:cx="14.089916"
     inkscape:cy="15.464614"
     inkscape:window-x="0"
     inkscape:window-y="25"
     inkscape:window-maximized="1"
     inkscape:current-layer="svg2" />
  <path
     id="path2998"
     d="M 1.1179532,1.1274135 C 1.2019696,1.0425515 1.3041428,1.0001293 1.4244525,1.0001243 l 6.6431397,0.272907 c 0.1801351,0.012216 0.3031377,0.1001297 0.3690115,0.263741 0.059825,0.1697131 0.029744,0.3151679 -0.090242,0.4363451 L 6.3299327,4.0097402 7.7557629,5.4497965 C 7.8397789,5.5346595 7.8817851,5.631739 7.881788,5.7410346 7.8817945,5.8503283 7.83977,5.9474138 7.7557605,6.0322728 L 6.027178,7.7781647 c -0.084016,0.084862 -0.1801357,0.1272883 -0.28835,0.1272911 -0.1082189,0 -0.2043338,-0.042441 -0.2883493,-0.127291 L 4.0246486,6.3381087 2.0082185,8.3747321 C 1.8821922,8.5020204 1.7381831,8.5323968 1.5761994,8.4658758 1.4142171,8.3993414 1.3241407,8.2781676 1.3059952,8.1023397 L 0.999999,1.4288429 c 0,-0.1215251 0.0389843,-0.2216524 0.1169526,-0.3004046 z M 30.882045,30.872711 c -0.08402,0.08486 -0.18619,0.127284 -0.3065,0.127289 l -6.643139,-0.272907 c -0.180135,-0.01222 -0.303137,-0.10013 -0.369012,-0.263741 -0.05983,-0.169713 -0.02975,-0.315168 0.09024,-0.436346 l 2.01643,-2.036623 -1.425831,-1.440056 c -0.08402,-0.08486 -0.126023,-0.181942 -0.126025,-0.291237 -7e-6,-0.109294 0.04202,-0.20638 0.126027,-0.291238 l 1.728583,-1.745893 c 0.08402,-0.08486 0.180136,-0.127288 0.28835,-0.127291 0.108219,0 0.204334,0.04244 0.288349,0.127291 l 1.42583,1.440057 2.016431,-2.036623 c 0.126027,-0.127289 0.270035,-0.157665 0.432018,-0.09114 0.161983,0.06653 0.25206,0.187708 0.270204,0.363536 l 0.306001,6.673493 c 0,0.121526 -0.03899,0.221652 -0.116953,0.300404 z m -0.0089,-29.7542178 c 0.08449,0.084396 0.126715,0.1870242 0.126719,0.307875 l -0.271687,6.6729751 c -0.01216,0.1809437 -0.09969,0.304499 -0.262564,0.370666 -0.168958,0.060094 -0.313757,0.029878 -0.434394,-0.090647 L 28.003702,6.3538746 26.570061,7.7860845 c -0.08448,0.084394 -0.181126,0.1265916 -0.289937,0.1265912 -0.108808,6.6e-6 -0.205454,-0.042203 -0.289934,-0.1265935 L 24.252121,6.0497366 C 24.167631,5.9653406 24.125402,5.8687917 24.1254,5.7600924 c 0,-0.1087069 0.04225,-0.2052513 0.126721,-0.2896455 L 25.685762,4.0382368 23.658248,2.0127474 c -0.126719,-0.1265923 -0.156961,-0.2712498 -0.09074,-0.4339608 0.06624,-0.1627096 0.18687,-0.2531871 0.36191,-0.2714167 l 6.64366,-0.3073698 c 0.120979,0 0.220663,0.039161 0.299061,0.1174781 z M 26.673062,15.464864 C 26.614845,14.01564 26.279286,12.641313 25.666382,11.341883 25.053477,10.042455 24.25103,8.9331498 23.259041,8.0139708 22.267052,7.0947918 21.101679,6.3807128 19.762927,5.8717339 18.424174,5.3627553 17.03345,5.1375039 15.590754,5.19598 14.148059,5.2544562 12.779922,5.5915313 11.486346,6.2072049 10.192773,6.8228789 9.0884664,7.6289538 8.1734311,8.6254294 7.2583955,9.6219049 6.5475363,10.792549 6.0408534,12.137356 c -0.5066826,1.34481 -0.7309154,2.741827 -0.6726986,4.191051 0.08956,2.229445 0.7960827,4.225581 2.1195714,5.988406 l -4.980386,5.42365 c -0.358317,0.390207 -0.5266934,0.853706 -0.50513,1.390498 0.021563,0.536792 0.2292149,0.987607 0.622955,1.352447 0.3937402,0.364841 0.8577965,0.536431 1.3921705,0.514771 0.5445419,-0.02207 0.9906813,-0.233113 1.3384203,-0.633121 l 4.981002,-5.408328 c 1.855814,1.183121 3.893423,1.729704 6.112825,1.639745 1.442696,-0.05847 2.810832,-0.395552 4.104406,-1.011226 1.293575,-0.615674 2.39788,-1.421747 3.312914,-2.418224 0.915038,-0.996475 1.625896,-2.167117 2.132579,-3.511926 0.506682,-1.344808 0.730915,-2.741826 0.672699,-4.19105 z m -3.873079,0.156986 c 0.07531,1.874801 -0.523438,3.505247 -1.796248,4.891339 -1.272811,1.386094 -2.842393,2.116964 -4.708747,2.192612 -1.866355,0.07565 -3.489457,-0.525814 -4.869309,-1.804389 -1.379854,-1.278573 -2.107437,-2.855258 -2.1827494,-4.730059 -0.075312,-1.8748 0.5234368,-3.505246 1.7962484,-4.891338 1.272809,-1.3860931 2.842392,-2.1169641 4.708747,-2.1926121 1.866353,-0.07565 3.489456,0.525815 4.869309,1.8043881 1.379852,1.278573 2.107436,2.855261 2.182749,4.730059 z"
     inkscape:connector-curvature="0"
     sodipodi:nodetypes="cccccccccccccsccccccccccccccscccscccccccccccsccccccsccccccsssssssscssssccssssccsssssssss" />
</svg>
