<svg xmlns="http://www.w3.org/2000/svg" width="20" height="20"><path d="M1 1v5l1.302-2.306 1.518 1.55 1.416-1.416-1.538-1.522L6 1zm13 0l2.302 1.306-1.538 1.522 1.416 1.416 1.518-1.55L19 6V1zM9.682 3.525a7.303 7.303 0 00-.996.12C3.768 4.8 2.312 10.27 4.893 13.789l-2.99 3.254c-1.037 1.227.687 2.66 1.708 1.574l2.99-3.244c3.546 2.247 8.108.457 9.399-3.182 1.6-3.947-1.454-8.91-6.318-8.666zm.183 2.317c2.16-.07 4.196 1.657 4.215 3.931l-.002-.002c.156 3.627-4.154 5.628-6.824 3.168-1.775-1.655-1.66-4.265-.229-5.771.853-.89 1.86-1.294 2.84-1.326zM19 14l-1.302 2.306-1.518-1.55-1.416 1.416 1.538 1.522L14 19h5z"/></svg>