<?xml version="1.0" encoding="UTF-8" standalone="no"?>
<!-- Created with Inkscape (http://www.inkscape.org/) -->

<svg
   xmlns:dc="http://purl.org/dc/elements/1.1/"
   xmlns:cc="http://creativecommons.org/ns#"
   xmlns:rdf="http://www.w3.org/1999/02/22-rdf-syntax-ns#"
   xmlns:svg="http://www.w3.org/2000/svg"
   xmlns="http://www.w3.org/2000/svg"
   xmlns:sodipodi="http://sodipodi.sourceforge.net/DTD/sodipodi-0.dtd"
   xmlns:inkscape="http://www.inkscape.org/namespaces/inkscape"
   width="32"
   height="32"
   id="svg4344"
   version="1.1"
   inkscape:version="0.48.4 r9939"
   sodipodi:docname="zoom-max.svg">
  <defs
     id="defs4346" />
  <sodipodi:namedview
     id="base"
     pagecolor="#ffffff"
     bordercolor="#666666"
     borderopacity="1.0"
     inkscape:pageopacity="0.0"
     inkscape:pageshadow="2"
     inkscape:zoom="5.3333334"
     inkscape:cx="-43.6081"
     inkscape:cy="-1.6394115"
     inkscape:document-units="px"
     inkscape:current-layer="layer1"
     showgrid="false"
     inkscape:window-width="1334"
     inkscape:window-height="749"
     inkscape:window-x="27"
     inkscape:window-y="42"
     inkscape:window-maximized="0"
     showguides="true"
     inkscape:guide-bbox="true">
    <sodipodi:guide
       orientation="0,1"
       position="-0.53125,12"
       id="guide3013" />
    <sodipodi:guide
       orientation="1,0"
       position="12,24.265625"
       id="guide3015" />
  </sodipodi:namedview>
  <metadata
     id="metadata4349">
    <rdf:RDF>
      <cc:Work
         rdf:about="">
        <dc:format>image/svg+xml</dc:format>
        <dc:type
           rdf:resource="http://purl.org/dc/dcmitype/StillImage" />
        <dc:title />
      </cc:Work>
    </rdf:RDF>
  </metadata>
  <g
     inkscape:label="Layer 1"
     inkscape:groupmode="layer"
     id="layer1"
     transform="translate(0,-1020.3622)">
    <path
       d="m 1,1021.3622 0,1.6797 0,9.4922 3.3984375,0 0,-7.7734 7.8515625,0 0,-3.3985 -9.5703125,0 -1.6796875,0 z m 18.75,0 0,3.3985 7.851562,0 0,7.7734 3.398438,0 0,-9.4922 0,-1.6797 -1.679687,0 -9.570313,0 z M 1,1040.1513 l 0,9.4922 0,1.7187 1.6796875,0 9.5703125,0 0,-3.3983 -7.8515625,0 0,-7.8126 -3.3984375,0 z m 26.601562,0 0,7.8126 -7.851562,0 0,3.3983 9.570313,0 1.679687,0 0,-1.7187 0,-9.4922 -3.398438,0 z"
       id="path3034"
       inkscape:connector-curvature="0" />
  </g>
</svg>
