<?xml version="1.0" encoding="UTF-8" standalone="no"?>
<!-- Generated by IcoMoon.io -->

<svg
   xmlns:dc="http://purl.org/dc/elements/1.1/"
   xmlns:cc="http://creativecommons.org/ns#"
   xmlns:rdf="http://www.w3.org/1999/02/22-rdf-syntax-ns#"
   xmlns:svg="http://www.w3.org/2000/svg"
   xmlns="http://www.w3.org/2000/svg"
   xmlns:sodipodi="http://sodipodi.sourceforge.net/DTD/sodipodi-0.dtd"
   xmlns:inkscape="http://www.inkscape.org/namespaces/inkscape"
   version="1.1"
   width="32"
   height="32"
   viewBox="0 0 32 32"
   id="svg2"
   inkscape:version="0.48.4 r9939"
   sodipodi:docname="compass.svg">
  <metadata
     id="metadata10">
    <rdf:RDF>
      <cc:Work
         rdf:about="">
        <dc:format>image/svg+xml</dc:format>
        <dc:type
           rdf:resource="http://purl.org/dc/dcmitype/StillImage" />
        <dc:title />
      </cc:Work>
    </rdf:RDF>
  </metadata>
  <defs
     id="defs8" />
  <sodipodi:namedview
     pagecolor="#ffffff"
     bordercolor="#666666"
     borderopacity="1"
     objecttolerance="10"
     gridtolerance="10"
     guidetolerance="10"
     inkscape:pageopacity="0"
     inkscape:pageshadow="2"
     inkscape:window-width="1920"
     inkscape:window-height="1028"
     id="namedview6"
     showgrid="false"
     inkscape:zoom="20.85965"
     inkscape:cx="23.856118"
     inkscape:cy="14.132849"
     inkscape:window-x="0"
     inkscape:window-y="25"
     inkscape:window-maximized="1"
     inkscape:current-layer="svg2" />
  <path
     sodipodi:type="arc"
     style="opacity:1;fill:#ffffff;fill-opacity:1;stroke:none"
     id="path2982"
     sodipodi:cx="18.456686"
     sodipodi:cy="18.672834"
     sodipodi:rx="12.560134"
     sodipodi:ry="12.560134"
     d="m 31.01682,18.672834 a 12.560134,12.560134 0 1 1 -25.1202679,0 12.560134,12.560134 0 1 1 25.1202679,0 z"
     transform="matrix(1.1942548,0,0,1.1942548,-6.0419859,-6.3001221)" />
  <path
     style="fill:#333333;fill-opacity:1"
     d="M 16,1 C 12.15766,1 8.3283787,2.4780909 5.3970274,5.4081671 c -5.8627032,5.8601529 -5.8627032,15.3365669 0,21.1967189 5.8627026,5.860152 15.3432416,5.860152 21.2059446,0 5.862704,-5.860152 5.862704,-15.336566 0,-21.1967189 C 23.671621,2.4780909 19.84234,1 16,1 z m 0,1.6882342 c 7.369964,0 13.355367,5.9827977 13.355367,13.3495558 0,7.366758 -5.985403,13.349556 -13.355367,13.349556 -7.3699647,0 -13.3553666,-5.982798 -13.3553666,-13.349556 C 2.6446334,8.6710319 8.6300353,2.6882342 16,2.6882342 z m -0.469158,1.1880167 -4.847967,12.1302751 4.847967,12.130276 c 0.460576,1.223133 0.546237,1.092828 0.938316,0 L 21.317125,16.006526 16.469158,3.8762509 c -0.448147,-1.1028139 -0.548147,-0.9491318 -0.938316,0 z m -2.564731,12.1302751 6.067778,0 L 16,23.60358 z"
     id="path4"
     inkscape:connector-curvature="0"
     sodipodi:nodetypes="sssssssssssccccccccccc" />
</svg>
