<svg xmlns="http://www.w3.org/2000/svg" viewBox="0 0 20 20"><path d="M6.465 9.293c1.133-1.133 3.109-1.133 4.242 0l.707.707 1.414-1.414-.707-.707c-2.088-2.052-5.202-1.852-7.07 0L2.929 10a5.008 5.008 0 0 0 0 7.071c2.029 2.018 5.217 1.871 7.071 0l.707-.707-1.414-1.414-.707.707a3.007 3.007 0 0 1-4.243 0 3.005 3.005 0 0 1 0-4.243z"/><path d="m10 2.929-.707.707 1.414 1.414.707-.707a3.007 3.007 0 0 1 4.243 0 3.005 3.005 0 0 1 0 4.243l-2.122 2.121c-1.133 1.133-3.109 1.133-4.242 0L8.586 10l-1.414 1.414.707.707c2.058 2.014 5.187 1.89 7.07 0L17.071 10a5.008 5.008 0 0 0 0-7.071 5.006 5.006 0 0 0-7.071 0z"/></svg>