<?xml version="1.0" encoding="UTF-8" standalone="no"?>
<!-- Created with Inkscape (http://www.inkscape.org/) -->

<svg
   xmlns:dc="http://purl.org/dc/elements/1.1/"
   xmlns:cc="http://creativecommons.org/ns#"
   xmlns:rdf="http://www.w3.org/1999/02/22-rdf-syntax-ns#"
   xmlns:svg="http://www.w3.org/2000/svg"
   xmlns="http://www.w3.org/2000/svg"
   xmlns:xlink="http://www.w3.org/1999/xlink"
   xmlns:sodipodi="http://sodipodi.sourceforge.net/DTD/sodipodi-0.dtd"
   xmlns:inkscape="http://www.inkscape.org/namespaces/inkscape"
   width="720"
   height="400"
   id="svg4155"
   version="1.1"
   inkscape:version="0.48.4 r9939"
   sodipodi:docname="docker_pucture.svg">
  <defs
     id="defs4157">
    <clipPath
       clipPathUnits="userSpaceOnUse"
       id="clipPath4144">
      <rect
         style="fill:#000000;stroke:none"
         id="rect4146"
         width="42.875"
         height="39.625"
         x="565.16125"
         y="646.18127"
         transform="matrix(0.99990096,-0.01407388,0.01407388,0.99990096,0,0)" />
    </clipPath>
    <linearGradient
       id="linearGradient5342-4-9-7">
      <stop
         style="stop-color:#0d4100;stop-opacity:1;"
         offset="0"
         id="stop5344-0-0-6" />
      <stop
         style="stop-color:#129300;stop-opacity:1;"
         offset="1"
         id="stop5346-85-9-0" />
    </linearGradient>
    <linearGradient
       id="linearGradient5342-4-0-4">
      <stop
         style="stop-color:#0d1d00;stop-opacity:1;"
         offset="0"
         id="stop5344-0-9-7" />
      <stop
         style="stop-color:#0d7200;stop-opacity:1;"
         offset="1"
         id="stop5346-85-5-3" />
    </linearGradient>
    <clipPath
       clipPathUnits="userSpaceOnUse"
       id="clipPath4825-8">
      <path
         style="fill:#e4f363;fill-opacity:1;stroke:none"
         d="m 485.06341,446.7935 c -9.77401,0.51743 -17.5625,8.97625 -17.5625,19.3125 0,10.66968 8.28361,19.3125 18.5,19.3125 1.1046,0 2.16736,-0.11879 3.21875,-0.3125 l 0,3.09375 c 0.085,1.31607 1.67268,4.12266 6.65625,4.15625 5.76986,0.0389 8.44866,-3.49777 8.9375,-4.5625 0.90942,-2.43008 0.73396,-3.98858 0.6875,-4.96875 -0.019,0.58818 -1.99576,4.1014 -5.09375,4.21875 -4.98011,0.18864 -4.4375,-0.71244 -4.4375,-2.03125 l 0,-2.625 c 5.12836,-3.43242 8.53125,-9.44688 8.53125,-16.28125 0,-10.66968 -8.28361,-19.3125 -18.5,-19.3125 -0.31926,0 -0.62221,-0.0167 -0.9375,0 z m 0.625,1.375 c 3.87037,0 7,7.86055 7,17.59375 0,2.16342 -0.15449,4.24122 -0.4375,6.15625 -1.61816,-0.66461 -3.68163,-1.19682 -6.1875,-1.1875 -3.70225,0.0138 -5.98672,0.85933 -6.875,1.46875 -0.3101,-1.99278 -0.5,-4.16771 -0.5,-6.4375 0,-9.7332 3.12963,-17.59375 7,-17.59375 z m -1.28125,23.46875 c 3.73877,0.0637 4.8125,1.51573 4.8125,2.28125 l 0,7.0625 c -1.03594,1.52517 -2.24316,2.40625 -3.53125,2.40625 -2.82374,0 -5.23629,-4.19827 -6.34375,-10.25 0.89383,-0.63738 2.70035,-1.54023 5.0625,-1.5 z"
         id="path4827-5"
         inkscape:connector-curvature="0"
         inkscape:export-filename="/home/webmaster/Desktop/path3895-6-6-7-4-4-0_2.png"
         inkscape:export-xdpi="300"
         inkscape:export-ydpi="300" />
    </clipPath>
    <filter
       color-interpolation-filters="sRGB"
       inkscape:collect="always"
       id="filter4776-5"
       x="-0.33183911"
       width="1.6636782"
       y="-0.39338365"
       height="1.7867672">
      <feGaussianBlur
         inkscape:collect="always"
         stdDeviation="0.65194979"
         id="feGaussianBlur4778-0" />
    </filter>
    <linearGradient
       id="linearGradient5342-4-9">
      <stop
         style="stop-color:#0d4100;stop-opacity:1;"
         offset="0"
         id="stop5344-0-0" />
      <stop
         style="stop-color:#129300;stop-opacity:1;"
         offset="1"
         id="stop5346-85-9" />
    </linearGradient>
    <linearGradient
       id="linearGradient3051">
      <stop
         style="stop-color:#0d1d00;stop-opacity:1;"
         offset="0"
         id="stop3053" />
      <stop
         style="stop-color:#0d7200;stop-opacity:1;"
         offset="1"
         id="stop3055" />
    </linearGradient>
    <clipPath
       id="clipPath8">
      <path
         inkscape:connector-curvature="0"
         d="m 76,2 0,46 -22,0 0,23 -18.419263,0 c -0.07818,0.665694 -0.141485,1.332869 -0.205737,2 -1.151162,12.530963 1.036422,24.087546 6.0625,33.96875 L 43.125,110 c 1.011403,1.81678 2.191241,3.52297 3.4375,5.1875 1.244725,1.66248 1.685716,2.58262 2.46875,3.6875 C 62.319911,133.81083 82.129473,141 105,141 155.64836,141 198.63299,118.56201 217.65625,68.15625 231.15302,69.54122 244.09968,66.080358 250,54.5625 240.60137,49.138835 228.52163,50.877226 221.5625,54.375 L 240,2 168,48 145,48 145,2 z"
         id="path10-0" />
    </clipPath>
    <clipPath
       id="clipPath3017">
      <path
         inkscape:connector-curvature="0"
         d="m 76,2 0,46 -22,0 0,23 -18.419263,0 c -0.07818,0.665694 -0.141485,1.332869 -0.205737,2 -1.151162,12.530963 1.036422,24.087546 6.0625,33.96875 L 43.125,110 c 1.011403,1.81678 2.191241,3.52297 3.4375,5.1875 1.244725,1.66248 1.685716,2.58262 2.46875,3.6875 C 62.319911,133.81083 82.129473,141 105,141 155.64836,141 198.63299,118.56201 217.65625,68.15625 231.15302,69.54122 244.09968,66.080358 250,54.5625 240.60137,49.138835 228.52163,50.877226 221.5625,54.375 L 240,2 168,48 145,48 145,2 z"
         id="path3019" />
    </clipPath>
    <clipPath
       id="clipPath3021">
      <path
         inkscape:connector-curvature="0"
         d="m 76,2 0,46 -22,0 0,23 -18.419263,0 c -0.07818,0.665694 -0.141485,1.332869 -0.205737,2 -1.151162,12.530963 1.036422,24.087546 6.0625,33.96875 L 43.125,110 c 1.011403,1.81678 2.191241,3.52297 3.4375,5.1875 1.244725,1.66248 1.685716,2.58262 2.46875,3.6875 C 62.319911,133.81083 82.129473,141 105,141 155.64836,141 198.63299,118.56201 217.65625,68.15625 231.15302,69.54122 244.09968,66.080358 250,54.5625 240.60137,49.138835 228.52163,50.877226 221.5625,54.375 L 240,2 168,48 145,48 145,2 z"
         id="path3023" />
    </clipPath>
    <clipPath
       id="clipPath3025">
      <path
         inkscape:connector-curvature="0"
         d="m 76,2 0,46 -22,0 0,23 -18.419263,0 c -0.07818,0.665694 -0.141485,1.332869 -0.205737,2 -1.151162,12.530963 1.036422,24.087546 6.0625,33.96875 L 43.125,110 c 1.011403,1.81678 2.191241,3.52297 3.4375,5.1875 1.244725,1.66248 1.685716,2.58262 2.46875,3.6875 C 62.319911,133.81083 82.129473,141 105,141 155.64836,141 198.63299,118.56201 217.65625,68.15625 231.15302,69.54122 244.09968,66.080358 250,54.5625 240.60137,49.138835 228.52163,50.877226 221.5625,54.375 L 240,2 168,48 145,48 145,2 z"
         id="path3027" />
    </clipPath>
    <clipPath
       id="clipPath3029">
      <path
         inkscape:connector-curvature="0"
         d="m 76,2 0,46 -22,0 0,23 -18.419263,0 c -0.07818,0.665694 -0.141485,1.332869 -0.205737,2 -1.151162,12.530963 1.036422,24.087546 6.0625,33.96875 L 43.125,110 c 1.011403,1.81678 2.191241,3.52297 3.4375,5.1875 1.244725,1.66248 1.685716,2.58262 2.46875,3.6875 C 62.319911,133.81083 82.129473,141 105,141 155.64836,141 198.63299,118.56201 217.65625,68.15625 231.15302,69.54122 244.09968,66.080358 250,54.5625 240.60137,49.138835 228.52163,50.877226 221.5625,54.375 L 240,2 168,48 145,48 145,2 z"
         id="path3031" />
    </clipPath>
  </defs>
  <sodipodi:namedview
     id="base"
     pagecolor="#ffffff"
     bordercolor="#666666"
     borderopacity="1.0"
     inkscape:pageopacity="0.0"
     inkscape:pageshadow="2"
     inkscape:zoom="0.32212109"
     inkscape:cx="435.41825"
     inkscape:cy="160.41725"
     inkscape:document-units="px"
     inkscape:current-layer="layer1"
     showgrid="false"
     showguides="true"
     inkscape:guide-bbox="true"
     inkscape:window-width="1920"
     inkscape:window-height="1177"
     inkscape:window-x="1920"
     inkscape:window-y="0"
     inkscape:window-maximized="1" />
  <metadata
     id="metadata4160">
    <rdf:RDF>
      <cc:Work
         rdf:about="">
        <dc:format>image/svg+xml</dc:format>
        <dc:type
           rdf:resource="http://purl.org/dc/dcmitype/StillImage" />
        <dc:title></dc:title>
      </cc:Work>
    </rdf:RDF>
  </metadata>
  <g
     inkscape:label="Layer 1"
     inkscape:groupmode="layer"
     id="layer1"
     transform="translate(0,-652.3622)">
    <g
       id="g4663"
       transform="matrix(1.5898366,0,0,1.5898366,-179.08803,-463.33882)">
      <path
         style="fill:none;stroke:#394d54;stroke-width:7.71189356;stroke-linecap:round;stroke-linejoin:round"
         id="path12-8"
         d="m 362.73903,930.11641 -0.0309,-18.77134 -0.0932,-33.53366 m 18.98893,14.4515 -18.8957,19.08216 18.98893,18.83355 M 255.1144,911.59369 c 0.0911,-4.02554 -1.07896,-8.13892 -3.44971,-11.46795 -3.41619,-4.79703 -8.9452,-8.07209 -15.01088,-8.14259 -0.40439,0 -0.80467,0 -1.21207,0.0308 -2.3979,0.14814 -4.72014,0.48137 -6.77511,1.33643 -13.51459,5.62307 -15.90913,24.39008 -4.50638,32.88095 9.87471,7.35302 24.23852,4.35075 29.21376,-6.86829 1.05134,-2.37078 1.74039,-5.35955 1.74039,-7.76962 l 0,-33.93763 m 91.18507,16.56486 c -2.79826,-1.8081 -6.06268,-2.46046 -9.29245,-2.45525 -0.35021,0 -0.71029,0.0177 -1.02558,0.0308 -9.33718,0.40161 -17.99443,6.99976 -17.99443,19.79701 0,15.13023 16.22295,23.2961 28.34355,16.16076 M 400.78,926.10691 c 9.54959,-8.18012 28.68542,-24.58301 28.68542,-24.58301 0,0 -0.69767,-1.31998 -1.1499,-1.92688 -3.86139,-5.18203 -9.76054,-7.76962 -15.97433,-7.76962 -15.35674,0 -26.86791,19.85739 -11.56119,34.27951 1.05984,0.99858 2.51572,1.78072 4.13344,2.45518 5.6168,2.34177 13.30598,2.14971 17.46608,-0.93233 M 286.50146,891.88965 c -0.43533,0.008 -0.8681,0.0544 -1.30529,0.0625 -11.64478,0.21395 -20.04076,12.30907 -17.49718,23.52642 2.47867,10.93098 14.42053,17.40376 24.73844,13.82985 12.01484,-3.15027 16.91521,-18.2799 10.31806,-28.4989 -3.60814,-5.58907 -9.72379,-9.04362 -16.25403,-8.9195 z m 176.8053,0.37296 c -4.71536,0.0125 -9.30769,1.66416 -12.71108,4.84821 -5.36724,4.42979 -6.5327,10.02355 -6.46433,17.09316 l 0.1554,16.06754"
         inkscape:connector-curvature="0" />
      <path
         style="fill:#394d54"
         id="path14-4"
         d="m 360.13839,764.16339 22.866,0 0,23.3748 11.56177,0 c 5.33905,0 10.83073,-0.9512 15.887,-2.6645 2.48448,-0.8424 5.27317,-2.0148 7.72392,-3.4892 -3.22785,-4.2144 -4.87579,-9.5357 -5.36101,-14.781 -0.65874,-7.1343 0.78032,-16.4205 5.60897,-22.0043 l 2.40362,-2.7801 2.8642,2.3024 c 7.21138,5.7938 13.27612,13.8894 14.3451,23.1182 8.68312,-2.5541 18.87759,-1.95 26.53135,2.4674 l 3.14002,1.8118 -1.65276,3.2257 c -6.47289,12.6333 -20.00501,16.5467 -33.23507,15.8542 -19.79715,49.3084 -62.89781,72.6526 -115.15715,72.6526 -26.99889,0 -51.76984,-10.0927 -65.87555,-34.0469 -0.82702,-1.488 -1.53523,-3.0439 -2.28632,-4.5721 -4.76814,-10.5442 -6.3518,-22.0953 -5.27746,-33.6367 l 0.32241,-3.4571 19.55294,0 0,-23.3747 22.866,0 0,-22.866 45.73199,0 0,-22.866 27.43967,0 0,45.732"
         inkscape:connector-curvature="0" />
      <g
         id="g16"
         clip-path="url(#clipPath8)"
         transform="translate(212.65079,718.43139)">
        <g
           id="g18">
          <g
             id="g20"
             transform="translate(0,-22.866)">
            <path
               style="fill:#00acd3"
               id="path22"
               d="m 123.85901,3.8110794 19.81751,0 0,19.8169706 -19.81751,0 z"
               inkscape:connector-curvature="0" />
            <path
               style="fill:#20c2ef"
               id="path24"
               d="m 123.85901,26.676485 19.81751,0 0,19.818043 -19.81751,0 z"
               inkscape:connector-curvature="0" />
            <path
               style="stroke:#394d54;stroke-width:1.55999994"
               id="path26"
               d="m 126.29235,21.976904 0,-16.5157492 m 2.97185,16.5157492 0,-16.5157492 m 3.00184,16.5157492 0,-16.5157492 m 3.00344,16.5157492 0,-16.5157492 m 3.00292,16.5157492 0,-16.5157492 m 2.97131,16.5157492 0,-16.5157492"
               inkscape:connector-curvature="0" />
            <use
               xlink:href="#path26"
               id="use28"
               transform="translate(0,22.866)"
               x="0"
               y="0"
               width="744.09448"
               height="1052.3622" />
          </g>
          <use
             xlink:href="#g20"
             id="use30"
             transform="matrix(1,0,0,-1,22.866,4.572651)"
             x="0"
             y="0"
             width="744.09448"
             height="1052.3622" />
        </g>
        <use
           xlink:href="#g18"
           id="use32"
           transform="translate(-91.464,45.732)"
           x="0"
           y="0"
           width="744.09448"
           height="1052.3622" />
        <use
           xlink:href="#g18"
           id="use34"
           transform="translate(-45.732,45.732)"
           x="0"
           y="0"
           width="744.09448"
           height="1052.3622" />
        <use
           xlink:href="#g18"
           id="use36"
           transform="translate(0,45.732)"
           x="0"
           y="0"
           width="744.09448"
           height="1052.3622" />
      </g>
      <path
         style="fill:#17b5eb"
         id="path38"
         clip-path="url(#clipPath8)"
         d="m 221.57014,54.379649 c 1.53332,-11.915247 -7.38383,-21.274779 -12.91407,-25.71836 -6.37269,7.367765 -7.36295,26.677556 2.63498,34.807431 -5.57952,4.956117 -17.33731,9.448435 -29.37574,9.448435 L 34,72.917155 C 32.829255,85.484184 34,146 34,146 l 217,0 -0.98657,-91.424 c -9.39863,-5.423665 -21.48419,-3.694326 -28.44332,-0.196552"
         inkscape:connector-curvature="0"
         transform="translate(212.65079,718.43139)" />
      <path
         style="fill-opacity:0.17000002"
         id="path40"
         clip-path="url(#clipPath8)"
         d="m 34,89 0,57 217,0 0,-57"
         inkscape:connector-curvature="0"
         transform="translate(212.65079,718.43139)" />
      <path
         style="fill:#d4edf1"
         id="path42"
         clip-path="url(#clipPath8)"
         d="M 111.23736,140.88997 C 97.697741,134.4648 90.265707,125.73081 86.130611,116.19562 L 45,118 l 21,28 45.23736,-5.11003"
         inkscape:connector-curvature="0"
         transform="translate(212.65079,718.43139)" />
      <path
         style="fill-opacity:0.08500001"
         id="path44"
         clip-path="url(#clipPath8)"
         d="m 222.5,53.9375 0,0.03125 c -20.86119,26.889144 -50.78312,50.37872 -82.90625,62.71875 -28.65478,11.00767 -53.638381,11.06039 -70.875,2.21875 -1.85607,-1.04832 -3.675701,-2.21152 -5.5,-3.3125 C 50.582097,106.76175 43.464274,92.152308 44.0625,72.90625 L 34,72.90625 34,146 l 217,0 0,-96 -25,0 z"
         inkscape:connector-curvature="0"
         transform="translate(212.65079,718.43139)" />
      <path
         style="fill:none;stroke:#394d54;stroke-width:3.4000001;stroke-linecap:round"
         id="path46"
         d="m 258.27579,835.46269 c 14.16516,0.7753 29.28245,0.9143 42.46875,-3.2188"
         inkscape:connector-curvature="0" />
      <path
         style="fill:#d4edf1"
         id="path48"
         d="m 314.82103,825.39069 c 0,3.019 -2.44752,5.4665 -5.4665,5.4665 -3.01952,0 -5.46758,-2.4475 -5.46758,-5.4665 0,-3.019 2.44806,-5.4676 5.46758,-5.4676 3.01898,0 5.4665,2.4486 5.4665,5.4676 z"
         inkscape:connector-curvature="0" />
      <path
         style="fill:#394d54"
         id="path50"
         d="m 310.77217,821.73919 c -0.47719,0.2758 -0.80014,0.7926 -0.80014,1.3839 0,0.8826 0.71552,1.5971 1.59813,1.5971 0.60465,0 1.13004,-0.3358 1.40157,-0.8318 0.19173,0.4622 0.29831,0.9699 0.29831,1.5023 0,2.1621 -1.7529,3.915 -3.91551,3.915 -2.16208,0 -3.91605,-1.7529 -3.91605,-3.915 0,-2.1632 1.75397,-3.9166 3.91605,-3.9166 0.50021,0 0.9774,0.094 1.41764,0.2651 z"
         inkscape:connector-curvature="0" />
      <path
         style="fill:#394d54"
         id="path52"
         d="m 212.65079,808.59379 254.32743,0 c -5.53774,-1.4048 -17.521,-3.3023 -15.54477,-10.5598 -10.06915,11.6518 -34.35274,8.1744 -40.4812,2.4288 -6.82471,9.8983 -46.55451,6.136 -49.32553,-1.5751 -8.55565,10.0408 -35.06718,10.0408 -43.62336,0 -2.77209,7.7111 -42.50135,11.4734 -49.32659,1.5751 -6.12847,5.7456 -30.40991,9.223 -40.48013,-2.4288 1.97623,7.2575 -10.00703,9.155 -15.54585,10.5598"
         inkscape:connector-curvature="0" />
    </g>
  </g>
</svg>
