<?xml version="1.0" encoding="UTF-8" standalone="no"?>
<!-- Created with Inkscape (http://www.inkscape.org/) -->

<svg
   xmlns:dc="http://purl.org/dc/elements/1.1/"
   xmlns:cc="http://creativecommons.org/ns#"
   xmlns:rdf="http://www.w3.org/1999/02/22-rdf-syntax-ns#"
   xmlns:svg="http://www.w3.org/2000/svg"
   xmlns="http://www.w3.org/2000/svg"
   xmlns:sodipodi="http://sodipodi.sourceforge.net/DTD/sodipodi-0.dtd"
   xmlns:inkscape="http://www.inkscape.org/namespaces/inkscape"
   width="750"
   height="100"
   id="svg4155"
   version="1.1"
   inkscape:version="0.48.4 r9939"
   sodipodi:docname="text_logo.svg">
  <defs
     id="defs4157" />
  <sodipodi:namedview
     id="base"
     pagecolor="#ffffff"
     bordercolor="#666666"
     borderopacity="1.0"
     inkscape:pageopacity="0.0"
     inkscape:pageshadow="2"
     inkscape:zoom="0.37362747"
     inkscape:cx="348.4471"
     inkscape:cy="187.94696"
     inkscape:document-units="px"
     inkscape:current-layer="layer1"
     showgrid="false"
     showguides="true"
     inkscape:guide-bbox="true"
     inkscape:window-width="1144"
     inkscape:window-height="781"
     inkscape:window-x="774"
     inkscape:window-y="54"
     inkscape:window-maximized="0" />
  <metadata
     id="metadata4160">
    <rdf:RDF>
      <cc:Work
         rdf:about="">
        <dc:format>image/svg+xml</dc:format>
        <dc:type
           rdf:resource="http://purl.org/dc/dcmitype/StillImage" />
        <dc:title />
      </cc:Work>
    </rdf:RDF>
  </metadata>
  <g
     inkscape:label="Layer 1"
     inkscape:groupmode="layer"
     id="layer1"
     transform="translate(0,-952.3622)">
    <path
       inkscape:connector-curvature="0"
       id="path4610"
       style="font-size:108.83266449px;font-style:normal;font-variant:normal;font-weight:normal;font-stretch:normal;text-align:start;line-height:125%;letter-spacing:7.22430801px;word-spacing:0px;writing-mode:lr-tb;text-anchor:start;fill:#00b8e5;fill-opacity:1;stroke:none;font-family:MicrogrammaDEEBolExt;-inkscape-font-specification:MicrogrammaDEEBolExt"
       d="m 55.386827,993.76613 50.963273,0 c 0.0714,1.75374 0.10707,2.8839 0.10717,3.39049 -10e-5,10.44428 -0.26804,18.51128 -0.80383,24.20098 -0.85752,9.1972 -5.64482,14.7701 -14.361889,16.7186 -4.501569,0.9743 -9.431765,1.5589 -14.790603,1.7537 -5.680513,0.2339 -12.414876,0.3508 -20.203106,0.3508 -13.826035,0 -23.70429,-0.5456 -29.634794,-1.6368 -8.217015,-1.4809 -13.307978,-5.6118 -15.272905,-12.3928 -0.96461,-3.3125 -1.5183632,-7.1122 -1.6612633,-11.3991 -0.178635,-5.3779 -0.26795,-11.1067 -0.267946,-17.18618 -4e-6,-10.28832 0.4465719,-17.51745 1.3397283,-21.68742 1.286133,-5.80661 3.501149,-9.89857 6.645053,-12.27589 1.643388,-1.28596 3.697636,-2.26024 6.162752,-2.92282 2.500805,-0.7014 6.019823,-1.26648 10.557061,-1.69524 6.394935,-0.62346 15.040641,-0.93523 25.937143,-0.93531 14.004561,8e-5 23.918542,0.60413 29.741973,1.81215 5.894711,1.20819 10.038941,3.35159 12.432686,6.43024 2.10773,2.76701 3.39387,7.13176 3.85841,13.09427 0.10708,1.59787 0.16067,4.05305 0.16077,7.36554 l -22.293082,0 c -0.03581,-2.18233 -0.142983,-3.66323 -0.321535,-4.4427 -0.500243,-1.98747 -2.090052,-3.17608 -4.769434,-3.56586 -3.536952,-0.50656 -10.503534,-0.75988 -20.899764,-0.75993 -9.253101,5e-5 -15.665929,0.33131 -19.238502,0.99375 -3.394009,0.66257 -5.448256,2.68907 -6.162751,6.07949 -0.571644,2.57215 -0.857452,7.15124 -0.857426,13.73731 -2.6e-5,7.5604 0.303646,12.7241 0.911015,15.491 0.785947,3.7023 3.215318,5.7677 7.288123,6.1964 2.000625,0.1949 8.03833,0.3702 18.11313,0.5261 11.003574,-0.078 18.095196,-0.3117 21.274888,-0.7015 2.893737,-0.5066 4.554999,-1.89 4.98379,-4.1504 0.250004,-1.4029 0.375046,-3.5463 0.375125,-6.4302 l -29.31326,0 0,-15.95867" />
    <path
       inkscape:connector-curvature="0"
       id="path4612"
       style="font-size:108.83266449px;font-style:normal;font-variant:normal;font-weight:normal;font-stretch:normal;text-align:start;line-height:125%;letter-spacing:7.22430801px;word-spacing:0px;writing-mode:lr-tb;text-anchor:start;fill:#00b8e5;fill-opacity:1;stroke:none;font-family:MicrogrammaDEEBolExt;-inkscape-font-specification:MicrogrammaDEEBolExt"
       d="m 122.63831,959.21827 23.41845,0 0,79.79323 -23.41845,0 0,-79.79323" />
    <path
       inkscape:connector-curvature="0"
       id="path4614"
       style="font-size:108.83266449px;font-style:normal;font-variant:normal;font-weight:normal;font-stretch:normal;text-align:start;line-height:125%;letter-spacing:7.22430801px;word-spacing:0px;writing-mode:lr-tb;text-anchor:start;fill:#00b8e5;fill-opacity:1;stroke:none;font-family:MicrogrammaDEEBolExt;-inkscape-font-specification:MicrogrammaDEEBolExt"
       d="m 161.00525,1012.5892 21.59642,0 c -0.0357,3.9361 0.69664,6.4692 2.19716,7.5993 0.78595,0.5456 1.6791,0.9159 2.67946,1.1107 1.00031,0.1949 2.75088,0.3313 5.25173,0.4092 1.25038,0.039 5.34102,0.078 12.27192,0.1169 9.50309,-0.039 15.0049,-0.097 16.50545,-0.1754 2.82231,-0.2338 4.68005,-0.643 5.57327,-1.2276 1.25035,-0.8573 1.87556,-2.7669 1.87563,-5.7287 -7e-5,-2.0265 -0.39306,-3.4489 -1.17896,-4.2673 -1.07185,-1.1302 -3.62627,-1.7342 -7.66325,-1.8122 -2.7867,0 -8.61004,-0.2338 -17.47006,-0.7015 -9.14591,-0.4676 -15.07644,-0.7404 -17.7916,-0.8184 -7.07378,-0.2338 -12.05756,-1.1301 -14.95137,-2.689 -3.71552,-1.9875 -6.14489,-5.37793 -7.28812,-10.17142 -0.64307,-2.64998 -0.96461,-6.11841 -0.96461,-10.40528 0,-9.04122 1.57195,-15.41298 4.71585,-19.11531 2.35791,-2.80583 5.93052,-4.65696 10.71783,-5.55338 4.32284,-0.77933 14.61194,-1.16904 30.86734,-1.16913 10.57487,9e-5 18.04161,0.33134 22.40026,0.99377 5.75183,0.89641 9.89605,2.45525 12.43268,4.67652 3.42962,3.0788 5.14447,8.59319 5.14456,16.54322 -9e-5,0.85743 -0.0179,2.22141 -0.0536,4.09197 l -21.59642,0 c -0.0715,-1.90953 -0.19656,-3.23454 -0.37513,-3.97505 -0.50023,-2.18232 -2.14362,-3.40991 -4.9302,-3.68276 -2.46516,-0.23377 -8.46713,-0.35068 -18.00594,-0.35075 -9.43173,7e-5 -15.02286,0.29235 -16.77341,0.87685 -1.96496,0.70154 -2.94743,2.5137 -2.9474,5.43647 -3e-5,2.80597 1.03603,4.5207 3.10817,5.14418 1.75055,0.50668 9.62814,0.99381 23.63281,1.46142 12.6827,0.38976 20.77465,0.87689 24.27588,1.46141 3.5368,0.58462 6.3413,1.46146 8.4135,2.63055 2.10775,1.16918 3.78688,2.82544 5.03738,4.96881 1.89338,3.15671 2.84013,8.24241 2.84022,15.25721 -9e-5,7.8332 -0.92897,13.5814 -2.78663,17.2447 -1.85785,3.6243 -4.89456,6.0989 -9.11016,7.424 -4.1443,1.325 -15.55878,1.9875 -34.24346,1.9875 -11.36093,0 -19.56006,-0.3313 -24.59741,-0.9938 -6.14491,-0.7794 -10.55707,-2.2993 -13.23652,-4.5596 -2.89383,-2.4162 -4.60867,-5.8262 -5.14456,-10.2299 -0.28581,-2.1434 -0.42872,-4.6765 -0.42872,-7.5994 l 0,-4.2088" />
    <path
       inkscape:connector-curvature="0"
       id="path4616"
       style="font-size:27.20816612000000134px;font-style:normal;font-weight:normal;line-height:125%;letter-spacing:7.22430800999999967px;word-spacing:0px;fill:#555555;fill-opacity:1;stroke:none;font-family:Sans"
       d="m 315.01756,958.04914 c 15.36215,8e-5 26.00851,0.42877 31.93912,1.28604 8.53844,1.24716 13.77232,5.67037 15.70162,13.26966 1.32177,5.22218 1.98269,14.0686 1.9828,26.5393 -1.1e-4,12.43176 -0.66103,21.25876 -1.9828,26.48086 -1.9293,7.5993 -7.16318,12.0226 -15.70162,13.2696 -5.89488,0.8574 -16.7556,1.2861 -32.58219,1.2861 -15.79098,0 -26.6517,-0.4287 -32.5822,-1.2861 -8.53855,-1.247 -13.77241,-5.6703 -15.70162,-13.2696 -1.32186,-5.2221 -1.9828,-14.0491 -1.98279,-26.48086 -1e-5,-12.50966 0.66093,-21.35609 1.98279,-26.5393 1.92921,-7.59929 7.16307,-12.0225 15.70162,-13.26966 5.96623,-0.85727 17.04131,-1.28596 33.22527,-1.28604 m -1.5005,20.7521 c -11.1823,6e-5 -17.97025,0.33132 -20.36387,0.99376 -2.89384,0.81845 -4.7516,2.66958 -5.57327,5.55338 -0.786,2.84494 -1.17898,8.08654 -1.17896,15.72482 -2e-5,4.9494 0.23219,8.5152 0.69665,10.6976 0.89313,4.053 3.59045,6.3718 8.09197,6.9563 3.32249,0.4677 9.71745,0.7015 19.18491,0.7015 9.46735,0 15.86232,-0.2338 19.18491,-0.7015 4.50141,-0.5845 7.18086,-2.9033 8.03837,-6.9563 0.50009,-2.2214 0.75017,-5.6703 0.75025,-10.3469 -8e-5,-5.72866 -0.14299,-9.80113 -0.42871,-12.21738 -0.50025,-4.01397 -1.64348,-6.68349 -3.42971,-8.00856 -1.60775,-1.24702 -4.98386,-2.00695 -10.12834,-2.27981 -1.85783,-0.0779 -6.80589,-0.11685 -14.8442,-0.11691" />
    <path
       inkscape:connector-curvature="0"
       id="path4618"
       style="font-size:27.20816612000000134px;font-style:normal;font-weight:normal;line-height:125%;letter-spacing:7.22430800999999967px;word-spacing:0px;fill:#555555;fill-opacity:1;stroke:none;font-family:Sans"
       d="m 380.33983,959.21827 22.29308,0 0,36.6523 c 0.10715,8.41783 0.37509,13.73733 0.80384,15.95863 0.71449,3.7802 3.14386,6.0016 7.28812,6.6641 3.78693,0.6235 9.52096,0.9353 17.20211,0.9353 7.93114,0 13.5044,-0.2533 16.71982,-0.76 4.68004,-0.7794 7.28804,-3.7022 7.82402,-8.7684 0.42863,-4.092 0.64298,-8.7685 0.64306,-14.02963 l 0,-36.6523 22.29308,0 0,36.6523 c -0.25018,12.78253 -0.6253,21.14183 -1.12537,25.07793 -0.89325,6.6251 -3.82278,11.5159 -8.78861,14.6726 -3.67988,2.2993 -9.86049,3.7022 -18.54185,4.2088 -4.00139,0.2339 -10.25345,0.3508 -18.75621,0.3508 -12.53989,0 -21.45354,-0.3897 -26.74097,-1.1692 -4.00135,-0.5845 -7.18096,-1.3834 -9.53887,-2.3967 -2.35793,-1.0522 -4.35859,-2.5331 -6.00198,-4.4427 -2.25075,-2.611 -3.69766,-5.8846 -4.34072,-9.8207 -0.71453,-4.4816 -1.08965,-9.8986 -1.12537,-16.2509 l -0.10718,-10.22993 0,-36.6523" />
    <path
       inkscape:connector-curvature="0"
       id="path4620"
       style="font-size:27.20816612000000134px;font-style:normal;font-weight:normal;line-height:125%;letter-spacing:7.22430800999999967px;word-spacing:0px;fill:#555555;fill-opacity:1;stroke:none;font-family:Sans"
       d="m 492.6062,959.21827 23.41845,0 0,79.79323 -23.41845,0 0,-79.79323" />
    <path
       inkscape:connector-curvature="0"
       id="path4622"
       style="font-size:27.20816612000000134px;font-style:normal;font-weight:normal;line-height:125%;letter-spacing:7.22430800999999967px;word-spacing:0px;fill:#555555;fill-opacity:1;stroke:none;font-family:Sans"
       d="m 603.10412,1008.2049 22.29309,0 c 0.1428,3.8971 0.21426,6.5667 0.21435,8.0086 -9e-5,5.8067 -0.83966,10.4637 -2.51868,13.9711 -1.75068,3.6633 -5.09106,6.2159 -10.02118,7.6578 -5.39471,1.5978 -14.71922,2.3967 -27.97353,2.3967 -14.61201,0 -24.45454,-0.2533 -29.52761,-0.7599 -4.71587,-0.4287 -8.43138,-1.1107 -11.14655,-2.046 -2.71519,-0.9353 -4.96593,-2.2993 -6.75223,-4.0919 -2.39365,-2.4162 -3.91201,-5.6119 -4.55508,-9.5869 -0.71452,-4.1699 -1.07178,-12.1979 -1.07178,-24.08415 0,-11.41847 0.26794,-19.11526 0.80384,-23.09037 0.78597,-5.9625 2.91167,-10.28829 6.37711,-12.97737 2.64372,-2.02641 6.85939,-3.46833 12.64704,-4.32578 6.00195,-0.85728 16.77335,-1.28596 32.31425,-1.28605 9.25299,9e-5 15.84444,0.21443 19.77439,0.64302 5.93045,0.62362 10.25331,1.87069 12.96857,3.74123 3.35816,2.29937 5.48386,5.63139 6.37711,9.99608 0.64298,3.11775 0.96451,6.72257 0.96461,10.81447 -10e-5,0.70153 -0.018,2.24089 -0.0535,4.61808 l -22.29309,0 c -0.0715,-1.9485 -0.14297,-3.27352 -0.21435,-3.97506 -0.28588,-2.37717 -1.26835,-3.87756 -2.9474,-4.50115 -2.53663,-0.93525 -9.46748,-1.4029 -20.79259,-1.40296 -7.71688,6e-5 -13.04006,0.23389 -15.96957,0.70148 -3.57264,0.54565 -5.78766,2.66957 -6.64505,6.37177 -0.67882,3.00082 -1.01822,7.83323 -1.01819,14.49724 -3e-5,6.85892 0.33937,11.59392 1.01819,14.20492 0.85739,3.3905 3.21531,5.3586 7.07376,5.9041 3.14387,0.4288 8.66354,0.6431 16.55906,0.6431 8.53847,0 14.36182,-0.1949 17.47005,-0.5846 2.92947,-0.3507 4.78722,-1.5004 5.57327,-3.4489 0.643,-1.6368 1.00025,-4.3063 1.07178,-8.0086" />
    <path
       inkscape:connector-curvature="0"
       id="path4624"
       style="font-size:27.20816612000000134px;font-style:normal;font-weight:normal;line-height:125%;letter-spacing:7.22430800999999967px;word-spacing:0px;fill:#555555;fill-opacity:1;stroke:none;font-family:Sans"
       d="m 640.72083,959.21827 22.29308,0 0,28.93602 12.21832,0 28.93815,-29.46213 34.08268,0 -42.28183,39.69204 45.8723,40.6273 -33.86833,0 -32.74297,-30.5143 -12.21832,0 0,30.5143 -22.29308,0 0,-79.79323" />
    <rect
       style="fill:#555555;fill-opacity:1;stroke:#ffffff;stroke-width:1.83404480999999997;stroke-linejoin:round;stroke-miterlimit:4;stroke-opacity:1;stroke-dasharray:none;stroke-dashoffset:0;display:inline"
       id="rect4121"
       width="16.243031"
       height="66.948769"
       x="-610.1391"
       y="840.20953"
       transform="matrix(0.57705821,-0.81670302,0.79645451,0.60469845,0,0)" />
  </g>
</svg>
