<svg width="512" height="512" viewBox="0 0 120 120" xmlns="http://www.w3.org/2000/svg"><path d="M8.819 60C8.819 31.733 31.732 8.818 60 8.818c28.267 0 51.181 22.915 51.181 51.182 0 28.267-22.915 51.182-51.181 51.182-28.267 0-51.181-22.914-51.181-51.182z" style="fill:#2ad4ff;fill-opacity:1;stroke:#00aad4;stroke-width:10.1375;stroke-linecap:butt;stroke-linejoin:round;stroke-miterlimit:4"/><path fill="#fff" d="M90.25 46.129v27.71a16.234 16.234 0 0 1-16.27 16.27H46.267a16.234 16.234 0 0 1-16.27-16.27V46.13a16.234 16.234 0 0 1 16.27-16.27H73.98a16.234 16.234 0 0 1 16.27 16.27z" style="stroke-width:.95197"/><path d="M83.459 49.252v21.465A12.57 12.57 0 0 1 70.86 83.315H49.406a12.57 12.57 0 0 1-12.597-12.598V49.252a12.57 12.57 0 0 1 12.596-12.596h21.457A12.57 12.57 0 0 1 83.46 49.253Z" style="stroke-width:.95197"/><path d="M66.678 41.359h6.174a3.178 3.178 0 0 1 3.184 3.186v.892a3.178 3.178 0 0 1-3.184 3.183h-6.174a3.178 3.178 0 0 1-3.184-3.183v-.892a3.178 3.178 0 0 1 3.184-3.186z" style="stroke-width:.95197"/><rect style="display:inline;fill:#fff;fill-opacity:1;stroke:none;stroke-width:.936104" width="12.543" height="7.263" x="63.494" y="41.363" ry="3.185" rx="3.185"/><path style="fill:#000;fill-opacity:1;stroke-width:.95197" d="M88.877 20.773c-1.947-.173-3.322 1.22-3.52 3.24v8.339c-.044 1.133-.65 1.975-1.316 2.632l-5.22 4.929 1.752 1.901 5.223-5.074c1.376-1.206 1.986-2.565 2.046-4.387v-8.336c.117-.7.649-.907 1.17-.73l18.522 6.612a53.944 53.944 0 0 0-2.4-3.473l-15.391-5.479a4.264 4.264 0 0 0-.866-.174zm-57.793.005a4.28 4.28 0 0 0-.869.173l-15.39 5.479a53.916 53.916 0 0 0-2.398 3.473l18.52-6.611c.524-.179 1.054.028 1.17.728v8.336c.06 1.824.672 3.182 2.048 4.39l5.22 5.07 1.755-1.9-5.22-4.927c-.666-.658-1.271-1.502-1.316-2.633v-8.338c-.2-2.022-1.574-3.415-3.52-3.24Zm8.32 57.375-5.22 5.072c-1.377 1.207-1.989 2.565-2.047 4.387v8.338c-.118.7-.647.906-1.17.728l-18.521-6.611a53.956 53.956 0 0 0 2.4 3.474l15.387 5.479c2.399.731 4.163-.757 4.389-3.068v-8.338c.045-1.132.652-1.975 1.316-2.632l5.221-4.928zm41.157.07-1.755 1.901 5.22 4.928c.666.658 1.271 1.5 1.316 2.632v8.338c.227 2.312 1.991 3.799 4.389 3.065l15.389-5.476a53.917 53.917 0 0 0 2.398-3.474l-18.52 6.61c-.524.178-1.053-.027-1.17-.726v-8.338c-.06-1.822-.671-3.184-2.047-4.39z"/></svg>